<svg width="76" height="76" viewBox="0 0 76 76" fill="none" xmlns="http://www.w3.org/2000/svg">
<path fill-rule="evenodd" clip-rule="evenodd" d="M37.1114 2.56932C37.2298 2.17123 37.5967 1.89648 38.0129 1.89648C38.4291 1.89648 38.796 2.17123 38.9144 2.56932C38.9144 2.56932 40.5645 8.10013 42.333 14.0323C45.151 23.4834 52.5441 30.8765 61.9951 33.6945C67.9273 35.463 73.4581 37.113 73.4581 37.113C73.8562 37.2315 74.131 37.5983 74.131 38.0145C74.131 38.4307 73.8562 38.7976 73.4581 38.9161C73.4581 38.9161 67.9273 40.5661 61.9951 42.3346C52.5441 45.1526 45.151 52.5457 42.333 61.9967C40.5645 67.9289 38.9144 73.4597 38.9144 73.4597C38.796 73.8578 38.4291 74.1326 38.0129 74.1326C37.5967 74.1326 37.2298 73.8578 37.1114 73.4597C37.1114 73.4597 35.4614 67.9289 33.6929 61.9967C30.8749 52.5457 23.4818 45.1526 14.0307 42.3346C8.09854 40.5661 2.56774 38.9161 2.56774 38.9161C2.16962 38.7976 1.8949 38.4307 1.8949 38.0145C1.8949 37.5983 2.16962 37.2315 2.56774 37.113C2.56774 37.113 8.09854 35.463 14.0307 33.6945C23.4818 30.8765 30.8749 23.4834 33.6929 14.0323C35.4614 8.10013 37.1114 2.56932 37.1114 2.56932Z" fill="#D2393E"/>
</svg>
