<svg width="40" height="40" viewBox="0 0 40 40" fill="none" xmlns="http://www.w3.org/2000/svg">
<g clip-path="url(#clip0_37_166)">
<path d="M39.1417 21.0891L38.8572 20.8687C38.1095 20.2431 37.035 20.1975 36.2368 20.7574L36.2332 16.2242C36.2384 15.729 36.0183 15.2583 35.6349 14.9452C35.2511 14.6324 34.7462 14.5106 34.2621 14.6148C34.1622 13.7876 33.4597 13.1656 32.6261 13.1665H32.6033C31.9916 13.1652 31.4301 13.5031 31.1449 14.0441C30.7139 13.9035 30.2442 13.9478 29.8474 14.1665C29.9919 10.561 30.1033 7.67202 30.1016 6.97671C30.0981 6.06915 29.3624 5.33509 28.4548 5.33314H28.4333C28.3269 5.33249 28.2208 5.3429 28.1166 5.36439V4.75989C28.1267 4.23092 27.877 3.73059 27.4486 3.42004C27.0202 3.10982 26.4668 3.02876 25.9675 3.20324C25.6817 2.66417 25.1198 2.32889 24.5101 2.33312H24.487C23.655 2.32889 22.9518 2.94836 22.8513 3.77421C22.3679 3.66744 21.862 3.78755 21.4779 4.10038C21.0938 4.41288 20.8737 4.88392 20.8802 5.37904L20.877 9.91097C20.0788 9.35107 19.0042 9.39632 18.2562 10.0216L17.972 10.2414C17.7112 10.4432 17.6374 10.8052 17.7978 11.0929L20.5619 16.0503L20.7676 19.4094C20.6921 19.4224 20.6172 19.4407 20.5439 19.4641C20.2594 18.9228 19.6979 18.5836 19.0859 18.5832H19.0628C18.2288 18.5839 17.5267 19.2073 17.4274 20.0354C16.9437 19.9377 16.4417 20.0624 16.0599 20.3749C15.6777 20.6874 15.4563 21.1549 15.456 21.6484L15.4528 26.1816C15.2828 26.0628 15.0963 25.9694 14.8994 25.9043L15.6305 13.7255L18.3945 8.76838C18.555 8.4803 18.4811 8.11831 18.2204 7.91649L17.9359 7.69611C17.1881 7.07078 16.1136 7.02521 15.3154 7.58511L15.3121 3.05187C15.3213 2.55545 15.1019 2.08246 14.7171 1.76899C14.3323 1.45551 13.8248 1.33604 13.3408 1.44542C13.2405 0.618587 12.5377 -0.00251132 11.705 -0.000232655H11.6819C11.0709 -0.00251132 10.509 0.334405 10.2236 0.874774C10.0543 0.821062 9.87753 0.793393 9.6998 0.792416C8.78735 0.790138 8.04386 1.52322 8.03312 2.43533V3.0395C7.94392 3.01509 7.8518 3.00174 7.75903 2.99979H7.73722C6.82933 3.0037 6.09398 3.73905 6.09039 4.64726C6.08877 5.42591 6.22842 8.95589 6.39801 13.1652C6.35928 13.1623 6.32054 13.1665 6.28115 13.1665H6.25804C5.64671 13.1652 5.08485 13.5034 4.7997 14.0441C4.6314 13.9911 4.45594 13.9641 4.27918 13.9634C3.36739 13.9621 2.6252 14.6965 2.61641 15.6083V16.2124C2.52494 16.1858 2.43054 16.1705 2.33516 16.1665H2.31335C1.40449 16.1714 0.669783 16.9078 0.666528 17.8166C0.664249 18.6451 0.822779 22.5859 1.00637 27.1448C1.21015 32.2018 1.44095 37.9278 1.44225 39.3389C1.44258 39.5154 1.51321 39.684 1.63854 39.808C1.76354 39.932 1.93281 40.001 2.10892 39.9997H35.1202C35.4711 40.003 35.7635 39.7315 35.7856 39.3812L36.5512 26.8942L39.3156 21.9387C39.4761 21.6513 39.4018 21.29 39.1417 21.0891ZM19.2454 10.951C19.5788 10.7674 19.9948 10.8394 20.2474 11.1242L21.0417 12.0269C21.2249 12.2349 21.5179 12.3078 21.7774 12.2101C22.0368 12.1122 22.2087 11.8641 22.2087 11.5868L22.2136 5.37708C22.2129 5.20716 22.348 5.06784 22.5179 5.06263C22.6875 5.05775 22.8308 5.18893 22.8402 5.35853V7.33739C22.8402 8.77685 22.8408 10.0435 22.8402 10.1662C22.8395 10.3426 22.9092 10.5122 23.0339 10.6375C23.1586 10.7625 23.3278 10.8329 23.5046 10.8329H23.5069C23.8737 10.8338 24.1722 10.5373 24.1735 10.1704C24.1735 10.0477 24.1735 8.77783 24.1735 7.33543C24.1735 6.86277 24.1862 6.37221 24.1862 5.89694C24.1862 5.88881 24.1996 5.88034 24.1996 5.87188V3.9552C24.195 3.87772 24.2237 3.80155 24.2787 3.74654C24.3334 3.6912 24.4092 3.66223 24.487 3.66646H24.5101C24.5866 3.66288 24.6608 3.69283 24.7133 3.74882C24.766 3.80448 24.7914 3.88033 24.7832 3.9565V10.1704C24.7832 10.5386 25.0817 10.8371 25.4499 10.8371C25.8181 10.8371 26.1166 10.5386 26.1166 10.1704V4.75989C26.1276 4.58411 26.2738 4.44706 26.4499 4.44706C26.6264 4.44706 26.7722 4.58411 26.7833 4.75989V10.1704C26.7833 10.5386 27.0818 10.8371 27.4499 10.8371C27.8181 10.8371 28.1166 10.5386 28.1166 10.1704V6.98094C28.1182 6.80711 28.2595 6.66681 28.4333 6.66648H28.4551C28.628 6.66713 28.768 6.80678 28.7686 6.97964C28.7706 7.77652 28.6062 11.8648 28.4314 16.1994C27.6205 16.3137 27.016 17.0054 27.0118 17.8244C27.0098 18.6532 27.1683 22.5829 27.3519 27.1419C27.5316 31.6055 27.7325 36.5837 27.7784 38.667H23.9131C23.9623 36.917 24.1618 33.3154 24.3409 30.1234C24.5228 26.8753 24.68 24.0621 24.6778 23.234C24.6748 22.3248 23.9398 21.5881 23.0309 21.5833H23.0091C22.9043 21.5894 22.8005 21.607 22.6999 21.6363V21.0321C22.6989 20.5549 22.4906 20.1018 22.1292 19.7903L21.8848 15.8169C21.8786 15.7173 21.8499 15.6203 21.8014 15.5331L19.2454 10.951ZM7.73722 4.33313H7.75903C7.93188 4.33313 8.03312 4.48352 8.03312 4.6567V7.84585C8.03312 8.21434 8.33162 8.51252 8.69979 8.51252C9.06796 8.51252 9.36646 8.21434 9.36646 7.84585V2.43533C9.37753 2.25955 9.52369 2.1225 9.6998 2.1225C9.87623 2.1225 10.0221 2.25955 10.0331 2.43533V7.84585C10.0331 8.21434 10.3316 8.51252 10.6998 8.51252C11.068 8.51252 11.3665 8.21434 11.3665 7.84585V1.63194C11.3678 1.55023 11.402 1.47243 11.4612 1.41612C11.5208 1.3598 11.6002 1.32985 11.6819 1.33311H11.705C11.8782 1.3253 12.0247 1.45876 12.0331 1.63161V3.5483C12.0331 3.55676 12.0257 3.5649 12.026 3.57336C12.026 4.0483 12.0221 4.54016 12.0221 5.0125C12.0221 6.45489 12.0195 7.71955 12.0198 7.84227C12.0205 8.01773 12.0908 8.1857 12.2154 8.30907C12.3404 8.43244 12.5091 8.50113 12.6845 8.49983H12.6871C12.8632 8.5008 13.0325 8.43147 13.1575 8.30712C13.2822 8.18244 13.3518 8.0135 13.3512 7.83706C13.3509 7.71467 13.3512 6.44903 13.3512 5.00957C13.3512 4.35462 13.3512 3.66613 13.3512 3.03234C13.3616 2.86307 13.5048 2.73286 13.6744 2.73807C13.8437 2.74328 13.9785 2.8826 13.9781 3.0522L13.9827 9.2622C13.9827 9.53955 14.1546 9.7876 14.414 9.88558C14.6738 9.98356 14.9668 9.91032 15.1497 9.70231L15.944 8.79963C16.1966 8.5148 16.6129 8.44286 16.9463 8.62646L14.3916 13.2088C14.3427 13.2964 14.3141 13.3937 14.3082 13.4937L13.5644 25.8916C13.2962 25.9755 13.0472 26.1119 12.8323 26.2929L12.5478 26.513C12.2871 26.7151 12.2132 27.0771 12.3736 27.3649L15.1458 32.3291L15.8268 38.6667H9.48397L10.2063 26.8909L12.9703 21.9371C13.1311 21.6497 13.0569 21.288 12.7962 21.0872L12.5117 20.8678C11.7639 20.2424 10.6894 20.1969 9.89153 20.7571L9.88795 16.2235C9.8873 15.7303 9.66562 15.2632 9.28378 14.9507C8.90194 14.6385 8.40031 14.5135 7.91658 14.6105C7.89542 14.4354 7.84594 14.2645 7.77009 14.105L7.76424 13.9618C7.58813 9.58838 7.42146 5.45326 7.42341 4.65052C7.42406 4.47669 7.56371 4.33541 7.73722 4.33313ZM7.40323 38.6667H2.76648C2.72221 36.5834 2.52754 31.7816 2.33874 27.0882C2.16361 22.7337 1.99792 18.6164 1.99987 17.8166C2.0002 17.6431 2.13985 17.5022 2.31302 17.4999H2.33516C2.50801 17.4999 2.61641 17.6561 2.61641 17.829V21.0185C2.61641 21.3866 2.91492 21.6851 3.28308 21.6851C3.65125 21.6851 3.94975 21.3866 3.94975 21.0185V15.6083C3.96082 15.4322 4.10698 15.2955 4.28309 15.2955C4.45952 15.2955 4.60536 15.4322 4.61643 15.6083V21.0188C4.61643 21.387 4.91493 21.6855 5.2831 21.6855C5.65126 21.6855 5.94977 21.387 5.94977 21.0188V14.8046C5.94912 14.7229 5.98135 14.6444 6.03961 14.5871C6.09756 14.5295 6.17633 14.4982 6.25804 14.4999H6.28115C6.45661 14.4943 6.60505 14.6291 6.61644 14.8042V16.7209C6.61644 16.7287 6.60537 16.7362 6.6057 16.7437C6.6057 17.1841 6.59984 17.6382 6.59984 18.079C6.59984 19.5898 6.59626 20.8853 6.59691 21.0123C6.59756 21.1874 6.66787 21.3547 6.79255 21.4778C6.91722 21.6005 7.08552 21.6685 7.26065 21.6666H7.26358C7.43936 21.6682 7.60864 21.5995 7.73331 21.4755C7.85799 21.3515 7.92797 21.1825 7.92732 21.0068C7.92732 20.8824 7.92732 19.5207 7.92732 18.0741C7.92732 17.452 7.92732 16.8049 7.92732 16.2056C7.93774 16.0363 8.08064 15.9061 8.24992 15.9113C8.41919 15.9162 8.55395 16.0552 8.55428 16.2245L8.55884 22.4345C8.55884 22.7118 8.73071 22.9602 8.99016 23.0582C9.2496 23.1559 9.54257 23.0829 9.72584 22.8746L10.5201 21.9723C10.7727 21.6874 11.1887 21.6155 11.5224 21.7988L8.96737 26.3815C8.91854 26.4661 8.89022 26.5608 8.88404 26.6582L8.14835 38.6667H7.40323ZM17.1679 38.6667L16.457 32.0518C16.4476 31.9635 16.4199 31.8786 16.3763 31.8018L13.8212 27.221C14.1549 27.0377 14.5712 27.11 14.8235 27.3951L15.6178 28.2981C15.8008 28.5062 16.0937 28.5794 16.3532 28.4817C16.6126 28.3841 16.7845 28.1357 16.7848 27.8587L16.7894 21.649C16.7897 21.4794 16.9245 21.3411 17.0937 21.3359C17.2633 21.331 17.4059 21.4612 17.4163 21.6305V23.609C17.4163 25.0488 17.417 26.3043 17.4163 26.427C17.416 26.6025 17.486 26.7708 17.611 26.8942C17.7357 27.0175 17.9049 27.0856 18.0804 27.0833H18.083C18.2581 27.0859 18.4271 27.0188 18.5521 26.8964C18.6774 26.774 18.7484 26.6067 18.7497 26.4319C18.7497 26.3092 18.7497 25.0445 18.7497 23.6025C18.7497 23.1295 18.7659 22.6415 18.7659 22.1666C18.7659 22.1581 18.7825 22.1529 18.7825 22.1445V20.2278C18.7825 20.0553 18.8893 19.9163 19.0622 19.9163H19.0853C19.2581 19.9163 19.3659 20.0553 19.3659 20.2281V26.442C19.3659 26.8102 19.6644 27.1087 20.0326 27.1087C20.4007 27.1087 20.6992 26.8102 20.6992 26.442V21.0321C20.7103 20.856 20.8561 20.719 21.0326 20.719C21.2087 20.719 21.3548 20.856 21.3659 21.0321V26.4427C21.3659 26.8108 21.6644 27.1093 22.0326 27.1093C22.4007 27.1093 22.6992 26.8108 22.6992 26.4427V23.2532C22.6957 23.0761 22.8324 22.9277 23.0091 22.9166H23.0309C23.2058 22.9221 23.3444 23.0657 23.3441 23.2405C23.3464 24.0299 23.1826 26.9498 23.0091 30.043C22.8291 33.2585 22.628 36.8334 22.5794 38.6667H17.1679ZM35.3129 26.3815C35.2641 26.4661 35.2358 26.5608 35.2296 26.6582L34.4933 38.6667H29.1117C29.0674 36.5834 28.8728 31.7816 28.684 27.0882C28.5082 22.7337 28.3432 18.6164 28.3448 17.8166C28.3454 17.6431 28.4848 17.5022 28.6583 17.4999H28.6801C28.864 17.5044 29.016 17.6457 29.0333 17.829V21.0185C29.0333 21.3866 29.3318 21.6851 29.6999 21.6851C30.0681 21.6851 30.3666 21.3866 30.3666 21.0185V15.6083C30.3588 15.4989 30.4125 15.3947 30.5059 15.3378C30.5997 15.2805 30.7169 15.2805 30.8106 15.3378C30.9041 15.3947 30.9578 15.4989 30.9499 15.6083V21.0188C30.9499 21.387 31.2485 21.6855 31.6166 21.6855C31.9848 21.6855 32.2833 21.387 32.2833 21.0188V14.8046C32.2852 14.7216 32.3201 14.6431 32.38 14.5858C32.4402 14.5288 32.5203 14.4979 32.6033 14.4999H32.6261C32.7996 14.4953 32.9441 14.6311 32.95 14.8042V16.7209C32.95 16.7294 32.9448 16.7375 32.9451 16.746C32.9451 17.2209 32.9422 17.7128 32.9422 18.1851C32.9422 19.6269 32.9402 20.8892 32.9405 21.0116C32.9412 21.1871 33.0118 21.3547 33.1368 21.4778C33.2615 21.6008 33.4304 21.6689 33.6056 21.6669H33.6082C33.784 21.6682 33.9532 21.5995 34.0782 21.4755C34.2029 21.3515 34.2729 21.1829 34.2726 21.0071C34.2719 20.8844 34.2726 19.6204 34.2726 18.1809C34.2726 17.5259 34.2726 16.8381 34.2726 16.2046C34.2827 16.035 34.4259 15.9045 34.5955 15.91C34.7651 15.9156 34.8998 16.0549 34.8992 16.2248L34.9038 22.4348C34.9041 22.7122 35.0756 22.9605 35.3354 23.0582C35.5948 23.1562 35.8878 23.0829 36.0711 22.8749L36.865 21.9723C37.1176 21.6874 37.534 21.6155 37.8673 21.7991L35.3129 26.3815Z" fill="#D2393E"/>
</g>
<defs>
<clipPath id="clip0_37_166">
<rect width="40" height="40" fill="white"/>
</clipPath>
</defs>
</svg>
