<svg width="40" height="40" viewBox="0 0 40 40" fill="none" xmlns="http://www.w3.org/2000/svg">
<g clip-path="url(#clip0_84_314)">
<path d="M37.6012 10.6048H10.9029L16.9284 1.81986C17.1394 1.51263 17.0622 1.09234 16.756 0.88005C16.4494 0.667431 16.0288 0.742919 15.8152 1.0485L9.76925 9.8519L7.3754 4.04065C7.23365 3.69585 6.83907 3.53136 6.49393 3.67343C6.14847 3.81979 5.98464 4.21668 6.12671 4.56412L8.61188 10.6048H2.3988C1.09573 10.6048 0 11.6455 0 12.9485V36.8278C0.016482 38.1434 1.0832 39.2035 2.3988 39.2124H37.6012C38.9168 39.2035 39.9835 38.1434 40 36.8278V12.9485C40 11.6455 38.9043 10.6048 37.6012 10.6048ZM38.5654 36.8495C38.5654 37.4086 38.1121 37.8622 37.5527 37.8622H2.36287C1.80347 37.8622 1.35021 37.4086 1.35021 36.8495V12.9677C1.35021 12.4083 1.80347 11.955 2.36287 11.955H37.5527C38.1121 11.955 38.5654 12.4083 38.5654 12.9677V36.8495Z" fill="white"/>
<path d="M30.6329 14.6556C30.6329 14.2827 30.3307 13.9805 29.9578 13.9805H4.05065C3.67783 13.9805 3.37555 14.2827 3.37555 14.6556V35.1619C3.37555 35.5347 3.67783 35.837 4.05065 35.837H29.9578C30.3307 35.837 30.6329 35.5347 30.6329 35.1619V14.6556ZM29.3671 34.4868H4.72576V15.3307H29.3671V34.4868Z" fill="white"/>
<path d="M34.6835 17.241C33.2565 17.241 32.0995 18.3977 32.0995 19.825C32.0995 21.252 33.2565 22.4088 34.6835 22.4088C36.1106 22.4088 37.2676 21.252 37.2676 19.825C37.266 18.3983 36.1099 17.2426 34.6835 17.241ZM34.6835 21.0585C34.0022 21.0585 33.4497 20.5064 33.4497 19.825C33.4497 19.1437 34.0022 18.5912 34.6835 18.5912C35.3649 18.5912 35.9174 19.1437 35.9174 19.825C35.9164 20.5061 35.3646 21.0579 34.6835 21.0585Z" fill="white"/>
<path d="M35.9494 26.47H33.4177C33.0449 26.47 32.7426 26.7723 32.7426 27.1451C32.7426 27.5179 33.0449 27.8202 33.4177 27.8202H35.9494C36.3222 27.8202 36.6245 27.5179 36.6245 27.1451C36.6245 26.7723 36.3222 26.47 35.9494 26.47Z" fill="white"/>
<path d="M35.9494 29.0015H33.4177C33.0449 29.0015 32.7426 29.3037 32.7426 29.6766C32.7426 30.0494 33.0449 30.3517 33.4177 30.3517H35.9494C36.3222 30.3517 36.6245 30.0494 36.6245 29.6766C36.6245 29.3037 36.3222 29.0015 35.9494 29.0015Z" fill="white"/>
<path d="M35.9494 31.5332H33.4177C33.0449 31.5332 32.7426 31.8355 32.7426 32.2083C32.7426 32.5811 33.0449 32.8834 33.4177 32.8834H35.9494C36.3222 32.8834 36.6245 32.5811 36.6245 32.2083C36.6245 31.8355 36.3222 31.5332 35.9494 31.5332Z" fill="white"/>
<path d="M8.11806 27.9888C8.21102 28.2842 8.59077 28.4276 8.97875 28.4276C9.36707 28.4276 9.74682 28.2842 9.83978 27.9888L11.4092 22.8412C11.4181 22.8108 11.424 22.7799 11.426 22.7482C11.426 22.436 10.9451 22.2083 10.5821 22.2083C10.3712 22.2083 10.2024 22.2758 10.1519 22.4528L8.97875 26.782L7.79732 22.4528C7.74688 22.2758 7.57811 22.2083 7.36714 22.2083C7.0042 22.2083 6.52325 22.436 6.52325 22.7482C6.52523 22.7799 6.53117 22.8108 6.54007 22.8412L8.11806 27.9888Z" fill="white"/>
<path d="M14.7214 28.4276C15.8861 28.4276 16.7932 27.8876 16.7932 26.4359V24.1996C16.7932 22.7482 15.8861 22.2083 14.7214 22.2083C13.5568 22.2083 12.6582 22.7482 12.6582 24.1996V26.4359C12.6582 27.8876 13.5568 28.4276 14.7214 28.4276ZM14.0084 24.1996C14.0084 23.6175 14.2912 23.3557 14.7636 23.3557C15.2363 23.3557 15.5274 23.6175 15.5274 24.1996V26.4359C15.5274 27.0184 15.2363 27.2798 14.7636 27.2798C14.2912 27.2798 14.0084 27.0184 14.0084 26.4359V24.1996Z" fill="white"/>
<path d="M18.4388 23.4318H19.578V27.972C19.578 28.242 19.9242 28.3768 20.2531 28.3768C20.5821 28.3768 20.9282 28.242 20.9282 27.972V23.4318H22.0843C22.3375 23.4318 22.4809 23.1111 22.4809 22.7904C22.4809 22.5118 22.3628 22.166 22.0843 22.166H18.4388C18.1602 22.166 18.0422 22.5118 18.0422 22.7904C18.0422 23.1111 18.1856 23.4318 18.4388 23.4318Z" fill="white"/>
<path d="M24.4218 28.4107H27.4261C27.7047 28.4107 27.8227 28.0986 27.8227 27.8283C27.8227 27.5161 27.6793 27.2293 27.4261 27.2293H25.1477V25.7947H26.4303C26.7088 25.7947 26.8269 25.5247 26.8269 25.2966C26.8269 25.0266 26.6835 24.782 26.4303 24.782H25.1477V23.3475H27.4261C27.6793 23.3475 27.8227 23.0603 27.8227 22.7482C27.8227 22.4782 27.7047 22.166 27.4261 22.166H24.4218C24.135 22.166 23.8818 22.343 23.8818 22.6133V27.972C23.8818 28.242 24.135 28.4107 24.4218 28.4107Z" fill="white"/>
</g>
<defs>
<clipPath id="clip0_84_314">
<rect width="40" height="40" fill="white"/>
</clipPath>
</defs>
</svg>
