<svg width="40" height="40" viewBox="0 0 40 40" fill="none" xmlns="http://www.w3.org/2000/svg">
<g clip-path="url(#clip0_84_332)">
<path d="M20.0711 5.64111C12.1536 5.64111 5.71198 12.0828 5.71198 20.0003C5.71198 27.9175 12.1536 34.3595 20.0711 34.3595C27.9887 34.3595 34.4303 27.9175 34.4303 20.0003C34.4303 12.0828 27.9887 5.64111 20.0711 5.64111ZM20.0711 32.9914C12.9078 32.9914 7.07999 27.1637 7.07999 20.0003C7.07999 12.8369 12.9078 7.00913 20.0711 7.00913C27.2345 7.00913 33.0623 12.8369 33.0623 20.0003C33.0623 27.1637 27.2345 32.9914 20.0711 32.9914Z" fill="white"/>
<path d="M37.6586 15.6237C37.5381 15.44 37.4793 15.2222 37.491 15.0028L37.693 11.3272C37.7455 10.3777 37.2308 9.48728 36.3821 9.05877L33.1161 7.40854C32.9203 7.31001 32.7614 7.15103 32.6628 6.95531L31.0126 3.68924C30.5841 2.84024 29.6937 2.3259 28.7442 2.37833L25.0686 2.5804C24.8488 2.59209 24.6314 2.5333 24.4474 2.4124L21.3887 0.395777C20.5895 -0.131926 19.5524 -0.131926 18.7532 0.395777L15.6949 2.41273C15.5109 2.5333 15.2931 2.59209 15.0737 2.5804L11.3981 2.37833C10.4486 2.32623 9.55851 2.84091 9.12967 3.68924L7.47943 6.95565C7.3809 7.15136 7.22226 7.31034 7.02621 7.40854L3.76013 9.05877C2.91147 9.48761 2.39712 10.3777 2.44923 11.3272L2.65162 15.0024C2.66331 15.2222 2.60453 15.44 2.48396 15.6237L0.466669 18.6823C-0.0610332 19.4816 -0.0610332 20.5186 0.466669 21.3178L2.48363 24.3765C2.6042 24.5605 2.66298 24.7779 2.65129 24.9977L2.44923 28.6733C2.39712 29.6225 2.9118 30.5129 3.76046 30.9417L7.02654 32.5919C7.22226 32.6901 7.38124 32.8491 7.47976 33.0448L9.12967 36.3112C9.55851 37.1599 10.4486 37.6743 11.3981 37.6218L15.0737 37.4198C15.2931 37.4081 15.5109 37.4668 15.6949 37.5874L18.7532 39.604C19.5524 40.1321 20.5895 40.1321 21.3887 39.604L24.4474 37.5877C24.6311 37.4668 24.8488 37.4077 25.0686 37.4198L28.7442 37.6222C29.6937 37.6749 30.5844 37.1602 31.0126 36.3112L32.6628 33.0448C32.761 32.8491 32.92 32.6901 33.1161 32.5919L36.3821 30.9417C37.2308 30.5129 37.7451 29.6225 37.693 28.6733L37.4906 24.9977C37.479 24.7779 37.5377 24.5605 37.6583 24.3765L39.6749 21.3178C40.203 20.5186 40.203 19.4816 39.6749 18.6823L37.6586 15.6237ZM38.5334 20.565L36.5167 23.6234C36.2352 24.0525 36.0979 24.5602 36.125 25.0729L36.327 28.7484C36.3497 29.1552 36.129 29.537 35.7653 29.7206L32.4992 31.3709C32.0423 31.6003 31.6712 31.9711 31.4418 32.4283L29.7915 35.6944C29.6082 36.0584 29.2264 36.2788 28.8193 36.2561L25.1438 36.0537C24.6314 36.0264 24.1234 36.1636 23.6946 36.4455L20.6359 38.4621C20.2932 38.6882 19.849 38.6882 19.5064 38.4621L16.4477 36.4452C16.0553 36.188 15.5967 36.0507 15.1274 36.0501C15.0843 36.0501 15.0413 36.0514 14.9985 36.0537L11.323 36.2558C10.9162 36.2785 10.5344 36.0577 10.3507 35.6944L8.70049 32.428C8.47071 31.9711 8.09998 31.6003 7.64308 31.3706L4.37701 29.7206C4.01329 29.5366 3.79286 29.1552 3.81524 28.7484L4.0173 25.0729C4.04436 24.5602 3.90709 24.0525 3.62553 23.6234L1.60891 20.565C1.3828 20.2223 1.3828 19.7778 1.60891 19.4355L3.62553 16.3768C3.90709 15.9476 4.04436 15.44 4.0173 14.9273L3.8149 11.2521C3.79253 10.8449 4.01296 10.4635 4.37667 10.2798L7.64308 8.6296C8.09998 8.39981 8.47071 8.02909 8.70049 7.57219L10.3507 4.30612C10.5344 3.9424 10.9158 3.72197 11.323 3.74435L14.9982 3.94641C15.5109 3.97346 16.0185 3.83619 16.4477 3.55464L19.5067 1.53802C19.8494 1.31191 20.2939 1.31191 20.6362 1.53802L23.6949 3.55464C24.1241 3.83619 24.6317 3.97346 25.1441 3.94641L28.8196 3.74401C29.2268 3.7213 29.6085 3.94207 29.7919 4.30578L31.4421 7.57186C31.6719 8.02909 32.0426 8.39981 32.4995 8.62926L35.7659 10.2795C36.1296 10.4632 36.3501 10.8449 36.3274 11.2517L36.1253 14.9273C36.0982 15.44 36.2355 15.9476 36.5171 16.3768L38.5337 19.4351C38.7598 19.7778 38.7598 20.2223 38.5334 20.565Z" fill="white"/>
<path d="M13.3934 16.8494C13.1796 16.8494 13.0086 16.9175 12.9575 17.0972L11.7689 21.4835L10.5718 17.0972C10.5207 16.9175 10.3497 16.8494 10.136 16.8494C9.76826 16.8494 9.28098 17.0802 9.28098 17.3964C9.28298 17.4282 9.28899 17.4599 9.29801 17.4906L10.8968 22.7062C10.991 23.0054 11.3758 23.1507 11.7689 23.1507C12.1623 23.1507 12.5471 23.0054 12.6412 22.7062L14.2314 17.4906C14.2404 17.4599 14.2464 17.4282 14.2484 17.3964C14.2484 17.0802 13.7611 16.8494 13.3934 16.8494Z" fill="white"/>
<path d="M17.63 16.8494C16.45 16.8494 15.5396 17.3964 15.5396 18.867V21.1328C15.5396 22.6033 16.45 23.1507 17.63 23.1507C18.81 23.1507 19.7291 22.6033 19.7291 21.1328V18.867C19.7291 17.3964 18.81 16.8494 17.63 16.8494ZM18.3611 21.1328C18.3611 21.7229 18.0662 21.9878 17.5873 21.9878C17.1087 21.9878 16.8221 21.7229 16.8221 21.1328V18.867C16.8221 18.2772 17.1083 18.012 17.5873 18.012C18.0662 18.012 18.3611 18.2772 18.3611 18.867V21.1328Z" fill="white"/>
<path d="M25.0472 16.8367H21.3537C21.0714 16.8367 20.9519 17.1443 20.9519 17.4265C20.9519 17.7515 21.0972 18.0337 21.3537 18.0337H22.5507V22.6892C22.5507 22.963 22.8586 23.0996 23.1919 23.0996C23.5253 23.0996 23.8332 22.963 23.8332 22.6892V18.0337H25.0472C25.3037 18.0337 25.449 17.7515 25.449 17.4265C25.449 17.1443 25.3295 16.8367 25.0472 16.8367Z" fill="white"/>
<path d="M26.8257 17.2595V22.6888C26.8257 22.9627 27.125 23.0779 27.4155 23.0779H30.4595C30.7417 23.0779 30.8613 22.804 30.8613 22.5305C30.8613 22.2142 30.716 21.9664 30.4595 21.9664H28.1937V20.5132H29.4505C29.7328 20.5132 29.8523 20.2397 29.8523 20.0086C29.8523 19.735 29.707 19.4872 29.4505 19.4872H28.1937V18.0337H30.4595C30.716 18.0337 30.8613 17.7428 30.8613 17.4265C30.8613 17.153 30.7417 16.8367 30.4595 16.8367H27.4155C27.125 16.8367 26.8257 16.986 26.8257 17.2595Z" fill="white"/>
</g>
<defs>
<clipPath id="clip0_84_332">
<rect width="40" height="40" fill="white"/>
</clipPath>
</defs>
</svg>
