<svg width="60" height="60" viewBox="0 0 60 60" fill="none" xmlns="http://www.w3.org/2000/svg">
<g clip-path="url(#clip0_494_23)">
<path d="M8.22283 60H51.7809C52.3572 60 52.828 59.4681 52.828 58.8913V11.6673C52.828 11.3794 52.7092 11.087 52.5207 10.9565H52.5197L41.9596 0.383662V0.344429C41.768 0.137568 41.5031 0.0137568 41.2213 0H8.22283C7.64657 0 7.17578 0.531929 7.17578 1.10819V58.8918C7.17578 59.4681 7.64657 60 8.22283 60ZM42.2627 3.62721L49.2614 10.5652H42.2627V3.62721ZM9.26274 2.08696H40.1758V11.6673C40.1758 12.2441 40.6455 12.6522 41.2213 12.6522H50.741V57.913H9.26274V2.08696Z" fill="#D2393E"/>
<path d="M19.0181 27.4636L17.9114 28.5702L16.8048 27.4636C16.3971 27.056 15.7368 27.056 15.3292 27.4636C14.9216 27.8712 14.9216 28.5315 15.3287 28.9391L16.4359 30.0463L15.4214 31.0607C15.155 31.3236 15.05 31.7093 15.1463 32.0711C15.2421 32.4328 15.5249 32.7151 15.8866 32.8114C16.2484 32.9077 16.6341 32.8027 16.897 32.5363L17.9114 31.5218L18.9258 32.5363C19.1893 32.8027 19.5745 32.9077 19.9362 32.8114C20.298 32.7151 20.5807 32.4328 20.677 32.0711C20.7728 31.7093 20.6679 31.3236 20.4019 31.0607L19.3875 30.0463L20.4941 28.9391C20.7601 28.6762 20.865 28.2905 20.7693 27.9288C20.673 27.567 20.3902 27.2847 20.0284 27.1884C19.6667 27.0921 19.2815 27.1971 19.0181 27.4636Z" fill="#D2393E"/>
<path d="M25.8247 29.4786H34.8247C35.401 29.4786 35.8682 29.0113 35.8682 28.4351C35.8682 27.8588 35.401 27.3916 34.8247 27.3916H25.8247C25.2485 27.3916 24.7812 27.8588 24.7812 28.4351C24.7812 29.0113 25.2485 29.4786 25.8247 29.4786Z" fill="#D2393E"/>
<path d="M43.9552 30.5215H25.8247C25.2485 30.5215 24.7812 30.9887 24.7812 31.565C24.7812 32.1412 25.2485 32.6084 25.8247 32.6084H43.9552C44.5314 32.6084 44.9986 32.1412 44.9986 31.565C44.9986 30.9887 44.5314 30.5215 43.9552 30.5215Z" fill="#D2393E"/>
<path d="M19.0181 18.3337L17.9114 19.4404L16.8048 18.3337C16.3971 17.9261 15.7368 17.9261 15.3292 18.3337C14.9216 18.7413 14.9216 19.4016 15.3287 19.8092L16.4359 20.9164L15.4214 21.9308C15.155 22.1938 15.05 22.5794 15.1463 22.9412C15.2421 23.303 15.5249 23.5852 15.8866 23.6815C16.2484 23.7778 16.6341 23.6729 16.897 23.4064L17.9114 22.3919L18.9258 23.4064C19.1893 23.6729 19.5745 23.7778 19.9362 23.6815C20.298 23.5852 20.5807 23.303 20.677 22.9412C20.7728 22.5794 20.6679 22.1938 20.4019 21.9308L19.3875 20.9164L20.4941 19.8092C20.7601 19.5463 20.865 19.1606 20.7693 18.7989C20.673 18.4371 20.3902 18.1549 20.0284 18.0586C19.6667 17.9623 19.2815 18.0672 19.0181 18.3337Z" fill="#D2393E"/>
<path d="M25.8247 20.3477H34.8247C35.401 20.3477 35.8682 19.8805 35.8682 19.3042C35.8682 18.728 35.401 18.2607 34.8247 18.2607H25.8247C25.2485 18.2607 24.7812 18.728 24.7812 19.3042C24.7812 19.8805 25.2485 20.3477 25.8247 20.3477Z" fill="#D2393E"/>
<path d="M43.9552 21.3916H25.8247C25.2485 21.3916 24.7812 21.8588 24.7812 22.4351C24.7812 23.0113 25.2485 23.4786 25.8247 23.4786H43.9552C44.5314 23.4786 44.9986 23.0113 44.9986 22.4351C44.9986 21.8588 44.5314 21.3916 43.9552 21.3916Z" fill="#D2393E"/>
<path d="M19.0181 36.5944L17.9114 37.7011L16.8048 36.5944C16.3971 36.1868 15.7368 36.1868 15.3292 36.5944C14.9216 37.002 14.9216 37.6624 15.3287 38.07L16.4359 39.1771L15.4214 40.1916C15.155 40.4545 15.05 40.8402 15.1463 41.2019C15.2421 41.5637 15.5249 41.846 15.8866 41.9423C16.2484 42.0386 16.6341 41.9336 16.897 41.6671L17.9114 40.6527L18.9258 41.6671C19.1893 41.9336 19.5745 42.0386 19.9362 41.9423C20.298 41.846 20.5807 41.5637 20.677 41.2019C20.7728 40.8402 20.6679 40.4545 20.4019 40.1916L19.3875 39.1771L20.4941 38.07C20.7601 37.8071 20.865 37.4214 20.7693 37.0596C20.673 36.6979 20.3902 36.4156 20.0284 36.3193C19.6667 36.223 19.2815 36.328 19.0181 36.5944Z" fill="#D2393E"/>
<path d="M25.8247 38.6084H34.8247C35.401 38.6084 35.8682 38.1412 35.8682 37.565C35.8682 36.9887 35.401 36.5215 34.8247 36.5215H25.8247C25.2485 36.5215 24.7812 36.9887 24.7812 37.565C24.7812 38.1412 25.2485 38.6084 25.8247 38.6084Z" fill="#D2393E"/>
<path d="M43.9552 39.6523H25.8247C25.2485 39.6523 24.7812 40.1196 24.7812 40.6958C24.7812 41.2721 25.2485 41.7393 25.8247 41.7393H43.9552C44.5314 41.7393 44.9986 41.2721 44.9986 40.6958C44.9986 40.1196 44.5314 39.6523 43.9552 39.6523Z" fill="#D2393E"/>
<path d="M20.4941 45.7247C20.0865 45.317 19.4257 45.317 19.0181 45.7247L17.9114 46.8313L16.8048 45.7247C16.3971 45.317 15.7368 45.317 15.3292 45.7247C14.9216 46.1323 14.9216 46.7926 15.3287 47.2002L16.4359 48.3074L15.4214 49.3218C15.155 49.5847 15.05 49.9704 15.1463 50.3322C15.2421 50.6939 15.5249 50.9762 15.8866 51.0725C16.2484 51.1688 16.6341 51.0638 16.897 50.7973L17.9114 49.7829L18.9258 50.7973C19.1893 51.0638 19.5745 51.1688 19.9362 51.0725C20.298 50.9762 20.5807 50.6939 20.677 50.3322C20.7728 49.9704 20.6679 49.5847 20.4019 49.3218L19.3875 48.3074L20.4941 47.2002C20.9012 46.7926 20.9012 46.1323 20.4941 45.7247Z" fill="#D2393E"/>
<path d="M25.8247 47.7393H34.8247C35.401 47.7393 35.8682 47.2721 35.8682 46.6958C35.8682 46.1196 35.401 45.6523 34.8247 45.6523H25.8247C25.2485 45.6523 24.7812 46.1196 24.7812 46.6958C24.7812 47.2721 25.2485 47.7393 25.8247 47.7393Z" fill="#D2393E"/>
<path d="M43.9552 48.7822H25.8247C25.2485 48.7822 24.7812 49.2494 24.7812 49.8257C24.7812 50.402 25.2485 50.8692 25.8247 50.8692H43.9552C44.5314 50.8692 44.9986 50.402 44.9986 49.8257C44.9986 49.2494 44.5314 48.7822 43.9552 48.7822Z" fill="#D2393E"/>
</g>
<defs>
<clipPath id="clip0_494_23">
<rect width="60" height="60" fill="white"/>
</clipPath>
</defs>
</svg>
