<svg width="60" height="60" viewBox="0 0 60 60" fill="none" xmlns="http://www.w3.org/2000/svg">
<g clip-path="url(#clip0_84_264)">
<path d="M13.8762 60H46.1242C47.5462 60.0028 48.91 59.4369 49.9128 58.4289C50.9155 57.4209 51.4739 56.0537 51.4634 54.6322V15.0324C51.4748 13.6076 50.9179 12.2366 49.9161 11.2233C48.9138 10.2106 47.5495 9.63843 46.1242 9.63414H40.1219V8.74381C40.1219 6.72875 38.4394 5.12195 36.4248 5.12195H35V5C35 2.23847 32.7615 0 30 0C27.2389 0 25 2.23847 25 5V5.12195H23.5756C21.561 5.12195 19.878 6.72875 19.878 8.74381V9.63414H13.8762C12.4509 9.63843 11.0866 10.2106 10.0843 11.2233C9.082 12.2366 8.52512 13.6076 8.53655 15.0324V54.6322C8.52655 56.0537 9.08485 57.4209 10.0876 58.4289C11.0899 59.4369 12.4542 60.0028 13.8762 60ZM26.9512 5C26.9512 3.31602 28.3165 1.95122 30 1.95122C31.6839 1.95122 33.0487 3.31602 33.0487 5V5.12195H26.9512V5ZM21.8292 8.74381C21.8292 7.80488 22.6367 7.07317 23.5756 7.07317H36.4248C37.3632 7.07317 38.1707 7.80488 38.1707 8.74381V14.5122H21.8292V8.74381ZM10.4878 15.0329C10.4878 13.1326 11.976 11.5854 13.8762 11.5854H19.878V15.4568C19.8961 16.0104 20.3444 16.4525 20.8974 16.4634H39.1025C39.656 16.4525 40.1038 16.0104 40.1219 15.4568V11.5854H46.1242C48.0244 11.5854 49.5121 13.1326 49.5121 15.0324V54.6322C49.5231 55.5364 49.1706 56.4077 48.5337 57.0498C47.8968 57.6924 47.0288 58.0521 46.1242 58.0488H13.8762C12.9716 58.0521 12.1036 57.6924 11.4662 57.0498C10.8293 56.4077 10.4768 55.5364 10.4878 54.6322V15.0329Z" fill="#D2393E"/>
<path d="M27.9268 20.4878C27.9268 19.949 27.4899 19.5122 26.9512 19.5122H17.9268C17.388 19.5122 16.9512 19.949 16.9512 20.4878V29.5122C16.9512 30.051 17.388 30.4878 17.9268 30.4878H26.9512C27.4899 30.4878 27.9268 30.051 27.9268 29.5122V20.4878ZM18.9024 21.4634H25.9756V28.5366H18.9024V21.4634Z" fill="#D2393E"/>
<path d="M24.1144 23.3094C23.7333 22.9283 23.1155 22.9283 22.7349 23.3094L22.4543 23.59L22.1737 23.3094C21.7926 22.9288 21.1747 22.9288 20.7941 23.3094C20.413 23.6905 20.413 24.3083 20.7941 24.6894L21.0742 24.97L20.7941 25.2501C20.413 25.6312 20.413 26.2491 20.7941 26.6302C21.1747 27.0113 21.7926 27.0113 22.1737 26.6302L22.4543 26.3496L22.7349 26.6302C23.1155 27.0113 23.7333 27.0113 24.1144 26.6302C24.4955 26.2491 24.4955 25.6312 24.1144 25.2501L23.8339 24.97L24.1144 24.6894C24.4955 24.3083 24.4955 23.6905 24.1144 23.3094Z" fill="#D2393E"/>
<path d="M43.0487 20.4878C43.0487 19.949 42.6119 19.5122 42.0731 19.5122H33.0487C32.51 19.5122 32.0731 19.949 32.0731 20.4878V29.5122C32.0731 30.051 32.51 30.4878 33.0487 30.4878H42.0731C42.6119 30.4878 43.0487 30.051 43.0487 29.5122V20.4878ZM34.0243 21.4634H41.0975V28.5366H34.0243V21.4634Z" fill="#D2393E"/>
<path d="M39.2059 23.3094C38.8248 22.9283 38.2069 22.9283 37.8263 23.3094L37.5457 23.59L37.2651 23.3094C36.884 22.9288 36.2662 22.9288 35.8856 23.3094C35.5045 23.6905 35.5045 24.3083 35.8856 24.6894L36.1657 24.97L35.8856 25.2501C35.5045 25.6312 35.5045 26.2491 35.8856 26.6302C36.2662 27.0113 36.884 27.0113 37.2651 26.6302L37.5457 26.3496L37.8263 26.6302C38.2069 27.0113 38.8248 27.0113 39.2059 26.6302C39.587 26.2491 39.587 25.6312 39.2059 25.2501L38.9253 24.97L39.2059 24.6894C39.587 24.3083 39.587 23.6905 39.2059 23.3094Z" fill="#D2393E"/>
<path d="M27.9268 32.8048C27.9268 32.2661 27.4899 31.8292 26.9512 31.8292H17.9268C17.388 31.8292 16.9512 32.2661 16.9512 32.8048V41.8292C16.9512 42.368 17.388 42.8048 17.9268 42.8048H26.9512C27.4899 42.8048 27.9268 42.368 27.9268 41.8292V32.8048ZM18.9024 33.7804H25.9756V40.8536H18.9024V33.7804Z" fill="#D2393E"/>
<path d="M43.0487 32.8048C43.0487 32.2661 42.6119 31.8292 42.0731 31.8292H33.0487C32.51 31.8292 32.0731 32.2661 32.0731 32.8048V41.8292C32.0731 42.368 32.51 42.8048 33.0487 42.8048H42.0731C42.6119 42.8048 43.0487 42.368 43.0487 41.8292V32.8048ZM34.0243 33.7804H41.0975V40.8536H34.0243V33.7804Z" fill="#D2393E"/>
<path d="M39.2059 35.6569C38.8248 35.2758 38.207 35.2758 37.8264 35.6569L37.5458 35.9374L37.2652 35.6569C37.0208 35.4015 36.6569 35.2986 36.3148 35.3877C35.9723 35.4768 35.7051 35.744 35.6165 36.0861C35.5274 36.4286 35.6303 36.7921 35.8861 37.0364L36.1667 37.317L35.8861 37.5976C35.505 37.9787 35.505 38.5961 35.8861 38.9772C36.2672 39.3583 36.8846 39.3583 37.2657 38.9772L37.5463 38.6966L37.8268 38.9772C38.0717 39.2306 38.4342 39.3326 38.7753 39.243C39.1164 39.1539 39.3831 38.8871 39.4722 38.5461C39.5613 38.205 39.4598 37.8425 39.2059 37.5976L38.9253 37.317L39.2059 37.0364C39.587 36.6553 39.587 36.038 39.2059 35.6569Z" fill="#D2393E"/>
<path d="M27.9268 45.122C27.9268 44.5832 27.4899 44.1464 26.9512 44.1464H17.9268C17.388 44.1464 16.9512 44.5832 16.9512 45.122V54.1464C16.9512 54.6851 17.388 55.122 17.9268 55.122H26.9512C27.4899 55.122 27.9268 54.6851 27.9268 54.1464V45.122ZM18.9024 46.0976H25.9756V53.1708H18.9024V46.0976Z" fill="#D2393E"/>
<path d="M24.1144 48.0045C23.7333 47.6234 23.1155 47.6234 22.7349 48.0045L22.4543 48.285L22.1737 48.0045C21.7926 47.6238 21.1747 47.6238 20.7941 48.0045C20.413 48.3855 20.413 49.0034 20.7941 49.3845L21.0742 49.6651L20.7941 49.9452C20.413 50.3263 20.413 50.9441 20.7941 51.3252C21.1747 51.7063 21.7926 51.7063 22.1737 51.3252L22.4543 51.0447L22.7349 51.3252C23.1155 51.7063 23.7333 51.7063 24.1144 51.3252C24.4955 50.9441 24.4955 50.3263 24.1144 49.9452L23.8339 49.6651L24.1144 49.3845C24.4955 49.0034 24.4955 48.3855 24.1144 48.0045Z" fill="#D2393E"/>
<path d="M43.0487 45.122C43.0487 44.5832 42.6119 44.1464 42.0731 44.1464H33.0487C32.51 44.1464 32.0731 44.5832 32.0731 45.122V54.1464C32.0731 54.6851 32.51 55.122 33.0487 55.122H42.0731C42.6119 55.122 43.0487 54.6851 43.0487 54.1464V45.122ZM34.0243 46.0976H41.0975V53.1708H34.0243V46.0976Z" fill="#D2393E"/>
</g>
<defs>
<clipPath id="clip0_84_264">
<rect width="60" height="60" fill="white"/>
</clipPath>
</defs>
</svg>
