<svg width="60" height="60" viewBox="0 0 60 60" fill="none" xmlns="http://www.w3.org/2000/svg">
<g clip-path="url(#clip0_84_233)">
<path d="M59.5109 25.7172L39.6717 14.3396C39.2063 14.0725 38.6128 14.2338 38.3457 14.6992L33.6639 22.8629V22.8639L29.9998 29.2522L26.3362 22.8639L26.3357 22.8629L21.6539 14.6992C21.3868 14.2333 20.7928 14.0725 20.3274 14.3396L0.488197 25.7172C0.0227709 25.9843 -0.138064 26.5778 0.128571 27.0432L7.29214 39.5348C7.55925 40.0002 8.15278 40.1615 8.61868 39.8944L27.6153 28.9998L28.8796 31.205L21.3493 44.3361C21.1738 44.6374 21.1733 45.0098 21.3479 45.3115C21.522 45.6133 21.8451 45.7988 22.1938 45.7969C22.5425 45.795 22.8637 45.6067 23.035 45.303L29.9998 33.1592L36.9646 45.304C37.1358 45.6076 37.457 45.796 37.8058 45.7978C38.1545 45.7997 38.4771 45.6142 38.6517 45.3125C38.8263 45.0108 38.8258 44.6383 38.6503 44.337L31.1199 31.206L32.3843 29.0008L51.3809 39.8953C51.8463 40.1625 52.4403 40.0016 52.7074 39.5357L59.8705 27.0447C59.9991 26.8207 60.0338 26.555 59.9664 26.3064C59.8985 26.0573 59.7349 25.8453 59.5109 25.7172ZM8.49437 37.7253L2.29771 26.9194L20.4512 16.5088L26.6483 27.3146L8.49437 37.7253ZM51.5047 37.7253L33.3517 27.3146L39.5489 16.5088L57.7014 26.9194L51.5047 37.7253Z" fill="#D2393E"/>
<path d="M41.9889 29.8838L43.8995 29.954L44.9247 31.5676C45.1235 31.8798 45.4817 32.052 45.8494 32.0126C46.2171 31.9728 46.5302 31.728 46.6574 31.3807L47.3145 29.5849L49.1662 29.1086C49.5244 29.0161 49.7991 28.7285 49.875 28.3665C49.9509 28.0045 49.8148 27.6312 49.5235 27.403L48.019 26.223L48.1376 24.3148C48.1609 23.9457 47.9721 23.5956 47.6513 23.4115C47.3306 23.2274 46.933 23.2416 46.6261 23.448L45.0391 24.5141L43.2613 23.8114C42.9174 23.6758 42.526 23.7464 42.2517 23.9951C41.9775 24.2432 41.8684 24.6256 41.9694 24.9814L42.4932 26.8203L41.2753 28.294C41.04 28.5791 40.9864 28.9734 41.1377 29.3107C41.2896 29.648 41.6193 29.8705 41.9889 29.8838ZM44.3165 27.6639C44.5205 27.4177 44.5898 27.0865 44.502 26.7791L44.3777 26.3426L44.7999 26.5091C45.0974 26.6268 45.4333 26.5902 45.6985 26.4123L46.0752 26.159L46.0473 26.6121C46.0273 26.9314 46.1654 27.2397 46.4173 27.4371L46.7746 27.717L46.3348 27.8304C46.025 27.9101 45.7744 28.1374 45.6644 28.4377L45.5083 28.8642L45.2654 28.4809C45.0941 28.2109 44.8004 28.043 44.4811 28.0316L44.0276 28.015L44.3165 27.6639Z" fill="#D2393E"/>
</g>
<defs>
<clipPath id="clip0_84_233">
<rect width="60" height="60" fill="white"/>
</clipPath>
</defs>
</svg>
