<svg width="40" height="40" viewBox="0 0 40 40" fill="none" xmlns="http://www.w3.org/2000/svg">
<g clip-path="url(#clip0_84_326)">
<path d="M17.7191 30.6772H15.2988V29.4207C15.5378 29.2147 15.8304 28.9874 16.0716 28.7397C17.3618 27.4274 18.0857 25.6614 18.0876 23.8212V21.546C18.4001 21.6403 18.7251 21.6885 19.0519 21.6888C20.5714 21.6857 21.9132 20.6972 22.3667 19.2471C22.8205 17.7969 22.2808 16.2198 21.0339 15.3514C19.7425 14.4513 17.9728 14.5926 16.7772 15.5752C15.0448 13.1359 11.9332 12.0979 9.08302 13.0083C6.23318 13.919 4.29998 16.569 4.30278 19.5608V23.8212C4.30247 25.6608 5.02458 27.4268 6.31317 28.7397C6.61602 29.0677 6.95778 29.3575 7.33066 29.6028V30.6772H4.90039C2.19808 30.6772 0 32.8924 0 35.5941V39.3625C0 39.7145 0.28542 39.9999 0.637449 39.9999H21.9814C22.3356 40.0009 22.6245 39.7167 22.6294 39.3625V35.5941C22.6229 32.884 20.4292 30.6875 17.7191 30.6772ZM18.6345 16.0642C19.2131 15.9425 19.8163 16.0632 20.3037 16.3975C21.3032 17.0941 21.5488 18.4692 20.8522 19.4687C20.5254 19.9489 20.0186 20.277 19.4465 20.3788C18.984 20.4653 18.5059 20.3953 18.0876 20.1796V19.5605C18.0826 18.5723 17.8638 17.5971 17.4461 16.7013C17.7701 16.3757 18.1838 16.1538 18.6345 16.0642ZM16.7788 19.5303C16.1323 18.9529 15.6524 18.2128 15.3893 17.387C15.3265 17.1349 15.117 16.9466 14.8599 16.9105C14.6028 16.8741 14.3494 16.9973 14.2193 17.222C13.1212 19.1185 11.2771 20.1874 8.73379 20.3981C7.67864 20.4774 6.61789 20.4196 5.57768 20.226V19.5608C5.57736 19.1297 5.62654 18.6999 5.7249 18.28C6.21979 18.3653 6.72091 18.4079 7.22297 18.4076C7.63258 18.4079 8.04156 18.379 8.44713 18.3214C10.0672 18.0898 12.3023 17.2703 14.0071 14.728C15.7137 15.7274 16.767 17.5526 16.7788 19.5303ZM11.1765 13.9576C11.7334 13.9573 12.2871 14.0404 12.8196 14.2038C11.6789 15.8167 10.1668 16.7738 8.31485 17.0518C7.60207 17.1561 6.87841 17.1582 6.16532 17.0583C7.11434 15.1597 9.05408 13.9598 11.1765 13.9576ZM5.57768 23.8212V21.522C6.3194 21.6456 7.07014 21.7085 7.82213 21.7097C8.13525 21.7097 8.46176 21.6985 8.79822 21.6717C11.2935 21.4738 13.3046 20.507 14.6526 18.8571C15.1528 19.7899 15.9001 20.5671 16.8127 21.1034V23.8212C16.8068 25.3302 16.2095 26.7766 15.1491 27.8501C14.116 28.9333 12.6845 29.5461 11.1877 29.5461C9.69121 29.5461 8.25975 28.9333 7.2267 27.8501C6.1703 26.7751 5.5783 25.3283 5.57768 23.8212ZM11.1899 30.821C12.1691 30.822 13.1365 30.6078 14.0239 30.1936V30.9776L11.2425 32.7057L8.60556 30.9866V30.3047C9.42385 30.6474 10.3025 30.8229 11.1899 30.821ZM1.2749 35.5941C1.27583 33.5897 2.89591 31.9621 4.90039 31.9521H7.77046L10.5976 33.8069V38.725H1.2749V35.5941ZM21.3545 38.725H11.8725V33.8159L14.8247 31.9521H17.7191C19.7254 31.9615 21.3486 33.5878 21.3545 35.5941V38.725Z" fill="white"/>
<path d="M9.57883 23.1265C9.2268 23.1265 8.94138 23.4119 8.94138 23.7639C8.93827 23.998 8.74747 24.186 8.51372 24.186C8.27965 24.186 8.08917 23.998 8.08605 23.7639C8.08605 23.4119 7.80063 23.1265 7.44861 23.1265C7.09658 23.1265 6.81116 23.4119 6.81116 23.7639C6.81769 24.6999 7.57809 25.455 8.51372 25.455C9.44935 25.455 10.2097 24.6999 10.2163 23.7639C10.2163 23.4119 9.93086 23.1265 9.57883 23.1265Z" fill="white"/>
<path d="M13.839 25.4665C14.779 25.4655 15.5406 24.7039 15.5415 23.7639C15.5415 23.4119 15.2561 23.1265 14.9041 23.1265C14.5521 23.1265 14.2666 23.4119 14.2666 23.7639C14.2635 23.998 14.073 24.186 13.839 24.186C13.6052 24.186 13.4147 23.998 13.4113 23.7639C13.4113 23.4119 13.1259 23.1265 12.7739 23.1265C12.4218 23.1265 12.1364 23.4119 12.1364 23.7639C12.1377 24.7039 12.8993 25.4655 13.839 25.4665Z" fill="white"/>
<path d="M39.9498 4.04724C39.8493 3.81286 39.6174 3.66191 39.3625 3.66533H24.4621V3.49663C25.2153 3.28062 25.7295 2.5859 25.7161 1.80216C25.7161 0.808639 24.8863 0 23.8545 0C22.8224 0 21.968 0.808639 21.968 1.80216C21.9718 2.56909 22.4614 3.24949 23.1872 3.49663V26.2652C23.1872 26.6172 23.4726 26.9026 23.8246 26.9026C24.1767 26.9026 24.4621 26.6172 24.4621 26.2652V15.1394H39.3625C39.6208 15.1326 39.8508 14.9741 39.9495 14.7354C40.0482 14.4964 39.9971 14.2218 39.8191 14.0348L35.2894 9.38307L39.8191 4.73791C39.998 4.55521 40.0497 4.28255 39.9498 4.04724ZM23.8645 1.2749C24.1935 1.2749 24.4612 1.51145 24.4612 1.80216C24.4612 2.09318 24.1935 2.32974 23.8645 2.32974C23.5355 2.32974 23.2678 2.09318 23.2678 1.80216C23.2678 1.51145 23.5355 1.2749 23.8645 1.2749ZM33.9429 8.94265C33.702 9.19445 33.702 9.5913 33.9429 9.8431L37.851 13.8645H24.4621V4.94023H37.851L33.9429 8.94265Z" fill="white"/>
</g>
<defs>
<clipPath id="clip0_84_326">
<rect width="40" height="40" fill="white"/>
</clipPath>
</defs>
</svg>
