<svg width="40" height="40" viewBox="0 0 40 40" fill="none" xmlns="http://www.w3.org/2000/svg">
<g clip-path="url(#clip0_172_315)">
<path d="M19.0625 5.9375C19.2502 6.12527 19.2438 6.18273 19.248 6.44043C19.2502 6.50156 19.2524 6.56269 19.2547 6.62567C19.2187 6.79687 19.2187 6.79687 19.1058 6.92505C18.812 7.08139 18.507 7.14016 18.1836 7.21191C15.6606 7.81171 13.6469 9.18585 12.2523 11.3948C11.0691 13.3547 10.6633 15.8341 11.1694 18.0695C11.7399 20.1223 12.7573 21.7795 14.3847 23.1689C15.59 24.2089 16.1954 25.5343 16.3281 27.1094C16.3564 27.6687 16.3565 28.2298 16.3578 28.7897C16.3586 28.98 16.3612 29.1701 16.3641 29.3603C16.3635 29.4464 16.3635 29.4464 16.3629 29.5342C16.3705 29.9338 16.4677 30.1605 16.7187 30.4687C17.1183 30.7659 17.5056 30.7908 17.9921 30.7938C18.1388 30.795 18.1388 30.795 18.2885 30.7961C18.3947 30.7965 18.5009 30.7968 18.6071 30.7971C18.6611 30.7973 18.715 30.7976 18.7706 30.7978C19.0561 30.799 19.3415 30.7997 19.627 30.8C19.9203 30.8004 20.2135 30.8023 20.5067 30.8045C20.7337 30.806 20.9606 30.8064 21.1876 30.8065C21.2956 30.8068 21.4036 30.8074 21.5116 30.8084C22.3848 30.8203 22.3848 30.8203 23.2031 30.5469C23.5704 30.1704 23.606 29.8956 23.6129 29.3881C23.6155 29.2615 23.6181 29.1349 23.6207 29.0083C23.6244 28.8097 23.6279 28.6111 23.631 28.4124C23.6642 26.3908 24.0324 24.7058 25.5082 23.2378C25.7375 23.0162 25.9769 22.8064 26.2161 22.5955C27.7977 21.151 28.5778 19.2754 28.9944 17.2125C29.0787 16.988 29.1694 16.9158 29.375 16.7969C29.6769 16.7455 29.8069 16.7757 30.0732 16.9287C30.357 17.3845 30.2352 17.8521 30.1213 18.3585C29.535 20.7263 28.2604 22.7182 26.3769 24.2725C25.5144 25.0133 25.1181 26.0833 25 27.1875C24.9702 27.7509 24.9715 28.3164 24.9702 28.8804C24.9635 30.6165 24.9635 30.6165 24.3261 31.2988C24.28 31.3498 24.2339 31.4007 24.1864 31.4532C24.0625 31.5625 24.0625 31.5625 23.9062 31.5625C23.9066 31.6058 23.9069 31.6491 23.9073 31.6937C23.9107 32.1474 23.9131 32.6012 23.9148 33.055C23.9156 33.224 23.9166 33.3929 23.918 33.5619C23.9199 33.8059 23.9208 34.0498 23.9215 34.2938C23.9223 34.3684 23.9231 34.443 23.9239 34.5198C23.924 35.2855 23.8335 36.0164 23.3593 36.6406C23.0455 36.943 22.7783 37.1211 22.3437 37.1875C22.3464 37.247 22.3492 37.3065 22.352 37.3679C22.3718 38.1264 22.2676 38.705 21.7877 39.3079C21.231 39.8576 20.622 40.0248 19.8647 40.0306C19.3668 40.0214 19.007 39.8911 18.5937 39.6094C18.5212 39.5626 18.4487 39.5159 18.374 39.4678C17.8487 38.9425 17.649 38.359 17.6465 37.6221C17.6489 37.4772 17.6519 37.3323 17.6562 37.1875C17.5982 37.1786 17.5402 37.1698 17.4804 37.1606C17.0755 37.064 16.7689 36.8096 16.5191 36.4807C16.1129 35.8028 16.0701 35.0685 16.0785 34.2938C16.0787 34.2152 16.0789 34.1365 16.0791 34.0555C16.08 33.8071 16.082 33.5588 16.084 33.3105C16.0847 33.141 16.0855 32.9714 16.0861 32.8018C16.0878 32.3887 16.0904 31.9756 16.0937 31.5625C16.0447 31.5394 15.9957 31.5163 15.9453 31.4925C15.756 31.393 15.6694 31.2936 15.542 31.123C15.504 31.0737 15.466 31.0243 15.4269 30.9735C15.1336 30.4808 15.0437 30.0411 15.0436 29.4788C15.0421 29.3846 15.0421 29.3846 15.0405 29.2885C15.0373 29.0895 15.0356 28.8905 15.0341 28.6914C15.0192 27.1146 14.9544 25.5777 13.7655 24.3908C13.4833 24.12 13.1958 23.855 12.9086 23.5895C11.2104 22.0146 10.1749 20.0135 9.76559 17.7344C9.75109 17.656 9.73659 17.5777 9.72165 17.4969C9.58086 16.2223 9.57917 14.8374 9.92184 13.5937C9.93907 13.531 9.95629 13.4683 9.97403 13.4037C10.7776 10.5837 12.576 8.33245 15.1321 6.89661C16.1112 6.36534 17.9926 5.46479 19.0625 5.9375ZM17.3437 32.0312C17.3437 32.4695 17.3437 32.9078 17.3437 33.3594C19.0968 33.3594 20.85 33.3594 22.6562 33.3594C22.6562 32.9211 22.6562 32.4828 22.6562 32.0312C20.9031 32.0312 19.15 32.0312 17.3437 32.0312ZM17.3437 34.6094C17.3437 35.157 17.3821 35.4703 17.7343 35.8887C17.9758 36.0848 18.181 36.1038 18.4812 36.1063C18.5532 36.1071 18.6252 36.1078 18.6993 36.1086C18.8158 36.1091 18.8158 36.1091 18.9346 36.1096C19.0147 36.1101 19.0947 36.1105 19.1772 36.111C19.3467 36.1117 19.5162 36.1122 19.6857 36.1125C19.9444 36.1133 20.2031 36.1157 20.4619 36.1182C20.6266 36.1187 20.7913 36.1191 20.9561 36.1194C21.0718 36.1208 21.0718 36.1208 21.1899 36.1223C21.6079 36.121 21.9058 36.0969 22.2656 35.8594C22.672 35.431 22.6562 35.2061 22.6562 34.6094C20.9031 34.6094 19.15 34.6094 17.3437 34.6094ZM18.9062 37.3437C18.8964 38.0178 18.8964 38.0178 19.2187 38.5156C19.516 38.7867 19.8198 38.786 20.2057 38.7717C20.4589 38.742 20.5919 38.6882 20.7812 38.5156C21.1134 38.0577 21.0937 37.9778 21.0937 37.3437C20.3718 37.3437 19.65 37.3437 18.9062 37.3437Z" fill="#D2393E"/>
<path d="M21.3476 9.26762C21.7469 9.58646 22.0186 10.0422 22.1093 10.5469C22.1145 10.6966 22.116 10.8464 22.1142 10.9961C22.1135 11.0731 22.1128 11.15 22.1121 11.2293C22.1112 11.2877 22.1103 11.3461 22.1093 11.4063C22.4116 11.5983 22.7043 11.7669 23.0468 11.875C23.3103 11.8026 23.4684 11.6604 23.6718 11.4844C24.1908 11.3114 24.8089 11.3268 25.3124 11.543C25.8794 11.841 26.2464 12.2194 26.4681 12.8257C26.6279 13.4314 26.5913 14.0598 26.2838 14.6128C25.9582 15.0573 25.62 15.3604 25.0781 15.4688C25.0781 15.8555 25.0781 16.2422 25.0781 16.6407C25.207 16.6664 25.3359 16.6922 25.4687 16.7188C26.007 17.0828 26.3865 17.5182 26.5252 18.1571C26.6218 18.8515 26.4944 19.4206 26.087 19.9936C25.7082 20.4056 25.2081 20.6677 24.6527 20.7218C24.0075 20.7396 23.5062 20.5927 22.9687 20.2344C22.6851 20.3891 22.4015 20.5438 22.1093 20.7032C22.1158 20.8288 22.1222 20.9545 22.1288 21.084C22.1281 21.6752 21.9467 22.1102 21.6308 22.6026C21.1485 23.0535 20.534 23.3132 19.8709 23.3033C19.2928 23.234 18.7558 23.003 18.3593 22.5782C18.0372 22.0883 17.8787 21.7016 17.8857 21.1133C17.8864 21.0364 17.8871 20.9594 17.8878 20.8802C17.8887 20.8218 17.8896 20.7633 17.8906 20.7032C17.5883 20.5112 17.2955 20.3427 16.9531 20.2344C16.7418 20.2933 16.6274 20.3732 16.4623 20.5155C16.1129 20.8006 15.5811 20.7442 15.1562 20.7032C14.494 20.5227 14.0265 20.2205 13.6776 19.625C13.3936 19.0436 13.3681 18.4129 13.5717 17.7997C13.7941 17.3032 14.1761 16.8496 14.6874 16.6407C14.7648 16.6407 14.8421 16.6407 14.9218 16.6407C14.9218 16.2539 14.9218 15.8672 14.9218 15.4688C14.7929 15.443 14.664 15.4172 14.5312 15.3907C13.9929 15.0266 13.6134 14.5913 13.4747 13.9524C13.3761 13.2437 13.5123 12.6914 13.9291 12.1103C14.301 11.672 14.7458 11.4463 15.3185 11.3773C15.9386 11.3643 16.3487 11.4714 16.8749 11.7969C16.9523 11.8356 16.9523 11.8356 17.0312 11.875C17.243 11.7795 17.243 11.7795 17.4706 11.6455C17.549 11.6013 17.6273 11.5571 17.7081 11.5116C17.7683 11.4768 17.8285 11.4421 17.8906 11.4063C17.8869 11.3533 17.8833 11.3003 17.8796 11.2458C17.8531 10.5633 17.9984 10.0757 18.374 9.50687C19.2305 8.68842 20.3708 8.60664 21.3476 9.26762ZM19.3749 10.3125C19.2032 10.5243 19.1465 10.6633 19.1064 10.9327C19.1502 11.2393 19.258 11.4022 19.4531 11.6407C19.7037 11.8244 19.9294 11.8335 20.2343 11.7969C20.4737 11.668 20.649 11.5582 20.8105 11.3379C20.9017 11.028 20.8964 10.7918 20.7714 10.4932C20.5889 10.2681 20.4251 10.1824 20.1562 10.0782C19.8098 10.0782 19.6663 10.1327 19.3749 10.3125ZM18.3169 12.5846C18.2487 12.6292 18.1805 12.6738 18.1103 12.7198C18.0415 12.7638 17.9727 12.8078 17.9019 12.8531C17.7432 12.9553 17.7432 12.9553 17.6562 13.0469C17.6478 13.2014 17.6417 13.3561 17.6367 13.5108C17.5898 14.1589 17.408 14.6698 16.9189 15.1123C16.6859 15.2927 16.442 15.4283 16.1718 15.5469C16.1252 15.8961 16.1034 16.2154 16.1718 16.5625C16.3531 16.7383 16.5267 16.8257 16.7541 16.9336C17.1482 17.1271 17.3701 17.4737 17.5372 17.876C17.592 18.105 17.5852 18.3245 17.5878 18.5596C17.604 18.9323 17.604 18.9323 17.8088 19.2295C18.063 19.3988 18.3043 19.5129 18.5937 19.6094C18.7483 19.5356 18.7483 19.5356 18.9013 19.4239C19.3923 19.0852 19.8844 19.0979 20.4687 19.1407C20.8435 19.2296 21.1579 19.4095 21.4843 19.6094C21.613 19.5331 21.7415 19.4565 21.8701 19.3799C21.9417 19.3373 22.0133 19.2947 22.087 19.2508C22.2565 19.1557 22.2565 19.1557 22.3437 19.0625C22.3521 18.908 22.3582 18.7533 22.3632 18.5987C22.4101 17.9505 22.5918 17.4396 23.081 16.9971C23.3139 16.8168 23.5578 16.6812 23.8281 16.5625C23.8747 16.2133 23.8965 15.8941 23.8281 15.5469C23.6468 15.3712 23.4731 15.2837 23.2458 15.1758C22.8517 14.9824 22.6298 14.6358 22.4627 14.2334C22.4079 14.0045 22.4147 13.785 22.4121 13.5498C22.3958 13.1771 22.3958 13.1771 22.1911 12.88C21.9369 12.7107 21.6956 12.5965 21.4062 12.5C21.2483 12.6018 21.0923 12.7063 20.9374 12.8125C20.451 13.0442 19.8376 13.065 19.3252 12.9041C19.0973 12.8031 18.8839 12.6942 18.6776 12.5541C18.5076 12.4775 18.5076 12.4775 18.3169 12.5846ZM14.9218 12.8907C14.7412 13.2244 14.6559 13.4825 14.7607 13.8526C14.953 14.1031 15.105 14.2378 15.3906 14.375C15.8055 14.375 16.0321 14.2717 16.3281 13.9844C16.4542 13.7322 16.4527 13.4758 16.4062 13.2032C16.2706 12.9668 16.1065 12.7799 15.8593 12.6563C15.4748 12.6273 15.213 12.6238 14.9218 12.8907ZM23.6718 13.0469C23.5465 13.2976 23.5561 13.5562 23.5937 13.8282C23.7355 14.0698 23.8504 14.1865 24.0917 14.3262C24.4416 14.4095 24.6732 14.3515 24.9804 14.17C25.2084 13.9293 25.2679 13.7658 25.3124 13.4375C25.2247 13.1279 25.1469 12.9499 24.9023 12.7393C24.3511 12.5263 24.0637 12.655 23.6718 13.0469ZM14.8632 18.1153C14.7467 18.3134 14.6984 18.4413 14.6874 18.6719C14.8199 19.0325 14.9803 19.2569 15.3124 19.4532C15.5786 19.4967 15.7596 19.5136 15.9957 19.3705C16.1673 19.2318 16.3068 19.105 16.4062 18.9063C16.4466 18.4569 16.4466 18.4569 16.2695 18.0567C16.044 17.8437 15.8987 17.7495 15.5908 17.71C15.2743 17.7486 15.0783 17.8848 14.8632 18.1153ZM23.7499 18.0469C23.5578 18.3351 23.5299 18.5718 23.5937 18.9063C23.73 19.1424 23.8931 19.3295 24.1406 19.4532C24.4873 19.4932 24.6465 19.4787 24.9462 19.292C25.1878 19.028 25.2689 18.8702 25.3124 18.5157C25.2297 18.2591 25.2297 18.2591 25.0781 18.0469C25.0475 18.0002 25.0168 17.9535 24.9853 17.9053C24.5263 17.6046 24.14 17.7126 23.7499 18.0469ZM19.3749 20.5469C19.206 20.7624 19.1453 20.8997 19.1113 21.1719C19.1456 21.4467 19.2005 21.5818 19.3749 21.7969C19.6421 21.979 19.7976 22.0313 20.122 22.0313C20.4406 21.9386 20.5715 21.8154 20.7812 21.5625C20.8931 21.3386 20.8833 21.1865 20.8593 20.9375C20.7304 20.6981 20.6206 20.5229 20.4003 20.3614C19.996 20.2424 19.7066 20.287 19.3749 20.5469Z" fill="#D2393E"/>
<path d="M24.6901 6.79815C25.563 7.23522 26.3149 7.77696 27.0312 8.43756C27.1051 8.50503 27.1791 8.5725 27.2552 8.64202C28.8631 10.177 30.1189 12.4241 30.252 14.6741C30.2343 14.9219 30.2343 14.9219 30.0683 15.1514C29.8437 15.3126 29.8437 15.3126 29.6093 15.3614C29.2894 15.2947 29.1902 15.1741 28.9843 14.9219C28.906 14.7098 28.8701 14.4951 28.833 14.2725C28.3711 11.9207 27.042 9.93677 25.0778 8.56329C24.0079 7.84563 22.7954 7.3981 21.5378 7.14308C21.2372 7.07931 20.9938 7.02735 20.7812 6.79693C20.7425 6.62847 20.7425 6.62847 20.747 6.44537C20.7471 6.38494 20.7472 6.32452 20.7473 6.26226C20.7889 6.05537 20.8501 5.98718 21.0156 5.85943C22.0699 5.508 23.743 6.3421 24.6901 6.79815Z" fill="#D2393E"/>
<path d="M29.5312 24.6875C29.6778 24.7892 29.6778 24.7892 29.8239 24.9237C29.878 24.9732 29.932 25.0228 29.9878 25.0739C30.2657 25.3387 30.5398 25.6067 30.8105 25.8789C30.8937 25.9617 30.8937 25.9617 30.9786 26.0461C31.0317 26.0993 31.0848 26.1525 31.1395 26.2072C31.187 26.2549 31.2346 26.3026 31.2836 26.3517C31.4627 26.5455 31.5573 26.679 31.5917 26.9433C31.5542 27.256 31.4902 27.3739 31.25 27.5781C30.9758 27.6443 30.883 27.6605 30.6249 27.5781C30.3772 27.4095 30.1708 27.2082 29.9614 26.9944C29.8283 26.8594 29.6924 26.7276 29.5562 26.5957C29.4566 26.4985 29.3572 26.4011 29.2578 26.3037C29.21 26.2569 29.1622 26.2102 29.1129 26.162C29.0681 26.1172 29.0232 26.0724 28.977 26.0263C28.917 25.9667 28.917 25.9667 28.8557 25.9059C28.6476 25.6605 28.5912 25.5158 28.6083 25.1904C28.6718 24.9218 28.6718 24.9218 28.7548 24.7705C29.0136 24.6286 29.2515 24.6175 29.5312 24.6875Z" fill="#D2393E"/>
<path d="M11.0937 24.6875C11.2939 24.8486 11.2939 24.8486 11.4062 25.0781C11.426 25.4282 11.3427 25.6367 11.123 25.8984C11.0108 26.0172 10.8964 26.1341 10.7812 26.25C10.7361 26.2961 10.6909 26.3422 10.6444 26.3897C10.3875 26.652 10.1295 26.9131 9.86935 27.1722C9.82497 27.2165 9.78058 27.2608 9.73485 27.3065C9.46555 27.5541 9.26772 27.6178 8.90164 27.6077C8.74997 27.5781 8.74997 27.5781 8.55466 27.4121C8.41739 27.149 8.4075 27.0121 8.43747 26.7187C8.55008 26.5433 8.55008 26.5433 8.71579 26.3721C8.77883 26.3062 8.84188 26.2403 8.90683 26.1725C8.98468 26.0941 9.06261 26.0158 9.14059 25.9375C9.24132 25.8348 9.34202 25.732 9.44272 25.6293C9.64964 25.4195 9.85684 25.2101 10.0656 25.0021C10.1094 24.9584 10.1532 24.9147 10.1983 24.8697C10.4563 24.6345 10.7618 24.6305 11.0937 24.6875Z" fill="#D2393E"/>
<path d="M9.20902 4.48623C9.41322 4.5416 9.51197 4.62519 9.66736 4.76806C9.72149 4.81759 9.77562 4.86711 9.83139 4.91814C10.109 5.18152 10.3836 5.4473 10.6543 5.71776C10.7375 5.79956 10.7375 5.79956 10.8224 5.88302C10.9021 5.9624 10.9021 5.9624 10.9833 6.04339C11.0308 6.09064 11.0784 6.13789 11.1274 6.18657C11.3462 6.43923 11.4094 6.58079 11.3916 6.91893C11.3281 7.18749 11.3281 7.18749 11.2451 7.33886C10.978 7.48533 10.7554 7.50319 10.4688 7.42186C10.2204 7.25401 10.0146 7.05196 9.80522 6.83818C9.67214 6.70316 9.53625 6.57135 9.40002 6.4395C9.30044 6.34225 9.20095 6.2449 9.10156 6.14745C9.05376 6.10071 9.00597 6.05397 8.95672 6.00581C8.91187 5.96101 8.86701 5.91621 8.8208 5.87005C8.76075 5.81048 8.76075 5.81048 8.69949 5.74971C8.51755 5.53511 8.44308 5.35712 8.4082 5.07811C8.4375 4.84374 8.4375 4.84374 8.55469 4.65819C8.7751 4.51492 8.94552 4.47242 9.20902 4.48623Z" fill="#D2393E"/>
<path d="M31.25 4.5312C31.4502 4.69234 31.4502 4.69234 31.5625 4.92183C31.5823 5.27194 31.499 5.4804 31.2793 5.74214C31.1671 5.86095 31.0527 5.97777 30.9375 6.0937C30.8924 6.1398 30.8472 6.1859 30.8007 6.2334C30.5438 6.4957 30.2857 6.75683 30.0256 7.01594C29.9812 7.06024 29.9369 7.10454 29.8911 7.15018C29.622 7.39763 29.4242 7.46193 29.0582 7.45112C28.9062 7.42183 28.9062 7.42183 28.7061 7.26069C28.5528 6.94762 28.5648 6.81675 28.6719 6.48433C29.0206 6.01764 29.4559 5.61007 29.8682 5.20015C29.924 5.144 29.9798 5.08786 30.0374 5.03001C30.0908 4.97669 30.1442 4.92336 30.1993 4.86842C30.2473 4.82044 30.2954 4.77246 30.3449 4.72302C30.6076 4.48185 30.9094 4.47276 31.25 4.5312Z" fill="#D2393E"/>
<path d="M34.0288 15.3762C34.2026 15.376 34.3765 15.3746 34.5503 15.3731C34.6617 15.3729 34.773 15.3727 34.8843 15.3727C34.9851 15.3724 35.0859 15.372 35.1898 15.3717C35.4677 15.3906 35.681 15.4402 35.9375 15.5469C36.1123 15.7521 36.0934 15.8655 36.0791 16.1377C36.015 16.4088 35.9921 16.4772 35.7812 16.6407C35.5496 16.6649 35.3346 16.6754 35.1028 16.6746C35.003 16.6752 35.003 16.6752 34.9011 16.6758C34.7604 16.6763 34.6197 16.6762 34.479 16.6755C34.2637 16.6749 34.0487 16.6771 33.8335 16.6796C33.6967 16.6797 33.5599 16.6797 33.4231 16.6794C33.3588 16.6803 33.2945 16.6812 33.2283 16.6821C32.9334 16.6785 32.782 16.6749 32.5375 16.4991C32.3675 16.2479 32.3796 16.0774 32.4219 15.7813C32.823 15.2557 33.4305 15.3761 34.0288 15.3762Z" fill="#D2393E"/>
<path d="M20 -0.0390625C20.0515 -0.0398682 20.1031 -0.0406738 20.1562 -0.0415039C20.3933 0.0214764 20.476 0.117167 20.625 0.3125C20.656 0.545367 20.6688 0.748753 20.6665 0.981445C20.6668 1.04616 20.6671 1.11087 20.6674 1.17754C20.6676 1.31413 20.667 1.45072 20.6657 1.5873C20.664 1.79618 20.6657 2.00486 20.6677 2.21375C20.6675 2.3466 20.6671 2.47945 20.6665 2.6123C20.6671 2.67465 20.6677 2.73699 20.6684 2.80123C20.6636 3.0847 20.6503 3.24802 20.4759 3.47672C20.2988 3.60353 20.2153 3.63618 20 3.63281C19.9226 3.63402 19.9226 3.63402 19.8437 3.63525C19.6066 3.57227 19.5239 3.47658 19.375 3.28125C19.3439 3.04838 19.3311 2.845 19.3335 2.6123C19.3332 2.54759 19.3329 2.48288 19.3326 2.41621C19.3323 2.27962 19.3329 2.14303 19.3342 2.00645C19.3359 1.79757 19.3342 1.58889 19.3322 1.38C19.3324 1.24715 19.3328 1.1143 19.3335 0.981445C19.3325 0.887928 19.3325 0.887928 19.3315 0.792522C19.3363 0.509046 19.3496 0.345735 19.524 0.117035C19.7011 -0.00977636 19.7846 -0.0424273 20 -0.0390625Z" fill="#D2393E"/>
<path d="M5.60145 15.3762C5.77548 15.376 5.94946 15.3746 6.12348 15.3731C6.23471 15.3729 6.34595 15.3727 6.45719 15.3727C6.55789 15.3723 6.65859 15.372 6.76234 15.3717C7.02255 15.3901 7.19357 15.4233 7.42185 15.5469C7.61563 15.8376 7.6143 15.9843 7.5781 16.3282C7.45056 16.5173 7.35002 16.6234 7.12165 16.6702C6.94024 16.6835 6.76145 16.686 6.57956 16.6849C6.51312 16.6854 6.44667 16.6859 6.37821 16.6864C6.23795 16.6869 6.09768 16.6867 5.95742 16.6857C5.74285 16.6846 5.52855 16.6873 5.314 16.6903C5.17758 16.6903 5.04117 16.6902 4.90476 16.6898C4.80868 16.6914 4.80868 16.6914 4.71066 16.6929C4.38992 16.6877 4.26455 16.6822 4.01929 16.46C3.86497 16.1734 3.89847 16.0123 3.98435 15.7032C4.32387 15.2181 5.07764 15.3761 5.60145 15.3762Z" fill="#D2393E"/>
</g>
<defs>
<clipPath id="clip0_172_315">
<rect width="40" height="40" fill="white"/>
</clipPath>
</defs>
</svg>
