<svg width="60" height="60" viewBox="0 0 60 60" fill="none" xmlns="http://www.w3.org/2000/svg">
<g clip-path="url(#clip0_322_37)">
<path d="M16.6777 18.8365C16.7965 18.8361 16.9152 18.8358 17.0376 18.8354C17.4338 18.8345 17.8301 18.8352 18.2263 18.8359C18.5111 18.8356 18.7958 18.8352 19.0806 18.8347C19.7728 18.8337 20.465 18.8339 21.1572 18.8345C21.72 18.8351 22.2829 18.8351 22.8457 18.8349C22.9259 18.8349 23.0062 18.8348 23.0888 18.8348C23.2518 18.8347 23.4148 18.8346 23.5778 18.8346C25.105 18.8339 26.6322 18.8347 28.1593 18.8359C29.4684 18.837 30.7774 18.8368 32.0864 18.8357C33.6081 18.8344 35.1297 18.834 36.6514 18.8347C36.8138 18.8347 36.9763 18.8348 37.1387 18.8349C37.2186 18.8349 37.2985 18.835 37.3808 18.835C37.9426 18.8352 38.5044 18.8349 39.0662 18.8343C39.8231 18.8336 40.5799 18.8341 41.3368 18.8355C41.6144 18.8358 41.8919 18.8357 42.1694 18.8352C42.5488 18.8345 42.9281 18.8353 43.3074 18.8365C43.4715 18.8357 43.4715 18.8357 43.6389 18.8349C44.7728 18.8417 45.6954 18.986 46.5235 19.8038C46.8296 20.1744 47.0853 20.5708 47.3438 20.9756C47.4412 21.1253 47.5387 21.2748 47.6363 21.4242C47.9139 21.8503 48.1893 22.2778 48.4642 22.7056C48.7343 23.1256 49.0059 23.5447 49.2774 23.9639C49.3848 24.1299 49.4922 24.2959 49.5996 24.462C49.6528 24.5441 49.706 24.6263 49.7608 24.711C49.9219 24.96 50.083 25.209 50.2442 25.4581C50.324 25.5814 50.324 25.5814 50.4054 25.7072C50.5126 25.8729 50.6198 26.0386 50.7271 26.2044C51.0534 26.7088 51.38 27.2132 51.7066 27.7175C51.8674 27.966 52.0281 28.2146 52.1888 28.4633C52.3956 28.7833 52.6032 29.1027 52.8113 29.4218C52.9078 29.5703 53.0042 29.7188 53.1006 29.8672C53.145 29.9349 53.1893 30.0025 53.235 30.0722C53.76 30.8825 53.7427 31.6308 53.6719 32.5772C53.458 33.4881 52.6509 34.1486 52.0313 34.8038C51.8911 34.9616 51.7518 35.1202 51.6138 35.2798C51.2188 35.7343 50.8156 36.181 50.4122 36.6279C50.1904 36.8751 49.9712 37.124 49.7534 37.3746C49.3255 37.8661 48.8857 38.3464 48.4465 38.828C48.1442 39.1617 47.8475 39.4997 47.5521 39.8396C47.3094 40.1164 47.0631 40.3898 46.8164 40.6631C46.5012 41.0124 46.1879 41.363 45.8789 41.7178C45.4812 42.1744 45.0757 42.6238 44.67 43.0733C44.4483 43.3204 44.229 43.5693 44.0113 43.8199C43.5833 44.3114 43.1435 44.7918 42.7043 45.2733C42.402 45.607 42.1053 45.9451 41.8099 46.2849C41.5672 46.5618 41.3209 46.8352 41.0742 47.1084C40.759 47.4577 40.4458 47.8083 40.1367 48.1631C39.7392 48.6196 39.3338 49.0687 38.9283 49.5181C38.7041 49.7679 38.4822 50.0194 38.2617 50.2725C37.6909 50.9276 37.1064 51.5704 36.5241 52.2153C36.0566 52.7336 35.5927 53.2545 35.1343 53.7808C34.801 54.1601 34.4618 54.5339 34.1236 54.9087C33.8994 55.1585 33.6775 55.41 33.4571 55.6631C33.3204 55.8195 33.1837 55.9757 33.0469 56.1319C32.9596 56.2316 32.8723 56.3313 32.7823 56.434C32.6908 56.5373 32.5992 56.6407 32.5049 56.7471C32.4212 56.842 32.3375 56.9368 32.2513 57.0346C31.5934 57.7181 30.9175 58.0948 29.957 58.136C28.5059 58.0305 27.6869 57.0575 26.7774 56.022C26.7121 55.946 26.6469 55.8701 26.5796 55.7918C26.3369 55.5109 26.0888 55.2354 25.8399 54.96C25.5247 54.6107 25.2114 54.2601 24.9024 53.9053C24.4206 53.3525 23.9289 52.8089 23.4375 52.2647C22.8788 51.646 22.3225 51.0257 21.7749 50.397C21.5306 50.119 21.2831 49.8441 21.0352 49.5694C20.6527 49.1455 20.2749 48.7181 19.8999 48.2876C19.6556 48.0097 19.4081 47.7347 19.1602 47.46C18.845 47.1107 18.5317 46.7601 18.2227 46.4053C17.741 45.8525 17.2492 45.3089 16.7578 44.7647C16.1991 44.146 15.6428 43.5257 15.0952 42.897C14.851 42.619 14.6034 42.3441 14.3555 42.0694C13.973 41.6455 13.5952 41.2181 13.2202 40.7876C12.976 40.5097 12.7284 40.2347 12.4805 39.96C12.1653 39.6107 11.852 39.2601 11.543 38.9053C11.0613 38.3525 10.5696 37.8089 10.0782 37.2647C9.51942 36.646 8.96222 36.0264 8.41602 35.3966C8.26049 35.2203 8.10233 35.0463 7.94269 34.8738C6.32453 33.1206 6.32453 33.1206 6.27689 31.8155C6.26979 31.6813 6.26269 31.5472 6.25537 31.409C6.34047 30.28 7.30272 29.2127 7.91869 28.3054C8.15535 27.9567 8.39005 27.6066 8.62476 27.2566C8.67052 27.1884 8.71628 27.1202 8.76342 27.05C9.10167 26.5447 9.43 26.0345 9.74857 25.5166C10.4978 24.2996 11.2853 23.1073 12.0703 21.9131C12.1622 21.7733 12.1622 21.7733 12.2559 21.6306C12.4158 21.3876 12.5762 21.1449 12.7368 20.9024C12.8046 20.7996 12.8046 20.7996 12.8737 20.6948C13.5147 19.7323 14.0579 19.1939 15.1948 18.9167C15.6875 18.826 16.1782 18.8341 16.6777 18.8365ZM17.1094 21.3272C17.2781 21.7488 17.4126 22.0463 17.6546 22.413C17.716 22.5066 17.7773 22.6002 17.8405 22.6967C17.9062 22.7958 17.9719 22.895 18.0396 22.9971C18.1783 23.2084 18.317 23.4198 18.4557 23.6311C18.5251 23.7366 18.5946 23.842 18.6661 23.9507C18.9551 24.3907 19.2409 24.8327 19.5264 25.2749C19.6312 25.437 19.736 25.5991 19.8409 25.7611C20.0575 26.096 20.2738 26.4312 20.49 26.7663C21.1133 27.732 21.7415 28.6937 22.3828 29.6475C22.7792 29.173 23.1131 28.6735 23.4449 28.1534C23.5597 27.9745 23.6746 27.7957 23.7896 27.6169C23.8479 27.5259 23.9062 27.4348 23.9663 27.3411C24.238 26.9177 24.5116 26.4955 24.7852 26.0733C24.8923 25.9077 24.9994 25.7422 25.1065 25.5766C25.3244 25.24 25.5423 24.9034 25.7602 24.5668C26.028 24.1532 26.2956 23.7394 26.5631 23.3256C26.7199 23.0833 26.877 22.8413 27.0342 22.5993C27.1317 22.4487 27.2292 22.2981 27.3267 22.1475C27.372 22.0779 27.4174 22.0083 27.4641 21.9366C27.6808 21.6538 27.6808 21.6538 27.7735 21.3272C24.2543 21.3272 20.7352 21.3272 17.1094 21.3272ZM32.2266 21.3272C32.674 22.1423 32.674 22.1423 33.1577 22.9275C33.2179 23.0196 33.2781 23.1117 33.3401 23.2065C33.4029 23.3018 33.4656 23.397 33.5303 23.4952C33.6661 23.7027 33.8019 23.9102 33.9377 24.1177C34.005 24.2203 34.0722 24.3229 34.1415 24.4285C34.4229 24.8585 34.7018 25.2901 34.9805 25.7217C35.0844 25.8823 35.1883 26.0428 35.2922 26.2033C35.5378 26.5826 35.7826 26.9624 36.0274 27.3422C36.1643 27.554 36.3011 27.7658 36.438 27.9776C36.5336 28.1263 36.5336 28.1263 36.6312 28.2781C36.9395 28.7544 37.2507 29.213 37.6172 29.6475C38.2102 28.8164 38.7698 27.9682 39.3164 27.106C39.9561 26.1018 40.5993 25.1002 41.25 24.1031C41.3229 23.9915 41.3957 23.8799 41.4707 23.7649C41.9299 23.0624 42.3933 22.3631 42.8646 21.6687C43.0184 21.4723 43.0184 21.4723 43.0078 21.3272C39.45 21.3272 35.8922 21.3272 32.2266 21.3272ZM14.6485 22.4991C14.4935 22.6934 14.4935 22.6934 14.3409 22.9518C14.2784 23.0519 14.216 23.1519 14.1517 23.255C14.0836 23.3657 14.0155 23.4764 13.9453 23.5904C13.2892 24.6405 12.6142 25.6754 11.9239 26.7032C11.0422 28.0177 10.1894 29.3449 9.37503 30.7022C12.8942 30.7022 16.4133 30.7022 20.0391 30.7022C19.8581 30.2496 19.6927 29.9147 19.4335 29.5129C19.3586 29.3965 19.2838 29.28 19.2067 29.16C19.0858 28.9735 19.0858 28.9735 18.9624 28.7832C18.8373 28.5891 18.8373 28.5891 18.7097 28.3909C18.0755 27.4072 17.4373 26.4261 16.7959 25.4471C16.4551 24.9269 16.1164 24.4056 15.7837 23.8801C15.724 23.7863 15.6643 23.6924 15.6028 23.5956C15.4919 23.4209 15.3817 23.2458 15.2723 23.0701C15.1486 22.8757 15.0166 22.6867 14.8828 22.4991C14.8055 22.4991 14.7282 22.4991 14.6485 22.4991ZM45.1172 22.4991C44.9429 22.7519 44.7837 23.0047 44.6265 23.2681C44.5204 23.4419 44.414 23.6156 44.3074 23.789C44.2494 23.8835 44.1914 23.978 44.1316 24.0753C43.7997 24.6077 43.4545 25.1313 43.1104 25.6558C42.6268 26.3939 42.1452 27.1332 41.6703 27.8769C41.6276 27.9436 41.585 28.0104 41.541 28.0792C41.334 28.4036 41.1273 28.7283 40.9208 29.0531C40.8464 29.1699 40.7719 29.2868 40.6952 29.4072C40.5969 29.5619 40.5969 29.5619 40.4967 29.7197C40.3125 29.9991 40.3125 29.9991 40.1128 30.2558C39.9382 30.4561 39.9382 30.4561 39.961 30.7022C43.4801 30.7022 46.9992 30.7022 50.625 30.7022C50.3543 30.2768 50.0836 29.8514 49.8047 29.4131C49.5301 28.9718 49.5301 28.9718 49.4053 28.7702C48.654 27.5566 47.8703 26.3642 47.0887 25.1699C46.7157 24.5989 46.3455 24.0259 45.9756 23.4528C45.7694 23.1336 45.5624 22.8153 45.3516 22.4991C45.2742 22.4991 45.1969 22.4991 45.1172 22.4991ZM29.8828 22.6163C29.726 22.8069 29.726 22.8069 29.572 23.0589C29.5107 23.1544 29.4493 23.2499 29.3861 23.3483C29.3204 23.4524 29.2547 23.5564 29.187 23.6636C29.1189 23.77 29.0508 23.8764 28.9806 23.986C28.8403 24.2053 28.7003 24.4247 28.5605 24.6444C28.2762 25.0905 27.9882 25.5343 27.7002 25.9781C27.5952 26.1404 27.4902 26.3028 27.3853 26.4651C27.1155 26.8825 26.8454 27.2997 26.5752 27.7168C26.3623 28.0457 26.1497 28.3747 25.937 28.7038C25.7802 28.946 25.6231 29.1881 25.4659 29.4301C25.3684 29.5807 25.2709 29.7313 25.1734 29.8819C25.1054 29.9863 25.1054 29.9863 25.036 30.0928C24.8193 30.3756 24.8193 30.3756 24.7266 30.7022C28.2071 30.7022 31.6875 30.7022 35.2735 30.7022C34.8017 29.8478 34.8017 29.8478 34.2911 29.0249C34.2203 28.917 34.1495 28.809 34.0765 28.6977C34.0026 28.5857 33.9287 28.4738 33.8526 28.3584C33.6954 28.1189 33.5382 27.8793 33.3811 27.6398C33.2658 27.4643 33.2658 27.4643 33.1482 27.2853C32.8488 26.8288 32.552 26.3707 32.2559 25.9122C32.2054 25.834 32.1548 25.7558 32.1027 25.6752C32.0014 25.5185 31.9001 25.3617 31.7989 25.2049C31.5095 24.757 31.2198 24.3092 30.9302 23.8614C30.8483 23.7347 30.8483 23.7347 30.7648 23.6055C30.7141 23.5271 30.6634 23.4487 30.6111 23.3679C30.5443 23.2645 30.5443 23.2645 30.4761 23.159C30.3577 22.9772 30.2375 22.7967 30.1172 22.6163C30.0399 22.6163 29.9625 22.6163 29.8828 22.6163ZM9.96097 33.1631C10.1248 33.5031 10.287 33.7557 10.5483 34.0292C10.6174 34.1022 10.6864 34.1752 10.7576 34.2505C10.8307 34.3267 10.9038 34.4029 10.979 34.4815C11.129 34.6399 11.2788 34.7985 11.4286 34.9571C11.4998 35.0325 11.5711 35.1078 11.6445 35.1855C11.9259 35.4856 12.1961 35.7944 12.4645 36.1061C12.7007 36.3784 12.942 36.6457 13.1836 36.9131C13.5661 37.337 13.9439 37.7644 14.3189 38.1949C14.6523 38.5743 14.9917 38.9483 15.3301 39.3233C15.5518 39.5704 15.771 39.8193 15.9888 40.0699C16.3182 40.4482 16.6542 40.8199 16.9922 41.1905C17.3969 41.6342 17.7962 42.0817 18.1902 42.5349C18.4329 42.8118 18.6791 43.0852 18.9258 43.3584C19.3083 43.7823 19.6861 44.2097 20.0611 44.6402C20.3054 44.9182 20.5529 45.1931 20.8008 45.4678C21.116 45.8171 21.4293 46.1677 21.7383 46.5225C22.22 47.0753 22.7118 47.619 23.2032 48.1631C23.7619 48.7819 24.3182 49.4021 24.8658 50.0308C25.1984 50.4093 25.5369 50.7825 25.8747 51.1564C26.1098 51.4187 26.3416 51.6835 26.5723 51.9498C26.8812 52.3048 27.2013 52.6403 27.5391 52.9678C27.3373 51.9448 27.0207 50.9596 26.7101 49.9658C26.6494 49.7705 26.5887 49.5751 26.5281 49.3797C26.3984 48.9622 26.2685 48.5447 26.1384 48.1273C25.8289 47.1342 25.5205 46.1407 25.2121 45.1472C25.1415 44.9198 25.0709 44.6924 25.0003 44.4651C24.4832 42.8002 23.97 41.1342 23.4604 39.467C23.429 39.3643 23.3976 39.2615 23.3652 39.1556C23.0638 38.1698 22.7626 37.1839 22.4624 36.1977C22.3529 35.8384 22.2432 35.4793 22.1333 35.1201C22.0825 34.9537 22.0319 34.7872 21.9813 34.6208C21.9129 34.3951 21.8439 34.1697 21.7749 33.9442C21.7365 33.818 21.698 33.6918 21.6584 33.5618C21.5887 33.2892 21.5887 33.2892 21.4453 33.1631C21.0886 33.152 20.7346 33.1484 20.3778 33.1498C20.2658 33.1498 20.1537 33.1498 20.0383 33.1498C19.6661 33.1499 19.2939 33.1508 18.9217 33.1517C18.6644 33.1519 18.4071 33.1521 18.1497 33.1522C17.471 33.1526 16.7923 33.1538 16.1136 33.1551C15.4216 33.1563 14.7296 33.1568 14.0376 33.1574C12.6787 33.1587 11.3198 33.1607 9.96097 33.1631ZM24.1407 33.1631C24.2277 33.7726 24.3293 34.2678 24.5099 34.8463C24.5356 34.929 24.5612 35.0118 24.5876 35.097C24.6729 35.3716 24.759 35.6459 24.8452 35.9202C24.9064 36.1169 24.9675 36.3136 25.0286 36.5103C25.1594 36.9309 25.2906 37.3513 25.422 37.7717C25.7337 38.7688 26.0436 39.7664 26.3536 40.764C26.4598 41.1058 26.5661 41.4475 26.6724 41.7892C27.3551 43.9849 28.0285 46.1833 28.6993 48.3827C28.7844 48.6618 28.8696 48.9409 28.9547 49.2201C29.2644 50.2349 29.5738 51.2497 29.8828 52.2647C29.9602 52.2647 30.0375 52.2647 30.1172 52.2647C30.2979 51.6797 30.4786 51.0947 30.6592 50.5096C30.6876 50.4176 30.716 50.3257 30.7453 50.2309C31.0975 49.0904 31.4495 47.9498 31.8013 46.8092C31.9026 46.4809 32.0038 46.1526 32.1051 45.8244C32.1739 45.6011 32.2428 45.3778 32.3116 45.1546C32.7283 43.8036 33.1457 42.4529 33.5642 41.1026C33.8279 40.2519 34.0912 39.401 34.3542 38.5501C34.5106 38.0442 34.6672 37.5384 34.8244 37.0328C34.972 36.5579 35.119 36.0828 35.2655 35.6076C35.3194 35.4334 35.3734 35.2593 35.4277 35.0853C35.5017 34.8482 35.5748 34.6109 35.6477 34.3735C35.6888 34.2408 35.73 34.1081 35.7723 33.9714C35.8788 33.6146 35.8788 33.6146 35.8594 33.1631C31.9922 33.1631 28.125 33.1631 24.1407 33.1631ZM38.5547 33.1631C38.3401 33.6639 38.1511 34.1127 37.9946 34.6252C37.957 34.7473 37.9195 34.8695 37.8808 34.9953C37.8406 35.1276 37.8005 35.2598 37.7591 35.3961C37.6921 35.6148 37.6251 35.8334 37.558 36.0521C37.4859 36.2877 37.414 36.5234 37.3421 36.7591C37.1904 37.257 37.038 37.7546 36.8855 38.2522C36.8322 38.426 36.779 38.5998 36.7257 38.7736C36.6853 38.9053 36.6853 38.9053 36.6442 39.0396C36.5605 39.3126 36.4769 39.5857 36.3934 39.8587C35.7243 42.0442 35.0495 44.2279 34.3749 46.4118C34.1235 47.226 33.8721 48.0402 33.6207 48.8544C33.5108 49.2104 33.4009 49.5663 33.2909 49.9222C33.2409 50.0844 33.191 50.2466 33.1413 50.4088C33.0252 50.787 32.907 51.1643 32.784 51.5402C32.7178 51.7455 32.7178 51.7455 32.6503 51.9549C32.5911 52.1344 32.5911 52.1344 32.5308 52.3175C32.4307 52.6279 32.4307 52.6279 32.5782 52.9678C33.179 52.3101 33.7777 51.6512 34.3621 50.9788C34.6047 50.702 34.851 50.4286 35.0977 50.1553C35.4129 49.806 35.7262 49.4554 36.0352 49.1006C36.4329 48.644 36.8384 48.1947 37.2441 47.7452C37.4659 47.4981 37.6851 47.2492 37.9029 46.9986C38.3308 46.5071 38.7707 46.0267 39.2098 45.5452C39.5121 45.2115 39.8089 44.8734 40.1042 44.5335C40.3469 44.2567 40.5932 43.9833 40.8399 43.71C41.1551 43.3607 41.4684 43.0101 41.7774 42.6553C42.1749 42.1989 42.5803 41.7497 42.9859 41.3003C43.2101 41.0505 43.4319 40.799 43.6524 40.5459C44.2232 39.8909 44.8077 39.2481 45.39 38.6032C45.8575 38.0849 46.3214 37.564 46.7798 37.0376C47.1131 36.6584 47.4523 36.2845 47.7906 35.9097C48.081 35.5861 48.3671 35.259 48.6521 34.9306C48.8154 34.7453 48.9813 34.5623 49.1483 34.3803C49.2919 34.2238 49.2919 34.2238 49.4385 34.064C49.5276 33.9678 49.6168 33.8716 49.7086 33.7724C49.9437 33.52 49.9437 33.52 50.0391 33.1631C46.2492 33.1631 42.4594 33.1631 38.5547 33.1631Z" fill="#D2393E"/>
<path d="M30.9155 2.2708C31.3108 2.74514 31.3045 3.10155 31.3079 3.701C31.3085 3.77879 31.3091 3.85658 31.3097 3.93672C31.3114 4.19395 31.3122 4.45117 31.3128 4.7084C31.3135 4.8875 31.3142 5.0666 31.3149 5.2457C31.3161 5.62132 31.3168 5.99694 31.3172 6.37257C31.3178 6.85292 31.3206 7.33323 31.324 7.81356C31.3262 8.18363 31.3268 8.5537 31.3269 8.92377C31.3273 9.1008 31.3282 9.27782 31.3298 9.45484C31.3318 9.70306 31.3316 9.95119 31.3308 10.1994C31.3312 10.3404 31.3316 10.4815 31.3321 10.6268C31.2835 11.0657 31.1692 11.3448 30.9375 11.719C30.4665 12.033 30.0848 12.035 29.5312 11.9534C29.1948 11.7432 29.0049 11.6039 28.8281 11.2503C28.8143 10.9836 28.8082 10.7166 28.8055 10.4496C28.8045 10.3672 28.8036 10.2849 28.8026 10.2C28.7997 9.92695 28.7977 9.65388 28.796 9.38079C28.7954 9.2875 28.7948 9.19421 28.7942 9.0981C28.791 8.60416 28.7887 8.11023 28.7871 7.61628C28.7851 7.10661 28.7799 6.59703 28.7739 6.08739C28.7699 5.6951 28.7686 5.30284 28.7679 4.91053C28.7671 4.72271 28.7654 4.53488 28.7626 4.34708C28.7588 4.08365 28.7588 3.82046 28.7597 3.55701C28.7588 3.4073 28.7578 3.2576 28.7568 3.10335C28.8508 2.56537 29.0323 2.37637 29.414 1.99248C29.957 1.72975 30.4751 1.89895 30.9155 2.2708Z" fill="#D2393E"/>
<path d="M51.0938 10.546C51.4289 10.793 51.5407 10.9494 51.6724 11.3443C51.6858 12.0282 51.3966 12.4931 50.9462 12.9807C50.791 13.139 50.6344 13.296 50.4767 13.4519C50.3933 13.5357 50.3099 13.6196 50.224 13.7059C50.048 13.8822 49.8715 14.0579 49.6944 14.233C49.4247 14.5002 49.1575 14.7699 48.8905 15.0399C48.7187 15.2114 48.5468 15.3827 48.3746 15.5539C48.2954 15.6341 48.2161 15.7143 48.1345 15.797C47.6647 16.2576 47.2729 16.5599 46.6406 16.7569C46.188 16.6879 45.9098 16.5885 45.542 16.3175C45.2962 15.9771 45.2426 15.7713 45.2344 15.3507C45.4757 14.6069 45.8873 14.1603 46.4374 13.6167C46.5208 13.5328 46.6042 13.449 46.6901 13.3626C46.866 13.1863 47.0426 13.0107 47.2196 12.8355C47.4894 12.5683 47.7565 12.2987 48.0235 12.0287C48.1953 11.8572 48.3673 11.6858 48.5394 11.5146C48.6187 11.4344 48.6979 11.3542 48.7796 11.2716C49.4881 10.5768 50.0889 10.1099 51.0938 10.546Z" fill="#D2393E"/>
<path d="M11.1328 11.2503C11.6418 11.7406 12.143 12.2387 12.6426 12.7384C12.8773 12.9728 13.1128 13.2062 13.3484 13.4396C13.4983 13.5891 13.6481 13.7387 13.7979 13.8884C13.8681 13.9577 13.9383 14.0271 14.0106 14.0985C14.0756 14.1639 14.1406 14.2293 14.2076 14.2966C14.2646 14.3534 14.3216 14.4103 14.3804 14.4689C14.6428 14.7817 14.7568 15.0501 14.8096 15.4544C14.7541 15.9169 14.5832 16.1616 14.2969 16.5238C13.8652 16.7396 13.4762 16.7394 13.0078 16.6409C12.7519 16.46 12.7519 16.46 12.4878 16.2102C12.386 16.1144 12.2842 16.0186 12.1793 15.92C12.0646 15.8089 11.9502 15.6977 11.8359 15.5863C11.7734 15.5257 11.7109 15.4651 11.6465 15.4027C11.2306 14.9986 10.8186 14.5907 10.4086 14.1806C10.193 13.9653 9.97651 13.7509 9.75998 13.5366C9.62183 13.3988 9.48374 13.2609 9.3457 13.123C9.28138 13.0595 9.21705 12.9961 9.15078 12.9307C8.70416 12.4813 8.46766 12.1861 8.38623 11.5579C8.45497 10.9884 8.61163 10.8231 9.02344 10.43C9.90512 10.0034 10.5366 10.6901 11.1328 11.2503Z" fill="#D2393E"/>
<path d="M57.5904 30.6582C57.7682 30.6562 57.7682 30.6562 57.9495 30.6541C58.6426 30.6568 59.1598 30.7063 59.7657 31.0537C60.0796 31.5247 60.0816 31.9064 60.0001 32.46C59.7898 32.7963 59.6505 32.9863 59.2969 33.1631C58.8182 33.196 58.3393 33.1998 57.8595 33.2041C57.7002 33.2061 57.541 33.2093 57.3818 33.2137C57.1516 33.2202 56.9212 33.2224 56.6909 33.2244C56.5531 33.2268 56.4153 33.2291 56.2733 33.2315C55.7863 33.1426 55.6172 32.959 55.3126 32.5772C55.1748 32.1035 55.1665 31.8452 55.3199 31.376C55.8818 30.5784 56.7035 30.6481 57.5904 30.6582Z" fill="#D2393E"/>
<path d="M2.38763 30.6738C2.50818 30.6713 2.62873 30.6689 2.75293 30.6664C3.40433 30.6631 3.89822 30.6708 4.45306 31.0546C4.7348 31.4545 4.80463 31.6853 4.80463 32.1752C4.6618 32.6662 4.49589 32.8427 4.1015 33.164C3.73231 33.2379 3.73231 33.2379 3.32147 33.2377C3.09828 33.238 3.09828 33.238 2.87057 33.2384C2.71604 33.2356 2.5615 33.2328 2.40228 33.2299C2.24775 33.2312 2.09321 33.2325 1.93399 33.2338C0.660385 33.2241 0.660385 33.2241 0.117126 32.6952C-0.0866625 32.2877 -0.0691772 31.8508 -6.11527e-05 31.4062C0.635988 30.5581 1.41186 30.6786 2.38763 30.6738Z" fill="#D2393E"/>
<path d="M30.9156 13.8495C31.2086 14.2262 31.2892 14.4068 31.2892 14.8823C31.0633 15.5955 31.0633 15.5955 30.7399 15.871C30.3296 15.9708 29.9456 16.0208 29.5314 15.9369C29.1871 15.6513 29.1871 15.6513 28.9454 15.351C28.9068 15.3123 28.8681 15.2737 28.8282 15.2338C28.7727 14.6879 28.7432 14.3342 29.0919 13.8935C29.6803 13.3452 30.2671 13.3451 30.9156 13.8495Z" fill="#D2393E"/>
</g>
<defs>
<clipPath id="clip0_322_37">
<rect width="60" height="60" fill="white"/>
</clipPath>
</defs>
</svg>
