<svg width="60" height="60" viewBox="0 0 60 60" fill="none" xmlns="http://www.w3.org/2000/svg">
<path d="M30.3517 2.92978C30.7434 3.07124 30.8143 3.15485 31.0549 3.51572C31.0853 3.76598 31.0853 3.76598 31.087 4.06123C31.0881 4.17327 31.0893 4.28532 31.0905 4.40076C31.0906 4.52349 31.0907 4.64623 31.0908 4.77268C31.0917 4.90209 31.0927 5.0315 31.0937 5.16484C31.0965 5.59383 31.0976 6.02281 31.0983 6.45182C31.0994 6.74943 31.1005 7.04704 31.1015 7.34466C31.1035 7.96904 31.1044 8.59341 31.1047 9.2178C31.1051 9.93907 31.1086 10.6603 31.1136 11.3815C31.1181 12.0758 31.1194 12.77 31.1196 13.4642C31.1201 13.7594 31.1215 14.0546 31.124 14.3498C31.1271 14.7625 31.1266 15.1751 31.1251 15.5878C31.1277 15.7712 31.1277 15.7712 31.1304 15.9583C31.1219 16.7878 31.1219 16.7878 30.7724 17.2427C30.3402 17.5536 30.0097 17.5877 29.4902 17.6203C25.8737 17.8812 22.9257 19.2145 20.5007 21.9801C19.4537 23.2752 18.6795 24.7858 18.1642 26.3673C18.1396 26.4429 18.1149 26.5185 18.0896 26.5965C17.0892 29.8431 17.6595 33.1748 19.1827 36.1263C20.7489 38.9497 23.4536 41.1031 26.5556 41.9999C29.9846 42.8623 33.3959 42.3101 36.4455 40.547C39.4617 38.6248 41.427 35.7462 42.2023 32.2633C42.2758 31.8828 42.3183 31.5055 42.3502 31.1198C42.3585 31.0261 42.3669 30.9324 42.3755 30.8358C42.3916 30.6485 42.4053 30.461 42.4164 30.2733C42.4238 30.186 42.4313 30.0987 42.439 30.0088C42.4469 29.892 42.4469 29.892 42.4549 29.7729C42.5955 29.3702 42.7862 29.2061 43.1252 28.9454C43.5489 28.8579 43.9666 28.8666 44.398 28.8715C44.5904 28.8702 44.5904 28.8702 44.7868 28.8689C45.2107 28.8669 45.6346 28.8692 46.0585 28.8717C46.3532 28.8716 46.6478 28.8713 46.9425 28.8709C47.5599 28.8705 48.1774 28.8722 48.7949 28.8755C49.508 28.8792 50.2211 28.8792 50.9342 28.8772C51.6212 28.8753 52.3082 28.8761 52.9951 28.8781C53.2871 28.8787 53.579 28.8787 53.8709 28.8779C54.2788 28.8773 54.6866 28.8797 55.0945 28.8829C55.2757 28.8817 55.2757 28.8817 55.4606 28.8806C55.9801 28.8875 56.2822 28.8933 56.7325 29.169C56.9988 29.4647 57.0644 29.5806 57.0998 29.9781C57.0664 30.4034 56.9793 30.6028 56.7189 30.9376C56.391 31.1371 56.1482 31.201 55.7667 31.1986C55.6728 31.1986 55.579 31.1985 55.4824 31.1985C55.3322 31.1967 55.3322 31.1967 55.179 31.1949C55.0756 31.1945 54.9722 31.1942 54.8657 31.1939C54.5362 31.1925 54.2067 31.1896 53.8771 31.1866C53.6534 31.1854 53.4297 31.1844 53.206 31.1834C52.6582 31.1808 52.1105 31.1768 51.5627 31.172C51.5515 31.2562 51.5404 31.3403 51.5289 31.4271C50.9828 35.491 49.9118 39.297 47.4611 42.6563C47.3732 42.779 47.2853 42.9017 47.1947 43.0281C45.2146 45.7099 42.6546 47.7806 39.7267 49.336C39.6528 49.3756 39.579 49.4151 39.5028 49.4558C38.539 49.9619 37.5322 50.3252 36.5041 50.6764C36.3836 50.7179 36.2632 50.7595 36.1391 50.8023C35.5177 51.0075 34.9915 51.1639 34.3361 51.0938C33.9906 50.9136 33.8032 50.782 33.676 50.4058C33.605 50.0061 33.6132 49.7433 33.7502 49.358C34.2263 48.8373 34.9989 48.6819 35.6568 48.4752C36.8853 48.0876 38.014 47.6141 39.1408 46.9923C39.2657 46.9248 39.3906 46.8572 39.5194 46.7877C43.9209 44.3221 47.0677 40.0948 48.4783 35.285C48.8407 33.9538 49.1197 32.5537 49.1017 31.172C48.5219 31.1691 47.9421 31.1669 47.3622 31.1655C47.1649 31.1649 46.9676 31.1641 46.7702 31.1631C46.4869 31.1617 46.2036 31.161 45.9203 31.1605C45.8318 31.1599 45.7433 31.1593 45.6521 31.1587C45.1939 31.1493 45.1939 31.1493 44.7658 31.2892C44.6872 31.5319 44.6872 31.5319 44.6353 31.8284C44.6127 31.9406 44.5901 32.0528 44.5668 32.1684C44.543 32.2891 44.5193 32.4099 44.4948 32.5343C43.6604 36.5166 41.6217 40.0031 38.1758 42.2878C36.2275 43.5388 34.1657 44.265 31.8827 44.6543C31.494 44.6938 31.494 44.6938 31.172 44.8829C31.1598 45.2407 31.1552 45.5959 31.1554 45.9538C31.155 46.0662 31.1546 46.1786 31.1542 46.2944C31.1533 46.5395 31.1527 46.7845 31.1523 47.0295C31.1514 47.4171 31.1496 47.8046 31.1474 48.1922C31.1413 49.2944 31.1357 50.3966 31.1338 51.4988C31.1327 52.1722 31.1292 52.8455 31.1243 53.5189C31.1229 53.7759 31.1223 54.0329 31.1225 54.2899C31.1228 54.6494 31.1202 55.0087 31.117 55.3681C31.1177 55.4747 31.1185 55.5814 31.1193 55.6912C31.1086 56.4132 31.1086 56.4132 30.8312 56.7813C30.4136 57.0742 30.1595 57.1011 29.6486 57.0704C29.2569 56.929 29.1861 56.8453 28.9455 56.4845C28.92 56.1392 28.9074 55.8041 28.9052 55.4586C28.9035 55.3582 28.9018 55.2578 28.9 55.1544C28.8927 54.7247 28.8881 54.2949 28.8832 53.8652C28.8792 53.5516 28.8739 53.238 28.8686 52.9244C28.868 52.8268 28.8673 52.7291 28.8667 52.6285C28.8802 52.0985 28.8802 52.0985 28.5939 51.6798C28.3168 51.6149 28.3168 51.6149 27.991 51.5791C27.8669 51.5623 27.7428 51.5456 27.6149 51.5283C27.4812 51.5106 27.3474 51.4929 27.2096 51.4747C21.6458 50.6763 16.4056 47.7588 12.9961 43.2377C11.499 41.1932 10.3358 38.9689 9.55827 36.5553C9.52931 36.4661 9.50036 36.3769 9.47052 36.285C9.0084 34.7807 9.0084 34.7807 9.27995 34.109C9.5136 33.8431 9.61932 33.7253 9.9611 33.6329C10.6307 33.6329 10.6307 33.6329 10.8986 33.7501C11.356 34.2962 11.5147 34.8727 11.6969 35.5519C13.0215 40.2021 16.1751 44.3464 20.3981 46.7359C20.7059 46.9041 21.0163 47.0666 21.3283 47.2267C21.4 47.2639 21.4716 47.3012 21.5455 47.3396C23.1327 48.1554 24.8132 48.6687 26.5578 49.0284C26.6521 49.0481 26.7464 49.0678 26.8435 49.088C27.4752 49.2096 28.0677 49.2454 28.7111 49.2188C28.9169 49.0131 28.8433 48.7431 28.8446 48.469C28.8443 48.3807 28.8441 48.2923 28.8439 48.2012C28.844 48.1109 28.8441 48.0206 28.8442 47.9275C28.8443 47.7361 28.8441 47.5447 28.8436 47.3533C28.8429 47.0599 28.8436 46.7664 28.8443 46.473C28.8442 46.2873 28.8441 46.1017 28.8439 45.9161C28.8442 45.7839 28.8442 45.7839 28.8446 45.649C28.8514 45.1924 28.8514 45.1924 28.7111 44.7657C28.4645 44.6909 28.4645 44.6909 28.1627 44.6435C27.99 44.6114 27.99 44.6114 27.8138 44.5786C27.6271 44.5443 27.6271 44.5443 27.4367 44.5094C23.5129 43.7362 20.0922 41.6542 17.8127 38.3204C16.512 36.3562 15.7812 34.2313 15.4195 31.9163C15.374 31.5399 15.374 31.5399 15.2345 31.2892C14.9181 31.1837 14.7369 31.1572 14.4123 31.1566C14.3169 31.1561 14.2214 31.1556 14.1231 31.1552C13.9666 31.1553 13.9666 31.1553 13.807 31.1553C13.6969 31.1549 13.5867 31.1545 13.4732 31.1541C13.2338 31.1533 12.9944 31.1526 12.755 31.1522C12.3763 31.1514 11.9976 31.1495 11.6189 31.1474C10.5421 31.1412 9.46525 31.1356 8.38843 31.1338C7.72999 31.1326 7.07159 31.1292 6.41317 31.1242C6.16204 31.1228 5.9109 31.1222 5.65976 31.1225C5.30876 31.1227 4.95788 31.1202 4.6069 31.1169C4.50284 31.1177 4.39879 31.1184 4.29158 31.1192C3.5867 31.1085 3.5867 31.1085 3.22054 30.8312C2.9259 30.4149 2.87066 30.1615 2.92985 29.6485C3.33341 28.996 3.33341 28.996 3.74754 28.8811C4.02916 28.8566 4.3034 28.8542 4.58604 28.8593C4.68842 28.8583 4.7908 28.8572 4.89629 28.8562C5.22233 28.8533 5.54814 28.8552 5.87419 28.8575C6.20101 28.8573 6.52779 28.8562 6.8546 28.8538C7.05766 28.8527 7.26074 28.8529 7.4638 28.8546C8.04381 28.8555 8.04381 28.8555 8.55485 28.5938C8.62648 28.3522 8.62648 28.3522 8.64549 28.0679C8.65716 27.9597 8.66883 27.8515 8.68085 27.74C8.69244 27.623 8.70404 27.5059 8.71598 27.3853C9.22796 22.9708 10.9442 18.777 13.9455 15.4688C14.0399 15.3617 14.1343 15.2546 14.2316 15.1443C14.4846 14.8587 14.7411 14.577 15.0002 14.297C15.0629 14.2279 15.1255 14.1589 15.1901 14.0878C17.2815 11.8817 20.1693 10.28 22.9909 9.24326C23.1141 9.19748 23.2372 9.1517 23.3641 9.10453C24.0399 8.86622 24.5955 8.71362 25.3127 8.78916C25.6809 9.02699 25.8561 9.19575 25.9586 9.62824C25.9967 10.136 25.9967 10.136 25.8986 10.4298C25.4088 10.9331 24.938 11.1344 24.2653 11.3233C22.4001 11.8984 20.5429 12.7613 18.9845 13.9454C18.8847 14.0209 18.7848 14.0965 18.682 14.1743C17.9718 14.7284 17.2993 15.3234 16.6408 15.9376C16.5527 16.0193 16.4647 16.101 16.3739 16.1852C15.1981 17.3156 14.2877 18.6302 13.4767 20.0392C13.4378 20.1059 13.3988 20.1725 13.3587 20.2413C11.9478 22.6754 10.7819 25.8608 11.0158 28.711C11.215 28.9103 11.4641 28.8432 11.7299 28.8445C11.8131 28.8443 11.8964 28.844 11.9821 28.8438C12.0672 28.8439 12.1524 28.844 12.2401 28.8441C12.4204 28.8442 12.6008 28.844 12.7812 28.8435C13.0577 28.8429 13.3341 28.8435 13.6106 28.8442C13.7856 28.8442 13.9605 28.844 14.1354 28.8438C14.2185 28.844 14.3015 28.8443 14.387 28.8445C14.8254 28.8489 14.8254 28.8489 15.2345 28.711C15.3113 28.4586 15.3113 28.4586 15.3609 28.1503C15.3829 28.0334 15.4049 27.9164 15.4276 27.796C15.4509 27.6701 15.4742 27.5443 15.4982 27.4146C16.2499 23.6235 18.2986 20.0727 21.5566 17.8718C23.5344 16.5867 25.5869 15.7779 27.9151 15.3918C28.0168 15.3745 28.1184 15.3572 28.2231 15.3393C28.3144 15.3246 28.4057 15.3099 28.4998 15.2948C28.5695 15.2749 28.6393 15.255 28.7111 15.2345C28.9123 14.8322 28.8452 14.3695 28.8449 13.9267C28.8453 13.8154 28.8457 13.7041 28.8461 13.5894C28.847 13.3472 28.8476 13.105 28.8481 12.8628C28.8489 12.4796 28.8507 12.0965 28.8529 11.7134C28.8591 10.6239 28.8647 9.53439 28.8665 8.44486C28.8677 7.77896 28.8711 7.1131 28.876 6.44722C28.8775 6.19314 28.8781 5.93906 28.8778 5.68498C28.8775 5.32975 28.8801 4.97465 28.8834 4.61944C28.8826 4.51411 28.8818 4.40878 28.881 4.30025C28.8918 3.58682 28.8918 3.58682 29.1691 3.21969C29.5864 2.92564 29.8405 2.89911 30.3517 2.92978Z" fill="#D2393E"/>
<path d="M46.9921 7.14776C47.3956 7.39672 47.5448 7.51673 47.6952 7.96807C47.7119 8.30356 47.7226 8.63672 47.7282 8.9724C47.7303 9.07047 47.7325 9.16854 47.7347 9.26957C47.7439 9.6894 47.7519 10.1092 47.7599 10.5291C47.766 10.8354 47.7727 11.1417 47.7794 11.448C47.7818 11.5915 47.7818 11.5915 47.7843 11.738C47.7529 12.174 47.7529 12.174 47.9296 12.5384C48.252 12.5528 48.5719 12.5602 48.8945 12.5631C49.0944 12.5664 49.2943 12.5698 49.4942 12.5732C49.8103 12.578 50.1263 12.5823 50.4424 12.5854C50.7468 12.5887 51.0511 12.594 51.3555 12.5997C51.4965 12.6003 51.4965 12.6003 51.6404 12.6009C52.1772 12.6126 52.5333 12.6597 52.9686 13.0071C53.2689 13.4575 53.282 13.6439 53.203 14.179C52.5676 15.1171 51.6059 15.9125 50.8066 16.7123C50.6539 16.8654 50.5012 17.0185 50.3485 17.1716C50.03 17.4907 49.7114 17.8096 49.3926 18.1284C48.9841 18.5368 48.5765 18.946 48.1691 19.3554C47.8547 19.6711 47.5398 19.9863 47.2248 20.3012C47.0742 20.452 46.9238 20.6029 46.7736 20.754C46.5641 20.9646 46.3539 21.1745 46.1435 21.3842C46.0818 21.4465 46.0202 21.5088 45.9566 21.573C45.5789 21.9476 45.2845 22.2347 44.7452 22.2921C44.6533 22.2911 44.5614 22.2902 44.4667 22.2893C44.3618 22.289 44.257 22.2887 44.1489 22.2883C44.0364 22.2871 43.9238 22.2859 43.8079 22.2846C43.568 22.2853 43.3281 22.2861 43.0883 22.2871C42.7112 22.2876 42.3344 22.2869 41.9574 22.2831C41.5926 22.2799 41.2282 22.2819 40.8635 22.2846C40.6961 22.281 40.6961 22.281 40.5253 22.2773C39.7791 22.2881 39.4031 22.4595 38.8735 22.9871C38.8069 23.0582 38.7404 23.1292 38.6718 23.2024C38.6026 23.2692 38.5334 23.3359 38.4622 23.4046C38.1248 23.7303 37.81 24.0679 37.5071 24.4256C36.8963 25.1263 36.2326 25.7757 35.575 26.432C35.4348 26.5722 35.2947 26.7125 35.1546 26.8527C34.8627 27.1448 34.5707 27.4366 34.2785 27.7282C33.9036 28.1024 33.5292 28.4772 33.155 28.8521C32.8666 29.1409 32.5779 29.4295 32.2891 29.7179C32.1509 29.8561 32.0127 29.9944 31.8747 30.1327C31.6826 30.3251 31.4901 30.5171 31.2975 30.7091C31.1881 30.8184 31.0787 30.9277 30.9659 31.0404C30.5777 31.4066 30.3081 31.4547 29.7705 31.4449C29.5311 31.4056 29.5311 31.4056 29.1796 31.1712C28.9384 30.8094 28.8431 30.5628 28.8759 30.1246C29.1469 29.1765 30.4165 28.2802 31.1076 27.5937C31.3337 27.3692 31.5593 27.1443 31.7849 26.9193C32.3448 26.3609 32.9054 25.8032 33.466 25.2454C33.9409 24.7727 34.4157 24.2998 34.8901 23.8266C35.111 23.6065 35.3322 23.3867 35.5535 23.1669C36.1696 22.5535 36.7803 21.9426 37.3411 21.2772C37.5043 21.0879 37.6648 20.9081 37.8515 20.7415C37.9288 20.7415 38.0061 20.7415 38.0858 20.7415C38.0831 20.6411 38.0831 20.6411 38.0803 20.5387C38.0621 19.8391 38.0498 19.1396 38.0408 18.4398C38.0367 18.1791 38.0311 17.9183 38.0239 17.6576C38.0139 17.2817 38.0093 16.9061 38.0057 16.5301C37.9994 16.3566 37.9994 16.3566 37.9929 16.1797C37.9926 15.6154 38.0283 15.2256 38.4003 14.7874C38.5668 14.6215 38.7358 14.4581 38.9061 14.2962C39.0214 14.178 39.136 14.0592 39.2502 13.94C40.0638 13.0913 40.8933 12.2579 41.7211 11.4231C42.1404 11.0002 42.5587 10.5764 42.9748 10.1504C43.3794 9.73618 43.7863 9.32429 44.1949 8.91396C44.3496 8.75777 44.5036 8.60078 44.6567 8.44296C44.8706 8.22275 45.0873 8.00567 45.305 7.78908C45.3671 7.72371 45.4293 7.65834 45.4934 7.59099C46.0001 7.09658 46.3192 7.06679 46.9921 7.14776ZM44.8827 11.4837C44.1045 12.1357 43.385 12.8424 42.6678 13.5597C42.4736 13.7536 42.2785 13.9466 42.0832 14.1396C41.7753 14.4453 41.4726 14.7554 41.1734 15.0696C41.033 15.2156 40.8888 15.358 40.7441 15.4998C40.0421 16.2609 40.0911 17.0357 40.1293 18.0315C40.131 18.1859 40.1328 18.3403 40.1345 18.4994C40.1204 19.3146 40.1204 19.3146 40.4296 20.0384C41.6046 20.4468 43.1367 20.5304 44.2968 20.0384C45.2099 19.468 45.9598 18.6888 46.6991 17.9144C46.7955 17.8137 46.8919 17.713 46.9911 17.6093C47.2676 17.3161 47.5395 17.0195 47.8087 16.7196C47.9317 16.5827 47.9317 16.5827 48.0571 16.4431C48.4585 15.9755 48.734 15.643 48.7499 14.9993C48.4067 14.8037 48.1586 14.736 47.7648 14.7329C47.668 14.7305 47.5711 14.7281 47.4714 14.7256C47.269 14.7225 47.0667 14.7204 46.8644 14.7192C46.1238 14.6984 46.1238 14.6984 45.7579 14.4308C45.5103 14.0685 45.4528 13.7598 45.4316 13.3317C45.4267 13.2377 45.4217 13.1436 45.4167 13.0467C45.4121 12.9491 45.4075 12.8514 45.4027 12.7508C45.3977 12.6518 45.3926 12.5527 45.3874 12.4507C45.375 12.2065 45.3632 11.9623 45.3515 11.7181C45.1968 11.6407 45.0421 11.5634 44.8827 11.4837Z" fill="#D2393E"/>
<path d="M30.6847 21.5441C30.9374 21.7963 30.9374 21.7963 31.0546 22.1332C31.0546 22.5839 30.9436 22.8246 30.703 23.2026C30.3272 23.4531 30.0648 23.4846 29.6241 23.5347C27.717 23.7581 26.0979 24.5166 24.8716 26.0366C23.7911 27.5634 23.3557 29.2236 23.605 31.077C23.9376 32.7815 24.8651 34.3043 26.2939 35.3095C27.9893 36.3503 29.6848 36.7204 31.6405 36.2616C33.2722 35.841 34.5676 34.8956 35.4638 33.4661C36.029 32.4047 36.2906 31.3187 36.4055 30.1318C36.4644 29.6576 36.5351 29.3833 36.9034 29.0633C37.3192 28.7926 37.4843 28.7267 37.9687 28.8276C38.2614 29.0179 38.4577 29.1483 38.6718 29.4135C38.7401 29.7596 38.7621 29.9937 38.745 30.3363C38.7425 30.4239 38.7399 30.5115 38.7373 30.6018C38.6409 32.6323 37.7962 34.4731 36.4452 35.976C36.3845 36.0476 36.3238 36.1192 36.2612 36.193C34.7984 37.8028 32.5932 38.6314 30.4687 38.7885C30.3925 38.7948 30.3164 38.8012 30.2379 38.8077C28.0512 38.9002 25.8665 38.0667 24.2358 36.6352C24.0458 36.4565 23.8577 36.276 23.6718 36.0932C23.5982 36.0211 23.5247 35.9491 23.4489 35.8748C21.8904 34.2245 21.1765 31.9803 21.2154 29.7385C21.3411 27.3295 22.3237 25.1503 24.0743 23.4806C25.5041 22.2269 28.8458 20.3493 30.6847 21.5441Z" fill="#D2393E"/>
</svg>
