<svg width="60" height="60" viewBox="0 0 60 60" fill="none" xmlns="http://www.w3.org/2000/svg">
<g clip-path="url(#clip0_76_46)">
<path d="M42.2006 30.6479C35.8232 30.6479 30.6528 35.8183 30.6528 42.1957C30.6528 48.5732 35.8227 53.7435 42.2006 53.7435C48.5781 53.7435 53.7484 48.5736 53.7484 42.1957C53.7408 35.8211 48.5752 30.6555 42.2006 30.6479ZM42.2006 51.8158C36.8877 51.8158 32.5805 47.5091 32.5805 42.1957C32.5805 36.8828 36.8877 32.5756 42.2006 32.5756C47.5135 32.5756 51.8207 36.8828 51.8207 42.1957C51.8146 47.5063 47.5112 51.8097 42.2006 51.8158Z" fill="white"/>
<path d="M57.8362 38.1791C57.774 38.085 57.7439 37.973 57.75 37.8605L57.927 34.6574C57.9802 33.6842 57.4531 32.7716 56.5829 32.3321L53.7361 30.8938C53.6358 30.843 53.5544 30.7616 53.5036 30.6614L52.0649 27.8141C51.6258 26.9443 50.7127 26.4168 49.74 26.4704L46.5364 26.6469C46.4235 26.6535 46.3115 26.6234 46.2173 26.5608L43.5512 24.8021C42.7319 24.2613 41.6692 24.2613 40.8498 24.8021L40.2423 25.2237C39.3622 24.4105 38.2058 23.9625 37.0076 23.9709H27.9274L25.739 11.7102C26.9438 10.4046 27.6102 8.69157 27.605 6.91495C27.605 3.10523 24.6123 0.000976562 20.9343 0.000976562C17.2559 0.000976562 14.2637 3.09723 14.2637 6.90742C14.258 8.69063 14.9272 10.4098 16.1368 11.7196L13.9418 23.9709H4.86055C2.1808 23.9709 -8.53772e-05 26.1833 -8.53772e-05 28.953V36.2345C-0.00196788 36.772 0.426773 37.212 0.963758 37.2238H3.37337V40.801C3.38748 41.3479 3.82705 41.7874 4.37345 41.802H24.441C24.3304 42.4153 24.4617 43.0473 24.8071 43.5655L26.5649 46.2217C26.6266 46.3144 26.6571 46.4245 26.651 46.5361L26.4745 49.7373C26.4214 50.71 26.9489 51.6226 27.8186 52.0617L30.6655 53.499C30.7657 53.5498 30.8476 53.6312 30.8984 53.7315L32.3367 56.5778C32.7762 57.448 33.6888 57.9756 34.662 57.9224L37.8656 57.7459C37.9781 57.7403 38.0901 57.7704 38.1847 57.832L40.8503 59.5898C41.6697 60.1306 42.7323 60.1306 43.5517 59.5898L46.2178 57.832C46.3119 57.7699 46.4239 57.7398 46.5364 57.7459L49.74 57.9224C50.7132 57.976 51.6262 57.4485 52.0653 56.5783L53.5036 53.731C53.5539 53.6308 53.6353 53.5493 53.7361 53.499L56.5829 52.0607C57.4526 51.6212 57.9802 50.7086 57.927 49.7354L57.7505 46.5323C57.7444 46.4193 57.7745 46.3078 57.8366 46.2132L59.5939 43.5476C60.1352 42.7282 60.1352 41.6651 59.5939 40.8457L57.8362 38.1791ZM20.9343 1.92302C23.5496 1.92302 25.6773 4.15755 25.6773 6.9046C25.6773 9.65117 23.5496 11.8857 20.9343 11.8857C18.3186 11.8857 16.1913 9.65117 16.1913 6.9046C16.1913 4.15802 18.3191 1.92302 20.9343 1.92302ZM17.8555 13.0515C19.7813 14.0807 22.0939 14.0812 24.0198 13.0529L25.9686 23.9709H15.9005L17.8555 13.0515ZM1.9276 28.953C1.9276 27.2465 3.24347 25.8986 4.86055 25.8986H37.0076C37.554 25.8916 38.0901 26.045 38.5499 26.3396L38.1842 26.5707C38.0891 26.6304 37.9776 26.6591 37.8656 26.6516L34.662 26.4728C33.6892 26.4182 32.7762 26.9453 32.3367 27.8155L30.8989 30.6614C30.8476 30.7616 30.7662 30.843 30.6659 30.8938L27.8186 32.3321C26.948 32.7773 26.4214 33.6931 26.4745 34.6697L26.5084 35.2961H1.9276V28.953ZM5.30105 37.2238H26.6138L26.6501 37.8737C26.6562 37.99 26.6261 38.1053 26.564 38.2041L25.4716 39.8743H5.30105V37.2238ZM57.9844 42.4858L56.2271 45.1515C55.9381 45.5915 55.7974 46.112 55.8252 46.6372L56.0017 49.8408C56.0134 50.0498 55.9 50.2455 55.7132 50.3397L52.8668 51.7779C52.3981 52.0132 52.0178 52.3935 51.7825 52.8622L50.3442 55.709C50.2501 55.8959 50.0543 56.0093 49.8454 55.9975L46.6418 55.821C46.1166 55.7938 45.5961 55.9345 45.1561 56.2225L42.49 57.9798C42.3144 58.0961 42.0862 58.0961 41.9102 57.9798L39.245 56.2225C38.8426 55.9585 38.3725 55.8178 37.891 55.8173C37.8472 55.8173 37.803 55.8182 37.7592 55.8206L34.5557 55.9971C34.3467 56.0088 34.1509 55.8959 34.0568 55.709L32.6186 52.8622C32.3833 52.3935 32.003 52.0132 31.5342 51.7779L28.6874 50.3397C28.5006 50.2455 28.3876 50.0498 28.3989 49.8408L28.5754 46.6377C28.6032 46.112 28.4629 45.5915 28.1744 45.1515L26.4167 42.4858C26.3004 42.3098 26.3004 42.0816 26.4167 41.906L28.1744 39.2399C28.4629 38.8004 28.6037 38.2799 28.5759 37.7542L28.3994 34.5511C28.3876 34.3421 28.5011 34.1463 28.6879 34.0522L31.5347 32.614C32.0035 32.3787 32.3837 31.9984 32.619 31.5297L34.0573 28.6828C34.1519 28.4965 34.3472 28.3831 34.5561 28.3943L37.7592 28.5708C38.2849 28.5986 38.8054 28.4579 39.2455 28.1694L41.9111 26.4116C42.0866 26.2954 42.3149 26.2954 42.4909 26.4116L45.1561 28.1694C45.5961 28.4584 46.1166 28.5986 46.6418 28.5713L49.8454 28.3948C50.0539 28.3835 50.2497 28.4965 50.3442 28.6833L51.7825 31.5297C52.0197 31.997 52.3995 32.3768 52.8668 32.614L55.7136 34.0522C55.9005 34.1468 56.0134 34.3426 56.0017 34.5511L55.8256 37.7546C55.7979 38.2803 55.9386 38.8008 56.2271 39.2404L57.9849 41.906C58.1006 42.0821 58.1006 42.3098 57.9844 42.4858Z" fill="white"/>
</g>
<defs>
<clipPath id="clip0_76_46">
<rect width="60" height="60" fill="white"/>
</clipPath>
</defs>
</svg>
