<svg width="40" height="40" viewBox="0 0 40 40" fill="none" xmlns="http://www.w3.org/2000/svg">
<g clip-path="url(#clip0_84_340)">
<path d="M16.8134 28.4944C16.9625 28.6494 17.1675 28.7394 17.3826 28.7437H17.3846C17.5993 28.7394 17.8035 28.651 17.9534 28.4971L31.1593 15.2854C31.4734 14.9697 31.4734 14.4597 31.1593 14.1441L28.5305 11.5146C28.2165 11.2009 27.7073 11.2009 27.3936 11.5146L17.4003 21.5075L12.6225 16.6826C12.31 16.3669 11.8008 16.3646 11.4856 16.6771L8.84344 19.2929C8.69229 19.4433 8.60631 19.647 8.60553 19.8602C8.60435 20.0753 8.68797 20.2818 8.83794 20.4357L16.8134 28.4944ZM12.0458 18.3848L16.8263 23.196C16.9786 23.3432 17.184 23.4229 17.3956 23.417H17.3975C17.6087 23.4233 17.8137 23.3444 17.9664 23.1984L27.9617 13.2113L29.4535 14.7071L17.3877 26.7752L10.5465 19.8684L12.0458 18.3848Z" fill="white"/>
<path d="M40 0.80402C40 0.360003 39.64 0 39.196 0H0.80402C0.360003 0 0 0.360003 0 0.80402V39.196C0 39.64 0.360003 40 0.80402 40H39.196C39.64 40 40 39.64 40 39.196V0.80402ZM1.60804 1.60804H38.392V38.392H1.60804V1.60804Z" fill="white"/>
<path d="M35.2764 5.42707C35.2764 4.98305 34.9164 4.62305 34.4724 4.62305H5.42714C4.98312 4.62305 4.62312 4.98305 4.62312 5.42707V34.4723C4.62312 34.9163 4.98312 35.2763 5.42714 35.2763H34.4724C34.9164 35.2763 35.2764 34.9163 35.2764 34.4723V5.42707ZM33.7688 33.7688H6.23116V6.23109H33.7688V33.7688Z" fill="white"/>
</g>
<defs>
<clipPath id="clip0_84_340">
<rect width="40" height="40" fill="white"/>
</clipPath>
</defs>
</svg>
