<svg width="40" height="40" viewBox="0 0 40 40" fill="none" xmlns="http://www.w3.org/2000/svg">
<path d="M33.8281 3.28131C34.7341 4.22211 34.8111 5.503 34.7903 6.73681C34.7534 7.67888 34.4994 8.49287 33.8672 9.20416C33.3249 9.67868 32.885 9.64579 32.1875 9.60943C31.8143 9.5794 31.4437 9.53648 31.0724 9.4898C30.9716 9.47766 30.8708 9.46552 30.767 9.45302C30.5032 9.42122 30.2394 9.38866 29.9756 9.35592C29.7049 9.32245 29.434 9.28974 29.1632 9.25695C28.6347 9.19288 28.1064 9.12799 27.5781 9.06256C27.5637 9.11172 27.5492 9.16088 27.5343 9.21153C27.3826 9.72665 27.2289 10.2411 27.0741 10.7553C27.0167 10.9469 26.9598 11.1386 26.9034 11.3304C26.8219 11.6074 26.7386 11.8838 26.6549 12.1601C26.6182 12.2873 26.6182 12.2873 26.5806 12.4172C26.3327 13.2238 25.9205 13.9618 25.1562 14.3751C24.8865 14.4822 24.613 14.5518 24.331 14.6192C24.2478 14.6404 24.1646 14.6615 24.0788 14.6833C23.8818 14.7333 23.6848 14.7826 23.4875 14.8314C23.0511 14.9398 22.6158 15.0527 22.1805 15.1652C21.5205 15.3353 20.8606 15.5053 20.2002 15.6736C20.1271 15.6923 20.054 15.7111 19.9787 15.7305C19.9117 15.7475 19.8447 15.7645 19.7757 15.782C19.7169 15.7971 19.6582 15.8121 19.5976 15.8275C19.4531 15.8594 19.4531 15.8594 19.2968 15.8594C19.2968 17.8188 19.2968 19.7782 19.2968 21.7969C19.8898 21.7969 20.4828 21.7969 21.0937 21.7969C21.0901 21.6181 21.0865 21.4392 21.0827 21.2549C21.0803 21.0799 21.0784 20.9048 21.0766 20.7298C21.075 20.609 21.0729 20.4882 21.0701 20.3674C21.0424 19.1018 21.0424 19.1018 21.4062 18.5938C21.5741 18.433 21.5741 18.433 21.748 18.3253C21.805 18.2883 21.862 18.2513 21.9207 18.2133C22.2845 18.0431 22.6654 18.0372 23.0616 18.0381C23.1554 18.0381 23.2492 18.0381 23.3459 18.0381C23.446 18.0385 23.5461 18.0389 23.6493 18.0393C23.7537 18.0394 23.8581 18.0396 23.9625 18.0396C24.2361 18.0399 24.5097 18.0407 24.7832 18.0416C25.0629 18.0424 25.3426 18.0427 25.6222 18.0431C26.17 18.044 26.7178 18.0453 27.2656 18.0469C27.2625 17.9466 27.2625 17.9466 27.2594 17.8442C27.2527 17.5923 27.2478 17.3404 27.2441 17.0885C27.2422 16.9801 27.2395 16.8718 27.2361 16.7635C27.2153 16.0843 27.2285 15.4844 27.6562 14.9219C28.1097 14.54 28.5355 14.4446 29.1222 14.4406C29.2109 14.4398 29.2996 14.4391 29.3909 14.4383C29.4861 14.438 29.5812 14.4377 29.6792 14.4373C29.7778 14.4369 29.8763 14.4364 29.9778 14.436C30.1862 14.4352 30.3946 14.4347 30.6029 14.4344C30.8685 14.434 31.134 14.4321 31.3996 14.4299C31.6546 14.4281 31.9096 14.4279 32.1646 14.4275C32.2592 14.4266 32.3539 14.4256 32.4514 14.4246C33.2003 14.4266 33.7539 14.5352 34.2968 15.0782C34.6351 15.6264 34.6208 16.1881 34.6198 16.8118C34.62 16.8917 34.6201 16.9717 34.6203 17.0541C34.6208 17.322 34.6208 17.5899 34.6207 17.8578C34.6209 18.0499 34.6212 18.2421 34.6215 18.4342C34.6221 18.9018 34.6224 19.3695 34.6224 19.8371C34.6224 20.2174 34.6226 20.5977 34.6228 20.9779C34.6235 22.0567 34.6239 23.1355 34.6238 24.2143C34.6238 24.3015 34.6238 24.3015 34.6238 24.3904C34.6238 24.4486 34.6238 24.5068 34.6238 24.5668C34.6238 25.5097 34.6245 26.4527 34.6256 27.3956C34.6268 28.3646 34.6273 29.3335 34.6272 30.3024C34.6272 30.8461 34.6274 31.3898 34.6283 31.9335C34.629 32.4449 34.629 32.9562 34.6285 33.4676C34.6284 33.6552 34.6286 33.8427 34.629 34.0303C34.6296 34.2866 34.6293 34.5429 34.6287 34.7992C34.6291 34.8731 34.6295 34.9471 34.6299 35.0232C34.6269 35.5972 34.6128 36.2248 34.209 36.67C34.1669 36.7189 34.1248 36.7679 34.0814 36.8183C33.4888 37.2746 32.8017 37.2207 32.0921 37.2173C31.9705 37.2176 31.849 37.218 31.7274 37.2184C31.3942 37.2194 31.061 37.2189 30.7278 37.2182C30.3681 37.2177 30.0084 37.2185 29.6487 37.2191C28.9445 37.2202 28.2402 37.2199 27.5359 37.2193C26.9635 37.2187 26.3911 37.2187 25.8187 37.2189C25.7372 37.219 25.6558 37.219 25.5718 37.219C25.4063 37.2191 25.2408 37.2192 25.0752 37.2193C23.5233 37.2199 21.9713 37.2192 20.4193 37.2179C19.0878 37.2169 17.7562 37.217 16.4246 37.2181C14.8782 37.2194 13.3318 37.2199 11.7853 37.2191C11.6204 37.2191 11.4555 37.219 11.2906 37.2189C11.2095 37.2189 11.1283 37.2188 11.0447 37.2188C10.473 37.2186 9.90136 37.2189 9.32967 37.2195C8.63294 37.2202 7.93622 37.22 7.23949 37.2187C6.88404 37.2181 6.52859 37.2179 6.17314 37.2186C5.84766 37.2193 5.5222 37.219 5.19673 37.2177C5.07907 37.2175 4.96142 37.2176 4.84377 37.2182C3.541 37.224 3.541 37.224 3.02793 36.8128C2.98583 36.7624 2.94373 36.7121 2.90036 36.6602C2.83541 36.5859 2.83541 36.5859 2.76914 36.5101C2.52591 36.1183 2.48033 35.7015 2.47851 35.2486C2.47777 35.1459 2.47703 35.0432 2.47626 34.9373C2.47628 34.8265 2.47635 34.7157 2.47647 34.6049C2.47617 34.4898 2.47583 34.3747 2.47546 34.2596C2.47488 34.0191 2.4749 33.7786 2.47531 33.538C2.47576 33.2311 2.47444 32.9243 2.47263 32.6174C2.47147 32.3799 2.47141 32.1424 2.47165 31.9049C2.47161 31.7919 2.4712 31.6788 2.47041 31.5657C2.46602 30.8493 2.46927 30.2539 2.91501 29.6631C3.19594 29.3822 3.44439 29.2357 3.84288 29.1906C3.93205 29.1911 4.02122 29.1917 4.11309 29.1922C4.21472 29.1922 4.31636 29.1922 4.42107 29.1922C4.53083 29.1934 4.64058 29.1947 4.75034 29.1959C4.86352 29.1964 4.9767 29.1967 5.08989 29.1969C5.38658 29.1978 5.68325 29.2001 5.97993 29.2027C6.28316 29.2051 6.58639 29.2062 6.88962 29.2074C7.48371 29.2099 8.07777 29.2139 8.67185 29.2188C8.67062 29.1539 8.66939 29.0889 8.66813 29.022C8.6641 28.7778 8.66118 28.5336 8.65897 28.2894C8.65723 28.1331 8.65425 27.9767 8.65125 27.8203C8.64615 27.1452 8.66758 26.5408 9.08689 25.9864C9.32606 25.7528 9.57374 25.5469 9.92185 25.5469C9.9291 25.4966 9.93636 25.4462 9.94384 25.3944C10.0731 24.5586 10.2753 23.7408 10.4717 22.9189C10.5647 22.5287 10.6551 22.138 10.741 21.7461C10.7663 21.6304 10.7922 21.5147 10.8187 21.3993C11.0889 20.1982 11.059 18.9664 11.0679 17.7419C11.0703 17.4496 11.0739 17.1573 11.0774 16.865C11.084 16.2954 11.0893 15.7259 11.0937 15.1563C10.957 15.2679 10.8204 15.3796 10.6837 15.4913C10.6076 15.5535 10.5315 15.6156 10.4531 15.6797C10.182 15.9024 9.91437 16.1287 9.64841 16.3575C9.60208 16.3971 9.55576 16.4366 9.50803 16.4774C9.11741 16.7904 9.11741 16.7904 8.8281 17.1876C8.82211 17.3638 8.82137 17.5401 8.82295 17.7164C8.82331 17.7708 8.82368 17.8252 8.82405 17.8813C8.82487 17.9996 8.82586 18.118 8.827 18.2364C8.82872 18.4243 8.82982 18.6123 8.83073 18.8002C8.83335 19.3347 8.83657 19.8692 8.84149 20.4037C8.84445 20.7306 8.84623 21.0575 8.84729 21.3844C8.84792 21.5085 8.84897 21.6326 8.85049 21.7567C8.8686 23.2674 8.8686 23.2674 8.46433 23.8624C8.04875 24.2145 7.65867 24.3719 7.10935 24.3751C6.68878 24.3049 6.30303 24.1494 6.0156 23.8282C5.7395 23.1561 5.65931 22.4415 5.55326 21.7277C5.5326 21.5911 5.51192 21.4546 5.4912 21.3182C5.44805 21.0328 5.40536 20.7473 5.363 20.4618C5.30908 20.0988 5.25387 19.7359 5.19828 19.3732C5.15528 19.0914 5.11304 18.8095 5.07102 18.5276C5.05099 18.3939 5.03071 18.2603 5.01018 18.1267C4.65824 15.8287 4.65824 15.8287 5.15622 15.0001C5.32009 14.7788 5.49266 14.5693 5.67197 14.3604C5.84927 14.1525 6.01402 13.9402 6.17673 13.7208C6.61584 13.1299 7.06251 12.5449 7.50943 11.9599C7.68886 11.725 7.86755 11.4897 8.04471 11.2531C8.87827 10.1437 9.56895 9.65315 10.9084 9.31883C11.0751 9.27717 11.2414 9.23434 11.4077 9.19134C12.22 8.98443 12.22 8.98443 12.5781 8.98443C12.5461 8.91837 12.514 8.8523 12.4811 8.78424C11.9732 7.71506 11.7695 6.79402 12.1014 5.61834C12.4993 4.56579 13.2228 3.9356 14.2053 3.46472C14.9434 3.1511 15.9734 3.14939 16.7285 3.40826C17.1204 3.57986 17.4704 3.80719 17.8125 4.06256C17.8882 4.11895 17.9639 4.17535 18.042 4.23345C18.2031 4.37506 18.2031 4.37506 18.3593 4.60943C19.7437 4.49332 21.1203 4.31893 22.4982 4.1449C22.9143 4.09238 23.3304 4.04034 23.7465 3.98839C24.9284 3.8408 26.1102 3.69285 27.2919 3.54378C27.9476 3.46106 28.6033 3.37889 29.2592 3.29734C29.605 3.25431 29.9507 3.21101 30.2964 3.16701C30.6205 3.12577 30.9447 3.08523 31.2689 3.04524C31.3875 3.03048 31.506 3.01547 31.6245 3.00016C33.2273 2.79358 33.2273 2.79358 33.8281 3.28131ZM32.7343 4.06256C32.0825 4.73249 31.9451 5.57399 31.9531 6.48443C32.0007 7.23071 32.1617 7.99142 32.7343 8.51568C33.0358 8.39724 33.1819 8.2379 33.3593 7.96881C33.7983 6.93369 33.7587 5.8288 33.4375 4.76568C33.3341 4.53353 33.2292 4.31988 33.0468 4.14068C32.8842 4.08335 32.8842 4.08335 32.7343 4.06256ZM13.4472 5.51275C13.0564 6.06068 13.0681 6.69873 13.125 7.34381C13.2841 8.01184 13.6452 8.51327 14.2138 8.89166C14.8369 9.24836 15.5277 9.33604 16.2277 9.16784C16.9232 8.91814 17.4058 8.486 17.7371 7.82781C18.0191 7.18618 18.0313 6.63994 17.8149 5.98089C17.5269 5.2673 17.0806 4.84567 16.3858 4.52886C15.2325 4.09411 14.1698 4.56333 13.4472 5.51275ZM30.1248 4.34927C30.0278 4.36087 29.9307 4.37248 29.8307 4.38444C29.7246 4.39746 29.6185 4.4105 29.5124 4.42354C29.3995 4.43717 29.2867 4.45077 29.1738 4.46434C28.8686 4.50116 28.5634 4.5384 28.2582 4.57575C28.0033 4.60692 27.7483 4.63791 27.4934 4.6689C26.8922 4.74201 26.291 4.81548 25.6899 4.88916C25.0696 4.96519 24.4493 5.0405 23.8288 5.11548C23.2959 5.17992 22.763 5.24485 22.2301 5.31015C21.9119 5.34913 21.5938 5.38792 21.2755 5.42623C20.9766 5.46222 20.6778 5.49882 20.3791 5.53588C20.2693 5.54939 20.1596 5.56268 20.0498 5.57575C19.9002 5.59358 19.7506 5.61227 19.6011 5.631C19.5173 5.64123 19.4336 5.65146 19.3473 5.66199C19.1238 5.69287 19.1238 5.69287 18.9062 5.85943C18.9578 6.16881 19.0093 6.47818 19.0625 6.79693C19.6796 6.92942 20.2954 7.01705 20.9218 7.09284C21.0282 7.10592 21.1345 7.11903 21.2409 7.13216C21.5273 7.16745 21.8138 7.20238 22.1003 7.23721C22.4011 7.27383 22.7019 7.31075 23.0027 7.34763C23.5073 7.40943 24.0119 7.47099 24.5165 7.5324C25.0993 7.60333 25.6819 7.67467 26.2646 7.74623C26.8265 7.81523 27.3885 7.88391 27.9505 7.95246C28.1891 7.98157 28.4277 8.0108 28.6663 8.04012C28.9471 8.07462 29.228 8.10884 29.5089 8.14285C29.6607 8.1613 29.8125 8.18002 29.9643 8.19876C30.0552 8.20971 30.1461 8.22065 30.2397 8.23194C30.3184 8.24153 30.397 8.25112 30.478 8.261C30.7105 8.28197 30.9385 8.28481 31.1718 8.28131C31.1615 8.23035 31.1511 8.17939 31.1404 8.12689C31.1197 8.02447 31.1197 8.02447 31.0986 7.91998C31.085 7.85291 31.0714 7.78583 31.0574 7.71673C31.0367 7.60948 31.0367 7.60948 31.0156 7.50006C30.9943 7.39431 30.9943 7.39431 30.9726 7.28643C30.8555 6.43509 30.8657 5.52683 31.1206 4.70434C31.1829 4.52393 31.1829 4.52393 31.1718 4.29693C30.8176 4.29215 30.4764 4.30665 30.1248 4.34927ZM18.9062 7.96881C18.7488 8.15279 18.7488 8.15279 18.6377 8.39849C18.4076 8.83194 18.1529 9.17954 17.8125 9.53131C17.9144 9.7602 18.0171 9.90802 18.2068 10.0712C18.2535 10.1114 18.3002 10.1516 18.3484 10.1931C18.3971 10.2341 18.4458 10.2752 18.4961 10.3174C18.5436 10.3588 18.5911 10.4001 18.6401 10.4427C19.2871 10.9936 19.7898 11.0753 20.625 11.0157C20.9771 10.9862 21.3283 10.951 21.6797 10.9131C21.7683 10.904 21.8569 10.8948 21.9481 10.8853C22.4734 10.8242 22.8962 10.7718 23.2873 10.3873C23.501 10.0586 23.6528 9.70973 23.8086 9.35064C23.8568 9.2415 23.8568 9.2415 23.9059 9.13015C23.9847 8.95159 24.0629 8.77281 24.1406 8.59381C23.1347 8.43786 22.128 8.29714 21.1175 8.17486C20.9044 8.14901 20.6915 8.12263 20.4785 8.09622C20.3412 8.07945 20.2038 8.06272 20.0665 8.04601C20.0038 8.03821 19.941 8.0304 19.8764 8.02235C19.3925 7.96297 19.3925 7.96297 18.9062 7.96881ZM25.3125 8.75006C25.2557 8.86501 25.2557 8.86501 25.1977 8.98229C25.0584 9.26353 24.9172 9.5438 24.7757 9.82393C24.6919 9.99113 24.6102 10.1592 24.5288 10.3275C24.1725 11.0484 23.8275 11.5231 23.0468 11.7969C22.8421 11.8304 22.6411 11.8582 22.4353 11.8805C22.3476 11.8906 22.3476 11.8906 22.2581 11.9009C22.1347 11.9149 22.0112 11.9287 21.8878 11.9422C21.7008 11.9628 21.514 11.9843 21.3272 12.006C20.1032 12.1452 19.1364 12.2006 18.125 11.4063C17.8381 11.1689 17.5564 10.9256 17.2763 10.6803C17.2331 10.6434 17.1899 10.6066 17.1454 10.5686C17.0312 10.4688 17.0312 10.4688 16.8869 10.3211C16.6039 10.1752 16.3155 10.2388 16.0058 10.2686C14.8065 10.3565 14.8065 10.3565 14.2905 10.0642C13.5655 9.68772 12.8631 9.96291 12.1237 10.1702C11.8946 10.2344 11.6648 10.295 11.4346 10.355C11.2871 10.3943 11.1397 10.4339 10.9924 10.4737C10.9244 10.4919 10.8565 10.51 10.7865 10.5287C10.2966 10.667 9.79137 10.8323 9.46744 11.2504C9.43256 11.2946 9.39767 11.3387 9.36173 11.3843C9.32582 11.4318 9.2899 11.4794 9.2529 11.5284C9.21336 11.5792 9.17382 11.63 9.13308 11.6824C8.77222 12.1496 8.42367 12.6263 8.07565 13.1031C7.75014 13.5482 7.41539 13.985 7.07517 14.419C6.94256 14.5893 6.81011 14.7597 6.67775 14.9302C6.57747 15.0589 6.47636 15.187 6.37509 15.315C6.32575 15.3803 6.2764 15.4455 6.22556 15.5128C6.18558 15.5644 6.1456 15.6161 6.1044 15.6693C5.8786 16.1527 5.9305 16.6967 6.01218 17.2099C6.02106 17.2703 6.02995 17.3308 6.0391 17.393C6.06833 17.5904 6.09885 17.7875 6.12943 17.9847C6.15025 18.1229 6.171 18.261 6.1917 18.3992C6.23509 18.6877 6.27908 18.9761 6.32354 19.2644C6.38044 19.6335 6.43612 20.0028 6.49139 20.3722C6.5341 20.6571 6.57731 20.9419 6.62068 21.2267C6.64139 21.3629 6.66198 21.4991 6.68244 21.6353C6.71113 21.8255 6.74044 22.0156 6.76993 22.2056C6.77826 22.2616 6.78659 22.3175 6.79517 22.3751C6.84165 22.6699 6.90756 22.9312 7.03122 23.2032C7.30575 23.2273 7.30575 23.2273 7.55073 23.1192C7.71124 22.8904 7.68251 22.6996 7.67911 22.4227C7.67877 22.3674 7.67843 22.3121 7.67807 22.2551C7.67718 22.135 7.67575 22.0149 7.67384 21.8949C7.67084 21.7043 7.66932 21.5138 7.66818 21.3232C7.66505 20.8495 7.6594 20.3758 7.65379 19.9021C7.64915 19.5025 7.64549 19.1028 7.64311 18.7031C7.6416 18.5162 7.63867 18.3295 7.63568 18.1426C7.62812 17.3948 7.66262 16.7222 8.12497 16.0938C8.29465 15.9376 8.29465 15.9376 8.49607 15.7813C8.86247 15.4905 9.21819 15.1908 9.57028 14.8829C10.0447 14.4697 10.522 14.0622 11.0156 13.6719C11.0619 13.634 11.1082 13.596 11.156 13.5569C11.3664 13.3969 11.47 13.3589 11.7383 13.3692C11.9531 13.4376 11.9531 13.4376 12.1093 13.5938C12.1269 13.803 12.1347 14.0042 12.1358 14.2136C12.1367 14.2778 12.1376 14.342 12.1385 14.4082C12.1412 14.6225 12.1426 14.8367 12.1438 15.051C12.1446 15.162 12.1446 15.162 12.1455 15.2753C12.1483 15.67 12.1501 16.0647 12.1512 16.4595C12.1522 16.7808 12.1549 17.102 12.1592 17.4233C12.1863 19.4764 12.0608 21.3656 11.5625 23.3594C11.5135 23.5643 11.4656 23.7694 11.4175 23.9745C11.3245 24.3702 11.2282 24.7649 11.1281 25.1589C11.088 25.3117 11.088 25.3117 11.0937 25.4688C12.357 25.4688 13.6203 25.4688 14.9218 25.4688C14.9351 24.6742 14.9351 24.6742 14.9451 23.8796C14.959 23.3005 14.9712 22.833 15.3125 22.3438C15.466 22.2001 15.466 22.2001 15.6201 22.1143C15.6707 22.0846 15.7214 22.0549 15.7736 22.0243C16.0916 21.8863 16.416 21.8638 16.7593 21.8503C16.879 21.8454 16.879 21.8454 17.0012 21.8404C17.0836 21.8373 17.166 21.8343 17.2509 21.8311C17.3349 21.8277 17.4188 21.8244 17.5053 21.8209C17.7119 21.8126 17.9184 21.8046 18.125 21.7969C18.1246 21.7379 18.1242 21.6788 18.1237 21.618C18.1165 20.3896 18.1239 19.1626 18.1592 17.9346C18.1615 17.851 18.1615 17.851 18.1638 17.7656C18.1743 17.3905 18.1873 17.0156 18.2031 16.6407C18.2054 16.5841 18.2078 16.5276 18.2102 16.4693C18.2176 16.2992 18.2262 16.1292 18.2351 15.9592C18.2402 15.8594 18.2452 15.7596 18.2504 15.6568C18.3026 15.2058 18.3026 15.2058 18.4375 15.0001C18.9657 14.736 19.5694 14.6312 20.1415 14.4924C20.3236 14.4481 20.5055 14.4032 20.6874 14.3581C21.2042 14.2301 21.7211 14.1025 22.2384 13.9768C22.556 13.8997 22.8733 13.8212 23.1904 13.742C23.3107 13.7122 23.4311 13.6828 23.5516 13.654C23.7204 13.6136 23.8886 13.5715 24.0569 13.5291C24.1525 13.5057 24.2481 13.4823 24.3466 13.4582C24.7157 13.3194 24.9837 13.1245 25.192 12.7809C25.4601 12.0865 25.683 11.3795 25.8987 10.6674C25.9626 10.4566 26.0273 10.246 26.092 10.0355C26.133 9.9014 26.174 9.76732 26.2149 9.63323C26.2342 9.57033 26.2534 9.50744 26.2733 9.44263C26.3709 9.14084 26.3709 9.14084 26.4062 8.82818C25.8648 8.78951 25.8648 8.78951 25.3125 8.75006ZM28.4375 15.8594C28.4027 16.0213 28.4027 16.0213 28.4086 16.2031C28.4082 16.2737 28.4077 16.3444 28.4072 16.4172C28.4079 16.495 28.4086 16.5727 28.4093 16.6528C28.4091 16.7353 28.4089 16.8178 28.4087 16.9029C28.4083 17.1807 28.4096 17.4585 28.4109 17.7363C28.4109 17.9349 28.4109 18.1336 28.4108 18.3322C28.4107 18.7605 28.4114 19.1888 28.4127 19.6171C28.4146 20.2363 28.4152 20.8556 28.4155 21.4748C28.416 22.4795 28.4176 23.4841 28.4198 24.4888C28.4219 25.4648 28.4236 26.4408 28.4246 27.4169C28.4247 27.477 28.4247 27.5372 28.4248 27.5991C28.4251 27.9009 28.4254 28.2026 28.4257 28.5043C28.4281 31.0081 28.4322 33.5119 28.4375 36.0157C29.0548 36.0211 29.6721 36.0253 30.2894 36.0278C30.5761 36.029 30.8627 36.0307 31.1493 36.0334C31.4259 36.0359 31.7025 36.0373 31.9791 36.0379C32.136 36.0386 32.293 36.0404 32.4499 36.0422C32.5453 36.0423 32.6407 36.0423 32.739 36.0423C32.8232 36.0428 32.9073 36.0433 32.994 36.0439C33.2028 36.0315 33.2028 36.0315 33.3474 35.918C33.4602 35.7468 33.4668 35.6464 33.467 35.442C33.4679 35.3374 33.4679 35.3374 33.4688 35.2307C33.4683 35.1541 33.4678 35.0774 33.4672 34.9984C33.4676 34.917 33.468 34.8356 33.4683 34.7518C33.4693 34.4777 33.4685 34.2037 33.4678 33.9297C33.4681 33.7337 33.4685 33.5378 33.469 33.3419C33.47 32.8642 33.4699 32.3865 33.4692 31.9087C33.4687 31.5206 33.4686 31.1324 33.4688 30.7443C33.4689 30.6615 33.4689 30.6615 33.4689 30.577C33.469 30.4649 33.4691 30.3528 33.4692 30.2407C33.4698 29.1888 33.4691 28.1369 33.4678 27.085C33.4668 26.1819 33.4669 25.2789 33.468 24.3758C33.4693 23.3277 33.4698 22.2797 33.4691 21.2316C33.469 21.1199 33.4689 21.0082 33.4688 20.8965C33.4688 20.8415 33.4688 20.7866 33.4687 20.7299C33.4685 20.3421 33.4689 19.9543 33.4694 19.5665C33.4701 19.0448 33.4696 18.5231 33.4683 18.0014C33.468 17.8095 33.4681 17.6176 33.4686 17.4257C33.4692 17.1646 33.4684 16.9035 33.4672 16.6423C33.4678 16.5657 33.4683 16.489 33.4688 16.41C33.4682 16.3403 33.4676 16.2706 33.467 16.1987C33.4669 16.1384 33.4669 16.0781 33.4669 16.016C33.4294 15.8166 33.3625 15.7472 33.2031 15.6251C32.9983 15.5894 32.9983 15.5894 32.7643 15.5947C32.6293 15.5936 32.6293 15.5936 32.4917 15.5925C32.3945 15.593 32.2974 15.5934 32.1972 15.5939C32.0975 15.5937 31.9979 15.5935 31.8952 15.5932C31.6842 15.5931 31.4733 15.5934 31.2623 15.5945C30.992 15.5958 30.7217 15.5951 30.4514 15.5937C30.1935 15.5926 29.9356 15.5933 29.6777 15.5939C29.532 15.5932 29.532 15.5932 29.3833 15.5925C29.2933 15.5932 29.2034 15.594 29.1107 15.5947C29.0314 15.5949 28.9522 15.5951 28.8705 15.5953C28.635 15.6306 28.5815 15.6746 28.4375 15.8594ZM22.5 19.2188C22.1799 19.5389 22.1516 19.5822 22.1471 20.0031C22.148 20.0663 22.149 20.1295 22.1499 20.1947C22.1496 20.2623 22.1494 20.3299 22.1491 20.3995C22.1486 20.6264 22.1503 20.8531 22.152 21.08C22.1521 21.2424 22.152 21.4049 22.1519 21.5674C22.1518 22.0088 22.1536 22.4502 22.1558 22.8917C22.1577 23.3528 22.1579 23.814 22.1583 24.2752C22.1593 25.1487 22.1618 26.0222 22.165 26.8957C22.1685 27.89 22.1702 28.8844 22.1717 29.8787C22.175 31.9244 22.1807 33.97 22.1875 36.0157C23.8633 36.0157 25.539 36.0157 27.2656 36.0157C27.2656 30.4727 27.2656 24.9297 27.2656 19.2188C25.6929 19.2188 24.1203 19.2188 22.5 19.2188ZM16.3281 22.9688C15.999 23.2369 15.999 23.2369 15.9771 23.5186C15.9774 23.6123 15.9777 23.7059 15.978 23.8023C15.9778 23.8546 15.9775 23.9069 15.9772 23.9607C15.9767 24.1358 15.9784 24.3107 15.9801 24.4858C15.9802 24.6113 15.9802 24.7368 15.98 24.8623C15.9799 25.203 15.9817 25.5437 15.9839 25.8844C15.9859 26.2405 15.986 26.5966 15.9864 26.9527C15.9874 27.6269 15.99 28.3012 15.9931 28.9755C15.9966 29.7431 15.9983 30.5108 15.9999 31.2784C16.0031 32.8575 16.0089 34.4366 16.0156 36.0157C17.6914 36.0157 19.3672 36.0157 21.0937 36.0157C21.0937 31.7102 21.0937 27.4047 21.0937 22.9688C19.5211 22.9688 17.9484 22.9688 16.3281 22.9688ZM9.97263 26.7449C9.76256 27.0843 9.80299 27.4296 9.80825 27.8206C9.8082 27.909 9.80815 27.9974 9.80811 28.0886C9.80832 28.3811 9.81076 28.6736 9.8132 28.9661C9.81379 29.1689 9.81423 29.3716 9.81454 29.5743C9.81562 30.0536 9.81808 30.5328 9.82122 31.012C9.82505 31.6111 9.82676 32.2103 9.82846 32.8095C9.83151 33.8782 9.83777 34.9469 9.84372 36.0157C11.5195 36.0157 13.1953 36.0157 14.9218 36.0157C14.9218 32.9219 14.9218 29.8282 14.9218 26.6407C14.142 26.6342 13.3621 26.6278 12.5586 26.6211C12.3126 26.6183 12.0667 26.6155 11.8133 26.6125C11.6186 26.6116 11.4239 26.6108 11.2292 26.6102C11.0773 26.6078 11.0773 26.6078 10.9223 26.6053C10.8255 26.6053 10.7288 26.6052 10.6292 26.6052C10.5452 26.6045 10.4612 26.6038 10.3747 26.6031C10.1537 26.6284 10.1537 26.6284 9.97263 26.7449ZM3.80143 30.4395C3.63156 30.6827 3.63269 30.8345 3.63265 31.1301C3.63192 31.2326 3.63118 31.335 3.63043 31.4406C3.63125 31.5522 3.63214 31.6637 3.63309 31.7753C3.63308 31.8899 3.63296 32.0045 3.63275 32.1191C3.63264 32.359 3.63362 32.5988 3.6354 32.8387C3.63762 33.1463 3.6374 33.4538 3.63641 33.7614C3.63586 33.9979 3.63647 34.2344 3.63744 34.4709C3.63779 34.5843 3.63782 34.6978 3.63751 34.8112C3.63729 34.9696 3.63874 35.1279 3.64028 35.2863C3.6407 35.3765 3.64113 35.4666 3.64156 35.5595C3.65616 35.7779 3.65616 35.7779 3.762 35.9278C3.96933 36.0542 4.12832 36.0438 4.3703 36.0423C4.46703 36.0423 4.56375 36.0422 4.66341 36.0422C4.81596 36.0404 4.81596 36.0404 4.97159 36.0386C5.06504 36.0383 5.15849 36.0381 5.25476 36.0379C5.60441 36.0366 5.95405 36.0334 6.30368 36.0303C7.08518 36.0255 7.86667 36.0207 8.67185 36.0157C8.67185 34.1336 8.67185 32.2516 8.67185 30.3126C7.90485 30.3061 7.13786 30.2997 6.34763 30.293C6.10575 30.2902 5.86388 30.2873 5.61467 30.2844C5.4232 30.2835 5.23173 30.2827 5.04025 30.282C4.94064 30.2804 4.84103 30.2788 4.7384 30.2772C4.5957 30.2771 4.5957 30.2771 4.45012 30.2771C4.36754 30.2764 4.28496 30.2757 4.19988 30.275C3.97775 30.2981 3.97775 30.2981 3.80143 30.4395Z" fill="#D2393E"/>
<path d="M36.4844 8.12497C37.2056 8.42558 37.2056 8.42558 37.4219 8.74997C37.4163 9.0632 37.4079 9.23268 37.1826 9.45798C36.707 9.60978 36.2582 9.35737 35.8331 9.14822C35.7031 9.06247 35.7031 9.06247 35.5469 8.8281C35.5572 8.5404 35.5677 8.35173 35.752 8.12497C36.0179 8.013 36.2171 8.04143 36.4844 8.12497Z" fill="#D2393E"/>
<path d="M37.1875 2.89062C37.3389 3.01758 37.3389 3.01758 37.4219 3.20312C37.4268 3.47656 37.4268 3.47656 37.3438 3.75C36.9711 4.07724 36.4905 4.30141 35.9912 4.29199C35.7813 4.21875 35.7813 4.21875 35.6299 4.09179C35.5022 3.80642 35.5265 3.65483 35.625 3.35937C36.0502 2.97449 36.623 2.71501 37.1875 2.89062Z" fill="#D2393E"/>
<path d="M36.5234 5.58109C36.5827 5.57922 36.642 5.57736 36.7031 5.57544C37.0217 5.57628 37.1438 5.58471 37.3855 5.80783C37.4999 6.01566 37.4999 6.01566 37.4951 6.2598C37.3908 6.57959 37.3908 6.57959 37.1874 6.71878C36.9604 6.74421 36.755 6.75505 36.5283 6.75296C36.4388 6.7553 36.4388 6.7553 36.3475 6.75769C36.0538 6.75743 35.9056 6.75277 35.6637 6.57504C35.5039 6.34434 35.501 6.21244 35.5468 5.93753C35.8108 5.55882 36.0982 5.57495 36.5234 5.58109Z" fill="#D2393E"/>
</svg>
