<svg width="60" height="60" viewBox="0 0 60 60" fill="none" xmlns="http://www.w3.org/2000/svg">
<path d="M30.0001 9.56525C30.1197 9.56389 30.1197 9.56389 30.2418 9.5625C30.5419 9.62422 30.6326 9.72007 30.8204 9.96075C30.8627 10.2344 30.8627 10.2344 30.8603 10.5601C30.8603 10.682 30.8603 10.804 30.8602 10.9297C30.8584 11.0612 30.8566 11.1926 30.8547 11.3281C30.8542 11.4629 30.8537 11.5976 30.8532 11.7365C30.8512 12.1675 30.8468 12.5985 30.8424 13.0296C30.8406 13.3216 30.839 13.6136 30.8376 13.9055C30.8337 14.6219 30.8278 15.3382 30.8204 16.0545C30.9857 16.0522 30.9857 16.0522 31.1544 16.0499C32.1168 16.0422 33.0567 16.0726 34.0138 16.1863C34.142 16.2014 34.2702 16.2164 34.4023 16.2319C36.3459 16.4783 38.2768 16.919 40.1478 17.5001C40.4375 17.5935 40.4375 17.5935 40.7813 17.5779C40.8035 17.5146 40.8257 17.4513 40.8486 17.3861C41.0804 16.7257 41.3147 16.0662 41.5502 15.4071C41.6378 15.1613 41.7247 14.9152 41.811 14.6689C41.9354 14.3143 42.062 13.9605 42.189 13.6068C42.2459 13.4422 42.2459 13.4422 42.3041 13.2742C42.5258 12.6639 42.7175 12.2323 43.2423 11.8358C43.6937 11.828 43.9452 11.8507 44.2896 12.1507C44.5845 12.7924 44.3558 13.3653 44.1283 13.9906C44.0668 14.1544 44.0668 14.1544 44.004 14.3214C43.9624 14.4349 43.9208 14.5483 43.8779 14.6652C43.7452 15.0262 43.6109 15.3865 43.4766 15.7469C43.3862 15.9921 43.2959 16.2373 43.2056 16.4825C42.9847 17.0825 42.7624 17.6819 42.5391 18.2811C42.6604 18.3416 42.7816 18.4021 42.9066 18.4645C43.3305 18.6763 43.7543 18.8882 44.178 19.1004C44.3738 19.1984 44.5697 19.2963 44.7656 19.3941C46.5592 20.2948 48.3244 21.2806 49.8368 22.6156C50.0323 22.752 50.0323 22.752 50.2634 22.7406C50.6414 22.5495 50.8485 22.2257 51.0938 21.8919C51.2076 21.7418 51.3218 21.592 51.4362 21.4424C51.4952 21.3652 51.5542 21.2881 51.615 21.2086C51.9077 20.8351 52.2179 20.4773 52.5294 20.1194C52.9964 19.5819 53.4456 19.0375 53.8706 18.4655C54.0235 18.2811 54.0235 18.2811 54.2579 18.1639C54.6374 18.1309 54.8868 18.1278 55.232 18.2957C55.5075 18.6018 55.5388 18.8097 55.547 19.2186C55.2689 19.7766 54.8533 20.2373 54.4556 20.7127C54.3844 20.7988 54.3132 20.885 54.2398 20.9737C53.8568 21.4364 53.4708 21.8962 53.0819 22.3538C52.9688 22.4881 52.9688 22.4881 52.8534 22.6251C52.708 22.7977 52.5617 22.9695 52.4143 23.1403C52.3487 23.2186 52.283 23.2968 52.2154 23.3774C52.1571 23.4457 52.0988 23.514 52.0387 23.5844C51.8735 23.8157 51.8735 23.8157 51.9141 24.2576C52.0914 24.4959 52.0914 24.4959 52.3385 24.7195C52.4283 24.8066 52.5181 24.8936 52.6106 24.9833C52.7071 25.075 52.8035 25.1666 52.9029 25.261C53.6879 26.0261 54.4124 26.7844 55.0782 27.6561C55.167 27.765 55.2559 27.8739 55.3474 27.9861C55.9735 28.7667 56.5204 29.5819 57.0484 30.4319C57.1116 30.5335 57.1748 30.6351 57.2399 30.7397C58.5052 32.809 58.5052 32.809 58.3595 33.6326C58.2024 34.0203 58.0048 34.3769 57.7955 34.7386C57.7083 34.8927 57.7083 34.8927 57.6193 35.0499C56.365 37.2319 54.8294 39.2049 53.086 41.0154C53.0272 41.0768 52.9684 41.1382 52.9078 41.2014C52.1159 42.0239 51.2952 42.7767 50.3907 43.4764C50.3231 43.5295 50.2555 43.5827 50.1858 43.6374C47.534 45.7163 44.5426 47.3833 41.3673 48.5154C41.2679 48.5509 41.1685 48.5863 41.0661 48.6228C39.2885 49.2447 37.4746 49.6896 35.6251 50.0389C35.5138 50.0601 35.4025 50.0813 35.2878 50.1031C31.8252 50.7232 27.8279 50.7082 24.3751 50.0389C24.2668 50.0188 24.1585 49.9987 24.0469 49.9779C18.7528 48.9759 13.8297 46.8394 9.60945 43.4764C9.50839 43.3959 9.50839 43.3959 9.40529 43.3138C7.55767 41.8243 5.84732 40.1253 4.4532 38.2029C4.35302 38.0683 4.25277 37.9337 4.15245 37.7992C3.53669 36.9642 2.98029 36.1016 2.45918 35.2046C2.31995 34.965 2.178 34.727 2.03072 34.4923C1.97694 34.4044 1.92316 34.3165 1.86775 34.2259C1.80046 34.1192 1.80046 34.1192 1.7318 34.0103C1.52686 33.4243 1.57154 32.8983 1.83022 32.3468C1.91613 32.1858 2.00445 32.026 2.0948 31.8675C2.14209 31.7817 2.18937 31.6958 2.23808 31.6074C2.7321 30.726 3.28325 29.8862 3.86727 29.0623C3.95141 28.9434 4.03555 28.8245 4.12224 28.7021C5.30074 27.0884 6.65635 25.6487 8.08602 24.2576C7.53179 23.3852 6.90449 22.5835 6.26246 21.7754C5.99137 21.4328 5.72356 21.0878 5.45662 20.742C5.36493 20.6236 5.27323 20.5051 5.17876 20.3831C4.4532 19.4105 4.4532 19.4105 4.4532 18.9036C4.57039 18.5154 4.57039 18.5154 4.76814 18.2884C5.12298 18.1254 5.35419 18.1226 5.74227 18.1639C6.00456 18.3708 6.00456 18.3708 6.24764 18.6619C6.33797 18.7693 6.42831 18.8767 6.52138 18.9874C6.88185 19.4431 7.23372 19.9039 7.57836 20.3717C7.87019 20.7671 8.16731 21.1581 8.46687 21.5477C8.55932 21.6682 8.65177 21.7888 8.74703 21.913C9.02792 22.2711 9.31639 22.6204 9.60945 22.9686C9.69359 22.9003 9.77774 22.832 9.86443 22.7617C12.1895 20.9062 14.8126 19.604 17.461 18.2811C17.4375 18.2183 17.414 18.1555 17.3898 18.0908C17.1449 17.4355 16.9019 16.7795 16.6599 16.1231C16.5695 15.8785 16.4785 15.634 16.3871 15.3897C16.2555 15.0379 16.1257 14.6854 15.9962 14.3329C15.9552 14.2243 15.9141 14.1157 15.8719 14.0039C15.6565 13.412 15.5197 12.9353 15.586 12.3045C15.7691 12.0189 15.7691 12.0189 16.0548 11.8358C16.4649 11.7698 16.4649 11.7698 16.8751 11.8358C17.3858 12.3277 17.5701 12.9538 17.7998 13.6068C17.8407 13.7205 17.8817 13.8341 17.9239 13.9511C18.0539 14.3125 18.1823 14.6745 18.3106 15.0364C18.3987 15.2822 18.4869 15.528 18.5752 15.7737C18.7909 16.3747 19.0054 16.9761 19.2188 17.5779C19.4035 17.5419 19.588 17.5056 19.7726 17.4692C19.8754 17.449 19.9782 17.4288 20.0841 17.408C20.5361 17.313 20.9786 17.1889 21.4234 17.0652C23.0031 16.6405 24.602 16.3243 26.2281 16.1424C26.3091 16.133 26.39 16.1236 26.4735 16.1139C27.3729 16.0245 28.277 16.047 29.1798 16.0545C29.1786 15.9412 29.1786 15.9412 29.1774 15.8255C29.1696 15.0405 29.1643 14.2554 29.1605 13.4703C29.1587 13.1771 29.1563 12.884 29.1532 12.5908C29.149 12.1699 29.147 11.749 29.1454 11.3281C29.1427 11.1309 29.1427 11.1309 29.1399 10.9297C29.1399 10.7467 29.1399 10.7467 29.1399 10.5601C29.1387 10.3988 29.1387 10.3988 29.1375 10.2344C29.2167 9.7217 29.5059 9.55963 30.0001 9.56525ZM24.6095 18.1639C24.5062 18.1815 24.403 18.1991 24.2967 18.2173C19.4006 19.0656 14.7916 21.1942 10.8985 24.2576C10.779 24.3507 10.6595 24.4437 10.5364 24.5396C9.78394 25.1391 9.10696 25.7942 8.43758 26.4842C7.91231 27.0143 7.91231 27.0143 7.6429 27.2624C6.09682 28.7101 4.24983 31.0337 3.5157 33.0467C3.63196 35.0328 6.21853 37.5972 7.47399 38.9711C7.72396 39.2461 7.96722 39.526 8.21053 39.8069C8.64434 40.2943 9.11015 40.714 9.60945 41.1326C9.71761 41.2276 9.82577 41.3227 9.93721 41.4206C12.9581 44.0622 16.5666 46.027 20.3907 47.2264C20.4904 47.2578 20.5901 47.2892 20.6928 47.3215C21.8177 47.6708 22.9477 47.9681 24.1041 48.1932C24.1943 48.2109 24.2844 48.2286 24.3773 48.2468C26.2328 48.5861 28.074 48.6767 29.9561 48.6693C30.0693 48.669 30.1825 48.6688 30.2991 48.6686C32.0191 48.6631 33.6961 48.5969 35.3907 48.2811C35.4939 48.2635 35.5971 48.2458 35.7035 48.2277C40.5354 47.3905 45.3135 45.3054 49.1016 42.1873C49.272 42.0525 49.272 42.0525 49.4459 41.9149C51.3974 40.3293 53.1737 38.5107 54.6095 36.4451C54.6639 36.3675 54.7184 36.2898 54.7745 36.2098C55.9253 34.7615 55.9253 34.7615 56.4735 33.1254C56.3265 32.692 56.1099 32.31 55.8765 31.9188C55.7996 31.7893 55.7996 31.7893 55.7211 31.6573C54.7601 30.0757 53.6446 28.593 52.3472 27.2725C52.2041 27.1267 52.0618 26.9801 51.92 26.833C50.8507 25.7234 49.7676 24.6894 48.5157 23.7889C48.4428 23.7361 48.3699 23.6833 48.2948 23.6289C42.9223 19.7669 36.6568 17.7497 30.044 17.7757C29.9308 17.7759 29.8177 17.7761 29.7011 17.7763C27.9811 17.7818 26.3041 17.848 24.6095 18.1639Z" fill="#D2393E"/>
<path d="M29.7427 23.7601C29.9915 23.7589 30.2401 23.7553 30.4888 23.7516C30.6468 23.7508 30.8048 23.7502 30.9628 23.7498C31.1787 23.7481 31.1787 23.7481 31.399 23.7464C31.7579 23.7882 31.7579 23.7882 31.9761 23.9518C32.2418 24.3262 32.2393 24.5785 32.234 25.0333C32.233 25.1509 32.2319 25.2684 32.2308 25.3895C32.2294 25.4798 32.2281 25.5701 32.2267 25.6632C32.3129 25.6777 32.3992 25.6922 32.4881 25.7072C32.7962 25.7767 33.0336 25.8817 33.318 26.0148C33.5881 26.124 33.5881 26.124 33.8673 26.132C34.1482 25.9537 34.3562 25.7456 34.5901 25.5099C34.8048 25.3117 34.8048 25.3117 35.1564 25.2091C35.7148 25.372 36.0376 25.7288 36.4454 26.132C36.5681 26.2478 36.691 26.3634 36.8139 26.479C36.9427 26.6024 37.0714 26.726 37.1998 26.8497C37.2622 26.9086 37.3246 26.9675 37.3889 27.0282C37.7406 27.3747 37.952 27.6211 37.9689 28.1242C37.8137 28.5242 37.6707 28.7783 37.3536 29.069C37.286 29.1439 37.2183 29.2188 37.1486 29.296C37.2017 29.7112 37.3264 30.1051 37.4489 30.5045C37.4804 30.608 37.512 30.7115 37.5445 30.8181C37.5806 30.9348 37.5806 30.9348 37.6173 31.0538C37.7134 31.0484 37.8095 31.043 37.9084 31.0374C38.0347 31.0331 38.161 31.0289 38.2911 31.0245C38.4162 31.0191 38.5413 31.0137 38.6702 31.0081C39.1161 31.0658 39.2201 31.1702 39.4923 31.5226C39.553 31.8803 39.553 31.8803 39.5546 32.2953C39.5555 32.5199 39.5555 32.5199 39.5564 32.7489C39.5554 32.8266 39.5544 32.9042 39.5534 32.9842C39.5509 33.2212 39.5534 33.4577 39.5564 33.6947C39.5558 33.8444 39.5552 33.9941 39.5546 34.1483C39.554 34.2853 39.5535 34.4222 39.553 34.5633C39.4803 34.9921 39.3682 35.1319 39.0236 35.3898C38.6702 35.4356 38.6702 35.4356 38.2911 35.4191C38.1648 35.4148 38.0386 35.4106 37.9084 35.4063C37.8124 35.4008 37.7163 35.3954 37.6173 35.3898C37.5608 35.5728 37.5047 35.7559 37.4489 35.9391C37.4176 36.0411 37.3863 36.143 37.3541 36.2481C37.3249 36.3516 37.2958 36.455 37.2657 36.5617C37.2207 36.713 37.2207 36.713 37.1747 36.8674C37.1196 37.151 37.1196 37.151 37.2868 37.3678C37.3524 37.4329 37.4179 37.498 37.4855 37.5651C37.765 37.8465 37.9343 38.0329 37.9689 38.4367C37.8233 38.8976 37.6263 39.1739 37.2841 39.5115C37.196 39.5989 37.1079 39.6864 37.0172 39.7765C36.9252 39.8661 36.8332 39.9557 36.7384 40.048C36.6464 40.1394 36.5544 40.2308 36.4596 40.3249C35.6733 41.1005 35.6733 41.1005 35.2003 41.1906C34.739 41.1222 34.6723 41.0242 34.358 40.6998C34.1297 40.4666 34.1297 40.4666 33.8673 40.3117C33.5596 40.3338 33.3459 40.4158 33.0676 40.546C32.789 40.6741 32.5281 40.7297 32.2267 40.7804C32.2294 40.868 32.2321 40.9556 32.2349 41.0459C32.237 41.1613 32.2392 41.2767 32.2413 41.3956C32.2441 41.5098 32.2468 41.624 32.2496 41.7417C32.2256 42.0845 32.1959 42.2626 31.9923 42.5382C31.3437 42.8548 30.7147 42.8113 30.0074 42.8092C29.8818 42.8111 29.7562 42.813 29.6268 42.8149C28.437 42.8157 28.437 42.8157 27.8907 42.421C27.7677 42.052 27.7617 41.7896 27.7662 41.403C27.7673 41.2865 27.7684 41.17 27.7694 41.05C27.7708 40.9611 27.7722 40.8721 27.7736 40.7804C27.6213 40.7623 27.6213 40.7623 27.4659 40.7438C27.0704 40.6632 27.0704 40.6632 26.7042 40.4655C26.3906 40.28 26.3906 40.28 26.1329 40.3702C25.8738 40.5587 25.8738 40.5587 25.5616 40.8536C25.1954 41.132 25.1954 41.132 24.8585 41.2199C24.2813 41.0813 23.971 40.7203 23.5548 40.3117C23.4309 40.1998 23.3066 40.0883 23.1822 39.977C23.0523 39.8568 22.9226 39.7364 22.7931 39.6159C22.7297 39.5599 22.6663 39.504 22.601 39.4464C22.2671 39.1259 22.1043 38.8817 22.0826 38.4252C22.182 37.7361 22.4853 37.514 22.9689 37.0304C22.7755 36.5277 22.5822 36.0249 22.3829 35.507C22.1606 35.4973 21.9382 35.4876 21.7091 35.4777C21.0555 35.4493 21.0555 35.4493 20.7241 35.1992C20.4394 34.8329 20.4475 34.6091 20.4457 34.1483C20.4451 33.9986 20.4445 33.8489 20.4438 33.6947C20.4448 33.6171 20.4458 33.5394 20.4468 33.4594C20.4493 33.2225 20.4468 32.9859 20.4438 32.7489C20.4445 32.5992 20.4451 32.4495 20.4457 32.2953C20.4462 32.1584 20.4467 32.0214 20.4473 31.8803C20.52 31.4513 20.633 31.3131 20.9767 31.0538C21.4476 30.9587 21.9006 30.9576 22.3829 30.9367C22.5763 30.4339 22.7697 29.9312 22.9689 29.4132C22.8335 29.2754 22.6982 29.1377 22.5587 28.9957C22.2729 28.6638 22.1542 28.4984 22.046 28.0656C22.1973 27.4603 22.535 27.1518 22.9689 26.7179C23.1236 26.5486 23.1236 26.5486 23.2815 26.376C23.392 26.2579 23.5026 26.1399 23.6134 26.0221C23.7161 25.9123 23.8188 25.8025 23.9247 25.6893C24.3234 25.3777 24.5762 25.3227 25.0782 25.3117C25.4946 25.5358 25.8053 25.7967 26.1329 26.132C26.2023 26.1079 26.2716 26.0839 26.343 26.0592C26.4819 26.0118 26.4819 26.0118 26.6237 25.9635C26.7147 25.9322 26.8058 25.901 26.8997 25.8688C27.1892 25.7799 27.4759 25.7177 27.7736 25.6632C27.7708 25.5756 27.7681 25.488 27.7653 25.3977C27.7632 25.2823 27.7611 25.1669 27.7589 25.048C27.7562 24.9338 27.7535 24.8196 27.7507 24.7019C27.774 24.3682 27.8258 24.1831 28.0079 23.9054C28.5119 23.6534 29.183 23.7616 29.7427 23.7601ZM29.5314 25.4288C29.527 25.5178 29.5226 25.6068 29.5181 25.6985C29.5104 25.8149 29.5027 25.9314 29.4948 26.0514C29.4846 26.2247 29.4846 26.2247 29.4742 26.4016C29.4142 26.7179 29.4142 26.7179 29.2865 26.9175C28.9558 27.142 28.5922 27.2421 28.213 27.3551C27.4997 27.5758 27.4997 27.5758 26.8434 27.9264C26.3514 28.1975 26.1037 28.205 25.547 28.1242C25.1954 27.8312 25.1954 27.8312 24.9611 27.5382C24.5906 27.6987 24.4932 27.7713 24.2579 28.1242C24.3087 28.1752 24.3594 28.2263 24.4117 28.2789C24.477 28.3487 24.5423 28.4185 24.6095 28.4904C24.6748 28.5583 24.74 28.6263 24.8073 28.6964C25.0214 29.0418 25.0109 29.2458 24.9611 29.6476C24.794 30.0339 24.794 30.0339 24.5729 30.4386C24.2599 31.0255 24.0221 31.589 23.8716 32.2385C23.7892 32.4601 23.7892 32.4601 23.4376 32.6945C23.1469 32.743 23.1469 32.743 22.8297 32.7677C22.7241 32.7765 22.6185 32.7852 22.5097 32.7943C22.4292 32.8 22.3487 32.8057 22.2657 32.8117C22.2657 33.121 22.2657 33.4304 22.2657 33.7492C22.3547 33.7522 22.4437 33.7552 22.5354 33.7583C22.7101 33.7683 22.7101 33.7683 22.8883 33.7785C23.0039 33.7839 23.1194 33.7893 23.2385 33.7949C23.5548 33.8663 23.5548 33.8663 23.7544 34.0522C23.9895 34.4899 24.1198 34.9552 24.26 35.4291C24.4227 35.9514 24.6502 36.3489 24.9611 36.796C25.0487 37.199 25.0219 37.402 24.8027 37.7518C24.628 37.987 24.448 38.2138 24.2579 38.4367C24.4126 38.5913 24.5673 38.746 24.7267 38.9054C24.9877 38.7842 25.1924 38.6738 25.4078 38.4806C25.7817 38.2456 26.0476 38.2857 26.4845 38.3195C26.8823 38.4866 26.8823 38.4866 27.2828 38.7077C27.8709 39.0232 28.437 39.2624 29.0869 39.4204C29.297 39.4913 29.297 39.4913 29.4142 39.7257C29.4408 39.9449 29.4622 40.1648 29.4801 40.3849C29.4899 40.5024 29.4997 40.6199 29.5099 40.741C29.517 40.8314 29.5241 40.9217 29.5314 41.0148C29.8407 41.0148 30.1501 41.0148 30.4689 41.0148C30.4719 40.9356 30.4749 40.8565 30.478 40.7749C30.488 40.6181 30.488 40.6181 30.4982 40.4581C30.5036 40.3548 30.509 40.2515 30.5146 40.145C30.607 39.7543 30.7394 39.6191 31.0548 39.3742C31.3711 39.2464 31.3711 39.2464 31.7213 39.1471C32.1958 39.0024 32.5958 38.8436 33.0177 38.5831C33.5352 38.2813 33.8578 38.2202 34.4532 38.3195C34.8048 38.6124 34.8048 38.6124 35.0392 38.9054C35.4096 38.7449 35.5071 38.6723 35.7423 38.3195C35.648 38.2397 35.5538 38.1599 35.4567 38.0778C35.0931 37.661 35.0592 37.4607 35.0392 36.9132C35.1948 36.5154 35.1948 36.5154 35.42 36.1149C35.7372 35.5332 35.9743 34.9827 36.1172 34.3337C36.2434 34.0203 36.3889 33.9164 36.6798 33.7492C36.9563 33.6892 36.9563 33.6892 37.2365 33.6686C37.3301 33.6609 37.4238 33.6532 37.5203 33.6452C37.591 33.6409 37.6617 33.6365 37.7345 33.632C37.7345 33.3613 37.7345 33.0906 37.7345 32.8117C37.6638 32.8046 37.5931 32.7975 37.5203 32.7901C37.4266 32.7803 37.3329 32.7705 37.2365 32.7604C37.144 32.7509 37.0516 32.7414 36.9563 32.7315C36.7005 32.6972 36.4598 32.6452 36.2111 32.5773C36.1952 32.4948 36.1793 32.4123 36.163 32.3273C35.9666 31.4263 35.6481 30.7132 35.1948 29.92C35.0073 29.4507 35.0294 29.1951 35.1564 28.7101C35.3231 28.4307 35.5156 28.2453 35.7423 28.007C35.5876 27.8523 35.4329 27.6976 35.2736 27.5382C34.9238 27.6945 34.9238 27.6945 34.6583 27.963C34.3836 28.1788 34.1432 28.1933 33.8 28.1814C33.3175 28.0842 32.9127 27.8401 32.4826 27.6078C31.9947 27.3636 31.495 27.2074 30.9729 27.053C30.7032 26.9523 30.7032 26.9523 30.5861 26.7179C30.5594 26.4987 30.5381 26.2788 30.5201 26.0587C30.5103 25.9412 30.5005 25.8237 30.4904 25.7026C30.4833 25.6123 30.4762 25.5219 30.4689 25.4288C30.1595 25.4288 29.8501 25.4288 29.5314 25.4288Z" fill="#D2393E"/>
<path d="M43.3591 34.4525C43.6786 34.9316 43.6488 35.3068 43.5509 35.8692C43.4912 36.1389 43.4237 36.405 43.3518 36.6717C43.3126 36.8176 43.3126 36.8176 43.2725 36.9664C42.3333 40.3107 40.1146 43.3176 37.0978 45.0753C35.5511 45.938 33.8752 46.6324 32.1091 46.8743C31.9782 46.8936 31.9782 46.8936 31.8445 46.9133C28.1571 47.3696 24.521 46.3705 21.5668 44.1529C19.7924 42.7439 18.5488 41.1072 17.4607 39.14C17.3932 39.2161 17.3256 39.2922 17.2561 39.3707C16.974 39.6249 16.8848 39.673 16.5159 39.6673C16.0544 39.6087 16.0544 39.6087 15.8491 39.4039C15.502 38.7773 15.8118 37.9534 15.9945 37.302C16.0645 37.0769 16.1358 36.8521 16.2083 36.6278C16.2429 36.513 16.2776 36.3983 16.3133 36.2801C16.3483 36.1702 16.3833 36.0603 16.4193 35.9471C16.466 35.799 16.466 35.799 16.5137 35.6479C16.6704 35.3288 16.7953 35.2057 17.1091 35.0384C17.5513 34.9702 17.7374 34.9846 18.1035 35.248C18.1965 35.3439 18.2895 35.4399 18.3854 35.5387C18.539 35.695 18.539 35.695 18.6957 35.8544C18.8006 35.9646 18.9054 36.0748 19.0134 36.1883C19.1201 36.2971 19.2267 36.406 19.3366 36.5181C20.3709 37.5808 20.3709 37.5808 20.4343 38.078C20.3904 38.4368 20.3904 38.4368 20.178 38.7078C19.9216 38.9056 19.9216 38.9056 19.5701 39.0228C21.4789 41.9724 23.9483 44.0203 27.4216 44.8822C30.5833 45.5498 33.9168 44.9419 36.6277 43.1784C37.2923 42.7194 37.8642 42.1669 38.4373 41.6009C38.5125 41.5341 38.5877 41.4674 38.6652 41.3986C40.3729 39.8497 41.1913 37.5664 41.7185 35.39C41.9193 34.6013 41.9193 34.6013 42.2092 34.328C42.6664 34.1756 42.9206 34.2705 43.3591 34.4525Z" fill="#D2393E"/>
<path d="M39.646 23.3226C40.8481 24.469 41.7199 25.8731 42.5391 27.3038C42.6079 27.2277 42.6768 27.1515 42.7478 27.0731C43.0078 26.835 43.0078 26.835 43.418 26.7765C43.8281 26.835 43.8281 26.835 44.1211 27.0035C44.4599 27.5823 44.1901 28.3543 44.035 28.9792C43.9767 29.1925 43.9175 29.4055 43.8574 29.6182C43.8293 29.726 43.8012 29.8337 43.7723 29.9446C43.5952 30.5753 43.4299 30.9926 42.8906 31.4054C42.5464 31.4786 42.5464 31.4786 42.1875 31.4054C41.6681 31.0517 41.289 30.6081 40.8838 30.1314C40.5773 29.7834 40.2471 29.462 39.9142 29.1394C39.6591 28.8744 39.613 28.743 39.5728 28.3731C39.6094 28.0069 39.6094 28.0069 39.8218 27.7359C40.0781 27.5382 40.0781 27.5382 40.4297 27.421C38.4173 24.3857 35.8074 22.2719 32.2 21.5277C31.6986 21.4333 31.2129 21.3497 30.7031 21.3272C30.5561 21.3182 30.5561 21.3182 30.406 21.3089C27.367 21.2086 24.2617 22.3047 22.0312 24.3741C21.871 24.5182 21.871 24.5182 21.7076 24.6652C19.8428 26.4234 18.8758 28.5995 18.2812 31.0538C18.0744 31.8414 18.0744 31.8414 17.8491 32.1085C17.4445 32.2834 17.177 32.2228 16.7578 32.1085C16.5099 31.8577 16.4134 31.7094 16.377 31.3564C16.6811 27.9869 18.5779 24.8653 21.0937 22.6639C23.13 21.0306 25.5218 19.9095 28.125 19.5694C28.2256 19.5551 28.3262 19.5407 28.4299 19.5259C32.6558 19.0438 36.4997 20.5643 39.646 23.3226Z" fill="#D2393E"/>
<path d="M32.627 29.1219C33.81 29.974 34.5678 31.1348 34.8046 32.578C34.9173 33.9694 34.5999 35.2108 33.7499 36.328C32.9088 37.2464 31.8534 37.9203 30.5927 37.9965C28.9276 38.0366 27.7345 37.7616 26.4994 36.5884C25.4818 35.5183 25.1542 34.2951 25.1705 32.8526C25.2502 31.5898 25.8311 30.475 26.7479 29.6117C28.3901 28.239 30.7858 27.9737 32.627 29.1219ZM27.4694 31.5114C27.0046 32.206 26.8296 32.919 26.953 33.7498C27.1543 34.475 27.4146 35.0249 28.0077 35.5077C28.0653 35.5593 28.1228 35.611 28.1821 35.6642C28.8246 36.1948 29.5721 36.3556 30.3972 36.3138C31.2216 36.174 31.9405 35.7706 32.4448 35.1003C32.9392 34.3003 33.1497 33.6366 33.0468 32.6952C32.8058 31.7427 32.3424 31.0819 31.5197 30.5487C30.0413 29.78 28.4762 30.2434 27.4694 31.5114Z" fill="#D2393E"/>
</svg>
