<svg width="60" height="60" viewBox="0 0 60 60" fill="none" xmlns="http://www.w3.org/2000/svg">
<path d="M29.7387 17.1026C29.9491 17.1006 30.1595 17.0974 30.3698 17.093C30.6735 17.0865 30.9769 17.084 31.2806 17.0823C31.3743 17.0796 31.4679 17.077 31.5644 17.0742C32.0672 17.0761 32.2474 17.0981 32.6533 17.4258C32.9962 17.8664 33.0211 18.0755 33.0183 18.6277C33.0178 18.8248 33.0178 18.8248 33.0172 19.0259C33.0157 19.2326 33.0157 19.2326 33.0142 19.4434C33.0137 19.5821 33.0131 19.7208 33.0126 19.8636C33.0112 20.207 33.0093 20.5503 33.0069 20.8936C33.0961 20.8905 33.1853 20.8875 33.2773 20.8843C33.6827 20.8721 34.0881 20.8645 34.4937 20.857C34.7043 20.8496 34.7043 20.8496 34.9192 20.8421C35.9358 20.828 35.9358 20.828 36.2779 21.0184C36.7062 21.4381 36.7716 21.7885 36.7822 22.3687C36.783 22.4579 36.7839 22.5471 36.7848 22.6391C36.7857 22.731 36.7867 22.8229 36.7877 22.9176C36.7893 23.1124 36.7905 23.3071 36.7915 23.5019C36.7935 23.799 36.7986 24.0959 36.8038 24.393C36.805 24.5823 36.806 24.7716 36.8068 24.9608C36.8088 25.0494 36.8109 25.1379 36.813 25.2291C36.8112 25.6532 36.7724 25.9074 36.5487 26.2717C36.0911 26.7053 35.7852 26.7825 35.1584 26.7759C35.033 26.7751 34.9076 26.7744 34.7784 26.7736C34.5831 26.7706 34.5831 26.7706 34.3838 26.7676C34.1858 26.766 34.1858 26.766 33.9837 26.7644C33.6581 26.7617 33.3325 26.7578 33.0069 26.753C33.0087 26.8351 33.0106 26.9172 33.0125 27.0019C33.0198 27.3754 33.0243 27.749 33.0288 28.1226C33.0318 28.2518 33.0347 28.3811 33.0378 28.5142C33.0389 28.6392 33.04 28.7642 33.0412 28.893C33.043 29.0078 33.0449 29.1225 33.0468 29.2408C32.984 29.7519 32.7943 30.0387 32.3971 30.3609C31.9811 30.5412 31.6066 30.5535 31.1612 30.5497C31.075 30.55 30.9887 30.5503 30.8999 30.5507C30.7183 30.5509 30.5367 30.5503 30.355 30.5488C30.078 30.5469 29.8012 30.5488 29.5242 30.551C29.3472 30.5508 29.1702 30.5504 28.9932 30.5497C28.9109 30.5504 28.8286 30.5511 28.7438 30.5518C28.2301 30.5445 27.9005 30.4771 27.4991 30.1514C27.1723 29.7273 27.1047 29.4228 27.1132 28.893C27.1143 28.768 27.1154 28.643 27.1166 28.5142C27.1195 28.385 27.1225 28.2558 27.1255 28.1226C27.1279 27.9254 27.1279 27.9254 27.1303 27.7241C27.1345 27.4004 27.1402 27.0767 27.1475 26.753C27.0252 26.7567 27.0252 26.7567 26.9005 26.7604C26.5287 26.7702 26.157 26.7763 25.7852 26.7823C25.6569 26.7862 25.5287 26.7901 25.3966 26.7942C24.6543 26.8032 24.1881 26.798 23.6319 26.2842C23.3412 25.8483 23.3596 25.5053 23.3581 25.0002C23.3574 24.9087 23.3566 24.8173 23.3558 24.723C23.3546 24.5295 23.354 24.3359 23.3541 24.1423C23.3536 23.8475 23.3493 23.5529 23.3449 23.2582C23.3442 23.0698 23.3437 22.8814 23.3435 22.6931C23.341 22.5618 23.341 22.5618 23.3384 22.4278C23.3436 21.8218 23.482 21.4765 23.8662 21.0108C24.1843 20.8518 24.4344 20.8804 24.79 20.8822C24.9267 20.8825 25.0634 20.8829 25.2043 20.8833C25.3476 20.8843 25.491 20.8853 25.6387 20.8863C25.783 20.8868 25.9272 20.8873 26.0759 20.8879C26.4331 20.8893 26.7903 20.8912 27.1475 20.8936C27.145 20.8085 27.1426 20.7235 27.1401 20.6358C27.1303 20.2481 27.1242 19.8605 27.1182 19.4727C27.1143 19.3389 27.1103 19.205 27.1063 19.0671C27.0918 17.8221 27.0918 17.8221 27.6162 17.2608C28.1962 16.9708 29.0935 17.1069 29.7387 17.1026ZM29.0225 19.0186C29.0181 19.2148 29.0137 19.4111 29.0092 19.6132C29.0015 19.8716 28.9937 20.1299 28.9859 20.3882C28.9832 20.5175 28.9806 20.6467 28.9779 20.7799C28.9737 20.9049 28.9696 21.0299 28.9653 21.1587C28.9622 21.2734 28.9591 21.3882 28.956 21.5064C28.8957 21.8928 28.7952 22.1097 28.5537 22.417C28.1455 22.6413 27.7821 22.6845 27.321 22.6999C27.1414 22.7067 27.1414 22.7067 26.9582 22.7137C26.8346 22.7173 26.7109 22.7209 26.5835 22.7247C26.4576 22.7292 26.3317 22.7337 26.202 22.7384C25.8922 22.7494 25.5823 22.7591 25.2725 22.7686C25.2725 23.4647 25.2725 24.1608 25.2725 24.878C25.5943 24.8825 25.5943 24.8825 25.9225 24.8871C26.2039 24.8937 26.4853 24.9005 26.7666 24.9073C26.908 24.9089 27.0494 24.9106 27.1951 24.9123C27.399 24.918 27.399 24.918 27.6071 24.9238C27.7949 24.9274 27.7949 24.9274 27.9865 24.9312C28.3941 25.0095 28.531 25.1451 28.7881 25.4639C28.9421 25.7718 28.9302 26.0178 28.9424 26.3621C28.9473 26.4935 28.9522 26.6249 28.9573 26.7603C28.9619 26.8981 28.9665 27.0358 28.9712 27.1778C28.9763 27.3165 28.9813 27.4551 28.9866 27.598C28.999 27.9413 29.0108 28.2847 29.0225 28.628C29.7186 28.628 30.4147 28.628 31.1319 28.628C31.1376 28.4219 31.1434 28.2159 31.1493 28.0036C31.1581 27.7332 31.1669 27.4628 31.1758 27.1924C31.1794 27.0566 31.1831 26.9208 31.1868 26.7809C31.1913 26.6502 31.1959 26.5196 31.2005 26.3849C31.2042 26.2647 31.2079 26.1444 31.2117 26.0204C31.2495 25.6948 31.3037 25.5016 31.4834 25.2295C31.8863 24.961 32.0601 24.9606 32.5358 24.9466C32.6722 24.9421 32.8085 24.9376 32.949 24.9329C33.0913 24.9293 33.2337 24.9257 33.3804 24.9219C33.5241 24.9174 33.6679 24.9129 33.816 24.9082C34.1712 24.8971 34.5266 24.8874 34.8819 24.878C34.8819 24.1819 34.8819 23.4858 34.8819 22.7686C34.6955 22.7642 34.5091 22.7598 34.317 22.7553C34.0707 22.7476 33.8244 22.7399 33.5782 22.732C33.4555 22.7293 33.3328 22.7267 33.2065 22.724C32.0177 22.6826 32.0177 22.6826 31.4834 22.2999C31.2436 21.9253 31.2146 21.6099 31.2005 21.1701C31.1937 20.982 31.1937 20.982 31.1868 20.7902C31.1832 20.6599 31.1796 20.5297 31.1758 20.3956C31.169 20.1975 31.169 20.1975 31.1621 19.9955C31.151 19.6699 31.1413 19.3442 31.1319 19.0186C30.4358 19.0186 29.7397 19.0186 29.0225 19.0186Z" fill="#D2393E"/>
<path d="M25.3168 42.266C25.4676 42.2643 25.6184 42.2627 25.7738 42.261C25.9401 42.2621 26.1064 42.2633 26.2727 42.2646C26.4485 42.2638 26.6243 42.2627 26.8 42.2615C27.2768 42.2588 27.7535 42.2598 28.2302 42.2617C28.7293 42.2632 29.2284 42.2618 29.7276 42.2609C30.5657 42.2598 31.4038 42.2612 32.242 42.264C33.2108 42.2672 34.1795 42.2662 35.1482 42.2629C35.9803 42.2603 36.8123 42.2599 37.6443 42.2614C38.1411 42.2623 38.6379 42.2625 39.1347 42.2605C39.6018 42.2588 40.0689 42.26 40.536 42.2634C40.7073 42.2642 40.8787 42.264 41.05 42.2627C41.284 42.2611 41.5181 42.2634 41.7521 42.266C41.883 42.2662 42.0139 42.2664 42.1488 42.2667C42.6134 42.3644 42.7907 42.5621 43.0852 42.9263C43.1584 43.2779 43.1584 43.2779 43.0852 43.6295C42.7907 43.9937 42.6134 44.1914 42.1488 44.2891C42.0179 44.2893 41.887 44.2896 41.7521 44.2898C41.6012 44.2915 41.4504 44.2931 41.295 44.2948C41.1287 44.2937 40.9624 44.2925 40.7962 44.2912C40.6204 44.292 40.4446 44.293 40.2688 44.2943C39.7921 44.297 39.3154 44.296 38.8386 44.2941C38.3395 44.2926 37.8404 44.294 37.3413 44.2949C36.5031 44.296 35.665 44.2946 34.8269 44.2918C33.8581 44.2886 32.8894 44.2896 31.9206 44.2929C31.0886 44.2955 30.2566 44.2959 29.4246 44.2944C28.9277 44.2934 28.4309 44.2933 27.9341 44.2953C27.467 44.2969 27 44.2958 26.5329 44.2924C26.3615 44.2916 26.1902 44.2918 26.0189 44.2931C25.7848 44.2947 25.5508 44.2924 25.3168 44.2898C25.1859 44.2896 25.0549 44.2894 24.9201 44.2891C24.4555 44.1914 24.2781 43.9937 23.9836 43.6295C23.9104 43.2779 23.9104 43.2779 23.9836 42.9263C24.4014 42.4095 24.6556 42.2671 25.3168 42.266Z" fill="#D2393E"/>
<path d="M25.1949 34.193C25.4241 34.1908 25.4241 34.1908 25.6579 34.1885C25.8271 34.1892 25.9962 34.19 26.1653 34.1908C26.3436 34.19 26.5218 34.189 26.7001 34.1877C27.1841 34.1851 27.668 34.1855 28.1521 34.1865C28.556 34.1871 28.9599 34.1862 29.3639 34.1854C30.3167 34.1834 31.2694 34.1838 32.2222 34.1858C33.2056 34.1878 34.1889 34.1859 35.1722 34.1821C36.0163 34.179 36.8603 34.1781 37.7044 34.1791C38.2086 34.1797 38.7128 34.1794 39.217 34.177C39.6911 34.1749 40.165 34.1756 40.639 34.1785C40.8131 34.1791 40.9871 34.1786 41.1611 34.1772C41.3986 34.1753 41.636 34.1774 41.8734 34.1797C42.0063 34.1798 42.1392 34.1798 42.2761 34.1799C42.6162 34.2533 42.6162 34.2533 42.8933 34.5285C43.1276 34.9085 43.1596 35.1034 43.0849 35.5424C42.8233 35.8761 42.6689 35.9935 42.2646 36.1283C42.0296 36.1398 41.7942 36.1441 41.5589 36.1448C41.4114 36.1454 41.2639 36.1461 41.1118 36.1468C40.948 36.1469 40.7842 36.1471 40.6204 36.1472C40.4481 36.1477 40.2758 36.1483 40.1035 36.149C39.6353 36.1505 39.167 36.1513 38.6987 36.1518C38.4062 36.1521 38.1137 36.1526 37.8212 36.1531C36.9061 36.1547 35.991 36.1559 35.0759 36.1563C34.0193 36.1568 32.9628 36.1589 31.9062 36.1623C31.0896 36.1648 30.273 36.166 29.4564 36.1662C28.9686 36.1663 28.4809 36.167 27.9931 36.1691C27.5343 36.171 27.0755 36.1713 26.6167 36.1702C26.4483 36.1701 26.28 36.1706 26.1117 36.1718C25.8818 36.1733 25.6518 36.1724 25.4219 36.1714C25.2933 36.1716 25.1647 36.1717 25.0321 36.1719C24.6386 36.1223 24.4178 36.011 24.1005 35.7768C23.9194 35.4144 23.949 35.1212 23.9834 34.7221C24.3394 34.2408 24.6109 34.1944 25.1949 34.193Z" fill="#D2393E"/>
<path d="M18.7636 40.4364C18.8503 40.4354 18.937 40.4345 19.0263 40.4335C19.2101 40.4319 19.3938 40.4306 19.5775 40.4297C19.8576 40.4277 20.1376 40.4226 20.4177 40.4174C20.5963 40.4162 20.7749 40.4152 20.9535 40.4144C21.0786 40.4113 21.0786 40.4113 21.2062 40.4082C21.614 40.41 21.8576 40.4544 22.2099 40.6652C22.8801 41.383 22.7333 42.2868 22.731 43.2109C22.7329 43.3645 22.7348 43.518 22.7367 43.6762C22.7368 43.8246 22.7369 43.9731 22.737 44.126C22.7373 44.2609 22.7377 44.3959 22.738 44.535C22.6772 45.0685 22.5076 45.4412 22.1441 45.8369C21.7544 46.0321 21.3784 46.0269 20.9517 46.0271C20.8182 46.0284 20.8182 46.0284 20.682 46.0298C20.4942 46.031 20.3064 46.0314 20.1185 46.0308C19.8319 46.0307 19.5457 46.0356 19.2591 46.0408C19.0762 46.0414 18.8934 46.0417 18.7105 46.0417C18.5826 46.0446 18.5826 46.0446 18.4522 46.0475C17.9872 46.0412 17.7924 45.9884 17.4282 45.6895C16.9183 45.0495 17.0345 44.306 17.0284 43.5205C17.0264 43.3393 17.0232 43.1582 17.0188 42.977C17.0123 42.715 17.0098 42.4531 17.0081 42.191C17.0054 42.1108 17.0027 42.0305 17 41.9479C17.0029 41.2904 17.2079 41.0266 17.6553 40.5815C18.0087 40.4048 18.3757 40.4404 18.7636 40.4364ZM18.9444 42.3393C18.9444 42.9194 18.9444 43.4995 18.9444 44.0971C19.5631 44.0971 20.1819 44.0971 20.8194 44.0971C20.8194 43.5171 20.8194 42.937 20.8194 42.3393C20.2006 42.3393 19.5819 42.3393 18.9444 42.3393Z" fill="#D2393E"/>
<path d="M18.7636 32.4676C18.8503 32.4667 18.937 32.4658 19.0263 32.4648C19.2101 32.4632 19.3938 32.4619 19.5775 32.461C19.8576 32.459 20.1376 32.4538 20.4177 32.4486C20.5963 32.4475 20.7749 32.4465 20.9535 32.4457C21.0786 32.4426 21.0786 32.4426 21.2062 32.4395C21.614 32.4412 21.8576 32.4857 22.2099 32.6964C22.8801 33.4143 22.7333 34.3181 22.731 35.2421C22.7329 35.3957 22.7348 35.5493 22.7367 35.7075C22.7368 35.8559 22.7369 36.0043 22.737 36.1572C22.7373 36.2922 22.7377 36.4271 22.738 36.5662C22.6772 37.0997 22.5076 37.4725 22.1441 37.8681C21.7544 38.0633 21.3784 38.0582 20.9517 38.0583C20.8182 38.0596 20.8182 38.0596 20.682 38.061C20.4942 38.0623 20.3064 38.0626 20.1185 38.0621C19.8319 38.062 19.5457 38.0669 19.2591 38.072C19.0762 38.0727 18.8934 38.073 18.7105 38.073C18.5826 38.0758 18.5826 38.0758 18.4522 38.0788C17.9872 38.0725 17.7924 38.0197 17.4282 37.7207C16.9183 37.0808 17.0345 36.3372 17.0284 35.5518C17.0264 35.3706 17.0232 35.1894 17.0188 35.0083C17.0123 34.7462 17.0098 34.4844 17.0081 34.2223C17.0054 34.142 17.0027 34.0618 17 33.9791C17.0029 33.3217 17.2079 33.0579 17.6553 32.6128C18.0087 32.4361 18.3757 32.4716 18.7636 32.4676ZM18.9444 34.3706C18.9444 34.9506 18.9444 35.5307 18.9444 36.1284C19.5631 36.1284 20.1819 36.1284 20.8194 36.1284C20.8194 35.5483 20.8194 34.9682 20.8194 34.3706C20.2006 34.3706 19.5819 34.3706 18.9444 34.3706Z" fill="#D2393E"/>
<path d="M18.7379 48.4097C18.8641 48.4087 18.8641 48.4087 18.9928 48.4076C19.171 48.4065 19.3492 48.4058 19.5274 48.4053C19.7991 48.4042 20.0706 48.4005 20.3422 48.3968C20.5154 48.3961 20.6887 48.3955 20.862 48.395C20.9428 48.3936 21.0236 48.3921 21.1069 48.3906C21.619 48.393 21.9475 48.4533 22.3428 48.785C22.6676 49.2879 22.7393 49.6827 22.7411 50.2755C22.7418 50.4973 22.7418 50.4973 22.7425 50.7237C22.7411 50.8767 22.7397 51.0297 22.7383 51.1874C22.7397 51.3404 22.7411 51.4934 22.7425 51.6511C22.742 51.799 22.7415 51.9469 22.7411 52.0992C22.7407 52.2335 22.7403 52.3677 22.7399 52.506C22.6763 53.0376 22.5066 53.4114 22.1441 53.806C21.7544 54.0012 21.3784 53.9961 20.9517 53.9962C20.8182 53.9975 20.8182 53.9975 20.682 53.9989C20.4942 54.0002 20.3064 54.0005 20.1185 54C19.8319 53.9999 19.5457 54.0047 19.2591 54.0099C19.0762 54.0105 18.8934 54.0109 18.7105 54.0109C18.5826 54.0137 18.5826 54.0137 18.4522 54.0167C17.9872 54.0104 17.7924 53.9576 17.4282 53.6586C16.9183 53.0187 17.0345 52.2751 17.0284 51.4897C17.0264 51.3085 17.0232 51.1273 17.0188 50.9462C17.0123 50.6841 17.0098 50.4223 17.0081 50.1601C17.0054 50.0799 17.0027 49.9997 17 49.917C17.0029 49.2596 17.2079 48.9958 17.6553 48.5506C18.0025 48.3771 18.3571 48.412 18.7379 48.4097ZM18.9444 50.3085C18.9444 50.9272 18.9444 51.546 18.9444 52.1835C19.5631 52.1835 20.1819 52.1835 20.8194 52.1835C20.8194 51.5647 20.8194 50.946 20.8194 50.3085C20.2006 50.3085 19.5819 50.3085 18.9444 50.3085Z" fill="#D2393E"/>
<path d="M30.0774 5C30.5549 5.09947 30.7271 5.2698 31.0149 5.65918C31.0881 6.01074 31.0881 6.01074 31.0149 6.3623C30.7271 6.75169 30.5549 6.92201 30.0774 7.02148C29.5999 6.92201 29.4277 6.75169 29.1399 6.3623C29.0667 6.01074 29.0667 6.01074 29.1399 5.65918C29.4277 5.2698 29.5999 5.09947 30.0774 5Z" fill="#D2393E"/>
<path d="M32.2297 0.538553C32.9029 0.995435 33.3124 1.47331 33.6639 2.20846C33.7549 2.39669 33.7549 2.39669 33.8477 2.58871C33.8925 2.6839 33.9374 2.77909 33.9837 2.87716C34.0627 2.87758 34.1417 2.87801 34.2231 2.87845C35.0464 2.88334 35.8696 2.89145 36.6928 2.90142C36.9999 2.90472 37.3071 2.9072 37.6142 2.90884C38.056 2.91135 38.4977 2.91681 38.9395 2.92283C39.0765 2.92298 39.2136 2.92312 39.3548 2.92327C40.167 2.93782 40.6465 2.9919 41.2333 3.57874C41.498 3.59079 41.763 3.59461 42.0279 3.59532C42.111 3.59573 42.1941 3.59614 42.2797 3.59655C42.4609 3.59742 42.642 3.59804 42.8231 3.59846C43.1102 3.5993 43.3973 3.60113 43.6844 3.60329C44.5009 3.60943 45.3174 3.61503 46.1339 3.61685C46.633 3.61803 47.132 3.62147 47.631 3.62636C47.8209 3.62779 48.0108 3.6284 48.2007 3.62813C48.4675 3.62786 48.7341 3.63046 49.0008 3.63369C49.2281 3.63472 49.2281 3.63472 49.46 3.63577C49.9534 3.70512 50.3363 3.82072 50.7047 4.16339C51.1031 4.7586 51.2406 5.19766 51.2309 5.91886C51.2319 6.05588 51.2319 6.05588 51.2329 6.19568C51.2345 6.50154 51.2327 6.8073 51.231 7.11317C51.2315 7.33475 51.2321 7.55634 51.233 7.77793C51.2347 8.38667 51.2335 8.99538 51.2318 9.60412C51.2305 10.2607 51.2319 10.9172 51.233 11.5738C51.2346 12.8599 51.2337 14.1459 51.232 15.432C51.23 16.9291 51.2304 18.4263 51.2308 19.9234C51.2315 22.6749 51.2297 25.4264 51.2267 28.178C51.224 30.69 51.2234 33.2021 51.2245 35.7142C51.2249 36.3575 51.2252 37.0008 51.2254 37.6442C51.2255 37.7234 51.2255 37.8026 51.2255 37.8842C51.2264 39.9831 51.2257 42.082 51.2244 44.1809C51.2242 44.4817 51.2241 44.7825 51.2239 45.0833C51.2238 45.2313 51.2237 45.3793 51.2236 45.5318C51.2231 46.5759 51.2233 47.62 51.2238 48.664C51.2244 49.936 51.2237 51.2079 51.2213 52.4798C51.2202 53.129 51.2196 53.7782 51.2205 54.4274C51.2213 55.0214 51.2205 55.6153 51.2184 56.2092C51.218 56.4244 51.2181 56.6396 51.2189 56.8548C51.2198 57.1468 51.2186 57.4387 51.2169 57.7306C51.2177 57.8146 51.2184 57.8987 51.2193 57.9852C51.213 58.5265 51.1055 58.8944 50.8216 59.3544C50.3127 59.8137 50.0329 59.9536 49.3554 59.9548C49.2169 59.9553 49.0783 59.9558 48.9356 59.9564C48.7821 59.9563 48.6286 59.9563 48.4704 59.9563C48.3067 59.9567 48.143 59.9571 47.9793 59.9576C47.5279 59.9588 47.0765 59.9592 46.6251 59.9595C46.1389 59.96 45.6527 59.9611 45.1664 59.9621C43.9914 59.9644 42.8164 59.9656 41.6414 59.9666C41.0884 59.9671 40.5354 59.9678 39.9824 59.9684C38.1448 59.9704 36.3071 59.9721 34.4695 59.9729C33.9924 59.9731 33.5154 59.9734 33.0383 59.9736C32.8604 59.9737 32.8604 59.9737 32.679 59.9738C30.7573 59.9747 28.8358 59.9777 26.9142 59.9815C24.9425 59.9854 22.9708 59.9875 20.9991 59.9878C19.8916 59.9881 18.7841 59.9891 17.6766 59.9921C16.7335 59.9946 15.7904 59.9956 14.8474 59.9944C14.3661 59.9939 13.8848 59.9941 13.4035 59.9964C12.9629 59.9985 12.5224 59.9984 12.0818 59.9965C11.8468 59.9961 11.6118 59.998 11.3768 60C10.1053 59.9909 10.1053 59.9909 9.54525 59.4714C9.15882 59.0316 9.06324 58.6636 9.05954 58.0863C9.05853 57.9696 9.05752 57.8529 9.05649 57.7327C9.05599 57.6047 9.05549 57.4768 9.05498 57.345C9.05354 57.1427 9.05354 57.1427 9.05208 56.9364C9.04918 56.4894 9.04724 56.0423 9.04556 55.5953C9.04494 55.4428 9.04431 55.2904 9.04367 55.1333C9.04114 54.4927 9.03895 53.8522 9.03764 53.2116C9.03574 52.294 9.03186 51.3764 9.0252 50.4589C9.02067 49.8134 9.01839 49.1679 9.01777 48.5224C9.01734 48.137 9.01564 47.7516 9.01214 47.3662C9.00846 46.9362 9.00843 46.5063 9.0093 46.0763C9.00738 45.9488 9.00547 45.8214 9.00349 45.6901C9.01063 44.8286 9.01063 44.8286 9.3522 44.3668C9.66218 44.1535 9.66218 44.1535 10.013 44.0804C10.3638 44.1535 10.3638 44.1535 10.9484 44.7382C10.9484 49.1757 10.9484 53.6132 10.9484 58.1851C23.6049 58.1851 36.2615 58.1851 49.3015 58.1851C49.3015 40.821 49.3015 23.4569 49.3015 5.56655C46.7548 5.56655 44.208 5.56655 41.5841 5.56655C41.5841 5.91383 41.5841 6.26112 41.5841 6.61892C41.823 6.61525 41.823 6.61525 42.0667 6.6115C42.659 6.60302 43.2513 6.59766 43.8436 6.59323C44.0997 6.59088 44.3558 6.58769 44.6119 6.58364C44.9806 6.57795 45.3491 6.57531 45.7178 6.57325C45.8318 6.57083 45.9458 6.56842 46.0633 6.56593C46.7374 6.56571 47.1332 6.62893 47.6645 7.08664C48.081 7.5482 48.2627 7.88787 48.2663 8.50869C48.2676 8.6572 48.2676 8.6572 48.2689 8.80871C48.2692 8.91696 48.2695 9.02521 48.2698 9.13675C48.2706 9.25105 48.2714 9.36535 48.2722 9.48311C48.2745 9.86181 48.2758 10.2405 48.277 10.6192C48.2775 10.7485 48.278 10.8777 48.2784 11.0109C48.2809 11.6946 48.2826 12.3784 48.2837 13.0622C48.2849 13.769 48.289 14.4759 48.2936 15.1827C48.2967 15.7258 48.2976 16.2689 48.2981 16.812C48.2986 17.0726 48.3 17.3332 48.3022 17.5938C48.305 17.9583 48.3049 18.3226 48.3041 18.6871C48.3063 18.8488 48.3063 18.8488 48.3086 19.0137C48.3046 19.5057 48.291 19.7645 48.0265 20.1913C47.7621 20.4345 47.6667 20.4942 47.3137 20.4825C47.2365 20.4826 47.1593 20.4828 47.0798 20.4829C46.7226 20.3817 46.6015 20.2486 46.3783 19.949C46.3095 19.5809 46.3192 19.2173 46.3252 18.8439C46.3251 18.7321 46.325 18.6203 46.325 18.5051C46.3253 18.1355 46.3289 17.7661 46.3326 17.3966C46.3335 17.1403 46.3341 16.8841 46.3346 16.6279C46.3364 15.9535 46.341 15.2792 46.3461 14.6048C46.3509 13.9167 46.3531 13.2285 46.3554 12.5403C46.3604 11.1901 46.3687 9.83998 46.3783 8.4898C44.7962 8.4898 43.2141 8.4898 41.5841 8.4898C41.5979 9.6459 41.5979 9.6459 41.6157 10.8019C41.617 11.0197 41.617 11.0197 41.6184 11.2418C41.6202 11.3893 41.622 11.5369 41.6239 11.689C41.5578 12.3955 41.2862 13.0239 40.7656 13.5178C39.8106 14.0712 38.8122 14.0522 37.7432 14.046C37.5583 14.0467 37.3734 14.0475 37.1885 14.0485C36.6894 14.0506 36.1903 14.0498 35.6912 14.0483C35.1671 14.0472 34.6429 14.0483 34.1188 14.049C33.2389 14.0498 32.359 14.0487 31.4791 14.0465C30.4641 14.044 29.4491 14.0448 28.434 14.0474C27.5601 14.0495 26.6862 14.0498 25.8123 14.0486C25.2914 14.0478 24.7705 14.0477 24.2496 14.0493C23.7597 14.0506 23.2699 14.0497 22.78 14.047C22.601 14.0464 22.422 14.0465 22.243 14.0476C21.272 14.0527 20.3327 14.0528 19.4843 13.5178C18.7917 12.8061 18.6504 12.2587 18.6544 11.276C18.6547 11.13 18.655 10.984 18.6553 10.8335C18.6563 10.6486 18.6574 10.4636 18.6585 10.273C18.6609 9.68454 18.6633 9.09609 18.6658 8.4898C17.0837 8.4898 15.5017 8.4898 13.8717 8.4898C13.9103 23.886 13.9488 39.2822 13.9886 55.1449C27.0015 57.2792 27.0015 57.2792 37.9899 54.0912C38.8329 53.1983 39.1299 52.3903 39.2574 51.1912C39.2677 51.0991 39.278 51.0069 39.2886 50.9119C39.3138 50.686 39.3382 50.4599 39.3624 50.2339C39.2884 50.2342 39.2143 50.2345 39.138 50.2349C37.3344 50.2426 35.5309 50.2484 33.7274 50.2521C32.8552 50.2539 31.983 50.2563 31.1108 50.2603C30.3505 50.2638 29.5902 50.2661 28.8299 50.2669C28.4274 50.2673 28.025 50.2684 27.6225 50.271C27.1729 50.2738 26.7233 50.2739 26.2737 50.2737C26.1407 50.275 26.0076 50.2762 25.8705 50.2775C25.2183 50.275 24.7171 50.269 24.1615 49.8831C23.9808 49.5216 24.0103 49.2289 24.0446 48.8307C24.2849 48.5142 24.4248 48.3799 24.8187 48.3039C24.9358 48.3037 25.0529 48.3034 25.1736 48.3031C25.3083 48.3016 25.4431 48.3002 25.5819 48.2987C25.7293 48.2994 25.8767 48.3002 26.0285 48.301C26.1857 48.3002 26.3428 48.2992 26.4999 48.2979C26.9263 48.2952 27.3527 48.2952 27.7791 48.2958C28.2254 48.2959 28.6716 48.2932 29.1179 48.2908C29.9634 48.2867 30.8088 48.2848 31.6543 48.2838C32.8952 48.2823 34.1361 48.2778 35.3769 48.2728C35.4679 48.2725 35.5589 48.2721 35.6527 48.2717C35.8341 48.271 36.0156 48.2703 36.197 48.2695C36.7285 48.2674 37.2599 48.2661 37.7913 48.2655C38.1219 48.265 38.4524 48.2642 38.7829 48.2632C39.0093 48.2627 39.2357 48.2627 39.4621 48.2628C39.5969 48.2624 39.7316 48.2619 39.8705 48.2614C39.9876 48.2613 40.1047 48.2611 40.2253 48.261C40.5028 48.2475 40.7335 48.2042 40.9995 48.1291C41.1627 48.1178 41.3264 48.1112 41.49 48.1086C43.0569 48.0679 44.1228 47.9135 45.3021 46.7936C46.0317 45.9398 46.2794 44.9637 46.2767 43.8683C46.2769 43.7803 46.2772 43.6924 46.2774 43.6018C46.2781 43.307 46.278 43.0122 46.2779 42.7175C46.2783 42.5062 46.2787 42.2949 46.2791 42.0836C46.2801 41.6286 46.2807 41.1735 46.281 40.7185C46.2817 39.9992 46.2837 39.28 46.2859 38.5607C46.2866 38.3146 46.2874 38.0684 46.2881 37.8222C46.2885 37.6989 46.2888 37.5756 46.2892 37.4486C46.2941 35.774 46.298 34.0995 46.2994 32.4249C46.3004 31.2953 46.303 30.1658 46.3075 29.0363C46.3099 28.4384 46.3113 27.8406 46.3107 27.2427C46.3102 26.6806 46.3118 26.1186 46.3151 25.5566C46.3159 25.3501 46.3159 25.1437 46.315 24.9372C46.314 24.6557 46.3158 24.3744 46.3184 24.0929C46.3174 24.0109 46.3164 23.9288 46.3154 23.8443C46.322 23.4495 46.3543 23.2536 46.6012 22.9389C46.8653 22.7408 46.9876 22.6889 47.3137 22.6895C47.4295 22.6857 47.4295 22.6857 47.5476 22.6817C47.9201 22.7989 48.0395 23.017 48.2491 23.3399C48.2937 23.6529 48.3115 23.9171 48.307 24.2293C48.3078 24.3623 48.3078 24.3623 48.3087 24.4979C48.31 24.7945 48.308 25.091 48.3059 25.3876C48.3062 25.6004 48.3067 25.8133 48.3073 26.0261C48.3084 26.6043 48.3066 27.1825 48.3043 27.7607C48.3022 28.3668 48.3026 28.973 48.3027 29.5791C48.3025 30.5982 48.3005 31.6172 48.2973 32.6363C48.2936 33.8113 48.2924 34.9863 48.2925 36.1613C48.2927 37.415 48.2911 38.6687 48.2889 39.9224C48.2884 40.282 48.2883 40.6416 48.2882 41.0012C48.2879 41.5691 48.2865 42.137 48.2841 42.7048C48.2835 42.9121 48.2832 43.1194 48.2833 43.3267C48.2849 47.2839 47.1265 50.6523 44.332 53.4933C43.7347 54.0825 43.1204 54.5893 42.4026 55.028C42.2213 55.1429 42.2213 55.1429 42.0363 55.26C41.3131 55.705 40.5783 56.063 39.779 56.3508C39.7053 56.3777 39.6316 56.4046 39.5556 56.4323C37.927 56.9854 36.3483 57.0675 34.6462 57.0631C34.412 57.0637 34.1779 57.0646 33.9438 57.0655C33.3133 57.0676 32.6828 57.0675 32.0523 57.0668C31.5249 57.0664 30.9974 57.0672 30.4699 57.0679C29.2261 57.0695 27.9824 57.0693 26.7386 57.068C25.4564 57.0666 24.1741 57.0683 22.8918 57.0714C21.7886 57.074 20.6854 57.0748 19.5822 57.0741C18.9242 57.0737 18.2663 57.074 17.6083 57.076C16.9906 57.0778 16.3731 57.0774 15.7554 57.0751C15.5289 57.0747 15.3023 57.0751 15.0758 57.0763C14.7666 57.0778 14.4575 57.0765 14.1482 57.0744C14.0587 57.0756 13.9691 57.0767 13.8768 57.0778C13.2705 57.0695 12.9187 56.9556 12.4685 56.5481C11.8426 55.6863 11.9356 54.7195 11.9422 53.6982C11.9417 53.5016 11.9411 53.305 11.9402 53.1083C11.9385 52.5692 11.9397 52.0301 11.9414 51.4909C11.9427 50.9091 11.9413 50.3272 11.9402 49.7453C11.9386 48.606 11.9395 47.4666 11.9412 46.3273C11.9432 45.0007 11.9428 43.6741 11.9424 42.3476C11.9417 39.981 11.9433 37.6144 11.9462 35.2477C11.949 32.9507 11.9499 30.6536 11.9486 28.3565C11.9473 25.8555 11.9471 23.3545 11.9488 20.8535C11.9489 20.5869 11.9491 20.3203 11.9493 20.0537C11.9494 19.9225 11.9495 19.7914 11.9496 19.6562C11.9501 18.7312 11.9499 17.8062 11.9494 16.8813C11.9488 15.7544 11.9495 14.6276 11.9518 13.5007C11.953 12.9256 11.9536 12.3506 11.9527 11.7755C11.9519 11.2492 11.9526 10.7231 11.9547 10.1968C11.9552 10.0063 11.9551 9.8157 11.9543 9.62514C11.9534 9.3664 11.9546 9.10777 11.9563 8.84904C11.9564 8.70524 11.9566 8.56145 11.9567 8.4133C12.0143 7.90235 12.1784 7.50606 12.5311 7.12821C12.9932 6.77483 13.2301 6.60407 13.8073 6.60565C13.9688 6.60566 13.9688 6.60566 14.1336 6.60567C14.3083 6.60658 14.3083 6.60658 14.4865 6.6075C14.6651 6.60775 14.6651 6.60775 14.8472 6.608C15.2285 6.60866 15.6098 6.61013 15.991 6.61161C16.2491 6.6122 16.5072 6.61273 16.7652 6.61321C17.3988 6.6145 18.0323 6.61652 18.6658 6.61892C18.6658 6.27164 18.6658 5.92436 18.6658 5.56655C16.1191 5.56655 13.5723 5.56655 10.9484 5.56655C10.9515 6.64739 10.9545 7.72823 10.9577 8.84182C10.9671 12.2984 10.9736 15.7549 10.9783 19.2114C10.979 19.7481 10.9798 20.2849 10.9805 20.8216C10.9807 20.9284 10.9808 21.0353 10.981 21.1454C10.9835 22.8765 10.9881 24.6077 10.9935 26.3388C10.999 28.1145 11.0022 29.8903 11.0034 31.666C11.0042 32.7621 11.0068 33.8582 11.0115 34.9543C11.0146 35.7055 11.0155 36.4567 11.0148 37.2079C11.0144 37.6416 11.015 38.0753 11.0181 38.509C11.0215 38.9788 11.0203 39.4486 11.0187 39.9185C11.0204 40.056 11.0221 40.1935 11.0239 40.3352C11.0154 41.2553 11.0154 41.2553 10.6736 41.7242C10.3638 41.9318 10.3638 41.9318 10.013 42.0049C9.51523 41.9012 9.37836 41.7608 9.07753 41.3472C8.9889 40.8662 8.99923 40.3897 9.00408 39.9018C9.00325 39.7534 9.00242 39.605 9.00156 39.4521C8.99935 39.0403 9.00078 38.6286 9.00282 38.2169C9.00438 37.7728 9.00258 37.3286 9.0012 36.8845C8.99905 36.0144 9.00005 35.1444 9.00215 34.2744C9.00379 33.5672 9.00424 32.8601 9.00385 32.1529C9.00379 32.0523 9.00374 31.9517 9.00368 31.848C9.00356 31.6436 9.00344 31.4393 9.00331 31.2349C9.00231 29.4269 9.00426 27.619 9.00773 25.8111C9.0111 24.0569 9.01193 22.3027 9.01013 20.5485C9.00817 18.6385 9.0077 16.7286 9.00975 14.8186C9.00996 14.6149 9.01018 14.4112 9.01039 14.2075C9.0105 14.1072 9.0106 14.007 9.01071 13.9037C9.01137 13.1976 9.01098 12.4914 9.01021 11.7853C9.0093 10.9245 9.01009 10.0637 9.01304 9.20286C9.0145 8.76369 9.01522 8.32455 9.01391 7.88538C9.01252 7.40921 9.01475 6.93313 9.01735 6.45696C9.01639 6.31825 9.01542 6.17954 9.01443 6.03662C9.02216 5.27063 9.07665 4.78062 9.54525 4.16339C10.0372 3.7059 10.5838 3.63763 11.2417 3.63926C11.3671 3.63857 11.3671 3.63857 11.495 3.63787C11.6749 3.63718 11.8549 3.63754 12.0349 3.63886C12.3201 3.64089 12.6051 3.63999 12.8902 3.63836C13.4951 3.63541 14.0999 3.63604 14.7048 3.6372C15.4069 3.63855 16.1089 3.63842 16.8109 3.63439C17.0913 3.63356 17.3717 3.63551 17.6521 3.63756C17.8244 3.63689 17.9966 3.6361 18.1689 3.63515C18.3938 3.63571 18.3938 3.63571 18.6233 3.63628C19.0829 3.56904 19.2667 3.42403 19.6012 3.11102C19.8999 2.96168 20.1176 2.97542 20.452 2.97008C20.6451 2.96658 20.6451 2.96658 20.8421 2.96301C21.0513 2.96008 21.0513 2.96008 21.2648 2.95709C21.4072 2.95466 21.5496 2.95223 21.6963 2.94973C22.1526 2.94206 22.609 2.93518 23.0653 2.92831C23.3741 2.92326 23.6828 2.91816 23.9916 2.91301C24.7498 2.90047 25.508 2.88857 26.2663 2.87716C26.3111 2.78197 26.356 2.68678 26.4023 2.58871C26.4629 2.46323 26.5235 2.33775 26.586 2.20846C26.6453 2.08434 26.7047 1.96021 26.7658 1.83232C27.2234 1.02061 27.9703 0.450107 28.8465 0.143914C29.9781 -0.0971719 31.2244 -0.0790008 32.2297 0.538553ZM28.276 2.9137C28.1161 3.27568 28.0132 3.64081 27.9193 4.02499C27.7223 4.40335 27.4717 4.5898 27.0848 4.74804C26.5849 4.81969 26.0882 4.81877 25.5839 4.81929C25.3673 4.82219 25.3673 4.82219 25.1464 4.82515C24.6866 4.83082 24.2268 4.83332 23.7669 4.83574C23.4546 4.83877 23.1423 4.84253 22.8301 4.84624C22.0656 4.85527 21.3013 4.86001 20.5367 4.86497C20.5367 6.21551 20.5367 7.56606 20.5367 8.95753C21.1541 8.99611 21.7715 9.0347 22.4076 9.07446C22.9922 9.42525 22.9922 9.42525 23.0616 9.6518C23.058 9.73138 23.0544 9.81097 23.0507 9.89297C23.0495 9.97255 23.0483 10.0521 23.047 10.1341C22.9764 10.426 22.8732 10.523 22.6414 10.7115C22.4084 10.762 22.4084 10.762 22.1468 10.7713C22.0529 10.7755 21.9591 10.7796 21.8624 10.7839C21.765 10.7865 21.6675 10.7891 21.5671 10.7919C21.4683 10.7959 21.3695 10.7999 21.2677 10.804C21.0241 10.8136 20.7804 10.8212 20.5367 10.8284C20.5295 10.9755 20.5222 11.1226 20.5148 11.2742C20.5107 11.357 20.5066 11.4397 20.5024 11.525C20.519 11.7687 20.519 11.7687 20.6679 11.9514C20.9879 12.1893 21.2326 12.1588 21.6287 12.1592C21.7042 12.1597 21.7797 12.1603 21.8575 12.1608C22.1109 12.1622 22.3642 12.1611 22.6177 12.16C22.7992 12.1605 22.9807 12.1611 23.1622 12.1619C23.6555 12.1635 24.1488 12.1629 24.6421 12.1618C25.1579 12.1609 25.6737 12.1617 26.1894 12.1622C27.0556 12.1629 27.9218 12.162 28.788 12.1604C29.7901 12.1585 30.7922 12.1591 31.7943 12.161C32.654 12.1626 33.5137 12.1628 34.3733 12.1619C34.8871 12.1614 35.4008 12.1613 35.9146 12.1625C36.3975 12.1635 36.8805 12.1628 37.3634 12.1607C37.5409 12.1603 37.7184 12.1604 37.8958 12.1612C38.1377 12.1621 38.3794 12.1609 38.6212 12.1592C38.7567 12.1591 38.8922 12.1589 39.0317 12.1588C39.3601 12.1397 39.3601 12.1397 39.5828 11.9671C39.7442 11.7157 39.7497 11.5704 39.7352 11.2742C39.7279 11.1271 39.7207 10.98 39.7132 10.8284C39.6071 10.8278 39.6071 10.8278 39.4987 10.8272C37.7773 10.8177 36.0558 10.807 34.3344 10.7948C33.5019 10.7889 32.6695 10.7835 31.837 10.7791C31.0341 10.7748 30.2312 10.7694 29.4283 10.7632C29.1215 10.761 28.8147 10.7592 28.5079 10.7579C28.0792 10.7559 27.6505 10.7525 27.2219 10.7488C27.0941 10.7485 26.9664 10.7483 26.8347 10.748C26.7182 10.7467 26.6016 10.7454 26.4815 10.744C26.3801 10.7434 26.2786 10.7427 26.1741 10.7421C25.9155 10.7115 25.9155 10.7115 25.5647 10.4776C25.4325 10.0528 25.4113 9.85417 25.6012 9.44717C25.7985 9.19139 25.7985 9.19139 26.0324 9.07446C26.2146 9.06227 26.3973 9.05732 26.5799 9.05596C26.6953 9.05481 26.8108 9.05367 26.9297 9.05249C27.0568 9.05181 27.1839 9.05114 27.3148 9.05045C27.4483 9.04929 27.5818 9.04813 27.7193 9.04694C28.1622 9.04323 28.605 9.04034 29.0479 9.03746C29.3543 9.03505 29.6607 9.0326 29.9671 9.03009C30.6922 9.02425 31.4173 9.019 32.1425 9.01396C32.9679 9.00818 33.7933 9.00176 34.6187 8.99528C36.3169 8.98197 38.0151 8.96957 39.7132 8.95753C39.7132 7.60698 39.7132 6.25644 39.7132 4.86497C39.2487 4.86196 38.7841 4.85894 38.3055 4.85583C37.855 4.85134 37.4046 4.84606 36.9541 4.8407C36.6413 4.83715 36.3286 4.83493 36.0157 4.83328C35.5658 4.83078 35.116 4.82532 34.6661 4.81929C34.5264 4.81915 34.3868 4.81901 34.243 4.81886C33.5073 4.80591 33.0121 4.79613 32.4636 4.28032C32.2959 3.92679 32.2959 3.92679 32.1785 3.53489C31.9064 2.74846 31.5692 2.31303 30.8265 1.94172C29.6817 1.80257 28.9914 2.00099 28.276 2.9137ZM44.1639 49.7004C43.2197 49.996 42.2145 49.9708 41.2333 50C41.2281 50.0677 41.2228 50.1353 41.2174 50.205C41.0191 52.6873 41.0191 52.6873 40.6487 53.7418C42.4617 53.0887 43.8937 51.3831 44.8582 49.7662C44.8582 49.689 44.8582 49.6118 44.8582 49.5323C44.5867 49.5323 44.419 49.6067 44.1639 49.7004Z" fill="#D2393E"/>
</svg>
