<svg width="60" height="60" viewBox="0 0 60 60" fill="none" xmlns="http://www.w3.org/2000/svg">
<path d="M33.464 25.3126C34.6198 26.2984 35.3371 27.4468 35.6251 28.9445C35.7967 28.9449 35.7967 28.9449 35.9718 28.9453C38.7533 28.9522 41.5347 28.9611 44.3161 28.9721C45.6612 28.9774 47.0062 28.982 48.3513 28.9851C49.5234 28.9878 50.6954 28.9917 51.8675 28.9971C52.4883 28.9999 53.1092 29.0021 53.73 29.0028C54.314 29.0035 54.8979 29.0059 55.4819 29.0095C55.6966 29.0105 55.9113 29.0109 56.126 29.0107C56.4184 29.0105 56.7107 29.0125 57.0031 29.015C57.0888 29.0144 57.1744 29.0138 57.2626 29.0132C57.6056 29.0181 57.8349 29.0218 58.1188 29.2248C58.3858 29.6322 58.2997 30.1212 58.2423 30.5851C57.8848 32.0399 56.7622 33.1782 55.5447 33.9831C52.3193 35.9331 48.3452 36.2755 44.7082 35.4455C42.7685 34.9571 40.3266 33.915 39.2493 32.1351C38.9932 31.6663 38.7772 31.1897 38.5548 30.7023C37.0466 30.6443 37.0466 30.6443 35.5079 30.5851C35.4692 30.9332 35.4306 31.2812 35.3907 31.6398C35.2419 32.0298 35.2419 32.0298 35.0611 32.3722C35.0024 32.4864 34.9436 32.6006 34.8831 32.7183C34.6876 33.0461 34.6876 33.0461 34.4225 33.3518C34.1886 33.6055 34.1886 33.6055 34.25 33.8578C34.336 34.1008 34.4365 34.2983 34.5718 34.5173C34.6211 34.5976 34.6703 34.6779 34.7211 34.7607C34.8024 34.8908 34.8024 34.8908 34.8853 35.0236C34.9424 35.116 34.9995 35.2083 35.0583 35.3035C35.5729 36.1334 36.0978 36.9569 36.6235 37.7799C37.2152 38.7065 37.7986 39.6382 38.3804 40.5711C38.9067 41.4146 39.4359 42.2563 39.9677 43.0963C40.0202 43.1793 40.0727 43.2622 40.1267 43.3476C40.2037 43.466 40.2037 43.466 40.2822 43.5869C40.4298 43.8273 40.4298 43.8273 40.5604 44.0943C40.6938 44.3535 40.8109 44.557 41.0157 44.7648C41.3844 44.8823 41.7305 44.8699 42.1143 44.8527C42.9167 44.8314 43.4017 44.8686 44.0626 45.3508C44.8342 46.1348 45.5163 47.6167 45.5567 48.7199C45.5048 49.223 45.3585 49.5537 45.0001 49.9211C44.2772 50.2562 43.6784 50.3231 42.8884 50.3173C42.7734 50.3178 42.6585 50.3184 42.54 50.3189C42.1564 50.3203 41.7728 50.3192 41.3893 50.3181C41.1135 50.3186 40.8378 50.3192 40.5621 50.32C39.8145 50.3216 39.0668 50.321 38.3192 50.3198C37.6157 50.319 36.9123 50.3197 36.2088 50.3202C34.7307 50.3212 33.2526 50.32 31.7745 50.3181C30.5074 50.3166 29.2403 50.3168 27.9731 50.3185C26.5001 50.3203 25.0272 50.3211 23.5542 50.32C22.775 50.3194 21.9959 50.3194 21.2167 50.3205C20.4841 50.3216 19.7516 50.3209 19.019 50.3188C18.7503 50.3184 18.4816 50.3185 18.2129 50.3193C17.8458 50.3202 17.4788 50.319 17.1118 50.3173C17.0057 50.3181 16.8996 50.3188 16.7904 50.3196C16.1161 50.3134 15.6142 50.2058 15.0001 49.9211C14.6158 49.5271 14.5036 49.2184 14.4906 48.6819C14.502 47.9938 14.717 47.4606 15.0074 46.8449C15.0726 46.694 15.0726 46.694 15.139 46.54C15.4424 45.8771 15.7882 45.3989 16.4063 44.9992C16.7579 44.882 16.7579 44.882 17.2175 44.9438C17.8408 45.0112 18.4044 45.031 18.9845 44.7648C19.6824 44.0905 20.1031 43.171 20.5468 42.3196C20.8193 41.8076 21.1292 41.3247 21.4454 40.839C21.5592 40.6598 21.6727 40.4803 21.786 40.3007C21.873 40.1629 21.873 40.1629 21.9618 40.0224C22.3185 39.4557 22.6729 38.8875 23.0274 38.3195C23.5799 37.4346 24.1334 36.5504 24.69 35.6681C24.7464 35.5787 24.8027 35.4893 24.8608 35.3971C24.9401 35.2716 24.9401 35.2716 25.021 35.1435C25.0701 35.0652 25.1193 34.987 25.1699 34.9063C25.2626 34.7637 25.3589 34.6235 25.4594 34.4863C25.7137 34.1478 25.7137 34.1478 25.7763 33.7414C25.6335 33.4529 25.461 33.1997 25.276 32.9362C24.8077 32.2232 24.5958 31.5235 24.3751 30.7023C23.4083 30.7023 22.4415 30.7023 21.4454 30.7023C21.3511 30.9102 21.2569 31.118 21.1598 31.3322C20.144 33.3589 18.2334 34.4839 16.1462 35.1832C12.5395 36.3167 8.52491 36.0348 5.1243 34.3832C3.68745 33.5983 2.45722 32.488 1.85587 30.9362C1.76236 30.6011 1.7229 30.3239 1.72128 29.9772C1.71932 29.8789 1.71736 29.7805 1.71533 29.6792C1.7579 29.4133 1.75791 29.4133 1.88087 29.2238C2.22907 28.9769 2.58555 29.0122 2.99703 29.015C3.08826 29.0142 3.17948 29.0134 3.27347 29.0126C3.58009 29.0104 3.88666 29.0107 4.19329 29.011C4.41271 29.01 4.63212 29.0088 4.85154 29.0074C5.44809 29.0042 6.04463 29.0031 6.64119 29.0024C7.2643 29.0013 7.8874 28.9982 8.5105 28.9953C9.69083 28.9902 10.8712 28.9869 12.0515 28.9842C13.3951 28.981 14.7387 28.9759 16.0823 28.9705C18.8466 28.9597 21.6108 28.9513 24.3751 28.9445C24.4052 28.8417 24.4353 28.739 24.4663 28.6331C24.5069 28.4974 24.5475 28.3616 24.5893 28.2217C24.6291 28.0875 24.6689 27.9533 24.7098 27.8151C25.2125 26.337 26.2765 25.2942 27.6563 24.6086C29.5929 23.7985 31.8032 24.0093 33.464 25.3126ZM26.7898 27.1835C26.0159 28.1608 25.7845 29.2454 25.8985 30.4679C26.2182 31.8141 26.9624 32.7799 28.1251 33.5148C29.091 34.0249 30.3465 34.0345 31.3844 33.7419C32.4545 33.3162 33.2798 32.4798 33.7798 31.4562C34.2159 30.3883 34.2433 29.3748 33.8714 28.2817C33.3991 27.2124 32.4375 26.297 31.3532 25.8651C29.5909 25.3651 28.0342 25.8821 26.7898 27.1835ZM3.51572 30.5851C4.07886 31.993 5.3341 32.8019 6.68939 33.383C9.62911 34.5164 13.2184 34.7771 16.1795 33.5301C17.5791 32.9015 18.7428 32.1736 19.6876 30.9367C19.7263 30.8207 19.7649 30.7047 19.8048 30.5851C14.4294 30.5851 9.054 30.5851 3.51572 30.5851ZM40.1954 30.5851C41.2421 32.4168 42.8958 33.2921 44.8829 33.8664C48.0308 34.6789 51.4907 34.4487 54.3682 32.8552C55.2236 32.335 56.0366 31.7415 56.4845 30.8195C56.4845 30.7422 56.4845 30.6648 56.4845 30.5851C51.1091 30.5851 45.7337 30.5851 40.1954 30.5851ZM27.1876 34.6867C26.2719 36.0712 25.3712 37.4603 24.5251 38.8886C24.0573 39.6761 23.5647 40.445 23.0636 41.2117C22.6358 41.8669 22.22 42.5297 21.8038 43.1924C21.7485 43.2803 21.6933 43.3682 21.6363 43.4588C21.584 43.542 21.5318 43.6251 21.478 43.7108C21.3403 43.9256 21.1978 44.1359 21.0531 44.346C20.8384 44.6208 20.8384 44.6208 20.8595 44.882C26.8923 44.882 32.9251 44.882 39.1407 44.882C38.9705 44.4564 38.8284 44.1478 38.5864 43.7738C38.5221 43.6738 38.4579 43.5738 38.3918 43.4709C38.3223 43.3637 38.2528 43.2566 38.1812 43.1462C38.0321 42.914 37.883 42.6817 37.734 42.4494C37.6182 42.269 37.6182 42.269 37.5 42.0849C37.1197 41.4893 36.7459 40.8895 36.3722 40.2897C35.2007 38.4121 34.0182 36.5427 32.8126 34.6867C32.1165 34.9187 31.4204 35.1508 30.7032 35.3898C30.6645 37.4781 30.6259 39.5664 30.586 41.7179C30.1993 41.7179 29.8126 41.7179 29.4142 41.7179C29.3755 39.6297 29.3368 37.5414 29.297 35.3898C28.7169 35.1965 28.1368 35.0031 27.5392 34.8039C27.4231 34.7652 27.3071 34.7265 27.1876 34.6867ZM16.5235 47.3429C16.4708 47.4452 16.4181 47.5475 16.3638 47.6528C16.3087 47.7786 16.3087 47.7786 16.2525 47.9069C16.2143 47.9923 16.1761 48.0776 16.1367 48.1655C16.0353 48.4119 16.0353 48.4119 16.0548 48.7492C25.2587 48.7492 34.4626 48.7492 43.9454 48.7492C43.8372 48.2082 43.6671 47.7956 43.4181 47.3136C43.3616 47.2017 43.3616 47.2017 43.3041 47.0875C43.1327 46.7225 43.1327 46.7225 42.8907 46.4054C42.5602 46.3919 42.2325 46.386 41.9018 46.385C41.7968 46.3843 41.6919 46.3835 41.5837 46.3827C41.2292 46.3803 40.8746 46.3788 40.5201 46.3773C40.267 46.3758 40.0139 46.3742 39.7609 46.3726C37.4496 46.3591 35.1383 46.3524 32.8271 46.3472C31.1174 46.3433 29.4077 46.3364 27.698 46.3253C26.4973 46.3177 25.2966 46.3138 24.0958 46.3125C23.378 46.3116 22.6602 46.3091 21.9424 46.3027C21.2672 46.2968 20.592 46.2953 19.9168 46.2973C19.6687 46.2972 19.4206 46.2955 19.1726 46.2921C18.8342 46.2877 18.4963 46.2891 18.1579 46.2919C18.0594 46.2893 17.9608 46.2866 17.8593 46.2839C17.0652 46.3008 16.8438 46.65 16.5235 47.3429Z" fill="#D2393E"/>
<path d="M54.2226 11.827C54.3116 11.9075 54.4005 11.988 54.4922 12.071C54.5824 12.1503 54.6726 12.2296 54.7655 12.3113C56.3599 13.797 57.3598 15.9521 57.4594 18.1222C57.532 20.7588 56.8914 23.1017 55.0782 25.0788C55.0049 25.1614 54.9316 25.2441 54.8561 25.3292C53.2877 27.0062 50.9841 27.891 48.7226 28.008C46.0945 28.0108 43.8523 27.156 41.9532 25.3132C41.8799 25.2485 41.8066 25.1839 41.7311 25.1173C40.1124 23.641 39.3893 21.3511 39.2327 19.23C39.1447 16.6149 40.1953 14.2061 41.9532 12.3054C45.2724 9.15461 50.6898 8.80306 54.2226 11.827ZM42.9964 13.4782C41.5875 14.9536 40.8184 16.8315 40.7373 18.8679C40.8269 20.9549 41.6382 22.8959 43.125 24.3757C44.798 25.8401 46.8089 26.5976 49.0407 26.4599C51.2062 26.2075 52.9656 25.2061 54.375 23.5554C55.7709 21.6513 56.1302 19.5945 55.8486 17.2872C55.3852 15.1864 54.0376 13.483 52.2657 12.3054C49.1806 10.59 45.5816 11.0992 42.9964 13.4782Z" fill="#D2393E"/>
<path d="M17.5781 11.9528C17.6725 12.024 17.767 12.0951 17.8642 12.1685C19.4567 13.513 20.4043 15.6917 20.7129 17.7097C20.8676 20.1078 20.4181 22.5422 18.8512 24.4443C18.589 24.7398 18.3198 25.0267 18.0469 25.3122C17.9497 25.4226 17.9497 25.4226 17.8505 25.5352C16.3623 27.1637 14.0827 27.8761 11.9394 28.0034C9.52146 28.0253 7.16268 27.2618 5.39944 25.5698C3.54388 23.7174 2.54557 21.4966 2.51953 18.8669C2.54181 16.6168 3.27101 14.4573 4.80469 12.7732C4.88399 12.6845 4.9633 12.5958 5.04501 12.5045C5.67441 11.8371 6.3531 11.3509 7.14844 10.8982C7.24104 10.8439 7.33364 10.7897 7.42905 10.7338C10.6788 8.96073 14.8118 9.59348 17.5781 11.9528ZM5.90515 13.8517C4.32989 15.6946 3.97679 17.6997 4.10156 20.0388C4.35024 22.0761 5.54698 23.6724 7.08252 24.946C8.72824 26.1488 10.6356 26.6463 12.6562 26.4109C14.016 26.183 15.1758 25.6474 16.2891 24.8435C16.372 24.7837 16.4549 24.7238 16.5404 24.6622C18.1407 23.387 18.9396 21.4245 19.2187 19.4528C19.434 17.4508 18.6305 15.5152 17.4316 13.9524C16.055 12.3824 14.2443 11.4778 12.1875 11.2717C9.74135 11.1378 7.59514 12.0979 5.90515 13.8517Z" fill="#D2393E"/>
<path d="M48.3399 12.957C48.7501 13.0083 48.7501 13.0083 48.9501 13.1438C49.1648 13.4499 49.1286 13.6858 49.1236 14.0557C49.1349 14.4313 49.1349 14.4313 49.2188 14.7661C49.4381 14.959 49.632 15.0304 49.9059 15.1277C50.4363 15.3546 50.7503 15.8568 51.0206 16.3481C51.1186 16.7404 51.1377 17.0587 51.0938 17.4614C50.9107 17.7544 50.9107 17.7544 50.6251 17.9302C50.2222 17.9741 50.2222 17.9741 49.8047 17.813C49.6285 17.5257 49.4995 17.2304 49.3635 16.9222C49.2278 16.6115 49.2278 16.6115 48.8892 16.3774C48.3645 16.254 48.0845 16.3383 47.5782 16.5239C47.3199 16.8448 47.3199 16.8448 47.3333 17.1616C47.5275 17.6175 47.9023 17.7325 48.3326 17.9229C48.5041 18.0039 48.6754 18.0852 48.8466 18.1668C48.9723 18.2259 48.9723 18.2259 49.1004 18.2861C49.8965 18.6673 50.5663 19.0024 50.9766 19.8052C51.1844 20.4284 51.1784 20.9815 50.9107 21.5776C50.5198 22.2817 49.9659 22.695 49.2188 22.9692C49.2144 23.0667 49.21 23.1641 49.2055 23.2645C49.194 23.4555 49.194 23.4555 49.1822 23.6504C49.1754 23.7768 49.1686 23.9033 49.1616 24.0335C49.1016 24.3755 49.1016 24.3755 48.9464 24.5934C48.6099 24.8225 48.3213 24.776 47.9297 24.7271C47.646 24.455 47.5821 24.2987 47.5438 23.9049C47.5479 23.7798 47.552 23.6547 47.5562 23.5259C47.5594 23.3996 47.5626 23.2733 47.5658 23.1432C47.5699 23.0471 47.574 22.951 47.5782 22.8521C47.4915 22.8404 47.4048 22.8288 47.3154 22.8168C46.6609 22.6508 46.1962 22.1179 45.8204 21.5776C45.6695 21.1062 45.608 20.6467 45.7032 20.1567C45.9341 19.8565 46.0143 19.8112 46.399 19.7539C46.7579 19.8052 46.7579 19.8052 47.0215 19.9883C47.2735 20.3392 47.3461 20.6805 47.461 21.0942C47.9313 21.4078 48.3145 21.4243 48.8672 21.3286C49.2438 21.0891 49.2438 21.0891 49.4532 20.7427C49.4444 20.4984 49.4444 20.4984 49.336 20.2739C49.0432 20.0986 48.7658 19.9535 48.4571 19.8125C48.2854 19.7301 48.1137 19.6475 47.9421 19.5648C47.8176 19.5058 47.8176 19.5058 47.6905 19.4455C46.8382 19.0403 46.1422 18.691 45.7032 17.813C45.6296 17.0965 45.6347 16.432 45.9989 15.7965C46.3308 15.3935 46.7594 15.1104 47.2266 14.8833C47.3426 14.8833 47.4586 14.8833 47.5782 14.8833C47.5741 14.7872 47.57 14.6911 47.5658 14.5922C47.5626 14.4659 47.5595 14.3396 47.5562 14.2095C47.5521 14.0844 47.548 13.9593 47.5438 13.8304C47.6004 13.2483 47.7556 13.0301 48.3399 12.957Z" fill="#D2393E"/>
<path d="M12.0702 13.0069C12.354 13.279 12.4178 13.4353 12.4561 13.8291C12.452 13.9542 12.4479 14.0792 12.4437 14.2081C12.4406 14.3344 12.4374 14.4607 12.4341 14.5908C12.43 14.6869 12.426 14.783 12.4218 14.8819C12.511 14.8972 12.6003 14.9125 12.6923 14.9282C13.2736 15.0589 13.6275 15.3575 13.9818 15.8268C14.3141 16.4052 14.3821 16.9211 14.2968 17.5772C14.1136 17.8263 14.1136 17.8263 13.828 17.9288C13.4032 17.9142 13.4032 17.9142 13.0077 17.8116C12.7733 17.4601 12.7733 17.4601 12.6928 17.0499C12.5742 16.61 12.5742 16.61 12.1654 16.3981C11.6404 16.2689 11.3899 16.3051 10.8983 16.5226C10.6533 16.7252 10.6533 16.7252 10.5468 16.9913C10.5359 17.2269 10.5359 17.2269 10.6639 17.4601C10.9166 17.6171 11.1495 17.7411 11.4183 17.8629C11.4924 17.8984 11.5664 17.9339 11.6426 17.9705C11.9761 18.1301 12.3118 18.2836 12.6493 18.4346C13.3875 18.7761 13.9262 19.1798 14.2968 19.921C14.3585 20.648 14.3882 21.304 13.9452 21.9132C13.475 22.4027 13.112 22.7581 12.4218 22.8507C12.4258 22.9468 12.4299 23.0428 12.4341 23.1418C12.4373 23.2681 12.4405 23.3944 12.4437 23.5245C12.4498 23.7121 12.4498 23.7121 12.4561 23.9035C12.4178 24.2974 12.354 24.4536 12.0702 24.7257C11.3777 24.8123 11.3777 24.8123 11.0498 24.5902C10.8352 24.2841 10.8713 24.0482 10.8763 23.6783C10.865 23.3027 10.865 23.3027 10.7811 22.9679C10.5619 22.775 10.368 22.7036 10.094 22.6062C9.56365 22.3794 9.24963 21.8772 8.97937 21.3858C8.88131 20.9936 8.8622 20.6753 8.90613 20.2726C9.08924 19.9796 9.08924 19.9796 9.37488 19.8038C10.1031 19.8289 10.1031 19.8289 10.4296 20.1554C10.4634 20.2883 10.4972 20.4212 10.5321 20.5582C10.6328 20.9652 10.6328 20.9652 10.847 21.2027C11.2913 21.3964 11.7114 21.4057 12.1874 21.3272C12.508 21.1535 12.508 21.1535 12.6561 20.8585C12.6808 20.5661 12.6808 20.5661 12.5389 20.2726C12.2458 20.0895 11.9804 19.9496 11.6674 19.8111C11.4959 19.7301 11.3245 19.6488 11.1533 19.5671C11.0277 19.5081 11.0277 19.5081 10.8995 19.4478C10.1034 19.0667 9.43363 18.7316 9.02332 17.9288C8.81557 17.3056 8.82151 16.7524 9.08924 16.1564C9.4801 15.4522 10.034 15.039 10.7811 14.7647C10.7855 14.6673 10.7899 14.5699 10.7944 14.4695C10.8021 14.3421 10.8098 14.2148 10.8178 14.0836C10.8245 13.9572 10.8313 13.8307 10.8384 13.7004C10.8983 13.3585 10.8983 13.3585 11.0535 13.1406C11.3901 12.9115 11.6787 12.958 12.0702 13.0069Z" fill="#D2393E"/>
<path d="M31.756 27.3381C32.3627 27.823 32.7767 28.406 32.9297 29.1793C33.0252 30.174 32.9018 30.9621 32.276 31.7583C31.7323 32.3437 31.2341 32.6554 30.4367 32.7315C29.6115 32.7596 28.9025 32.7598 28.2422 32.2261C27.466 31.4957 27.0736 30.9142 27.0337 29.8384C27.0546 28.9307 27.3054 28.2736 27.9204 27.6018C28.9958 26.6539 30.5606 26.5616 31.756 27.3381ZM29.0625 28.7105C28.7356 29.089 28.606 29.3276 28.5352 29.8238C28.6148 30.3815 28.8219 30.748 29.2676 31.0982C29.8093 31.2487 30.2828 31.2458 30.7983 31.0396C31.2188 30.6792 31.3783 30.3084 31.4575 29.7652C31.3901 29.3027 31.2383 29.0667 30.9375 28.7105C30.2351 28.2715 29.7649 28.2715 29.0625 28.7105Z" fill="#D2393E"/>
</svg>
