<svg width="40" height="40" viewBox="0 0 40 40" fill="none" xmlns="http://www.w3.org/2000/svg">
<g clip-path="url(#clip0_37_148)">
<path d="M5.11466 39.9992H30.9807C31.1537 40.0064 31.322 39.9416 31.4454 39.8202C31.5684 39.6985 31.6359 39.5312 31.6309 39.3582V25.7445C31.6309 25.7412 31.6441 25.7383 31.6441 25.7353C31.6441 25.7267 31.6501 25.7181 31.6498 25.7101C31.6488 25.6923 31.6507 25.6747 31.6488 25.6572C31.6474 25.6486 31.6481 25.6407 31.6464 25.6324C31.6435 25.6139 31.6405 25.5954 31.6359 25.5772C31.6342 25.5706 31.6329 25.564 31.6312 25.5573C31.6243 25.5332 31.6164 25.5097 31.6071 25.4866L31.6064 25.4846V25.4839L31.6041 25.4786L29.4573 20.2871C29.3545 20.0295 29.1087 19.8571 28.8312 19.8482H25.9582V13.6648C27.2282 13.4025 28.3676 12.7216 29.4077 11.5862L29.665 12.416C29.7761 12.7748 30.1558 12.9772 30.5157 12.8697L35.143 11.479C35.5011 11.3712 35.7045 10.9935 35.5967 10.6353L32.5447 0.482106C32.4369 0.123922 32.0592 -0.0791486 31.701 0.0286706L27.0744 1.41941C26.7162 1.52722 26.5131 1.90492 26.6209 2.26311L26.7602 2.72646L25.8027 3.71404C25.4306 4.10728 24.9203 4.34045 24.3792 4.36426L18.4604 4.63612C17.0829 4.69664 15.807 5.37796 14.9907 6.48922L6.74452 17.6647C6.53814 17.9445 6.57717 18.3351 6.83448 18.5686C7.4169 19.0958 8.17428 19.3875 8.95977 19.3868C9.35798 19.3819 9.75254 19.3075 10.1253 19.1666V19.8482H7.26443C6.98695 19.8571 6.74154 20.0295 6.63868 20.2871L4.49189 25.468C4.4909 25.4697 4.49024 25.4763 4.48958 25.4786V25.4819C4.48958 25.4826 4.48958 25.4846 4.48892 25.4852C4.47932 25.5087 4.47139 25.5325 4.46444 25.5567C4.46279 25.5633 4.46113 25.5702 4.45948 25.5769C4.45485 25.595 4.45088 25.6136 4.44757 25.6324C4.44625 25.6407 4.44526 25.649 4.44394 25.6569C4.44162 25.6744 4.4403 25.6923 4.43964 25.7101C4.43964 25.7187 4.44592 25.727 4.44592 25.7356C4.44592 25.7386 4.45287 25.7419 4.45287 25.7449V39.3585C4.45121 39.5328 4.521 39.7002 4.64601 39.8212C4.77136 39.9426 4.9407 40.0068 5.11466 39.9992ZM30.2762 38.6445H5.80722V26.4523H30.2762V38.6445ZM11.48 18.2137L15.677 14.4923C16.5885 14.9749 17.6538 15.0771 18.6403 14.7767C18.6691 14.7681 18.6972 14.7576 18.7244 14.745L20.9661 13.727C21.6123 13.5401 22.2916 13.4981 22.9558 13.6033L23.4383 13.683C23.8239 13.7449 24.2132 13.7799 24.6035 13.7879V22.5576H11.48V18.2137ZM31.4424 1.52094L34.1045 10.3763L30.776 11.3771L28.1132 2.52174L31.4424 1.52094ZM8.25961 17.8932L16.0808 7.29357C16.6553 6.51171 17.5532 6.03215 18.5226 5.98981L24.4414 5.71729C25.3298 5.67859 26.1682 5.2966 26.78 4.65167L27.2067 4.21146L28.9576 10.0353C27.4276 12.0277 25.8791 12.6984 23.6678 12.3449L23.1694 12.2652C22.2887 12.1256 21.3878 12.1861 20.5335 12.4414C20.5044 12.4504 20.4762 12.4609 20.4488 12.4735L18.2074 13.4909C17.0756 13.8093 15.8711 13.3298 15.2682 12.3207L19.5998 10.7153C19.831 10.6343 20.0003 10.4349 20.043 10.1938C20.0857 9.95233 19.9947 9.70693 19.8052 9.55182C19.6157 9.3967 19.357 9.35602 19.1288 9.44532L14.1275 11.2994C13.7925 11.4238 13.6115 11.7869 13.7144 12.1292C13.8831 12.6944 14.1768 13.2144 14.5736 13.6506L10.2519 17.4735C10.2414 17.4831 10.2308 17.4927 10.2209 17.5027C9.70723 18.0196 8.93199 18.1737 8.25961 17.8932ZM7.71655 21.2029H10.1253V22.5576H9.35004C8.97598 22.5576 8.6727 22.8609 8.6727 23.2349C8.6727 23.6093 8.97598 23.9123 9.35004 23.9123H26.7456C27.1197 23.9123 27.423 23.6093 27.423 23.2349C27.423 22.8609 27.1197 22.5576 26.7456 22.5576H25.9582V21.2029H28.3791L29.9663 25.0976H6.12935L7.71655 21.2029Z" fill="#D2393E"/>
</g>
<defs>
<clipPath id="clip0_37_148">
<rect width="40" height="40" fill="white"/>
</clipPath>
</defs>
</svg>
