<svg width="40" height="40" viewBox="0 0 40 40" fill="none" xmlns="http://www.w3.org/2000/svg">
<path d="M11.7526 12.0142C12.4029 12.5493 12.8461 13.2441 13.0469 14.0625C13.0682 14.1486 13.0682 14.1486 13.0899 14.2365C13.2756 15.3827 13.1241 16.4647 12.4609 17.4268C12.2571 17.7091 12.0497 17.9635 11.7969 18.2031C11.9159 18.2586 11.9159 18.2586 12.0373 18.3151C13.2907 18.9116 14.4911 19.7329 15.2344 20.9375C15.2344 20.9891 15.2344 21.0406 15.2344 21.0938C15.2769 21.0709 15.3194 21.0481 15.3632 21.0245C15.5577 20.9203 15.7525 20.8166 15.9473 20.7129C16.0141 20.6769 16.081 20.641 16.1499 20.6039C16.4899 20.4235 16.8153 20.2624 17.1875 20.1563C17.1383 20.1116 17.0892 20.067 17.0386 20.0211C16.0727 19.1061 15.4807 18.069 15.4282 16.7231C15.4076 15.3565 15.7478 14.2031 16.6992 13.1836C17.7199 12.2311 18.871 11.8945 20.2382 11.912C20.8286 11.934 21.329 12.0304 21.875 12.2656C21.9416 12.2912 22.0081 12.3168 22.0767 12.3431C23.0555 12.7655 23.8482 13.6439 24.2401 14.6237C24.6804 15.8993 24.7192 17.2777 24.1406 18.5156C23.8066 19.1693 23.3478 19.6597 22.8125 20.1563C22.8693 20.179 22.9261 20.2018 22.9846 20.2252C23.5668 20.4626 24.1289 20.7274 24.6875 21.0156C24.7283 20.9636 24.7691 20.9115 24.8111 20.8579C25.7743 19.6517 26.7621 18.7884 28.2031 18.2031C28.1371 18.129 28.071 18.0549 28.0029 17.9785C27.1188 16.9335 26.7766 15.9783 26.8606 14.612C26.8932 14.2524 26.977 13.9287 27.1094 13.5938C27.135 13.5284 27.1607 13.463 27.1872 13.3957C27.6094 12.4505 28.3507 11.7994 29.2969 11.4063C30.458 11.0346 31.6096 11.0999 32.7261 11.582C33.7465 12.1476 34.3587 13.0254 34.6777 14.1309C34.9109 15.1926 34.7658 16.19 34.2657 17.1487C34.0715 17.4515 33.8332 17.7068 33.5852 17.9663C33.4338 18.114 33.4338 18.114 33.3594 18.2813C33.415 18.2902 33.4705 18.2992 33.5278 18.3084C34.9237 18.6286 36.2025 19.9114 36.9516 21.0693C37.4414 21.8727 37.6144 22.5851 37.5 23.5156C37.3052 24.2638 36.906 24.8579 36.2695 25.2979C35.3633 25.793 34.4067 25.734 33.4048 25.726C33.2432 25.7256 33.0815 25.7252 32.9198 25.725C32.4969 25.7241 32.074 25.7218 31.651 25.7192C31.2184 25.7168 30.7858 25.7157 30.3532 25.7146C29.5063 25.7121 28.6594 25.7081 27.8125 25.7031C27.8133 25.751 27.814 25.7989 27.8148 25.8482C27.8157 25.9427 27.8157 25.9427 27.8166 26.0391C27.8174 26.1015 27.8182 26.1639 27.819 26.2281C27.7947 26.8952 27.3396 27.5911 26.875 28.0469C26.0401 28.7048 25.2408 28.8637 24.1971 28.8585C24.0961 28.8589 23.9951 28.8593 23.8911 28.8597C23.6164 28.8608 23.3417 28.8604 23.0669 28.8596C22.7781 28.859 22.4892 28.8596 22.2003 28.8599C21.7154 28.8604 21.2305 28.8598 20.7456 28.8587C20.1867 28.8574 19.6278 28.8578 19.0689 28.8591C18.5872 28.8602 18.1055 28.8603 17.6238 28.8597C17.3369 28.8593 17.05 28.8593 16.7631 28.8601C16.443 28.8609 16.123 28.8598 15.8029 28.8585C15.7091 28.8589 15.6152 28.8594 15.5185 28.8599C14.4915 28.8522 13.7557 28.5664 12.9932 27.8809C12.3987 27.2615 12.183 26.5308 12.1875 25.7031C12.0987 25.7038 12.01 25.7045 11.9185 25.7052C11.0784 25.7116 10.2383 25.7163 9.39815 25.7193C8.96632 25.7209 8.53451 25.7231 8.10269 25.7267C7.68529 25.7301 7.2679 25.732 6.85048 25.7328C6.69192 25.7333 6.53336 25.7345 6.37481 25.7362C5.27772 25.7474 4.23411 25.7544 3.35418 24.9988C3.09992 24.7378 2.90892 24.4595 2.73437 24.1406C2.70778 24.0945 2.68119 24.0484 2.6538 24.0009C2.3738 23.4123 2.40617 22.6234 2.56865 22.0038C3.20666 20.374 4.65928 19.0544 6.23168 18.3392C6.40624 18.2813 6.40624 18.2813 6.64062 18.2813C6.60748 18.2461 6.57435 18.211 6.54021 18.1747C5.644 17.1919 5.20401 16.2281 5.21789 14.8978C5.27535 13.8922 5.68476 12.8844 6.41845 12.1826C7.97501 10.8959 10.1164 10.8165 11.7526 12.0142ZM6.97967 13.681C6.59334 14.26 6.49118 14.8607 6.56249 15.5469C6.72984 16.3522 7.21858 16.9653 7.8955 17.4219C8.48977 17.7536 9.16606 17.8432 9.82818 17.6807C10.6673 17.4021 11.2054 16.9435 11.6406 16.1719C11.8762 15.5977 11.8964 14.9216 11.7432 14.3207C11.6695 14.1445 11.5863 13.9895 11.4844 13.8281C11.4347 13.7466 11.4347 13.7466 11.384 13.6633C10.9799 13.0646 10.4184 12.7155 9.7235 12.5369C8.60232 12.3216 7.66999 12.8007 6.97967 13.681ZM28.6816 13.5449C28.1885 14.2359 28.1216 14.8533 28.2031 15.7031C28.2709 15.9666 28.3707 16.1769 28.5156 16.4063C28.5487 16.4606 28.5819 16.515 28.616 16.571C29.0328 17.1887 29.6614 17.5866 30.3906 17.7344C31.0687 17.8126 31.7185 17.6872 32.2803 17.29C32.9328 16.7522 33.3496 16.1872 33.4671 15.3311C33.5005 14.5755 33.2776 13.9719 32.7832 13.4033C32.2264 12.8311 31.6299 12.5022 30.8203 12.4707C29.9588 12.5071 29.2271 12.8817 28.6816 13.5449ZM17.4109 14.4257C17.2693 14.638 17.1468 14.8507 17.0312 15.0781C16.9891 15.1595 16.9891 15.1595 16.9461 15.2426C16.6582 15.9284 16.6884 16.8788 16.9238 17.5781C17.3381 18.536 17.9409 19.1377 18.9062 19.5313C19.8167 19.8311 20.7134 19.7086 21.5771 19.3164C22.3655 18.8876 22.9099 18.1783 23.1665 17.3184C23.3507 16.2671 23.1866 15.3104 22.5891 14.4229C22.086 13.8088 21.3384 13.3486 20.542 13.2642C19.3264 13.1796 18.2155 13.4302 17.4109 14.4257ZM4.58404 21.2347C4.42749 21.4437 4.28148 21.6553 4.14062 21.875C4.10507 21.9297 4.06952 21.9844 4.03289 22.0407C3.80014 22.4438 3.76633 22.8225 3.82812 23.2813C3.96527 23.7008 4.2427 23.9824 4.60937 24.2188C5.00809 24.3828 5.36865 24.4035 5.79307 24.4126C5.86351 24.4146 5.93395 24.4166 6.00652 24.4187C6.74024 24.4385 7.47423 24.4474 8.20815 24.4555C8.55595 24.4596 8.90342 24.4673 9.25109 24.4779C9.67211 24.4907 10.0928 24.4974 10.514 24.4997C10.6739 24.5016 10.8338 24.5056 10.9936 24.5119C11.8278 24.5719 11.8278 24.5719 12.5624 24.2533C12.8075 23.9548 12.9687 23.6271 13.1259 23.2765C13.3741 22.7892 13.8357 22.4125 14.2187 22.0313C13.7799 20.7896 12.5539 20.0681 11.4407 19.509C9.07908 18.4616 6.20621 19.2772 4.58404 21.2347ZM26.3281 21.0938C26.1231 21.3403 25.9212 21.5853 25.7812 21.875C25.862 22.1173 25.954 22.2107 26.1325 22.3846C26.4581 22.7043 26.7512 23.0083 26.9385 23.4296C27.2224 24.0462 27.2224 24.0462 27.7442 24.446C28.2365 24.5559 28.7384 24.5243 29.2389 24.5053C29.4009 24.5036 29.563 24.5024 29.725 24.5016C30.1501 24.4982 30.5747 24.4871 30.9996 24.4745C31.3459 24.4655 31.6921 24.4621 32.0385 24.459C32.453 24.4552 32.8674 24.4488 33.2819 24.4418C33.3603 24.4406 33.4388 24.4393 33.5196 24.438C33.7429 24.4338 33.966 24.4279 34.1892 24.4214C34.2544 24.4203 34.3196 24.4192 34.3867 24.418C34.8814 24.4009 35.3363 24.3198 35.7248 23.9893C35.789 23.9095 35.789 23.9095 35.8545 23.8281C35.8987 23.775 35.9429 23.7218 35.9885 23.667C36.2351 23.3125 36.221 22.9141 36.1719 22.5C35.8101 21.3005 34.6281 20.3282 33.5791 19.7461C31.0821 18.4199 28.2337 19.1178 26.3281 21.0938ZM14.5651 23.4593C13.9411 24.2087 13.4724 24.9229 13.4915 25.9198C13.5447 26.4756 13.795 26.809 14.2129 27.1622C14.7745 27.5207 15.2488 27.5344 15.9039 27.5328C16.0017 27.5335 16.0996 27.5341 16.2005 27.5348C16.4678 27.5363 16.7351 27.5368 17.0024 27.5366C17.2263 27.5366 17.4501 27.5373 17.6739 27.5379C18.2024 27.5394 18.7309 27.5397 19.2594 27.5391C19.803 27.5386 20.3466 27.5404 20.8902 27.5433C21.3583 27.5457 21.8264 27.5466 22.2945 27.5463C22.5734 27.5461 22.8524 27.5465 23.1313 27.5485C23.4428 27.5505 23.7543 27.5494 24.0658 27.5481C24.2027 27.5496 24.2027 27.5496 24.3425 27.5512C24.9721 27.5448 25.5 27.4228 25.9854 26.9994C26.3991 26.5409 26.5319 26.0515 26.5106 25.4492C26.3757 24.3445 25.3572 23.2696 24.5312 22.5781C21.516 20.245 17.1022 20.6172 14.5651 23.4593Z" fill="#D2393E"/>
<path d="M5.46875 27.4999C5.80856 27.7219 5.96493 27.9646 6.15234 28.3203C6.4508 28.8671 6.79948 29.3557 7.1875 29.8437C7.24289 29.9142 7.29828 29.9847 7.35535 30.0573C10.043 33.4144 13.8763 35.4903 18.1348 36.0623C21.3864 36.3999 24.6221 35.8137 27.5185 34.2909C27.639 34.2277 27.7603 34.1662 27.8818 34.1049C28.8934 33.5801 29.8117 32.893 30.6614 32.1376C30.78 32.0323 30.8997 31.9284 31.0196 31.8246C32.2737 30.7233 33.2488 29.3654 34.0921 27.9327C34.2031 27.7588 34.2901 27.6251 34.4531 27.4999C34.9888 27.4404 34.9888 27.4404 35.2686 27.6269C35.4178 27.8537 35.4458 28.0112 35.4688 28.2812C35.0924 29.5442 33.9925 30.7534 33.125 31.7187C33.0536 31.7997 32.9822 31.8806 32.9108 31.9616C30.1069 35.1115 26.0448 36.9984 21.875 37.4218C21.797 37.4305 21.7189 37.4391 21.6385 37.4481C17.2213 37.8687 12.4788 36.6086 9.03107 33.7652C8.9641 33.7086 8.89713 33.652 8.82812 33.5937C8.78551 33.558 8.7429 33.5223 8.699 33.4856C7.84779 32.7722 7.10152 32.0415 6.40625 31.1718C6.33042 31.0818 6.33042 31.0818 6.25305 30.9899C4.54342 28.9384 4.54342 28.9384 4.52637 28.0175C4.7201 27.5389 4.9588 27.4284 5.46875 27.4999Z" fill="#D2393E"/>
<path d="M31.5722 6.74808C31.7264 6.89358 31.8793 7.03975 32.0312 7.18754C32.0778 7.23254 32.1244 7.27755 32.1724 7.32391C32.3213 7.46821 32.4694 7.61332 32.6171 7.75883C32.6631 7.80373 32.709 7.84863 32.7563 7.8949C33.4094 8.54685 33.4094 8.54685 33.4765 9.03324C33.4375 9.29691 33.4375 9.29691 33.3154 9.48246C33.0484 9.66047 32.9014 9.70371 32.5781 9.68754C32.1984 9.45815 31.9171 9.10336 31.6259 8.77445C29.0655 5.8918 25.1316 4.17453 21.3108 3.91762C17.522 3.71992 13.7447 4.57323 10.625 6.79691C10.5565 6.84567 10.5565 6.84567 10.4866 6.89541C9.70475 7.45978 8.96442 8.09411 8.32332 8.81565C8.27866 8.86568 8.234 8.9157 8.18798 8.96725C8.10255 9.06413 8.01834 9.1621 7.9356 9.26128C7.71975 9.50751 7.61577 9.59947 7.28878 9.68571C6.99364 9.6878 6.86961 9.63503 6.64058 9.45316C6.51268 9.19735 6.52626 9.0351 6.56246 8.75004C7.89416 6.62019 10.3526 5.10053 12.5781 4.06254C12.7071 4.00151 12.7071 4.00151 12.8387 3.93925C18.9016 1.20304 26.6196 2.28026 31.5722 6.74808Z" fill="#D2393E"/>
<path d="M9.72651 27.4561C10.1795 27.5289 10.4123 27.8191 10.6787 28.1738C12.5869 30.6018 15.6087 31.9317 18.6181 32.3114C21.7895 32.6371 25.0826 31.8117 27.6074 29.8389C27.7287 29.7374 27.8492 29.6349 27.9687 29.5312C28.0645 29.4497 28.0645 29.4497 28.1622 29.3665C28.724 28.8759 29.2404 28.3404 29.7003 27.7527C29.8912 27.5203 29.9569 27.5049 30.2587 27.4707C30.5468 27.5 30.5468 27.5 30.7763 27.666C30.9375 27.8906 30.9375 27.8906 30.9814 28.1201C30.8673 28.7414 30.2927 29.2079 29.8723 29.6523C29.7806 29.7497 29.6901 29.8482 29.5999 29.9469C27.8544 31.791 25.4071 32.9338 22.9687 33.5156C22.9131 33.5295 22.8576 33.5434 22.8004 33.5577C21.8782 33.7789 20.938 33.774 19.9951 33.7793C19.9325 33.7799 19.87 33.7806 19.8056 33.7812C18.6382 33.7901 17.5057 33.6489 16.3769 33.3447C16.3167 33.3286 16.2565 33.3125 16.1945 33.2958C13.5261 32.5481 10.6963 30.8578 9.14058 28.5156C9.02774 28.29 9.03301 28.1409 9.06245 27.8906C9.26669 27.6059 9.37825 27.512 9.72651 27.4561Z" fill="#D2393E"/>
<path d="M22.8906 6.48442C22.9581 6.49952 23.0256 6.51463 23.0952 6.53019C24.6838 6.89752 27.4761 7.69861 28.4374 9.14067C28.4888 9.68005 28.4888 9.68005 28.3203 9.96098C28.0477 10.1245 27.8062 10.1313 27.4999 10.0782C27.2517 9.96304 27.035 9.81018 26.8115 9.65336C25.3028 8.65242 23.6631 8.02043 21.8749 7.73442C21.7855 7.72001 21.6961 7.70561 21.6039 7.69078C18.5313 7.3245 15.3376 8.0574 12.8222 9.88285C12.4875 10.111 12.2755 10.1461 11.8749 10.0782C11.6796 9.96098 11.6796 9.96098 11.5624 9.76567C11.502 9.34236 11.502 9.34236 11.5624 9.14067C11.8395 8.81362 12.1629 8.59545 12.5244 8.37406C12.6062 8.32357 12.6062 8.32357 12.6897 8.27206C14.0707 7.4338 15.5319 6.83375 17.1093 6.48442C17.1673 6.4714 17.2253 6.45838 17.285 6.44497C19.0547 6.0676 21.1276 6.08254 22.8906 6.48442Z" fill="#D2393E"/>
</svg>
