<svg width="40" height="40" viewBox="0 0 40 40" fill="none" xmlns="http://www.w3.org/2000/svg">
<g clip-path="url(#clip0_37_155)">
<path d="M32.5532 16.1703H31.2264C28.6054 16.1832 26.483 18.3039 26.4681 20.9249V27.2996C26.4804 27.6852 26.7932 27.9934 27.1792 28.0001H28.6961L29.3663 39.3531C29.387 39.7142 29.6845 39.9974 30.0459 40.0001H36.4544C36.8168 39.9974 37.1147 39.7132 37.1343 39.3515L37.7726 28.0001H39.2876C39.6735 27.9934 39.9867 27.6856 40 27.2999V20.9253C40 18.3179 37.8477 16.1703 35.2404 16.1703H33.8803C35.6137 15.915 36.9332 14.3501 36.9332 12.5277C36.9342 10.4751 35.2709 8.81057 33.2184 8.80957C31.1656 8.80857 29.501 10.4718 29.5 12.5243C29.5 14.3468 30.8195 15.915 32.5532 16.1703ZM38.6383 20.9249V26.6384H37.1293C36.7669 26.641 36.4691 26.9253 36.4495 27.287L35.8108 38.6384H33.8723V30.774C33.8723 30.398 33.5675 30.0931 33.1915 30.0931C32.8155 30.0931 32.5106 30.398 32.5106 30.774V38.6384H30.6878L30.0173 27.2853C29.9967 26.9243 29.6995 26.641 29.3378 26.6384H27.8298V20.9249C27.8441 19.0556 29.357 17.5439 31.2264 17.532H35.2404C37.11 17.5439 38.6237 19.0552 38.6383 20.9249ZM33.2171 10.1859C34.5176 10.1859 35.5718 11.2401 35.5718 12.5406C35.5718 13.8412 34.5176 14.8953 33.2171 14.8953C31.9165 14.8953 30.8624 13.8412 30.8624 12.5406C30.8637 11.2408 31.9172 10.1872 33.2171 10.1859Z" fill="#D2393E"/>
<path d="M18.3777 3.82972H20.9272C21.3032 3.82972 21.608 3.52487 21.608 3.14887C21.608 2.77287 21.3032 2.46802 20.9272 2.46802H18.3777C18.0017 2.46802 17.6968 2.77287 17.6968 3.14887C17.6968 3.52487 18.0017 3.82972 18.3777 3.82972Z" fill="#D2393E"/>
<path d="M26.9382 7.14887C26.9382 6.77287 26.6333 6.46802 26.2573 6.46802H18.3777C18.0017 6.46802 17.6968 6.77287 17.6968 7.14887C17.6968 7.52487 18.0017 7.82972 18.3777 7.82972H26.2573C26.6333 7.82972 26.9382 7.52487 26.9382 7.14887Z" fill="#D2393E"/>
<path d="M18.3777 5.70203H26.2573C26.6333 5.70203 26.9382 5.39718 26.9382 5.02118C26.9382 4.64519 26.6333 4.34033 26.2573 4.34033H18.3777C18.0017 4.34033 17.6968 4.64519 17.6968 5.02118C17.6968 5.39718 18.0017 5.70203 18.3777 5.70203Z" fill="#D2393E"/>
<path d="M11.1696 14.736C11.264 14.7852 11.369 14.8112 11.4757 14.8112C11.6184 14.8075 11.7563 14.759 11.8703 14.6732L14.6336 12.6809H23.8933C24.2693 12.6925 24.5838 12.3976 24.5957 12.0216V10.383H25.3664L28.132 12.3654C28.2473 12.4485 28.386 12.493 28.5286 12.493C28.6336 12.493 28.7374 12.4674 28.8305 12.4179C29.0555 12.3005 29.1952 12.0665 29.1915 11.8128V0.712101C29.1915 0.336104 28.9043 0 28.5283 0H16.1067C15.7204 0.0129654 15.4119 0.325798 15.4043 0.712101V2.38298H11.4717C11.2965 2.376 11.1263 2.44116 11.0007 2.5635C10.8753 2.68584 10.8059 2.85472 10.8085 3.02992V14.1303C10.8049 14.3843 10.9445 14.6184 11.1696 14.736ZM16.766 1.3617H27.8298V10.4874L25.9727 9.1496C25.8604 9.06649 25.7247 9.02161 25.5851 9.02128H16.766V1.3617ZM12.1702 3.74468H15.4043V9.70379C15.4146 10.0838 15.7267 10.3856 16.1067 10.383H23.234V11.3191H14.4149C14.2743 11.3231 14.1386 11.3713 14.0273 11.4571L12.1702 12.8049V3.74468Z" fill="#D2393E"/>
<path d="M0.712101 28.0001H2.22906L2.89927 39.3531C2.92021 39.7142 3.21742 39.9974 3.57912 40.0001H9.9877C10.3501 39.9974 10.6476 39.7132 10.6676 39.3515L11.3059 28.0001H12.8208C13.2064 27.9934 13.5193 27.6856 13.5319 27.2999V20.9253C13.517 18.3039 11.3946 16.1832 8.7736 16.1703H7.41323C9.14694 15.915 10.4661 14.3501 10.4661 12.5277C10.4671 10.4751 8.80386 8.81057 6.75133 8.80957C4.6988 8.80857 3.03424 10.4718 3.03324 12.5243C3.03324 14.3471 4.35239 15.9153 6.0861 16.1706H4.75964C2.15226 16.1703 0 18.3179 0 20.9249V27.2996C0.0129654 27.6852 0.32613 27.9934 0.712101 28.0001ZM4.39495 12.5406C4.39495 11.2401 5.44914 10.1859 6.74967 10.1859C8.0502 10.1859 9.10439 11.2401 9.10439 12.5406C9.10439 13.8412 8.0502 14.8953 6.74967 14.8953C5.4498 14.894 4.39628 13.8405 4.39495 12.5406ZM1.3617 20.9249C1.37633 19.0552 2.88996 17.5439 4.75964 17.532H8.7736C10.643 17.5439 12.1559 19.0556 12.1702 20.9249V26.6384H10.6622C10.2999 26.641 10.0023 26.9253 9.98238 27.287L9.34408 38.6384H7.40425V30.774C7.40425 30.398 7.0994 30.0931 6.7234 30.0931C6.34741 30.0931 6.04255 30.398 6.04255 30.774V38.6384H4.22141L3.55053 27.2853C3.52992 26.9243 3.23238 26.641 2.87068 26.6384H1.3617V20.9249Z" fill="#D2393E"/>
</g>
<defs>
<clipPath id="clip0_37_155">
<rect width="40" height="40" fill="white"/>
</clipPath>
</defs>
</svg>
