<svg width="60" height="60" viewBox="0 0 60 60" fill="none" xmlns="http://www.w3.org/2000/svg">
<path d="M18.5519 45.369C19.5222 47.0753 20.8968 48.5166 22.5554 49.5661H21.7124C21.4929 49.5656 21.2822 49.6527 21.127 49.8079C20.9723 49.963 20.8853 50.1737 20.8862 50.3928V59.1579C20.8834 59.6178 21.2525 59.9939 21.7124 59.9999H48.8372C49.3036 59.9967 49.6843 59.6248 49.6977 59.1579V50.3928C49.6834 49.9292 49.3008 49.5619 48.8372 49.5661H47.4218C50.8227 47.4606 52.8939 43.7476 52.899 39.7483C52.9022 36.6341 52.9055 34.4957 52.9078 32.8298C52.9134 29.346 52.9152 27.9037 52.9069 23.8715C52.9004 21.8883 51.2919 20.2831 49.3087 20.2803H45.2547C45.1181 18.4032 43.5513 16.9526 41.6695 16.9604H37.2321C37.1478 15.0365 35.5624 13.5206 33.6367 13.522H29.2094C29.2164 10.3207 29.2229 7.14725 29.227 4.76482C29.2381 3.06784 28.3401 1.49499 26.8733 0.641872C25.4065 -0.211247 23.5956 -0.214026 22.126 0.633999C20.6565 1.48202 19.7533 3.0521 19.7584 4.74861L19.7427 25.7366L18.0239 23.7659C15.6044 21.0162 11.3861 20.7073 8.60997 23.0726L7.44423 23.9679C7.11771 24.2184 7.02415 24.6709 7.22423 25.0308L18.5519 45.369ZM48.0378 58.34H22.5461V51.226H48.0378V58.34ZM9.63816 24.3759C9.6502 24.3666 9.66224 24.3574 9.67382 24.3472C11.7858 22.5562 14.9426 22.7841 16.7762 24.8594L19.9455 28.4947C20.1729 28.7554 20.5384 28.8481 20.8621 28.7267C21.1863 28.6054 21.4012 28.296 21.4012 27.95L21.4188 4.74954C21.4132 3.64678 21.9987 2.62507 22.9532 2.073C23.9082 1.52046 25.0856 1.52185 26.0387 2.07671C26.9923 2.63109 27.5754 3.65373 27.5676 4.75648C27.5629 7.33251 27.5555 10.839 27.5486 14.2872C27.5472 14.3052 27.5467 14.3233 27.5467 14.3418C27.5467 14.3603 27.5472 14.3761 27.5481 14.3932C27.5351 20.5999 27.5222 26.5865 27.5222 26.587L29.1821 26.5953C29.1821 26.5953 29.1941 21.1103 29.2066 15.182H33.6367C34.7075 15.1773 35.58 16.0392 35.5884 17.1096V26.5888C35.5884 27.0469 35.9598 27.4188 36.4183 27.4188C36.8768 27.4188 37.2483 27.0469 37.2483 26.5888V18.6204H41.6695C42.7514 18.6269 43.6309 19.4948 43.6509 20.5767V26.5888C43.6509 27.0474 44.0223 27.4188 44.4808 27.4188C44.9393 27.4188 45.3108 27.0474 45.3108 26.5888V21.9402H49.3087C50.3767 21.9421 51.2428 22.8063 51.2465 23.8743C51.2548 27.9037 51.2525 29.345 51.2474 32.8261C51.2451 34.492 51.2414 36.6322 51.2386 39.746C51.2335 44.6729 47.551 48.8542 42.6708 49.5656H27.2962C24.2394 49.0914 21.5133 47.2707 20.002 44.5604L9.02356 24.8488L9.63816 24.3759Z" fill="#D2393E"/>
<path d="M22.1756 8.63446C22.9171 8.89938 23.6989 9.03508 24.4862 9.03462C25.2782 9.03508 26.0642 8.89984 26.8103 8.63446C27.0947 8.53396 27.2859 8.26626 27.2887 7.96428V3.81355C27.2804 3.41431 26.9571 3.09335 26.5574 3.08826H22.4025C22.2149 3.09243 22.0371 3.17162 21.9083 3.30779C21.7791 3.44395 21.7101 3.62597 21.7161 3.81355V7.96428C21.711 8.26301 21.8954 8.5321 22.1756 8.63446ZM23.1389 4.51105H25.8659V7.43954C24.9716 7.67018 24.0333 7.67018 23.1389 7.43954V4.51105Z" fill="#D2393E"/>
</svg>
