<svg width="60" height="60" viewBox="0 0 60 60" fill="none" xmlns="http://www.w3.org/2000/svg">
<g clip-path="url(#clip0_84_171)">
<path d="M4.84501 25.9496H25.0644V59.042C25.059 59.3015 25.1613 59.5517 25.3468 59.7327C25.5322 59.9142 25.7848 60.0106 26.0439 59.9992H33.9581C34.2171 60.0106 34.4693 59.9142 34.6552 59.7327C34.8406 59.5517 34.943 59.3015 34.9376 59.042V25.9496H55.157C55.7162 25.9496 56.2027 25.5392 56.2027 24.98V7.17298C56.2027 6.61376 55.7162 6.20337 55.157 6.20337H34.9376V0.95778C34.943 0.69869 34.8406 0.4485 34.6552 0.267038C34.4693 0.0860703 34.2171 -0.0103469 33.9581 0.00102538H26.0439C25.7848 -0.0103469 25.5322 0.0860703 25.3468 0.267038C25.1613 0.4485 25.059 0.69869 25.0644 0.95778V6.20337H4.84501C4.28579 6.20337 3.79926 6.61376 3.79926 7.17298V24.98C3.79926 25.5392 4.28579 25.9496 4.84501 25.9496ZM32.9123 57.974H27.0897V25.9496H32.9123V57.974ZM27.0897 2.02628H32.9123V6.20337H27.0897V2.02628ZM5.82451 8.22862H54.1775V23.9244H5.82451V8.22862Z" fill="#D2393E"/>
<path d="M20.115 11.4119C19.7986 11.4119 19.5454 11.5132 19.4698 11.7787L17.71 18.2723L15.9379 11.7787C15.8623 11.5132 15.6091 11.4119 15.2927 11.4119C14.7483 11.4119 14.0269 11.7535 14.0269 12.2218C14.0299 12.2692 14.0388 12.3157 14.0521 12.3612L16.419 20.0825C16.5585 20.5255 17.1281 20.7406 17.71 20.7406C18.2925 20.7406 18.8621 20.5255 19.001 20.0825L21.3556 12.3612C21.3689 12.3157 21.3773 12.2692 21.3808 12.2218C21.3808 11.7535 20.6594 11.4119 20.115 11.4119Z" fill="#D2393E"/>
<path d="M26.3871 11.4119C24.6402 11.4119 23.2923 12.2218 23.2923 14.3988V17.7531C23.2923 19.9307 24.6402 20.7406 26.3871 20.7406C28.134 20.7406 29.4947 19.9307 29.4947 17.7531V14.3988C29.4947 12.2218 28.134 11.4119 26.3871 11.4119ZM27.4694 17.7531C27.4694 18.6268 27.0328 19.0189 26.3238 19.0189C25.6147 19.0189 25.191 18.6268 25.191 17.7531V14.3988C25.191 13.5256 25.6147 13.133 26.3238 13.133C27.0328 13.133 27.4694 13.5256 27.4694 14.3988V17.7531Z" fill="#D2393E"/>
<path d="M37.3678 11.3931H31.8997C31.4819 11.3931 31.3048 11.8485 31.3048 12.2663C31.3048 12.7474 31.5199 13.1652 31.8997 13.1652H33.6718V20.0578C33.6718 20.4627 34.1271 20.6649 34.6211 20.6649C35.1146 20.6649 35.5704 20.4627 35.5704 20.0578V13.1652H37.3678C37.7475 13.1652 37.9626 12.7474 37.9626 12.2663C37.9626 11.8485 37.7856 11.3931 37.3678 11.3931Z" fill="#D2393E"/>
<path d="M45.3803 13.1652C45.76 13.1652 45.9751 12.7345 45.9751 12.2663C45.9751 11.8613 45.7981 11.3931 45.3803 11.3931H40.8739C40.4437 11.3931 40.0007 11.6141 40.0007 12.0195V20.0573C40.0007 20.4622 40.4437 20.6328 40.8739 20.6328H45.3803C45.7981 20.6328 45.9751 20.2278 45.9751 19.8224C45.9751 19.3542 45.76 18.9873 45.3803 18.9873H42.0259V16.8359H43.8865C44.3044 16.8359 44.4814 16.431 44.4814 16.0888C44.4814 15.6839 44.2663 15.317 43.8865 15.317H42.0259V13.1652H45.3803Z" fill="#D2393E"/>
</g>
<defs>
<clipPath id="clip0_84_171">
<rect width="60" height="60" fill="white"/>
</clipPath>
</defs>
</svg>
