<svg width="60" height="60" viewBox="0 0 60 60" fill="none" xmlns="http://www.w3.org/2000/svg">
<path d="M31.4061 0.820743C31.7197 0.942208 31.9984 1.10729 32.285 1.28217C32.3671 1.33035 32.4493 1.37853 32.5339 1.42817C32.7841 1.57551 33.0327 1.7252 33.2811 1.87543C33.4798 1.99371 33.4798 1.99371 33.6826 2.11438C33.9579 2.27887 34.2326 2.44409 34.507 2.61014C34.9432 2.87348 35.3813 3.13352 35.8199 3.39292C35.9244 3.45474 35.9244 3.45474 36.031 3.51782C36.3141 3.68526 36.5972 3.85265 36.8805 4.01986C37.0808 4.13808 37.2809 4.25645 37.4811 4.37482C37.6691 4.48506 37.6691 4.48506 37.861 4.59752C38.1537 4.77519 38.4295 4.96474 38.7088 5.16217C39.0956 5.40492 39.3777 5.43007 39.8358 5.33521C39.9157 5.31497 39.9956 5.29472 40.078 5.27387C40.1632 5.25604 40.2484 5.23822 40.3362 5.21985C40.6051 5.16338 40.8725 5.10212 41.14 5.03949C44.1549 4.33729 46.588 4.90273 49.449 5.90461C51.0432 6.45491 52.4587 6.73266 54.1478 6.68012C54.4445 6.67114 54.7413 6.66375 55.0382 6.65815C55.167 6.65407 55.2959 6.64999 55.4287 6.64579C55.8315 6.68503 56.0446 6.79152 56.367 7.03168C56.5393 7.37609 56.5045 7.72504 56.5068 8.10279C56.5078 8.18894 56.5088 8.27509 56.5097 8.36385C56.5127 8.64947 56.5146 8.93508 56.5163 9.22071C56.5169 9.31817 56.5175 9.41562 56.5182 9.51604C56.5213 10.0317 56.5236 10.5474 56.5253 11.0631C56.5272 11.5962 56.5325 12.1292 56.5384 12.6623C56.5424 13.0718 56.5437 13.4814 56.5444 13.891C56.5452 14.0875 56.547 14.284 56.5498 14.4805C56.5535 14.7555 56.5535 15.0302 56.5526 15.3052C56.5545 15.3865 56.5565 15.4677 56.5584 15.5514C56.5529 15.9816 56.5128 16.1431 56.2077 16.4558C55.8615 16.6631 55.6166 16.7164 55.2171 16.7582C54.3232 16.8859 53.7493 17.1984 53.0272 17.725C52.5168 18.0908 51.9896 18.3872 51.4305 18.6699C51.3536 18.7094 51.2766 18.7489 51.1973 18.7897C49.7167 19.5211 48.0443 19.5671 46.4833 19.0501C45.5596 18.7189 44.6648 18.3083 43.7652 17.9177C42.7101 17.4665 41.7083 17.1098 40.5467 17.1098C40.499 17.1929 40.4513 17.276 40.4021 17.3616C40.2194 17.6795 40.0366 17.9973 39.8537 18.315C39.7378 18.5163 39.6221 18.7177 39.5065 18.9191C39.0878 19.6461 38.6636 20.3691 38.2311 21.088C38.159 21.2081 38.159 21.2081 38.0853 21.3306C37.9684 21.5252 37.8513 21.7199 37.7342 21.9145C37.843 21.914 37.9519 21.9135 38.064 21.9129C39.0899 21.9082 40.1158 21.9047 41.1417 21.9023C41.6692 21.9011 42.1966 21.8995 42.724 21.8968C43.2331 21.8943 43.7422 21.8929 44.2513 21.8923C44.4454 21.8918 44.6395 21.891 44.8336 21.8897C45.1058 21.888 45.3778 21.8878 45.65 21.8879C45.73 21.887 45.8101 21.8862 45.8926 21.8853C46.3494 21.8873 46.702 21.9378 47.1092 22.1489C47.3214 22.3869 47.3214 22.3869 47.5125 22.6762C47.5825 22.7817 47.6524 22.8871 47.7245 22.9957C48.0356 23.4888 48.3338 23.9878 48.6253 24.4926C49.1962 25.4699 49.7804 26.4378 50.3758 27.4003C51.0643 28.5141 51.7433 29.6329 52.4153 30.7567C53.0505 31.8184 53.692 32.8763 54.3355 33.933C54.4902 34.1874 54.6422 34.4434 54.7914 34.701C54.9822 35.0191 55.1909 35.2981 55.4301 35.5812C56.9195 37.475 56.6754 39.723 56.6423 42.0057C56.6351 42.5925 56.6358 43.1792 56.6354 43.766C56.6337 44.7486 56.6267 45.7312 56.6161 46.7138C56.6025 47.9751 56.5977 49.2363 56.5956 50.4976C56.5937 51.5849 56.5879 52.6721 56.5814 53.7593C56.5795 54.108 56.5781 54.4566 56.5768 54.8053C56.5745 55.3517 56.5697 55.898 56.563 56.4444C56.5609 56.6448 56.5595 56.8453 56.559 57.0458C56.5582 57.3191 56.5545 57.5923 56.5501 57.8655C56.5487 58.0185 56.5473 58.1714 56.5458 58.329C56.4713 58.7919 56.3866 58.9011 56.0155 59.1801C55.7093 59.2261 55.4525 59.2432 55.1465 59.2391C55.0583 59.2398 54.97 59.2405 54.8791 59.2412C54.5817 59.2429 54.2844 59.2413 53.987 59.2396C53.7723 59.2402 53.5576 59.2409 53.3429 59.2419C52.7516 59.2438 52.1604 59.2428 51.5691 59.2414C50.9319 59.2403 50.2948 59.242 49.6576 59.2433C48.4089 59.2453 47.1602 59.2449 45.9115 59.2435C44.897 59.2425 43.8825 59.2423 42.8679 59.2428C42.7237 59.2429 42.5795 59.243 42.4309 59.2431C42.138 59.2432 41.8451 59.2434 41.5522 59.2435C38.8816 59.2448 36.2111 59.2435 33.5406 59.241C31.1017 59.2388 28.6629 59.239 26.224 59.2412C23.4851 59.2437 20.7463 59.2447 18.0074 59.2433C17.7155 59.2431 17.4237 59.243 17.1318 59.2428C16.9164 59.2427 16.9164 59.2427 16.6966 59.2426C15.6829 59.2422 14.6692 59.2429 13.6554 59.244C12.4206 59.2453 11.1858 59.245 9.95102 59.2425C9.32059 59.2412 8.69018 59.2408 8.05974 59.2423C7.4832 59.2437 6.9067 59.2429 6.33016 59.2404C6.12103 59.2399 5.91189 59.2402 5.70276 59.2413C5.41952 59.2427 5.13643 59.2413 4.8532 59.2391C4.77109 59.2402 4.68898 59.2413 4.60438 59.2424C4.21568 59.2364 4.01368 59.2023 3.69946 58.9658C3.43432 58.5991 3.45277 58.3208 3.44729 57.871C3.44565 57.7863 3.44401 57.7015 3.44232 57.6141C3.43743 57.3298 3.43589 57.0456 3.43438 56.7613C3.43163 56.5574 3.4287 56.3534 3.42561 56.1495C3.41795 55.5947 3.41349 55.0398 3.41007 54.4849C3.40791 54.137 3.40529 53.789 3.40257 53.4411C3.39426 52.3489 3.38813 51.2568 3.38475 50.1646C3.38081 48.9107 3.36957 47.6573 3.35188 46.4036C3.33863 45.4309 3.33234 44.4583 3.33103 43.4855C3.33009 42.9065 3.32639 42.3278 3.31531 41.7488C3.26518 38.9853 3.41851 36.9691 5.04483 34.6681C5.4326 34.1051 5.76259 33.5089 6.10094 32.9155C6.2363 32.6843 6.37191 32.4532 6.50789 32.2224C6.92624 31.5066 7.33108 30.7835 7.73424 30.059C8.33056 28.9879 8.93964 27.9254 9.56088 26.8685C9.94574 26.2128 10.3252 25.5544 10.6987 24.8922C10.784 24.7414 10.8693 24.5905 10.9547 24.4397C11.0794 24.2191 11.2038 23.9983 11.3274 23.7771C11.4416 23.5727 11.5567 23.3689 11.6719 23.1651C11.7376 23.048 11.8032 22.9309 11.8709 22.8102C12.1564 22.3664 12.3846 22.0831 12.8905 21.9145C13.2238 21.9004 13.5544 21.8928 13.8878 21.8904C13.9896 21.8893 14.0914 21.8881 14.1962 21.8869C14.5329 21.8832 14.8696 21.8803 15.2063 21.8774C15.4396 21.875 15.673 21.8725 15.9063 21.87C16.5207 21.8636 17.1351 21.8578 17.7494 21.8521C18.3763 21.8462 19.0031 21.8397 19.6299 21.8332C20.86 21.8206 22.0901 21.8087 23.3202 21.7973C23.222 21.7388 23.1238 21.6803 23.0227 21.62C22.6584 21.4026 22.2947 21.1842 21.9311 20.9655C21.7738 20.871 21.6162 20.7767 21.4585 20.6828C21.2318 20.5477 21.0056 20.4116 20.7796 20.2752C20.709 20.2335 20.6385 20.1917 20.5658 20.1487C20.2195 19.9385 20.0335 19.797 19.8045 19.4536C19.6464 18.5833 20.1359 17.9639 20.5736 17.2416C20.654 17.1061 20.7343 16.9704 20.8144 16.8346C21.0215 16.4848 21.2307 16.1363 21.4407 15.7882C21.628 15.4774 21.8142 15.1659 22.0004 14.8544C22.214 14.4978 22.4279 14.1414 22.6425 13.7854C23.2228 12.8228 23.7929 11.8545 24.3602 10.8842C24.9302 9.90952 25.502 8.93628 26.0855 7.96964C26.3957 7.45447 26.7009 6.93632 27.0067 6.41854C27.4171 5.72369 27.8293 5.02984 28.242 4.33637C28.2869 4.26099 28.3317 4.18562 28.378 4.10796C28.6513 3.64886 28.9256 3.19037 29.2012 2.7326C29.2889 2.58668 29.3763 2.4406 29.4634 2.29436C29.5849 2.09065 29.7074 1.88758 29.83 1.68454C29.8997 1.56844 29.9694 1.45234 30.0412 1.33272C30.4233 0.78318 30.7709 0.758401 31.4061 0.820743ZM31.2889 3.04731C31.2412 3.1304 31.1935 3.21349 31.1443 3.2991C30.9616 3.61698 30.7788 3.93477 30.5958 4.25251C30.48 4.45382 30.3643 4.65521 30.2487 4.85662C29.7559 5.7122 29.2534 6.56123 28.744 7.40702C28.2973 8.14895 27.8563 8.89427 27.4144 9.6391C27.3171 9.80309 27.2198 9.96707 27.1224 10.1311C26.2058 11.6756 25.2902 13.2208 24.3749 14.7661C24.0723 15.2768 23.7697 15.7876 23.4671 16.2983C23.3454 16.5038 23.2237 16.7092 23.102 16.9147C23.0282 17.0392 22.9544 17.1637 22.8784 17.292C22.7813 17.456 22.7813 17.456 22.6821 17.6234C22.5578 17.8325 22.4278 18.0384 22.2931 18.241C22.2214 18.3772 22.2214 18.3772 22.1483 18.5161C22.3076 18.9939 22.5252 19.0521 22.9585 19.3007C23.029 19.3415 23.0995 19.3823 23.1721 19.4244C23.4016 19.5572 23.6319 19.6885 23.8622 19.8198C24.0207 19.9112 24.1791 20.0027 24.3375 20.0944C24.6458 20.2727 24.9542 20.4507 25.2629 20.6282C25.6974 20.8791 26.1282 21.1348 26.5575 21.3945C27.4894 21.9567 28.4257 22.5117 29.3629 23.0651C30.0277 23.4577 30.691 23.8523 31.3507 24.2532C31.5282 24.3603 31.5282 24.3603 31.7094 24.4696C31.9325 24.6044 32.1551 24.7401 32.3771 24.8768C32.476 24.9363 32.5749 24.9958 32.6769 25.057C32.7629 25.1095 32.8489 25.162 32.9376 25.2161C33.1818 25.3502 33.1818 25.3502 33.5155 25.1957C33.6902 24.92 33.8463 24.6485 33.9989 24.3608C34.094 24.1866 34.1894 24.0125 34.285 23.8385C34.3571 23.7067 34.3571 23.7067 34.4306 23.5722C34.6277 23.217 34.8359 22.87 35.0462 22.5224C35.5584 21.6754 36.0649 20.825 36.5697 19.9736C36.6311 19.87 36.6311 19.87 36.6937 19.7644C37.2845 18.7677 37.8698 17.7683 38.4374 16.7582C38.3478 16.7397 38.2582 16.7211 38.1659 16.7019C34.953 16.0021 34.953 16.0021 34.0648 14.8979C33.645 14.1206 33.4866 13.3381 33.7091 12.4786C33.9534 11.7794 34.2738 11.2779 34.9217 10.8989C36.2501 10.4029 37.666 10.5521 39.0526 10.6572C39.6676 10.7017 40.2828 10.7438 40.8983 10.7817C41.0095 10.7888 41.1208 10.7959 41.2354 10.8032C41.7428 10.8275 41.7428 10.8275 42.1883 10.6146C42.2315 10.5416 42.2747 10.4687 42.3192 10.3935C42.3654 10.3214 42.4116 10.2494 42.4593 10.1751C42.5725 9.93956 42.5725 9.93956 42.4217 9.60981C42.1142 9.39046 42.1142 9.39046 41.7287 9.17676C41.6582 9.13592 41.5877 9.09508 41.5151 9.053C41.2856 8.92025 41.0554 8.78897 40.8251 8.65766C40.6665 8.56623 40.5081 8.47469 40.3497 8.38303C40.0415 8.20469 39.733 8.02677 39.4243 7.84919C38.9898 7.59829 38.559 7.34263 38.1297 7.08295C37.4053 6.64557 36.6771 6.21464 35.9486 5.78411C35.8804 5.74383 35.8123 5.70355 35.742 5.66205C35.6745 5.62216 35.607 5.58227 35.5375 5.54117C34.4234 4.88261 33.3161 4.21384 32.2141 3.53542C32.1091 3.47103 32.0041 3.40663 31.8959 3.34027C31.8038 3.28348 31.7116 3.22668 31.6166 3.16816C31.4296 3.03758 31.4296 3.03758 31.2889 3.04731ZM43.0003 6.66547C42.8588 6.6845 42.7173 6.70354 42.5714 6.72315C42.2333 6.78844 42.0167 6.87218 41.7186 7.03168C41.8067 7.0837 41.8949 7.13572 41.9857 7.18932C42.312 7.38234 42.6381 7.5759 42.9639 7.76982C43.105 7.8537 43.2463 7.93736 43.3878 8.02079C43.5908 8.14065 43.7934 8.26136 43.996 8.38208C44.1181 8.4545 44.2402 8.52691 44.3661 8.60152C44.6483 8.78949 44.6483 8.78949 44.7655 9.02387C44.8604 9.79905 44.5811 10.2664 44.1795 10.8989C45.4146 10.9321 46.5383 10.9417 47.7368 10.6201C48.1759 10.517 48.4405 10.5161 48.867 10.6645C49.1695 10.9953 49.2202 11.169 49.2113 11.6166C49.0808 12.0168 48.9844 12.0874 48.6327 12.3051C48.3164 12.4122 48.3164 12.4122 47.9662 12.4955C47.8521 12.5236 47.7381 12.5517 47.6206 12.5807C45.3817 13.0123 43.0505 12.7851 40.7958 12.5981C38.9672 12.4421 38.9672 12.4421 37.1336 12.3784C36.9998 12.376 36.9998 12.376 36.8632 12.3736C36.3071 12.3783 35.9071 12.4917 35.5077 12.8911C35.4454 13.3475 35.4634 13.5347 35.742 13.9091C36.9409 14.8333 38.7513 14.8668 40.2042 15.0449C42.9005 15.3779 42.9005 15.3779 44.1795 15.9379C44.2817 15.9825 44.3839 16.0271 44.4892 16.073C44.6027 16.1227 44.7163 16.1724 44.8332 16.2236C44.9512 16.2752 45.0692 16.3269 45.1908 16.3801C45.4221 16.4824 45.6528 16.5862 45.8826 16.6919C47.355 17.3572 48.6811 17.6997 50.2367 17.1245C50.9435 16.8106 51.552 16.3793 52.1795 15.9332C52.9592 15.3816 53.7038 15.0679 54.6092 14.7661C54.6092 12.7938 54.6092 10.8215 54.6092 8.78949C53.9518 8.75082 53.2944 8.71215 52.617 8.67231C50.9986 8.47661 49.4696 8.0215 47.9314 7.49677C47.8087 7.4551 47.6861 7.41344 47.5597 7.37051C47.3203 7.28867 47.0812 7.20575 46.8426 7.12155C45.5518 6.67766 44.356 6.47699 43.0003 6.66547ZM12.2044 26.179C12.0252 26.5872 11.8074 26.9576 11.5772 27.339C11.4361 27.5864 11.2953 27.8339 11.1546 28.0815C11.0762 28.2193 10.9977 28.3571 10.9191 28.4948C10.7577 28.778 10.5964 29.0613 10.4352 29.3446C10.0823 29.9645 9.72813 30.5838 9.37406 31.2031C9.2583 31.4056 9.14265 31.6082 9.02699 31.8107C8.66109 32.4516 8.29468 33.0921 7.92653 33.7316C7.7527 34.0337 7.57915 34.3359 7.40562 34.6381C7.32283 34.7821 7.2399 34.9261 7.15682 35.0699C7.04164 35.2694 6.92696 35.4691 6.8123 35.6689C6.74691 35.7824 6.68152 35.8959 6.61415 36.0129C6.4177 36.3659 6.4177 36.3659 6.2108 36.9145C21.9116 36.9145 37.6124 36.9145 53.7889 36.9145C53.2357 35.8947 53.2357 35.8947 52.6514 34.8971C52.574 34.7702 52.4967 34.6432 52.417 34.5124C52.3348 34.378 52.2525 34.2437 52.1703 34.1093C52.0827 33.9657 51.9951 33.822 51.9075 33.6783C51.7263 33.381 51.5449 33.0837 51.3634 32.7864C50.9813 32.1604 50.6009 31.5333 50.2205 30.9062C50.0973 30.7031 49.9739 30.5 49.8506 30.297C49.4691 29.6688 49.0877 29.0405 48.707 28.4118C48.5315 28.1222 48.356 27.8325 48.1804 27.5429C48.0599 27.3441 47.9396 27.1452 47.8192 26.9462C47.6699 26.7 47.5187 26.4549 47.3651 26.2113C47.1834 25.9164 47.0284 25.6181 46.8808 25.3049C46.4509 24.4154 46.4509 24.4154 45.7166 23.7935C45.0937 23.6069 44.4531 23.617 43.8083 23.6206C43.6014 23.6166 43.3944 23.6123 43.1875 23.6076C42.7548 23.6001 42.3228 23.5998 41.89 23.6043C41.4487 23.6081 41.0099 23.6008 40.5689 23.5827C38.1908 23.3762 38.1908 23.3762 36.0725 24.2003C35.4675 24.8576 35.1059 25.6709 34.8127 26.5057C34.4955 27.3425 34.4955 27.3425 34.1014 27.5395C33.3869 27.6094 32.9911 27.4374 32.4022 27.0781C32.3205 27.0301 32.2388 26.9822 32.1546 26.9328C31.904 26.7853 31.655 26.6353 31.4061 26.4848C31.2655 26.4009 31.1248 26.3172 30.9841 26.2335C30.9202 26.1953 30.8564 26.1571 30.7907 26.1178C30.6506 26.0341 30.5101 25.951 30.3694 25.8684C29.9354 25.6113 29.5176 25.3409 29.1048 25.0509C27.3892 23.8871 25.9675 23.665 23.924 23.6673C23.6291 23.6636 23.3343 23.6595 23.0395 23.6553C22.4268 23.6483 21.8143 23.6473 21.2016 23.6501C20.5754 23.6524 19.9506 23.6455 19.3247 23.6285C18.5617 23.6081 17.7996 23.6005 17.0363 23.6028C16.7481 23.6018 16.4598 23.5968 16.1717 23.5875C13.9126 23.5224 13.0942 24.0982 12.2044 26.179ZM5.39049 38.9067C5.39049 44.9782 5.39049 51.0496 5.39049 57.3051C21.6327 57.3051 37.8749 57.3051 54.6092 57.3051C54.6092 51.2336 54.6092 45.1621 54.6092 38.9067C38.367 38.9067 22.1249 38.9067 5.39049 38.9067Z" fill="#D2393E"/>
<path d="M41.8443 42.8142C41.9624 42.8123 42.0805 42.8105 42.2022 42.8086C42.3925 42.8104 42.3925 42.8104 42.5866 42.8122C42.7174 42.8116 42.8483 42.8111 42.9832 42.8105C43.2598 42.8101 43.5364 42.8112 43.813 42.8136C44.2367 42.8168 44.66 42.8136 45.0837 42.8099C45.3524 42.8103 45.6211 42.811 45.8898 42.8122C46.0166 42.811 46.1435 42.8098 46.2741 42.8086C47.1494 42.8223 47.1494 42.8223 47.5402 43.1659C47.7325 43.5506 47.7748 43.7547 47.6952 44.1791C47.4634 44.4872 47.2776 44.7261 46.8888 44.816C46.6251 44.8328 46.3676 44.8309 46.1036 44.8222C46.0081 44.8214 45.9127 44.8206 45.8144 44.8197C45.5111 44.8164 45.208 44.8091 44.9047 44.8016C44.6985 44.7987 44.4922 44.796 44.286 44.7936C43.7816 44.7877 43.2778 44.7762 42.7733 44.765C42.7733 45.5384 42.7733 46.3119 42.7733 47.1088C43.2326 47.0986 43.2326 47.0986 43.7012 47.0882C43.9987 47.0836 44.2962 47.08 44.5937 47.0766C44.8 47.0736 45.0063 47.0696 45.2126 47.0646C45.5096 47.0574 45.8065 47.0541 46.1036 47.0515C46.1954 47.0485 46.2872 47.0455 46.3818 47.0424C46.8765 47.0421 47.0565 47.0676 47.461 47.3833C47.6952 47.6947 47.6952 47.6947 47.7611 48.0463C47.6766 48.4968 47.5622 48.6702 47.2265 48.9838C46.8639 49.036 46.5676 49.0525 46.2066 49.041C46.1084 49.0401 46.0102 49.0393 45.909 49.0385C45.5961 49.0352 45.2834 49.0278 44.9706 49.0204C44.7582 49.0174 44.5458 49.0148 44.3334 49.0124C43.8132 49.0064 43.2935 48.9949 42.7733 48.9838C42.7733 49.7572 42.7733 50.5306 42.7733 51.3275C43.0724 51.3248 43.3715 51.3221 43.6797 51.3193C43.9698 51.3174 44.2599 51.316 44.55 51.3146C44.7514 51.3135 44.9529 51.3119 45.1543 51.3098C45.444 51.307 45.7337 51.3057 46.0234 51.3046C46.1133 51.3034 46.2032 51.3022 46.2958 51.301C46.7391 51.3009 47.0905 51.3017 47.4608 51.5619C47.7298 51.9385 47.7519 52.2802 47.6952 52.7338C47.4764 53.0036 47.3019 53.1648 46.9921 53.3197C46.8175 53.3314 46.6423 53.3359 46.4673 53.3367C46.3586 53.3375 46.2498 53.3382 46.1378 53.339C45.9611 53.3392 45.9611 53.3392 45.7808 53.3394C45.66 53.3398 45.5392 53.3402 45.4147 53.3406C45.1588 53.3412 44.9029 53.3414 44.647 53.3414C44.2552 53.3417 43.8636 53.3438 43.4719 53.346C43.2235 53.3464 42.975 53.3466 42.7266 53.3467C42.6093 53.3475 42.492 53.3484 42.3711 53.3493C42.2616 53.3489 42.1522 53.3485 42.0394 53.3482C41.9433 53.3483 41.8472 53.3485 41.7482 53.3487C41.4464 53.3155 41.2672 53.2553 41.0155 53.0853C40.7123 52.6782 40.7465 52.2207 40.7471 51.7336C40.7463 51.6453 40.7455 51.557 40.7447 51.4661C40.7425 51.1747 40.742 50.8833 40.7418 50.5919C40.741 50.389 40.7402 50.1862 40.7394 49.9833C40.738 49.5582 40.7376 49.1332 40.7377 48.7081C40.7377 48.1638 40.7345 47.6195 40.7305 47.0752C40.7279 46.6562 40.7274 46.2373 40.7275 45.8184C40.7273 45.6177 40.7262 45.417 40.7244 45.2164C40.7221 44.9356 40.7228 44.6549 40.7242 44.3741C40.7229 44.2915 40.7216 44.2088 40.7202 44.1237C40.7254 43.7209 40.7777 43.4819 40.9819 43.1316C41.2975 42.8471 41.4254 42.8161 41.8443 42.8142Z" fill="#D2393E"/>
<path d="M27.3103 43.2038C28.4096 43.9513 29.0331 44.7067 29.3424 46.0012C29.4679 46.7092 29.4601 47.4104 29.4508 48.1275C29.4512 48.2744 29.4516 48.4213 29.452 48.5727C29.4437 50.004 29.2696 51.1455 28.2854 52.2451C27.4373 53.0281 26.3885 53.364 25.2495 53.3451C24.0914 53.2458 23.2605 52.7153 22.4709 51.8922C21.6337 50.8164 21.608 49.6176 21.6252 48.3146C21.6286 48.032 21.6276 47.7496 21.6261 47.467C21.6279 45.9976 21.7936 44.9128 22.8517 43.8282C24.0599 42.8448 25.8722 42.4244 27.3103 43.2038ZM23.9723 45.5421C23.6623 46.0133 23.6498 46.3684 23.6441 46.9204C23.6432 47.0066 23.6422 47.0927 23.6412 47.1815C23.6396 47.3642 23.6384 47.547 23.6374 47.7297C23.6354 48.0073 23.6303 48.2847 23.6251 48.5622C23.6239 48.74 23.6229 48.9179 23.6221 49.0957C23.6201 49.1779 23.618 49.2601 23.6159 49.3447C23.6187 49.9898 23.7835 50.3415 24.1408 50.8595C24.6427 51.2816 25.1134 51.3996 25.7654 51.3653C26.3257 51.2823 26.6842 51.0423 27.0485 50.6251C27.5457 49.9432 27.4521 49.2038 27.4566 48.3948C27.458 48.2274 27.4604 48.06 27.4638 47.8927C27.4927 46.5523 27.4927 46.5523 26.9533 45.3516C26.4976 44.9383 26.0687 44.7892 25.466 44.7465C24.8365 44.7912 24.3926 45.0894 23.9723 45.5421Z" fill="#D2393E"/>
<path d="M21.9035 29.399C22.051 29.3985 22.1986 29.398 22.3506 29.3975C22.515 29.3976 22.6794 29.3976 22.8439 29.3977C23.0163 29.3973 23.1888 29.3969 23.3612 29.3965C23.8305 29.3955 24.2997 29.3952 24.769 29.3951C25.1604 29.395 25.5518 29.3946 25.9432 29.3942C26.8665 29.3932 27.7899 29.3929 28.7132 29.393C29.6663 29.3931 30.6194 29.3918 31.5725 29.39C32.3902 29.3884 33.2079 29.3878 34.0255 29.3879C34.5142 29.3879 35.0028 29.3876 35.4914 29.3863C35.951 29.3852 36.4106 29.3852 36.8701 29.3861C37.0389 29.3862 37.2076 29.3859 37.3764 29.3852C37.6066 29.3843 37.8369 29.385 38.0671 29.3857C38.2604 29.3856 38.2604 29.3856 38.4577 29.3855C38.7895 29.4147 38.9799 29.4705 39.258 29.6491C39.5037 29.965 39.4918 30.1287 39.4704 30.5353C39.3781 30.9258 39.3404 31.0616 39.0236 31.2897C38.7047 31.4491 38.454 31.422 38.0969 31.4226C37.9493 31.4231 37.8018 31.4236 37.6497 31.4241C37.4853 31.424 37.3209 31.424 37.1564 31.4239C36.984 31.4243 36.8115 31.4247 36.6391 31.4251C36.1698 31.4262 35.7006 31.4264 35.2314 31.4265C34.8399 31.4266 34.4485 31.427 34.0571 31.4275C33.1338 31.4284 32.2104 31.4287 31.2871 31.4286C30.334 31.4285 29.3809 31.4298 28.4278 31.4316C27.6101 31.4332 26.7924 31.4338 25.9748 31.4337C25.4861 31.4337 24.9975 31.434 24.5089 31.4353C24.0493 31.4364 23.5897 31.4364 23.1302 31.4356C22.9614 31.4354 22.7927 31.4357 22.6239 31.4364C22.3937 31.4373 22.1635 31.4366 21.9332 31.4359C21.8043 31.4359 21.6754 31.436 21.5426 31.4361C21.2108 31.4069 21.0204 31.3511 20.7423 31.1725C20.4966 30.8566 20.5085 30.6929 20.5299 30.2863C20.6222 29.8958 20.6599 29.76 20.9767 29.5319C21.2956 29.3725 21.5463 29.3996 21.9035 29.399Z" fill="#D2393E"/>
<path d="M13.4766 42.8242C13.8284 42.9238 13.946 43.0738 14.1797 43.3593C14.3487 43.7256 14.4744 44.1044 14.6018 44.4868C14.6396 44.5966 14.6774 44.7064 14.7163 44.8195C14.8366 45.1698 14.955 45.5206 15.0733 45.8716C15.1928 46.2219 15.3128 46.5721 15.4328 46.9223C15.5072 47.14 15.5813 47.3578 15.655 47.5758C15.8159 48.0505 15.9782 48.5216 16.1719 48.9843C16.2192 48.8443 16.2664 48.7043 16.3151 48.56C16.4919 48.0363 16.6694 47.5129 16.8471 46.9895C16.9237 46.7637 17 46.5379 17.0762 46.312C17.1863 45.9857 17.297 45.6597 17.4079 45.3337C17.4413 45.234 17.4748 45.1344 17.5093 45.0317C18.0975 43.3088 18.0975 43.3088 18.5157 42.8906C18.9834 42.8529 19.3092 42.8278 19.7388 43.0151C20.0134 43.3556 20.0121 43.6279 20.0391 44.0625C19.9733 44.4136 19.8598 44.7427 19.7411 45.0792C19.7083 45.1766 19.6755 45.274 19.6418 45.3743C19.5343 45.6921 19.4243 46.0089 19.314 46.3257C19.2388 46.5453 19.1636 46.7649 19.0886 46.9846C18.9352 47.4326 18.7807 47.8801 18.6254 48.3273C18.4447 48.8488 18.2678 49.3714 18.093 49.8948C17.9692 50.2644 17.8437 50.6334 17.7178 51.0022C17.6592 51.1746 17.6012 51.3473 17.5439 51.5202C17.4644 51.7595 17.3823 51.9977 17.2994 52.2358C17.2313 52.4365 17.2313 52.4365 17.1618 52.6412C16.9615 53.0281 16.8035 53.1496 16.4063 53.3203C15.6995 53.2959 15.6995 53.2959 15.3961 53.0479C15.117 52.7089 15.0182 52.2851 14.8865 51.8724C14.854 51.7737 14.8216 51.675 14.7881 51.5733C14.682 51.2502 14.5773 50.9266 14.4727 50.603C14.3263 50.155 14.1793 49.7072 14.0323 49.2595C13.9956 49.1471 13.9588 49.0348 13.9209 48.919C13.6876 48.208 13.4473 47.4999 13.1992 46.7939C13.1689 46.7075 13.1386 46.621 13.1074 46.5319C12.993 46.2058 12.8786 45.8799 12.762 45.5546C12.6834 45.3353 12.6062 45.1154 12.529 44.8956C12.4855 44.7735 12.4419 44.6514 12.397 44.5256C12.257 44.0009 12.227 43.6255 12.4805 43.1396C12.8366 42.837 13.0244 42.8251 13.4766 42.8242Z" fill="#D2393E"/>
<path d="M32.0388 42.8671C32.2371 42.8643 32.2371 42.8643 32.4394 42.8614C33.0437 42.8562 33.6479 42.8513 34.2522 42.8487C34.5714 42.8471 34.8906 42.8438 35.2098 42.8391C35.669 42.8322 36.1281 42.8301 36.5874 42.8284C36.8018 42.8244 36.8018 42.8244 37.0206 42.8203C38.0072 42.8228 38.0072 42.8228 38.41 43.1645C38.5893 43.5497 38.6335 43.7592 38.5549 44.1788C38.312 44.5214 38.1265 44.7371 37.7011 44.8117C37.3856 44.8224 37.0757 44.8158 36.7604 44.8013C36.5967 44.7974 36.5967 44.7974 36.4297 44.7933C36.1613 44.7864 35.8933 44.7768 35.6252 44.7647C35.6271 44.9125 35.6271 44.9125 35.6291 45.0633C35.6409 45.9926 35.6498 46.9219 35.6555 47.8513C35.6586 48.3291 35.6627 48.8069 35.6694 49.2846C35.6757 49.7459 35.6792 50.207 35.6808 50.6683C35.6818 50.8441 35.684 51.0199 35.6871 51.1957C35.6914 51.4424 35.692 51.6888 35.6917 51.9354C35.6936 52.1458 35.6936 52.1458 35.6956 52.3605C35.6047 52.8417 35.4146 53.0159 35.0392 53.3194C34.7893 53.3675 34.7893 53.3675 34.5558 53.3267C34.4394 53.3106 34.4394 53.3106 34.3205 53.2942C34.013 53.1649 33.9203 53.0205 33.7502 52.7335C33.7079 52.3746 33.7079 52.3746 33.7103 51.9487C33.7102 51.832 33.7102 51.832 33.7101 51.713C33.7103 51.4568 33.7131 51.2007 33.7158 50.9445C33.7165 50.7665 33.717 50.5885 33.7173 50.4105C33.7187 49.9428 33.7221 49.475 33.726 49.0073C33.7296 48.5297 33.7312 48.0521 33.733 47.5745C33.7368 46.6379 33.7428 45.7013 33.7502 44.7647C33.6474 44.7675 33.6474 44.7675 33.5425 44.7703C33.2308 44.7776 32.9193 44.7822 32.6076 44.7867C32.4458 44.7911 32.4458 44.7911 32.2807 44.7956C32.1765 44.7967 32.0723 44.7979 31.9649 44.799C31.8692 44.8009 31.7734 44.8027 31.6748 44.8046C31.3377 44.7545 31.182 44.648 30.9377 44.4131C30.8083 43.9475 30.7718 43.6995 30.9743 43.2559C31.2975 42.8489 31.5394 42.8735 32.0388 42.8671Z" fill="#D2393E"/>
</svg>
