<svg width="60" height="60" viewBox="0 0 60 60" fill="none" xmlns="http://www.w3.org/2000/svg">
<g clip-path="url(#clip0_84_247)">
<path d="M42.3562 18.5633C42.3562 11.7846 36.8609 6.28967 30.0821 6.28967C23.3038 6.28967 17.8084 11.7846 17.8084 18.5633C17.8084 25.3421 23.3038 30.837 30.0821 30.837C36.8579 30.8296 42.3484 25.3387 42.3562 18.5633ZM30.0821 28.8237C24.4156 28.8237 19.8217 24.2303 19.8217 18.5633C19.8217 12.8964 24.4156 8.30301 30.0821 8.30301C35.749 8.30301 40.3429 12.8964 40.3429 18.5633C40.336 24.2273 35.7461 28.8173 30.0821 28.8237Z" fill="#D2393E"/>
<path d="M46.0255 28.2063L46.0437 23.7496L49.3547 19.1518C49.6079 18.8003 49.6079 18.3265 49.3547 17.975L46.0432 13.3772L46.0201 7.71075C46.0182 7.27721 45.7395 6.89382 45.3281 6.75864L39.9443 4.98764L36.5989 0.412907C36.3428 0.0624417 35.891 -0.0840362 35.4782 0.0486787L30.0821 1.78479L24.6865 0.048187C24.2731 -0.0845278 23.8214 0.0624417 23.5653 0.412416L20.2204 4.98764L14.8366 6.75864C14.4252 6.89382 14.1465 7.27721 14.1445 7.71075L14.1214 13.3772L10.8104 17.9755C10.5572 18.327 10.5572 18.8008 10.8104 19.1518L14.1214 23.7501L14.1401 28.3464L5.44035 54.4082C5.26389 54.9356 5.54849 55.5063 6.0764 55.6823L18.8549 59.9483C19.3823 60.1243 19.9525 59.8392 20.1285 59.3118L27.8952 36.0464L30.0821 35.342L32.2694 36.0454L40.0357 59.3113C40.2112 59.8392 40.7818 60.1243 41.3092 59.9483L54.0882 55.6823C54.6147 55.5068 54.8997 54.9376 54.7248 54.4102L46.0255 28.2063ZM15.5134 30.5913L17.2372 31.1575L9.38985 54.6653L7.66898 54.0912L15.5134 30.5913ZM20.2204 32.1391L22.157 34.7875L14.9069 56.5071L11.2995 55.3028L19.1493 31.7867L20.2204 32.1391ZM18.5378 57.7192L16.8165 57.1446L23.6159 36.7748C23.8794 37.0825 24.3011 37.202 24.6865 37.0781L25.5172 36.8107L18.5378 57.7192ZM29.7744 33.3262L24.7622 34.9389L21.6547 30.6896C21.5303 30.5195 21.3563 30.3932 21.1563 30.3273L16.1549 28.6826L16.1332 23.4193C16.1323 23.2094 16.0659 23.0054 15.9435 22.8348L12.8685 18.5634L15.944 14.2919C16.0664 14.1219 16.1327 13.9174 16.1337 13.7075L16.1554 8.44412L21.1572 6.79944C21.3568 6.73358 21.5313 6.60676 21.6552 6.43718L24.7622 2.18785L29.7739 3.80058C29.9744 3.86497 30.1902 3.86497 30.3908 3.80058L35.4029 2.18785L38.5099 6.43718C38.6338 6.60676 38.8083 6.73358 39.0079 6.79944L44.0098 8.44461L44.0314 13.7085C44.0324 13.9179 44.0987 14.1224 44.2211 14.2924L47.2967 18.5639L44.2211 22.8348C44.0987 23.0049 44.0324 23.2094 44.0314 23.4188L44.0098 28.6826L39.0079 30.3268C38.8083 30.3927 38.6338 30.5195 38.5099 30.6891L35.4029 34.9384L30.3908 33.3262C30.1902 33.2613 29.9744 33.2613 29.7739 33.3262H29.7744ZM41.0148 31.7867L48.8647 55.3028L45.2578 56.5071L38.0076 34.788L39.9443 32.1391L41.0148 31.7867ZM34.6479 36.8107L35.4782 37.0781C35.8635 37.201 36.2853 37.081 36.5477 36.7733L43.3481 57.1446L41.6273 57.7192L34.6479 36.8107ZM50.7748 54.6653L42.9274 31.1575L44.691 30.5775L52.4971 54.0902L50.7748 54.6653Z" fill="#D2393E"/>
<path d="M30.0821 11.8691C26.3853 11.8691 23.3879 14.866 23.3879 18.5634C23.3879 22.2602 26.3853 25.2576 30.0821 25.2576C33.7795 25.2576 36.7768 22.2602 36.7768 18.5634C36.7724 14.868 33.7775 11.8731 30.0821 11.8691ZM30.0821 23.2443C27.4971 23.2443 25.4012 21.1484 25.4012 18.5634C25.4012 15.9779 27.4971 13.8825 30.0821 13.8825C32.6676 13.8825 34.7635 15.9779 34.7635 18.5634C34.7606 21.1474 32.6661 23.2413 30.0821 23.2443Z" fill="#D2393E"/>
</g>
<defs>
<clipPath id="clip0_84_247">
<rect width="60" height="60" fill="white"/>
</clipPath>
</defs>
</svg>
