<svg width="40" height="40" viewBox="0 0 40 40" fill="none" xmlns="http://www.w3.org/2000/svg">
<g clip-path="url(#clip0_37_151)">
<path d="M4.50041 38.5715H35.4996C36.6958 38.5705 37.8424 38.0936 38.6866 37.2464C39.5309 36.3988 40.0036 35.2506 40 34.0544V9.44833C40.0026 8.25512 39.5289 7.10984 38.684 6.26688C37.8394 5.42392 36.6931 4.95287 35.4996 4.95812H34.1176V2.09507C34.1235 1.92044 34.0585 1.75073 33.9368 1.62501C33.8153 1.49929 33.6479 1.42838 33.4733 1.42871H26.2552C25.884 1.42871 25.5462 1.72381 25.5462 2.09507V4.95812H14.4538V2.09507C14.4538 1.72381 14.116 1.42871 13.7448 1.42871H6.52706C6.3521 1.42838 6.18469 1.49929 6.06323 1.62501C5.94145 1.75073 5.87646 1.92044 5.88236 2.09507V4.95812H4.50041C3.30687 4.95287 2.16093 5.42392 1.316 6.26688C0.471064 7.10984 -0.00260905 8.25512 1.69947e-05 9.44833V34.0544C-0.00326557 35.2506 0.469095 36.3988 1.31337 37.2464C2.15764 38.0936 3.30424 38.5705 4.50041 38.5715ZM35.4996 37.227H4.50041C3.66073 37.2267 2.85552 36.8915 2.26334 36.2961C1.67117 35.7009 1.34061 34.8941 1.34455 34.0544V14.2018H38.6554V34.0544C38.6594 34.8941 38.3288 35.7009 37.7367 36.2961C37.1445 36.8915 36.3393 37.2267 35.4996 37.227ZM26.8907 2.77325H32.7731V8.48753H26.8907V2.77325ZM7.2269 2.77325H13.1092V8.48753H7.2269V2.77325ZM4.50041 6.30266H5.88236V9.1877C5.87711 9.36003 5.94342 9.52711 6.06553 9.64923C6.18731 9.77101 6.3544 9.83732 6.52706 9.83206H13.7448C14.116 9.83206 14.4538 9.55896 14.4538 9.1877V6.30266H25.5462V9.1877C25.5462 9.55896 25.884 9.83206 26.2552 9.83206H33.4733C33.6456 9.83732 33.8127 9.77101 33.9345 9.64923C34.0566 9.52711 34.1229 9.36003 34.1176 9.1877V6.30266H35.4996C36.3366 6.29708 37.1412 6.62632 37.734 7.21718C38.3265 7.80804 38.6584 8.61128 38.6554 9.44833V12.8573H1.34455V9.44833C1.3416 8.61128 1.67347 7.80804 2.2663 7.21718C2.8588 6.62632 3.66335 6.29708 4.50041 6.30266Z" fill="#D2393E"/>
<path d="M27.3824 22.6172L22.6979 21.9368L20.603 17.6918C20.4897 17.4623 20.256 17.3169 20 17.3169C19.7439 17.3169 19.5105 17.4623 19.3973 17.6918L17.3024 21.9368L12.6178 22.6172C12.3647 22.654 12.1543 22.8316 12.0752 23.0748C11.9964 23.3181 12.0621 23.5853 12.2456 23.7638L15.6351 27.0681L14.8349 31.7336C14.7919 31.986 14.8953 32.2407 15.1024 32.3911C15.3095 32.5417 15.5839 32.5614 15.8104 32.4423L20 30.2397L24.1898 32.4423C24.4163 32.5614 24.6907 32.5417 24.8979 32.3911C25.105 32.2407 25.2087 31.986 25.1654 31.7336L24.3651 27.0681L27.755 23.7638C27.9382 23.5853 28.0042 23.3181 27.925 23.0748C27.8459 22.8316 27.6355 22.654 27.3824 22.6172ZM23.1735 26.3521C23.0153 26.5064 22.9428 26.729 22.9802 26.9469L23.6101 30.6185L20.3128 28.885C20.1172 28.7819 19.8831 28.7819 19.6871 28.885L16.3901 30.6185L17.0197 26.9469C17.0571 26.729 16.9849 26.5064 16.8264 26.3521L14.1593 23.752L17.8453 23.2163C18.0646 23.1845 18.2536 23.0469 18.3518 22.8487L20 19.5083L21.6485 22.8487C21.7463 23.0473 21.9357 23.1848 22.1546 23.2166L25.841 23.752L23.1735 26.3521Z" fill="#D2393E"/>
</g>
<defs>
<clipPath id="clip0_37_151">
<rect width="40" height="40" fill="white"/>
</clipPath>
</defs>
</svg>
