<svg width="24" height="24" viewBox="0 0 24 24" fill="none" xmlns="http://www.w3.org/2000/svg">
<g clip-path="url(#clip0_127_825)">
<path d="M11.4903 -0.011163C11.5449 -0.0118453 11.5449 -0.0118453 11.6006 -0.0125413C11.7181 -0.0137089 11.8357 -0.0143004 11.9532 -0.014642C11.9933 -0.0147648 12.0333 -0.0148875 12.0746 -0.015014C12.7093 -0.0152227 13.3045 0.0321743 13.922 0.187506C13.9842 0.201321 14.0465 0.215 14.1088 0.228522C15.4651 0.549015 16.7008 1.31647 17.713 2.25587C17.7556 2.29535 17.7556 2.29535 17.7991 2.33563C19.111 3.57467 19.8482 5.2318 20.1564 6.98438C20.1652 7.0297 20.174 7.07502 20.1831 7.12171C20.2124 7.33118 20.2204 7.54078 20.2296 7.75196C20.2316 7.7954 20.2337 7.83885 20.2357 7.88361C20.2407 7.99011 20.2455 8.09662 20.2501 8.20313C20.2779 8.2056 20.3057 8.20806 20.3343 8.2106C20.8227 8.25852 21.2009 8.45224 21.6095 8.71876C21.6511 8.74583 21.6926 8.7729 21.7355 8.80079C22.2153 9.26764 22.4941 9.94145 22.5126 10.6079C22.5135 10.7006 22.5138 10.7933 22.5137 10.8859C22.514 10.9369 22.5144 10.9879 22.5147 11.0404C22.5156 11.208 22.5158 11.3756 22.5159 11.5432C22.5162 11.6606 22.5165 11.778 22.5168 11.8954C22.5174 12.1413 22.5175 12.3872 22.5175 12.6331C22.5174 12.8843 22.5181 13.1355 22.5194 13.3866C22.521 13.6914 22.5216 13.9961 22.5216 14.3008C22.5217 14.4162 22.5221 14.5317 22.5228 14.6471C22.5285 15.6337 22.4804 16.4813 21.7741 17.2332C21.3432 17.6379 20.8303 17.8327 20.2501 17.9063C20.2483 17.9331 20.2464 17.9599 20.2445 17.9875C20.1455 19.3571 19.8802 20.6821 18.8351 21.6621C17.7159 22.6064 16.1013 22.8804 14.672 22.8281C14.6747 22.8644 14.6774 22.9006 14.6802 22.938C14.6953 23.2851 14.6711 23.5036 14.4376 23.7656C14.1158 24.0802 13.6948 24.0325 13.2771 24.0278C13.2005 24.0278 13.124 24.0278 13.0474 24.0278C12.8875 24.0278 12.7277 24.0269 12.5678 24.0254C12.3633 24.0235 12.1588 24.0233 11.9543 24.0237C11.7965 24.0238 11.6386 24.0233 11.4807 24.0225C11.4053 24.0221 11.3299 24.022 11.2545 24.022C11.1491 24.022 11.0437 24.0209 10.9383 24.0197C10.8784 24.0193 10.8185 24.0189 10.7568 24.0185C10.5061 23.99 10.3206 23.8959 10.1603 23.7012C10.1378 23.6747 10.1153 23.6482 10.0922 23.621C9.92837 23.3792 9.9232 23.158 9.92352 22.8754C9.92331 22.8349 9.92311 22.7944 9.92291 22.7526C9.92264 22.6671 9.92261 22.5816 9.92282 22.4961C9.92297 22.366 9.92187 22.2359 9.92068 22.1058C9.92057 22.0225 9.92054 21.9392 9.92059 21.8558C9.91994 21.798 9.91994 21.798 9.91928 21.7389C9.92203 21.3918 10.0138 21.1114 10.2657 20.8594C10.6185 20.6224 10.9824 20.6445 11.3922 20.647C11.4654 20.6469 11.5386 20.6467 11.6118 20.6464C11.7646 20.6462 11.9175 20.6466 12.0704 20.6474C12.2655 20.6485 12.4606 20.6479 12.6557 20.6468C12.8067 20.6461 12.9576 20.6463 13.1086 20.6468C13.1805 20.6469 13.2524 20.6468 13.3243 20.6463C14.113 20.6426 14.113 20.6426 14.4143 20.9256C14.6153 21.1491 14.685 21.3511 14.6778 21.6475C14.677 21.6932 14.6762 21.739 14.6753 21.7861C14.6742 21.8206 14.6731 21.8551 14.672 21.8906C16.5169 21.7278 16.5169 21.7278 18.1407 20.9063C18.17 20.8829 18.1994 20.8595 18.2295 20.8354C19.0269 20.1208 19.1433 18.9496 19.2657 17.9531C19.2047 17.9548 19.1437 17.9564 19.0808 17.9581C18.9999 17.9594 18.9189 17.9607 18.838 17.9619C18.7778 17.9637 18.7778 17.9637 18.7164 17.9655C18.4743 17.9683 18.299 17.9562 18.0939 17.8125C17.9433 17.6179 17.9333 17.4436 17.9357 17.206C17.9355 17.1688 17.9353 17.1316 17.9351 17.0932C17.9347 16.9687 17.9352 16.8442 17.9358 16.7197C17.9357 16.6304 17.9355 16.5411 17.9353 16.4518C17.9348 16.2092 17.9353 15.9668 17.9359 15.7242C17.9364 15.4706 17.9362 15.2169 17.9361 14.9633C17.9361 14.5373 17.9366 14.1114 17.9375 13.6855C17.9385 13.1928 17.9386 12.7001 17.9383 12.2075C17.9381 11.7337 17.9383 11.26 17.9389 10.7863C17.9391 10.5846 17.9391 10.3829 17.939 10.1812C17.9389 9.94374 17.9393 9.70632 17.9401 9.46889C17.9403 9.38166 17.9403 9.29444 17.9402 9.20721C17.94 9.08833 17.9404 8.96947 17.941 8.85059C17.9408 8.81591 17.9407 8.78123 17.9405 8.7455C17.942 8.57372 17.9465 8.43991 18.047 8.29688C18.2921 8.12486 18.5276 8.13948 18.8146 8.14747C18.858 8.1481 18.9015 8.14874 18.9462 8.14939C19.0528 8.15104 19.1592 8.15334 19.2657 8.15626C19.0908 5.98301 18.3478 4.11214 16.6896 2.64808C15.6564 1.80189 14.4429 1.24514 13.1251 1.03126C13.0814 1.02304 13.0377 1.01482 12.9927 1.00635C11.5559 0.794276 10.1121 1.06168 8.81261 1.68751C8.78326 1.70145 8.75391 1.71539 8.72367 1.72976C7.06341 2.52921 5.77459 4.04665 5.16643 5.77657C4.90327 6.55239 4.77772 7.33942 4.73449 8.15626C4.76142 8.15552 4.78834 8.15478 4.81609 8.15403C4.93927 8.15108 5.06245 8.14927 5.18566 8.14747C5.22802 8.14629 5.27038 8.14511 5.31402 8.1439C5.56121 8.14119 5.7436 8.14974 5.95324 8.29688C6.0733 8.46768 6.06049 8.65137 6.05984 8.85205C6.06009 8.88934 6.06033 8.92663 6.06058 8.96504C6.06129 9.09013 6.06132 9.2152 6.06135 9.34029C6.06171 9.42991 6.0621 9.51954 6.06253 9.60916C6.06356 9.85274 6.06397 10.0963 6.06421 10.3399C6.06438 10.492 6.06468 10.6442 6.06501 10.7963C6.06616 11.327 6.06677 11.8577 6.06694 12.3884C6.06711 12.8832 6.06851 13.378 6.07047 13.8729C6.0721 14.2976 6.07282 14.7223 6.07285 15.147C6.07289 15.4008 6.0733 15.6545 6.07464 15.9082C6.07586 16.1468 6.07597 16.3854 6.07521 16.624C6.07513 16.7116 6.07544 16.7992 6.07619 16.8867C6.07715 17.0063 6.07666 17.1258 6.0758 17.2454C6.07673 17.2974 6.07673 17.2974 6.07768 17.3503C6.07475 17.5305 6.04709 17.647 5.93679 17.7864C5.74402 17.9724 5.57104 17.9612 5.31713 17.9627C5.28176 17.9629 5.2464 17.9632 5.20996 17.9635C5.1347 17.9639 5.05944 17.9642 4.98418 17.9644C4.87194 17.9648 4.75974 17.9663 4.64751 17.9678C4.27697 17.9704 3.91818 17.9545 3.55254 17.8912C3.52088 17.8858 3.48921 17.8804 3.45659 17.8748C2.80273 17.749 2.25293 17.36 1.88097 16.8135C1.57453 16.2989 1.49337 15.7799 1.49182 15.1918C1.49151 15.1408 1.4912 15.0898 1.49088 15.0372C1.48996 14.8686 1.48941 14.7 1.48894 14.5314C1.48875 14.4736 1.48856 14.4158 1.48837 14.3562C1.48749 14.0815 1.48681 13.8068 1.48642 13.532C1.486 13.248 1.4851 12.9641 1.48339 12.6801C1.48158 12.3743 1.48071 12.0685 1.4805 11.7627C1.48027 11.6467 1.47973 11.5308 1.47886 11.4148C1.47223 10.4766 1.51104 9.62933 2.17394 8.89747C2.57919 8.51248 3.18328 8.20313 3.75011 8.20313C3.75193 8.11956 3.75193 8.11956 3.75378 8.03431C3.78984 6.85678 4.04336 5.75114 4.54699 4.68751C4.56041 4.65868 4.57383 4.62985 4.58766 4.60014C4.77573 4.19813 4.9929 3.83012 5.25011 3.46876C5.28075 3.42465 5.31138 3.38054 5.34295 3.33509C5.77668 2.73129 6.29481 2.1795 6.89074 1.73438C6.91756 1.71392 6.94438 1.69346 6.97201 1.67238C8.13169 0.787903 9.40005 0.300166 10.8282 0.0468814C10.871 0.038607 10.9138 0.0303326 10.9579 0.0218074C11.1358 -0.00377216 11.3111 -0.0093057 11.4903 -0.011163ZM2.81261 9.60938C2.48403 10.0241 2.42345 10.4482 2.42474 10.9616C2.4245 11.0112 2.42426 11.0608 2.42401 11.1119C2.42336 11.275 2.42341 11.4381 2.42351 11.6012C2.42333 11.7151 2.42313 11.8291 2.42291 11.943C2.42256 12.1816 2.42257 12.4201 2.42282 12.6587C2.42309 12.9636 2.42229 13.2685 2.42121 13.5734C2.42051 13.8087 2.42048 14.0439 2.42062 14.2792C2.4206 14.3916 2.42035 14.504 2.41988 14.6164C2.4193 14.7738 2.41962 14.9313 2.42016 15.0888C2.4198 15.1347 2.41945 15.1807 2.41908 15.228C2.42269 15.7059 2.53955 16.1362 2.85949 16.5C3.50796 17.0859 4.24315 16.9688 5.10949 16.9688C5.10949 14.37 5.10949 11.7713 5.10949 9.09376C3.83523 9.03871 3.83523 9.03871 2.81261 9.60938ZM18.8907 9.14063C18.8907 11.7239 18.8907 14.3072 18.8907 16.9688C20.0798 17.0397 20.0798 17.0397 21.047 16.5469C21.1108 16.4918 21.1108 16.4918 21.1759 16.4356C21.536 16.0154 21.5769 15.5005 21.5755 14.9669C21.5757 14.9191 21.576 14.8713 21.5762 14.8221C21.5769 14.6656 21.5768 14.5091 21.5767 14.3525C21.5769 14.2429 21.5771 14.1333 21.5773 14.0237C21.5777 13.7946 21.5777 13.5654 21.5774 13.3363C21.5771 13.0434 21.5779 12.7506 21.579 12.4578C21.5797 12.2316 21.5798 12.0054 21.5796 11.7793C21.5796 11.6713 21.5799 11.5634 21.5803 11.4554C21.5809 11.3042 21.5806 11.1531 21.5801 11.0019C21.5804 10.9579 21.5808 10.9138 21.5812 10.8684C21.5773 10.3837 21.4486 9.9381 21.1144 9.57716C20.4799 8.98966 19.7463 9.14063 18.8907 9.14063ZM10.922 21.6094C10.922 22.0889 10.922 22.5684 10.922 23.0625C11.8501 23.0625 12.7782 23.0625 13.7345 23.0625C13.7345 22.583 13.7345 22.1034 13.7345 21.6094C12.8064 21.6094 11.8782 21.6094 10.922 21.6094Z" fill="white"/>
</g>
<defs>
<clipPath id="clip0_127_825">
<rect width="24" height="24" fill="white"/>
</clipPath>
</defs>
</svg>
