<svg width="60" height="60" viewBox="0 0 60 60" fill="none" xmlns="http://www.w3.org/2000/svg">
<g clip-path="url(#clip0_76_50)">
<path d="M1.1032 54.7329L17.9412 54.7329C18.5171 54.7283 18.9817 54.2596 18.9812 53.6837L18.9812 51.7651L19.4347 52.0063C22.8698 53.7924 26.6831 54.7273 30.5544 54.7329L50.3713 54.7329C52.4926 54.7324 54.4072 53.4613 55.2309 51.5066C56.0546 49.5514 55.6275 47.2936 54.1461 45.7746C55.7402 45.0433 56.8656 43.5665 57.1485 41.8353C57.4313 40.1046 56.8341 38.3464 55.5554 37.1454C56.9992 36.3603 57.9935 34.9464 58.2444 33.3224C58.4948 31.6983 57.9737 30.0503 56.8341 28.8661C58.7472 28.0367 59.9893 26.1552 60 24.0705C59.9949 21.1814 57.6025 18.8509 54.6672 18.8509L34.062 18.8509L34.062 12.4288C34.0641 10.5472 33.3186 8.74186 31.9895 7.41081C30.66 6.07925 28.8562 5.3307 26.9746 5.33018L23.0043 5.33018C22.69 5.33272 22.3929 5.47594 22.1958 5.72071C21.9988 5.9655 21.9221 6.28645 21.9871 6.59369L22.2974 8.05373C22.8119 10.4705 22.919 14.5434 22.5371 17.1329L22.2669 18.9596C22.1486 19.7803 21.6149 20.4816 20.8551 20.8142C20.3757 21.025 19.8984 21.2545 19.4357 21.4958L18.9807 21.7324L18.9807 18.725C18.9802 18.1501 18.5155 17.6834 17.9412 17.6809L1.1032 17.6809C0.528828 17.6809 0.000168463 18.1506 0.000168514 18.7255L0.00017157 53.6837C0.00017162 54.2581 0.528831 54.7329 1.1032 54.7329ZM20.3966 23.3413C20.8191 23.1203 21.2553 22.9111 21.6926 22.7186C23.1084 22.1001 24.1038 20.7929 24.3242 19.2638L24.5939 17.4371C25.0133 14.5962 24.8981 10.2801 24.3313 7.6175L24.2881 7.4103L26.9746 7.4103C28.3041 7.41081 29.5793 7.93998 30.5188 8.88151C31.4578 9.82254 31.9845 11.0987 31.9819 12.4288L31.9819 19.8504C31.9794 20.4334 32.4415 20.9123 33.024 20.931L54.6672 20.931C56.4578 20.931 57.9173 22.3301 57.9199 24.0741C57.925 24.9074 57.5862 25.7058 56.9839 26.2817C56.3811 26.8692 55.5676 27.1897 54.7261 27.1714L48.9057 27.1714C48.3268 27.1826 47.8641 27.6559 47.8657 28.2348C47.8657 28.4288 47.9129 28.6198 48.0028 28.7914C48.1795 29.1393 48.5299 29.3653 48.9194 29.3815L53.0324 29.3815C54.7916 29.3815 56.2176 30.8075 56.2176 32.5667C56.2176 34.3258 54.7916 35.7519 53.0324 35.7519L47.7098 35.7519C47.1354 35.7519 46.6697 36.2176 46.6697 36.7919C46.6697 37.3663 47.1354 37.832 47.7098 37.832L51.9436 37.832C53.7028 37.832 55.1288 39.258 55.1288 41.0172C55.1288 42.7763 53.7028 44.2023 51.9436 44.2023L46.5001 44.2023C45.9257 44.2023 45.46 44.668 45.46 45.2424C45.46 45.8168 45.9257 46.2824 46.5001 46.2824L50.3713 46.2824C52.1305 46.2824 53.5565 47.7085 53.5565 49.4676C53.5565 51.2268 52.1305 52.6528 50.3713 52.6528L30.5544 52.6528C27.0178 52.6477 23.5335 51.793 20.3956 50.1613L18.9812 49.4199L18.9812 24.0776L20.3966 23.3413ZM2.08028 19.761L16.9011 19.761L16.9011 52.6528L2.08028 52.6528L2.08028 19.761Z" fill="white"/>
<path d="M10.6917 23.6957C8.09666 23.6957 5.99268 25.7991 5.99268 28.3947C5.99268 30.9898 8.09666 33.0933 10.6917 33.0933C13.2868 33.0933 15.3908 30.9898 15.3908 28.3947C15.3877 25.8007 13.2858 23.6982 10.6917 23.6957ZM10.6917 31.0131C9.2454 31.0131 8.0728 29.8411 8.0728 28.3947C8.0728 26.9479 9.2454 25.7758 10.6917 25.7758C12.1381 25.7758 13.3107 26.9479 13.3107 28.3947C13.3086 29.84 12.1376 31.0116 10.6917 31.0131Z" fill="white"/>
</g>
<defs>
<clipPath id="clip0_76_50">
<rect width="60" height="60" fill="white" transform="translate(60 60) rotate(180)"/>
</clipPath>
</defs>
</svg>
