<svg width="168" height="50" viewBox="0 0 168 50" fill="none" xmlns="http://www.w3.org/2000/svg">
<path fill-rule="evenodd" clip-rule="evenodd" d="M25.0001 0C38.8072 0 50 11.3077 50 25.2564C50 27.0285 49.8185 28.7577 49.4748 30.4268C49.3618 29.8925 49.2644 29.4445 49.1928 29.1418C49.2888 28.9638 49.4151 28.832 49.481 28.6078C49.5808 28.2481 49.5634 27.8923 49.4311 27.5691C49.3254 27.5794 49.2373 27.5689 49.1698 27.5293C49.0972 27.4868 49.0509 27.4142 49.0355 27.3028C48.949 27.3031 48.8687 27.2867 48.7952 27.2519C48.7168 27.2148 48.6467 27.157 48.5859 27.0766C48.4926 27.0934 48.4006 27.1041 48.3124 27.0968C48.2174 27.0889 48.1284 27.0603 48.0493 26.9968C47.9737 27.0052 47.8984 27.0083 47.8235 27.0003C47.7548 26.9929 47.6866 26.9763 47.6193 26.9461C47.6366 27.0774 47.7682 27.2265 47.9576 27.326C48.4703 27.5667 48.7377 28.0628 48.4013 28.7124C48.5156 28.4351 48.5215 28.0485 48.3602 27.7927C48.2447 27.6258 48.0898 27.5061 47.9127 27.4132C47.6596 27.3175 47.495 27.075 47.5237 26.8751C47.5306 26.7537 47.7896 26.4468 47.8841 26.2077C47.9808 25.9863 47.8178 25.5832 47.5445 25.8167C47.3135 26.0618 47.1054 26.3263 46.9136 26.6046C46.6557 26.827 46.6345 27.0961 46.733 27.3888C46.7359 27.3984 46.7387 27.4079 46.7417 27.4174C46.9251 28.0148 47.2169 28.5573 47.5562 29.0754C47.6421 29.1655 47.8839 29.2764 48.1245 29.3247C47.9001 29.3323 47.6815 29.2622 47.5622 29.1965L47.902 35.3953C47.5301 36.2516 47.1119 37.0829 46.6518 37.8863C46.2019 35.7042 45.7965 33.7722 45.5496 32.7287C45.7363 32.3827 45.9818 32.1265 46.1098 31.6908C46.3039 30.9917 46.2701 30.3001 46.0129 29.6719C45.8076 29.6921 45.6362 29.6716 45.505 29.5947C45.3639 29.5119 45.274 29.3708 45.2439 29.1544C45.0758 29.155 44.9197 29.1231 44.777 29.0554C44.6244 28.9832 44.4882 28.8709 44.3701 28.7147C44.1887 28.7474 44.0099 28.7683 43.8385 28.754C43.6538 28.7386 43.4807 28.6831 43.327 28.5597C43.1801 28.5759 43.0338 28.582 42.8881 28.5663C42.7546 28.552 42.6221 28.5197 42.4912 28.4611C42.5249 28.7162 42.7807 29.0062 43.1489 29.1997C44.1454 29.6675 44.6651 30.6317 44.0113 31.8943C44.2334 31.3554 44.245 30.6039 43.9315 30.1068C43.7071 29.7823 43.406 29.5498 43.0618 29.3691C42.5698 29.1832 42.25 28.7117 42.3057 28.3234C42.3192 28.0872 42.8226 27.4909 43.0061 27.0261C43.1941 26.5958 42.8773 25.8122 42.346 26.2662C41.897 26.7426 41.4926 27.2566 41.1198 27.7975C40.6186 28.2299 40.5773 28.7529 40.7687 29.3218C40.7742 29.3404 40.7798 29.3589 40.7856 29.3773C41.142 30.5386 41.7093 31.5929 42.3688 32.6C42.5358 32.7749 43.0056 32.9907 43.4732 33.0846C43.0371 33.0993 42.6124 32.963 42.3803 32.8353L42.9296 42.8553C42.436 43.3684 41.9211 43.8605 41.3863 44.3299C41.1174 43.0477 40.8848 41.9688 40.7216 41.2788C40.9083 40.9329 41.1538 40.6766 41.2819 40.241C41.476 39.5419 41.4421 38.8503 41.1849 38.222C40.9796 38.2423 40.8082 38.2218 40.6771 38.1449C40.5359 38.0621 40.446 37.921 40.4159 37.7046C40.2478 37.7052 40.0918 37.6732 39.949 37.6056C39.7964 37.5334 39.6603 37.4211 39.5421 37.2648C39.3607 37.2975 39.1819 37.3183 39.0105 37.3041C38.8259 37.2888 38.6527 37.2332 38.499 37.1098C38.3522 37.126 38.2057 37.1321 38.0602 37.1164C37.9266 37.1021 37.7941 37.0698 37.6633 37.0111C37.6969 37.2663 37.9527 37.5563 38.3209 37.7497C39.3174 38.2176 39.8372 39.1818 39.1833 40.4443C39.4054 39.9054 39.417 39.154 39.1035 38.6569C38.8791 38.3323 38.5779 38.0999 38.2338 37.9192C37.7417 37.7332 37.4219 37.2617 37.4777 36.8734C37.4912 36.6372 37.9946 36.0408 38.1781 35.5761C38.3661 35.1458 38.0492 34.3622 37.518 34.8162C37.069 35.2926 36.6645 35.8066 36.2917 36.3475C35.7905 36.7799 35.7493 37.3029 35.9406 37.8718C35.9462 37.8903 35.9518 37.9089 35.9574 37.9273C36.3138 39.0886 36.8812 40.143 37.5407 41.15C37.7077 41.325 38.1775 41.5407 38.6452 41.6346C38.2091 41.6493 37.7843 41.5131 37.5522 41.3853L37.8557 46.9209C37.5945 47.0795 37.3301 47.2331 37.0628 47.3822C36.2531 43.4583 35.2885 38.6657 34.8419 36.7782C35.0286 36.4323 35.2742 36.1761 35.4022 35.7404C35.5963 35.0413 35.5624 34.3496 35.3053 33.7214C35.0999 33.7416 34.9286 33.7212 34.7974 33.6442C34.6562 33.5615 34.5663 33.4204 34.5363 33.204C34.3682 33.2046 34.2121 33.1726 34.0693 33.105C33.9168 33.0328 33.7806 32.9205 33.6624 32.7643C33.4811 32.7969 33.3022 32.8179 33.1308 32.8036C32.9462 32.7882 32.773 32.7327 32.6193 32.6093C32.4724 32.6255 32.326 32.6315 32.1804 32.6159C32.0468 32.6015 31.9144 32.5693 31.7835 32.5106C31.8172 32.7657 32.073 33.0557 32.4412 33.2492C33.4377 33.717 33.9574 34.6812 33.3036 35.9438C33.5257 35.4049 33.5373 34.6534 33.2238 34.1563C32.9994 33.8318 32.6983 33.5993 32.3541 33.4186C31.8621 33.2327 31.5423 32.7612 31.598 32.3728C31.6115 32.1367 32.1148 31.5403 32.2984 31.0756C32.4864 30.6453 32.1695 29.8617 31.6383 30.3156C31.1893 30.792 30.7849 31.3061 30.4121 31.8469C29.9109 32.2793 29.8697 32.8024 30.061 33.3712C30.0665 33.3897 30.0721 33.4083 30.0778 33.4268C30.4342 34.5881 31.0015 35.6424 31.661 36.6495C31.8281 36.8244 32.2978 37.0402 32.7655 37.1341C32.3294 37.1488 31.9047 37.0125 31.6725 36.8848L32.3586 49.4004C31.6885 49.6087 31.0065 49.7892 30.3137 49.9408L28.9795 29.4152C28.4846 29.7719 27.5524 30.202 26.553 30.2905C27.5947 29.9451 28.6079 29.3211 28.9411 28.8749C30.17 26.3913 31.1755 23.8256 31.6704 21.0748C31.6783 21.031 31.686 20.9871 31.6935 20.9433C31.9741 19.591 31.7365 18.4086 30.4737 17.5621C29.4743 16.432 28.4099 15.3718 27.2541 14.4102C25.9169 13.5228 25.4086 15.4003 25.956 16.3299C26.5025 17.3393 27.8155 18.5596 27.911 19.0949C28.1449 19.9657 27.5442 21.1317 26.4721 21.694C25.7361 22.2029 25.1125 22.8179 24.6892 23.6217C24.1101 24.8442 24.3428 26.5565 24.9978 27.7243C23.1586 25.0254 24.0804 22.6788 26.2266 21.3317C27.014 20.7868 27.5184 20.0532 27.5251 19.4613C27.2425 19.6319 26.949 19.7427 26.6481 19.8129C26.3201 19.8893 25.9842 19.9166 25.6446 19.9207C25.3276 20.2455 24.9476 20.4208 24.5302 20.5076C24.1429 20.5881 23.7289 20.5905 23.3059 20.5669C23.079 20.9566 22.799 21.2511 22.4706 21.4587C22.1632 21.6531 21.8157 21.7696 21.4319 21.8154C21.4227 22.3177 21.2562 22.6651 20.9568 22.8936C20.6784 23.1059 20.293 23.2006 19.8187 23.212C19.404 24.7181 19.5167 26.3064 20.1517 27.848C20.5635 28.8065 21.1943 29.3227 21.7156 30.0601C21.3009 33.7288 20.6224 42.0383 19.9638 50C19.1756 49.837 18.4008 49.6367 17.6414 49.4006L18.3275 36.8849C18.0954 37.0128 17.6706 37.149 17.2346 37.1342C17.7022 37.0403 18.172 36.8247 18.339 36.6496C18.9985 35.6426 19.5657 34.5882 19.9222 33.4269C19.9279 33.4084 19.9335 33.3899 19.939 33.3714C20.1304 32.8025 20.0892 32.2795 19.5879 31.8471C19.2152 31.3062 18.8107 30.7922 18.3617 30.3158C17.8305 29.8618 17.5136 30.6454 17.7017 31.0758C17.8852 31.5404 18.3886 32.1368 18.402 32.373C18.4578 32.7612 18.138 33.2328 17.646 33.4188C17.3018 33.5995 17.0007 33.8318 16.7762 34.1565C16.4627 34.6536 16.4743 35.4051 16.6965 35.9439C16.0426 34.6813 16.5624 33.7171 17.5589 33.2493C17.9271 33.0559 18.1829 32.7659 18.2165 32.5107C18.0857 32.5694 17.9532 32.6017 17.8196 32.616C17.6741 32.6317 17.5277 32.6256 17.3808 32.6094C17.2271 32.7328 17.054 32.7884 16.8693 32.8037C16.6979 32.8179 16.519 32.797 16.3377 32.7644C16.2195 32.9207 16.0833 33.0329 15.9308 33.1051C15.788 33.1728 15.632 33.2047 15.4639 33.2041C15.4338 33.4205 15.3439 33.5616 15.2027 33.6444C15.0715 33.7214 14.9003 33.7418 14.6949 33.7215C14.4376 34.3498 14.4038 35.0414 14.5979 35.7405C14.726 36.1762 14.9715 36.4324 15.1583 36.7784C14.7118 38.6658 13.7471 43.4585 12.9374 47.3824C12.6701 47.2333 12.4057 47.0797 12.1446 46.9211L12.448 41.3855C12.2159 41.5132 11.7911 41.6495 11.3551 41.6348C11.8227 41.5409 12.2925 41.3252 12.4595 41.1502C13.119 40.1431 13.6863 39.0888 14.0427 37.9275C14.0484 37.909 14.054 37.8905 14.0595 37.872C14.2509 37.303 14.2097 36.78 13.7084 36.3476C13.3357 35.8068 12.9312 35.2927 12.4822 34.8163C11.9509 34.3624 11.6341 35.146 11.8221 35.5763C12.0056 36.041 12.509 36.6373 12.5225 36.8735C12.5783 37.2618 12.2585 37.7333 11.7664 37.9193C11.4222 38.1 11.1211 38.3324 10.8966 38.657C10.5832 39.1541 10.5947 39.9057 10.8169 40.4445C10.1631 39.1818 10.6828 38.2177 11.6793 37.7499C12.0475 37.5564 12.3034 37.2664 12.337 37.0113C12.2061 37.07 12.0737 37.1022 11.9401 37.1166C11.7945 37.1322 11.648 37.1262 11.5012 37.1099C11.3475 37.2333 11.1744 37.2889 10.9897 37.3043C10.8183 37.3185 10.6394 37.2976 10.4581 37.265C10.3399 37.4212 10.2038 37.5335 10.0512 37.6058C9.90845 37.6734 9.75237 37.7053 9.58428 37.7047C9.55424 37.9211 9.46432 38.0622 9.32316 38.145C9.19197 38.2219 9.02069 38.2423 8.81528 38.2222C8.55805 38.8504 8.52426 39.542 8.71836 40.2412C8.84638 40.6768 9.09187 40.933 9.2787 41.279C9.11541 41.969 8.88285 43.0478 8.61396 44.3301C8.07914 43.8606 7.56412 43.3686 7.07066 42.8554L7.61996 32.8354C7.38783 32.9632 6.96307 33.0995 6.527 33.0847C6.99467 32.9908 7.46445 32.7751 7.63148 32.6001C8.29099 31.5931 8.85825 30.5387 9.21473 29.3774C9.22038 29.3589 9.22604 29.3404 9.23155 29.3219C9.4229 28.7531 9.38162 28.23 8.88045 27.7976C8.50765 27.2568 8.10325 26.7427 7.65417 26.2664C7.12296 25.8124 6.80608 26.596 6.9941 27.0262C7.1776 27.4909 7.68104 28.0874 7.69447 28.3235C7.75024 28.7118 7.43045 29.1833 6.9384 29.3693C6.59423 29.55 6.2931 29.7824 6.0686 30.107C5.75517 30.6041 5.7667 31.3556 5.98887 31.8944C5.33501 30.6318 5.85484 29.6676 6.85124 29.1998C7.21945 29.0064 7.47527 28.7164 7.50891 28.4612C7.378 28.5199 7.24553 28.5522 7.11201 28.5665C6.96646 28.5821 6.82 28.576 6.67318 28.5598C6.51944 28.6832 6.34633 28.7388 6.16162 28.7541C5.99021 28.7684 5.81137 28.7475 5.63006 28.7149C5.51187 28.8711 5.37566 28.9834 5.22312 29.0556C5.08033 29.1232 4.92425 29.1551 4.75616 29.1545C4.72612 29.3709 4.6362 29.512 4.49504 29.5948C4.36385 29.6717 4.1925 29.6921 3.98716 29.672C3.72993 30.3002 3.69614 30.9918 3.89025 31.691C4.01826 32.1267 4.26375 32.3829 4.45051 32.7288C4.2036 33.7724 3.79828 35.7043 3.34829 37.8865C2.88812 37.0829 2.47008 36.2518 2.09805 35.3955L2.43784 29.1966C2.31846 29.2624 2.09989 29.3324 1.87553 29.3249C2.11615 29.2765 2.35783 29.1656 2.44371 29.0756C2.78301 28.5575 3.07487 28.015 3.25824 27.4175C3.26113 27.408 3.26403 27.3985 3.26693 27.389C3.3654 27.0963 3.34412 26.8272 3.08633 26.6047C2.89455 26.3265 2.68645 26.062 2.45545 25.8169C2.18217 25.5833 2.0191 25.9865 2.11587 26.2079C2.2103 26.447 2.4693 26.7537 2.47623 26.8753C2.50493 27.075 2.34037 27.3176 2.08724 27.4134C1.91017 27.5064 1.75522 27.6259 1.63972 27.7929C1.47848 28.0487 1.48442 28.4353 1.59865 28.7125C1.26225 28.0629 1.52966 27.5668 2.04235 27.3262C2.23179 27.2266 2.36341 27.0775 2.38073 26.9462C2.31337 26.9764 2.24522 26.993 2.17652 27.0004C2.10166 27.0085 2.02631 27.0053 1.95074 26.997C1.87164 27.0605 1.78258 27.089 1.68758 27.0969C1.59943 27.1043 1.5074 27.0935 1.41409 27.0767C1.3533 27.1571 1.28325 27.2148 1.20471 27.2521C1.13127 27.2868 1.05097 27.3033 0.96445 27.303C0.94897 27.4143 0.902741 27.4869 0.830146 27.5295C0.76264 27.5691 0.674493 27.5796 0.568887 27.5692C0.436561 27.8924 0.419173 28.2483 0.518982 28.608C0.584792 28.8321 0.71118 28.9639 0.807243 29.1419C0.735637 29.4446 0.638089 29.8926 0.525203 30.4269C0.181453 28.7579 0 27.0287 0 25.2566C0.000282747 11.3077 11.1931 0 25.0001 0ZM20.1835 26.2354C20.8541 25.5419 22.1457 24.8627 23.8117 25.6397C22.5455 25.3581 21.0867 25.6314 20.1835 26.2354ZM27.4137 19.0243C27.1391 19.2098 26.8507 19.3249 26.5533 19.3942C26.2729 19.4596 25.9837 19.4853 25.6903 19.4911C24.7098 18.4199 24.6755 15.4179 24.9873 14.2702C24.4718 15.8552 24.1029 17.8662 25.3122 19.6482C25.0657 19.8875 24.7702 20.0196 24.4454 20.0871C24.1006 20.1588 23.7175 20.1597 23.3216 20.1373C22.3049 19.0649 21.9281 16.7173 21.9834 15.6847C21.6444 17.3751 21.9557 18.9766 22.9562 20.3214C22.7623 20.6628 22.5243 20.9177 22.246 21.0937C21.9628 21.2728 21.635 21.3723 21.267 21.4002C20.2397 20.3636 19.9258 19.0041 19.807 17.5701C19.6093 19.3528 19.6605 20.1535 21.0066 21.7205C21.0157 22.1272 20.9073 22.3927 20.7005 22.5504C20.4869 22.7134 20.1608 22.7817 19.7443 22.7841C18.7651 22.5863 18.6096 21.8739 18.4626 20.8958C18.3792 20.1901 18.3108 19.6113 18.2274 18.9055C18.183 18.2617 18.9957 17.2222 19.6824 17.1472C19.6721 16.8734 19.692 16.6637 19.6816 16.3898C19.8132 15.8092 20.7003 15.3381 21.2464 15.113C21.4367 15.0496 21.6661 15.0842 21.9189 15.2275C21.9463 14.9885 21.9671 14.7727 22.1614 14.56C22.6109 14.1682 23.5284 13.7299 24.2295 13.5264C24.5644 13.485 24.7798 13.5191 25.0156 13.6357C25.5121 13.2183 26.7672 12.9036 27.6195 12.6798C28.0211 12.5818 28.3492 12.8146 28.6361 13.2328C29.2406 14.3199 29.7287 15.4216 30.129 16.5344C29.312 15.6622 28.4487 14.8351 27.5304 14.0711C27.5178 14.0606 27.5065 14.0522 27.4928 14.0431C27.0597 13.7557 26.5352 13.612 26.0561 13.8812C25.4916 14.1984 25.2833 14.9339 25.3061 15.5466C25.3189 15.8922 25.4038 16.2476 25.5783 16.5472C25.7895 16.9357 26.0691 17.3041 26.3437 17.6489C26.5056 17.8521 27.1895 18.6487 27.4137 19.0243ZM14.6954 35.0461C15.0209 34.7822 15.6137 34.5575 16.2927 34.9811C15.7607 34.7925 15.1166 34.8332 14.6954 35.0461ZM18.1911 32.3161C18.0629 32.3817 17.9325 32.416 17.8004 32.4302C17.6759 32.4436 17.5498 32.4394 17.4228 32.4263C17.0552 31.9119 17.1962 30.6141 17.3904 30.1352C17.0856 30.7922 16.822 31.6407 17.2515 32.4741C17.1326 32.5643 16.9982 32.6058 16.8545 32.6177C16.7019 32.6303 16.5365 32.6105 16.3667 32.5798C15.9835 32.063 15.9427 31.0295 16.0202 30.5867C15.7861 31.2985 15.8374 32.0064 16.1995 32.64C16.0981 32.7771 15.9821 32.8745 15.8528 32.9358C15.7213 32.998 15.5746 33.0237 15.4143 33.0162C15.0246 32.5143 14.9597 31.9108 14.9828 31.2854C14.8049 32.0445 14.7855 32.3929 15.2852 33.1407C15.268 33.3167 15.2074 33.4256 15.1099 33.4828C15.0093 33.5418 14.8649 33.554 14.685 33.533C14.2726 33.3957 14.2424 33.0799 14.2297 32.6499C14.2304 32.3408 14.2309 32.0873 14.2315 31.7782C14.2458 31.4979 14.6505 31.0922 14.951 31.0962C14.9607 30.9775 14.9802 30.888 14.9899 30.7692C15.0769 30.5256 15.4844 30.3692 15.7317 30.301C15.8172 30.2837 15.9143 30.3108 16.0161 30.3861C16.0402 30.2843 16.0605 30.1922 16.1553 30.1108C16.3697 29.9654 16.7886 29.8248 17.1018 29.7741C17.2485 29.774 17.3397 29.8001 17.4355 29.863C17.6715 29.7091 18.2296 29.6398 18.6092 29.5883C18.7876 29.5673 18.9172 29.6852 19.0193 29.8809C19.2239 30.3822 19.3774 30.8837 19.4924 31.3853C19.185 30.9655 18.8552 30.5627 18.4985 30.1842C18.4936 30.179 18.4892 30.1748 18.4837 30.1701C18.3117 30.0231 18.0927 29.9332 17.8719 30.0241C17.6117 30.1311 17.4837 30.4375 17.4617 30.7033C17.4493 30.8531 17.4675 31.0111 17.5272 31.1497C17.5982 31.3286 17.6998 31.5024 17.8004 31.6658C17.8599 31.762 18.1138 32.1422 18.1911 32.3161ZM8.81584 39.5466C9.14135 39.2827 9.73413 39.058 10.413 39.4817C9.88102 39.2931 9.23706 39.3337 8.81584 39.5466ZM12.3115 36.8167C12.1833 36.8822 12.0528 36.9166 11.9208 36.9308C11.7963 36.9441 11.6702 36.9399 11.5432 36.9268C11.1756 36.4125 11.3166 35.1147 11.5108 34.6357C11.206 35.2927 10.9424 36.1413 11.3719 36.9747C11.2531 37.065 11.1187 37.1063 10.9749 37.1182C10.8224 37.1309 10.6569 37.111 10.4872 37.0803C10.1039 36.5635 10.0631 35.5301 10.1407 35.0873C9.90647 35.799 9.95772 36.5069 10.3199 37.1405C10.2185 37.2776 10.1025 37.375 9.9732 37.4362C9.84165 37.4986 9.6949 37.5241 9.53465 37.5167C9.14496 37.0148 9.08007 36.4112 9.10325 35.7859C8.92533 36.545 8.90583 36.8933 9.40558 37.6412C9.3884 37.8172 9.32782 37.926 9.23035 37.9832C9.12969 38.0423 8.98535 38.0544 8.80545 38.0334C8.39299 37.8962 8.36281 37.5804 8.35016 37.1504C8.35079 36.8413 8.35129 36.5878 8.35192 36.2787C8.3662 35.9984 8.77103 35.5927 9.07137 35.5967C9.08113 35.478 9.10057 35.3885 9.11032 35.2697C9.19727 35.0261 9.6047 34.8697 9.85218 34.8014C9.93764 34.7841 10.0348 34.8112 10.1366 34.8865C10.1608 34.7847 10.181 34.6926 10.2759 34.6112C10.4903 34.4658 10.9092 34.3252 11.2224 34.2745C11.3691 34.2744 11.4603 34.3005 11.556 34.3634C11.792 34.2095 12.3502 34.1401 12.7298 34.0886C12.9083 34.0676 13.0378 34.1855 13.1399 34.3813C13.3444 34.8826 13.498 35.3841 13.613 35.8857C13.3055 35.4659 12.9758 35.0631 12.6191 34.6846C12.6141 34.6794 12.6097 34.6752 12.6043 34.6705C12.4323 34.5235 12.2133 34.4336 11.9925 34.5245C11.7324 34.6315 11.6042 34.9379 11.5822 35.2037C11.5698 35.3535 11.588 35.5115 11.6478 35.65C11.7188 35.8289 11.8203 36.0028 11.921 36.1662C11.9803 36.2626 12.2342 36.6426 12.3115 36.8167ZM3.98779 30.9965C4.31324 30.7326 4.90609 30.5079 5.58496 30.9316C5.05304 30.743 4.40909 30.7836 3.98779 30.9965ZM7.48347 28.2665C7.35531 28.3321 7.22482 28.3664 7.09278 28.3807C6.9683 28.394 6.84213 28.3898 6.71517 28.3767C6.34753 27.8623 6.48855 26.5646 6.68273 26.0856C6.37793 26.7425 6.11426 27.5911 6.54376 28.4246C6.42493 28.5148 6.29056 28.5562 6.14678 28.5681C5.99424 28.5808 5.82876 28.5609 5.65904 28.5302C5.27578 28.0134 5.23499 26.98 5.31253 26.5371C5.07835 27.2489 5.12967 27.9568 5.4918 28.5904C5.39036 28.7276 5.27436 28.8249 5.14508 28.8862C5.01353 28.9485 4.86678 28.974 4.70654 28.9667C4.31684 28.4648 4.25195 27.8612 4.27506 27.2358C4.09715 27.995 4.07764 28.3433 4.57739 29.0911C4.56022 29.2672 4.49964 29.376 4.40216 29.4332C4.3015 29.4923 4.15716 29.5045 3.97726 29.4834C3.5648 29.3461 3.53462 29.0304 3.52197 28.6003C3.5226 28.2912 3.5231 28.0377 3.52374 27.7287C3.53801 27.4484 3.94277 27.0427 4.24319 27.0467C4.25287 26.928 4.27245 26.8385 4.28213 26.7197C4.36908 26.476 4.77652 26.3197 5.02392 26.2514C5.10938 26.2341 5.20657 26.2613 5.30829 26.3365C5.33247 26.2348 5.35268 26.1427 5.44762 26.0612C5.66201 25.9159 6.0809 25.7752 6.39411 25.7245C6.54086 25.7244 6.63204 25.7505 6.72783 25.8134C6.96385 25.6595 7.52199 25.5902 7.90158 25.5387C8.08006 25.5177 8.20956 25.6356 8.3117 25.8313C8.5162 26.3326 8.6698 26.8341 8.78481 27.3357C8.47732 26.9159 8.14764 26.5131 7.79088 26.1347C7.78601 26.1295 7.78155 26.1252 7.77611 26.1206C7.60406 25.9736 7.38507 25.8837 7.16432 25.9746C6.90412 26.0816 6.77603 26.388 6.75405 26.6538C6.74168 26.8036 6.75985 26.9616 6.81958 27.1002C6.89062 27.279 6.99212 27.4529 7.09278 27.6163C7.1523 27.7125 7.40614 28.0925 7.48347 28.2665ZM0.569382 28.2505C0.736839 28.1148 1.04185 27.9992 1.39112 28.2172C1.11742 28.1201 0.786108 28.1411 0.569382 28.2505ZM2.36787 26.8461C2.30191 26.8798 2.23476 26.8975 2.1669 26.9048C2.10286 26.9116 2.03797 26.9095 1.97266 26.9028C1.7835 26.6381 1.85609 25.9704 1.95597 25.724C1.79919 26.062 1.66354 26.4986 1.88451 26.9274C1.82337 26.9738 1.75423 26.9951 1.6803 27.0013C1.60176 27.0078 1.51666 26.9975 1.42936 26.9818C1.23221 26.7159 1.21122 26.1842 1.25109 25.9564C1.13063 26.3226 1.157 26.6868 1.34333 27.0127C1.29116 27.0832 1.23143 27.1334 1.16499 27.1649C1.09727 27.1969 1.02185 27.2101 0.939357 27.2062C0.738889 26.948 0.705454 26.6375 0.7174 26.3157C0.625861 26.7063 0.615823 26.8855 0.872982 27.2703C0.864146 27.3608 0.832973 27.4169 0.782856 27.4463C0.731043 27.4766 0.656822 27.4829 0.564222 27.4721C0.35202 27.4015 0.336469 27.239 0.329966 27.0178C0.330319 26.8587 0.330531 26.7283 0.330885 26.5693C0.338236 26.4251 0.54648 26.2164 0.701072 26.2184C0.70609 26.1573 0.716128 26.1113 0.721076 26.0502C0.76582 25.9248 0.975407 25.8444 1.10271 25.8092C1.14668 25.8004 1.19673 25.8143 1.24904 25.853C1.26148 25.8007 1.27187 25.7533 1.32071 25.7114C1.43105 25.6366 1.64651 25.5643 1.80767 25.5382C1.88317 25.5382 1.9301 25.5516 1.9793 25.5839C2.10074 25.5047 2.38787 25.4691 2.58318 25.4426C2.675 25.4318 2.74166 25.4925 2.79418 25.5931C2.89943 25.8511 2.97839 26.1091 3.03755 26.3672C2.87935 26.1512 2.70971 25.9439 2.5262 25.7493C2.52366 25.7465 2.5214 25.7444 2.51857 25.742C2.43007 25.6663 2.31739 25.6201 2.2038 25.6668C2.06992 25.7219 2.00404 25.8796 1.99273 26.0163C1.98637 26.0934 1.9957 26.1747 2.02645 26.246C2.06299 26.3381 2.11523 26.4275 2.16704 26.5116C2.19744 26.5609 2.32807 26.7565 2.36787 26.8461ZM10.1308 34.4345C10.2532 33.8536 10.3589 33.3662 10.4352 33.0439C10.3391 32.8658 10.2128 32.734 10.1469 32.5099C10.0471 32.1502 10.0645 31.7944 10.1968 31.4712C10.3025 31.4816 10.3907 31.471 10.4581 31.4315C10.5307 31.3889 10.577 31.3163 10.5924 31.2049C10.6789 31.2052 10.7592 31.1888 10.8327 31.154C10.9111 31.1169 10.9812 31.0591 11.0421 30.9787C11.1354 30.9955 11.2274 31.0063 11.3155 30.9989C11.4105 30.9911 11.4996 30.9624 11.5787 30.8989C11.6543 30.9073 11.7296 30.9104 11.8045 30.9023C11.8732 30.8949 11.9413 30.8783 12.0087 30.8482C11.9914 30.9795 11.8598 31.1286 11.6703 31.2281C11.1577 31.4689 10.8902 31.9649 11.2266 32.6145C11.1123 32.3372 11.1064 31.9506 11.2677 31.6948C11.3832 31.5278 11.5381 31.4082 11.7152 31.3153C11.9684 31.2196 12.1329 30.977 12.1042 30.7772C12.0973 30.6557 11.8383 30.3488 11.7438 30.1098C11.6471 29.8884 11.8101 29.4853 12.0834 29.7188C12.3144 29.9639 12.5225 30.2284 12.7143 30.5066C12.9722 30.729 12.9934 30.9981 12.8949 31.2908C12.892 31.3003 12.8892 31.3098 12.8862 31.3193C12.7028 31.9168 12.411 32.4593 12.0717 32.9774C11.9857 33.0674 11.744 33.1784 11.5034 33.2267C11.7278 33.2343 11.9463 33.1642 12.0657 33.0984L12.0182 33.9659C11.85 34.0009 11.6872 34.0454 11.5561 34.1042C11.4522 34.0604 11.3455 34.0447 11.2221 34.0449C11.2095 34.0449 11.1988 34.0457 11.1864 34.0478C10.8688 34.0992 10.4168 34.2392 10.1493 34.4204C10.1426 34.4251 10.1369 34.4294 10.1308 34.4345ZM10.1971 32.1526C10.3645 32.0168 10.6695 31.9012 11.0188 32.1192C10.7451 32.0222 10.4138 32.0431 10.1971 32.1526ZM11.9955 30.7481C11.9296 30.7818 11.8624 30.7995 11.7946 30.8068C11.7305 30.8137 11.6656 30.8115 11.6003 30.8048C11.4111 30.5402 11.4837 29.8725 11.5836 29.6261C11.4268 29.9641 11.2912 30.4007 11.5121 30.8295C11.451 30.8759 11.3818 30.8972 11.3079 30.9033C11.2294 30.9098 11.1443 30.8996 11.057 30.8838C10.8598 30.6179 10.8388 30.0862 10.8787 29.8584C10.7582 30.2246 10.7846 30.5888 10.9709 30.9147C10.9188 30.9853 10.859 31.0354 10.7926 31.0669C10.7249 31.099 10.6495 31.1121 10.567 31.1083C10.3665 30.8501 10.3331 30.5396 10.345 30.2178C10.2535 30.6084 10.2434 30.7876 10.5006 31.1724C10.4918 31.2629 10.4606 31.3189 10.4105 31.3483C10.3587 31.3787 10.2844 31.385 10.1918 31.3741C9.97963 31.3035 9.96408 31.141 9.95757 30.9198C9.95793 30.7608 9.95814 30.6304 9.95849 30.4713C9.96584 30.3271 10.1741 30.1184 10.3287 30.1205C10.3337 30.0593 10.3437 30.0134 10.3487 29.9522C10.3934 29.8269 10.6031 29.7464 10.7303 29.7113C10.7743 29.7024 10.8243 29.7163 10.8766 29.7551C10.8891 29.7027 10.8995 29.6554 10.9483 29.6134C11.0587 29.5387 11.2741 29.4663 11.4353 29.4403C11.5108 29.4402 11.5577 29.4536 11.6069 29.486C11.7283 29.4068 12.0155 29.3711 12.2108 29.3446C12.3026 29.3339 12.3693 29.3945 12.4218 29.4952C12.527 29.7531 12.606 30.0111 12.6652 30.2692C12.507 30.0532 12.3373 29.846 12.1538 29.6513C12.1513 29.6486 12.149 29.6464 12.1462 29.644C12.0577 29.5684 11.945 29.5222 11.8314 29.5689C11.6975 29.6239 11.6316 29.7816 11.6203 29.9184C11.614 29.9954 11.6233 30.0768 11.6541 30.148C11.6906 30.2401 11.7428 30.3296 11.7947 30.4136C11.8251 30.463 11.9557 30.6586 11.9955 30.7481ZM5.72301 25.671C5.81137 25.2597 5.88849 24.9112 5.94949 24.6536C5.83731 24.4458 5.68986 24.2919 5.61295 24.0302C5.49639 23.6103 5.51668 23.1949 5.67113 22.8176C5.79448 22.8297 5.8974 22.8174 5.97614 22.7712C6.06089 22.7214 6.1149 22.6368 6.13293 22.5068C6.23387 22.5071 6.3276 22.4879 6.41341 22.4474C6.50502 22.4039 6.58681 22.3365 6.65777 22.2427C6.7667 22.2623 6.87415 22.2748 6.97707 22.2663C7.08797 22.2571 7.19203 22.2237 7.28434 22.1497C7.37256 22.1594 7.46049 22.163 7.54786 22.1536C7.62809 22.145 7.70768 22.1256 7.78629 22.0904C7.76607 22.2436 7.6124 22.4178 7.39122 22.534C6.79272 22.815 6.48056 23.3941 6.87323 24.1525C6.73977 23.8288 6.73284 23.3774 6.92115 23.0789C7.05595 22.8839 7.23684 22.7443 7.4436 22.6358C7.73914 22.5241 7.9312 22.2409 7.89769 22.0077C7.88963 21.8659 7.58723 21.5077 7.47703 21.2285C7.36408 20.9701 7.55444 20.4994 7.87345 20.772C8.14312 21.0582 8.38607 21.3669 8.61 21.6918C8.91106 21.9515 8.9358 22.2657 8.82086 22.6073C8.81754 22.6185 8.81414 22.6295 8.81075 22.6407C8.59664 23.3382 8.25593 23.9714 7.8598 24.5763C7.7595 24.6814 7.47732 24.811 7.19641 24.8674C7.4583 24.8762 7.71348 24.7944 7.85288 24.7176L7.81994 25.3178C7.50368 25.3584 7.031 25.4185 6.7279 25.5544C6.62406 25.5106 6.51739 25.4949 6.3939 25.495C6.38132 25.495 6.37057 25.4958 6.35813 25.4979C6.17145 25.5281 5.93797 25.589 5.72301 25.671ZM5.67141 23.6132C5.86693 23.4547 6.22298 23.3197 6.6307 23.5742C6.31127 23.4609 5.92447 23.4853 5.67141 23.6132ZM7.77102 21.9735C7.69404 22.0128 7.61565 22.0335 7.53634 22.042C7.46162 22.05 7.38585 22.0475 7.30958 22.0397C7.08875 21.7307 7.17343 20.9512 7.29007 20.6636C7.10699 21.0582 6.94865 21.5679 7.20659 22.0685C7.13519 22.1227 7.05447 22.1475 6.96816 22.1546C6.87655 22.1622 6.77716 22.1504 6.67523 22.1319C6.44508 21.8214 6.42055 21.2007 6.46713 20.9348C6.32647 21.3623 6.35729 21.7875 6.57479 22.168C6.51386 22.2504 6.44416 22.3089 6.36655 22.3457C6.28752 22.3831 6.19944 22.3985 6.10317 22.394C5.86912 22.0925 5.8301 21.73 5.84403 21.3544C5.73715 21.8104 5.72549 22.0196 6.02562 22.4687C6.0153 22.5744 5.9789 22.6398 5.92037 22.6742C5.85993 22.7097 5.7732 22.7169 5.66512 22.7043C5.41736 22.6218 5.39927 22.4322 5.39163 22.1739C5.39199 21.9883 5.39234 21.8359 5.39269 21.6503C5.40132 21.4819 5.64441 21.2383 5.8248 21.2407C5.83067 21.1694 5.8424 21.1157 5.8482 21.0443C5.90044 20.8979 6.14515 20.804 6.29374 20.763C6.34506 20.7526 6.40344 20.7689 6.46459 20.8141C6.47915 20.753 6.49131 20.6977 6.54828 20.6487C6.67707 20.5614 6.92865 20.477 7.11674 20.4465C7.20489 20.4465 7.25967 20.4622 7.31714 20.4999C7.45887 20.4075 7.79413 20.3658 8.0221 20.3349C8.12926 20.3222 8.20709 20.3931 8.26844 20.5106C8.3913 20.8117 8.48354 21.1129 8.5526 21.4142C8.3679 21.162 8.16991 20.9201 7.95558 20.6928C7.95261 20.6896 7.94993 20.6871 7.94668 20.6843C7.84333 20.596 7.71186 20.542 7.57925 20.5966C7.42296 20.6609 7.34598 20.845 7.33283 21.0046C7.32541 21.0946 7.3363 21.1895 7.37221 21.2727C7.4149 21.3802 7.47583 21.4846 7.53634 21.5827C7.57211 21.6406 7.72465 21.8689 7.77102 21.9735ZM14.424 31.0358C14.5877 30.2637 14.7293 29.6162 14.8351 29.169C14.683 28.8872 14.4829 28.6784 14.3787 28.3236C14.2206 27.7542 14.2481 27.1908 14.4576 26.679C14.6249 26.6955 14.7645 26.6788 14.8713 26.6162C14.9862 26.5488 15.0595 26.4338 15.0839 26.2576C15.2208 26.258 15.3479 26.232 15.4643 26.1769C15.5886 26.1181 15.6995 26.0267 15.7957 25.8994C15.9435 25.926 16.0892 25.943 16.2288 25.9314C16.3792 25.9189 16.5202 25.8737 16.6455 25.7732C16.7651 25.7864 16.8843 25.7913 17.0029 25.7786C17.1116 25.7669 17.2196 25.7406 17.3262 25.6928C17.2987 25.9007 17.0904 26.1369 16.7904 26.2945C15.9788 26.6755 15.5554 27.4609 16.088 28.4893C15.9071 28.0504 15.8977 27.4383 16.153 27.0333C16.3358 26.769 16.5811 26.5796 16.8614 26.4325C17.2622 26.281 17.5227 25.8969 17.4773 25.5806C17.4663 25.3882 17.0563 24.9024 16.9068 24.5239C16.7536 24.1734 17.0118 23.5351 17.4444 23.9049C17.8102 24.2929 18.1396 24.7116 18.4433 25.1522C18.8515 25.5044 18.8851 25.9304 18.7292 26.3938C18.7247 26.4088 18.7201 26.424 18.7155 26.439C18.4252 27.385 17.9631 28.2438 17.4259 29.0641C17.2899 29.2065 16.9072 29.3823 16.5263 29.4588C16.8815 29.4708 17.2274 29.3598 17.4165 29.2557L17.4002 29.5536C17.3072 29.522 17.2105 29.5099 17.1016 29.51C17.0871 29.51 17.0748 29.511 17.0605 29.5134C16.7378 29.5656 16.2816 29.7073 16.0098 29.8914C16.0012 29.8972 15.9941 29.9027 15.9861 29.9095C15.9375 29.9513 15.9004 29.9939 15.8709 30.0391C15.809 30.0288 15.7451 30.0289 15.6803 30.0421C15.6742 30.0433 15.6689 30.0446 15.6628 30.0462C15.3312 30.1377 14.8695 30.3284 14.7441 30.6796C14.7359 30.7025 14.7315 30.723 14.7294 30.7473C14.7259 30.7902 14.7206 30.8327 14.7148 30.8753C14.6152 30.9109 14.516 30.9664 14.424 31.0358ZM14.4581 27.7579C14.7232 27.543 15.2061 27.36 15.759 27.7051C15.3257 27.5514 14.8012 27.5846 14.4581 27.7579ZM17.3055 25.5343C17.2011 25.5877 17.0947 25.6157 16.9872 25.6273C16.8859 25.6381 16.7831 25.6347 16.6797 25.6241C16.3802 25.2052 16.4951 24.1481 16.6533 23.7579C16.4051 24.293 16.1902 24.9842 16.5401 25.6631C16.4433 25.7365 16.3339 25.7703 16.2167 25.78C16.0925 25.7903 15.9577 25.7741 15.8194 25.749C15.5073 25.3281 15.474 24.4863 15.5372 24.1256C15.3465 24.7054 15.3882 25.282 15.6831 25.7981C15.6005 25.9098 15.506 25.9891 15.4007 26.039C15.2936 26.0897 15.174 26.1106 15.0436 26.1046C14.7261 25.6958 14.6733 25.2042 14.6921 24.6948C14.5472 25.3131 14.5314 25.5969 14.9384 26.206C14.9244 26.3494 14.875 26.4381 14.7957 26.4847C14.7137 26.5327 14.5961 26.5426 14.4495 26.5255C14.1135 26.4137 14.089 26.1565 14.0787 25.8062C14.0792 25.5544 14.0796 25.3479 14.0802 25.0962C14.0918 24.8679 14.4215 24.5375 14.6662 24.5407C14.6741 24.444 14.69 24.3711 14.6979 24.2744C14.7687 24.0759 15.1006 23.9485 15.3021 23.893C15.3717 23.8789 15.4509 23.901 15.5338 23.9622C15.5535 23.8794 15.57 23.8044 15.6472 23.738C15.8219 23.6196 16.163 23.5051 16.4182 23.4639C16.5377 23.4638 16.612 23.4851 16.69 23.5362C16.8823 23.4109 17.3369 23.3544 17.6461 23.3125C17.7914 23.2953 17.897 23.3914 17.9802 23.5508C18.1468 23.9591 18.2718 24.3676 18.3656 24.7762C18.1151 24.4342 17.8465 24.1061 17.5559 23.7978C17.5519 23.7936 17.5483 23.7901 17.5438 23.7863C17.4037 23.6666 17.2254 23.5934 17.0455 23.6674C16.8336 23.7546 16.7292 24.0042 16.7113 24.2206C16.7012 24.3426 16.716 24.4713 16.7647 24.5842C16.8225 24.73 16.9052 24.8716 16.9872 25.0046C17.0357 25.083 17.2425 25.3926 17.3055 25.5343ZM35.3049 35.0461C34.9793 34.7822 34.3866 34.5575 33.7077 34.9811C34.2396 34.7925 34.8836 34.8332 35.3049 35.0461ZM31.8092 32.3161C31.9373 32.3817 32.0679 32.416 32.1998 32.4302C32.3243 32.4436 32.4505 32.4394 32.5774 32.4263C32.945 31.9119 32.804 30.6141 32.6098 30.1352C32.9146 30.7922 33.1782 31.6408 32.7488 32.4741C32.8676 32.5644 33.002 32.6058 33.1457 32.6177C33.2983 32.6304 33.4637 32.6105 33.6335 32.5798C34.0167 32.063 34.0575 31.0295 33.98 30.5867C34.2142 31.2985 34.1629 32.0064 33.8007 32.64C33.9021 32.7771 34.0182 32.8745 34.1474 32.9357C34.279 32.998 34.4257 33.0236 34.586 33.0162C34.9757 32.5143 35.0406 31.9107 35.0174 31.2853C35.1953 32.0445 35.2148 32.3928 34.715 33.1406C34.7322 33.3167 34.7928 33.4255 34.8903 33.4827C34.9909 33.5418 35.1353 33.554 35.3152 33.5329C35.7276 33.3956 35.7578 33.0799 35.7705 32.6498C35.7698 32.3408 35.7693 32.0872 35.7687 31.7782C35.7544 31.4979 35.3496 31.0922 35.0493 31.0962C35.0396 30.9774 35.02 30.8879 35.0103 30.7692C34.9234 30.5255 34.5159 30.3691 34.2684 30.3009C34.183 30.2836 34.0858 30.3107 33.9841 30.3859C33.9598 30.2841 33.9396 30.1921 33.8447 30.1106C33.6304 29.9653 33.2115 29.8247 32.8983 29.774C32.7515 29.7738 32.6603 29.8 32.5645 29.8628C32.3285 29.7089 31.7704 29.6396 31.3908 29.5881C31.2123 29.5671 31.0828 29.685 30.9807 29.8807C30.7761 30.382 30.6226 30.8834 30.5076 31.3851C30.815 30.9653 31.1448 30.5625 31.5015 30.184C31.5064 30.1788 31.5108 30.1746 31.5163 30.1699C31.6883 30.0229 31.9072 29.933 32.1281 30.0238C32.3883 30.1309 32.5163 30.4373 32.5383 30.703C32.5507 30.8529 32.5325 31.0108 32.4727 31.1495C32.4017 31.3284 32.3002 31.5022 32.1995 31.6656C32.1404 31.762 31.8864 32.1422 31.8092 32.3161ZM41.1844 39.5466C40.859 39.2827 40.2662 39.058 39.5873 39.4817C40.1192 39.2931 40.7631 39.3337 41.1844 39.5466ZM37.6888 36.8167C37.8169 36.8822 37.9475 36.9166 38.0795 36.9308C38.2039 36.9441 38.33 36.9399 38.4571 36.9268C38.8247 36.4125 38.6837 35.1147 38.4894 34.6357C38.7942 35.2927 39.0579 36.1413 38.6284 36.9747C38.7472 37.065 38.8817 37.1063 39.0254 37.1182C39.1779 37.1309 39.3434 37.111 39.5131 37.0803C39.8964 36.5635 39.9372 35.5301 39.8596 35.0873C40.0938 35.799 40.0425 36.5069 39.6804 37.1405C39.7819 37.2776 39.8979 37.375 40.0272 37.4362C40.1587 37.4986 40.3055 37.5241 40.4657 37.5167C40.8554 37.0148 40.9203 36.4112 40.8972 35.7859C41.0751 36.545 41.0945 36.8933 40.5948 37.6412C40.6119 37.8172 40.6725 37.926 40.77 37.9832C40.8707 38.0423 41.015 38.0544 41.1949 38.0334C41.6074 37.8962 41.6375 37.5804 41.6502 37.1504C41.6496 36.8413 41.6491 36.5878 41.6484 36.2787C41.6342 35.9984 41.2294 35.5927 40.929 35.5967C40.9192 35.478 40.8997 35.3885 40.89 35.2697C40.803 35.0261 40.3956 34.8697 40.1482 34.8014C40.0628 34.7841 39.9655 34.8112 39.8638 34.8865C39.8396 34.7847 39.8194 34.6926 39.7245 34.6112C39.5101 34.4658 39.0912 34.3252 38.778 34.2745C38.6313 34.2744 38.5401 34.3005 38.4443 34.3634C38.2083 34.2095 37.6502 34.1401 37.2706 34.0886C37.0922 34.0676 36.9626 34.1855 36.8605 34.3813C36.656 34.8826 36.5024 35.3841 36.3874 35.8857C36.6948 35.4659 37.0245 35.0631 37.3813 34.6846C37.3862 34.6794 37.3907 34.6752 37.3961 34.6705C37.5681 34.5235 37.7871 34.4336 38.0079 34.5245C38.268 34.6315 38.3962 34.9379 38.4182 35.2037C38.4306 35.3535 38.4124 35.5115 38.3527 35.65C38.2816 35.8289 38.18 36.0028 38.0795 36.1662C38.0199 36.2626 37.7661 36.6426 37.6888 36.8167ZM46.0125 30.9965C45.687 30.7326 45.0942 30.5079 44.4153 30.9316C44.9472 30.743 45.5912 30.7836 46.0125 30.9965ZM42.5168 28.2665C42.645 28.3321 42.7755 28.3664 42.9075 28.3807C43.032 28.394 43.1582 28.3898 43.2851 28.3767C43.6528 27.8623 43.5117 26.5646 43.3175 26.0856C43.6223 26.7425 43.886 27.5911 43.4565 28.4246C43.5753 28.5148 43.7097 28.5562 43.8534 28.5681C44.006 28.5808 44.1715 28.5609 44.3412 28.5302C44.7244 28.0134 44.7652 26.98 44.6877 26.5371C44.9219 27.2489 44.8705 27.9568 44.5084 28.5904C44.6099 28.7276 44.7258 28.8249 44.8551 28.8862C44.9867 28.9485 45.1334 28.974 45.2937 28.9667C45.6834 28.4648 45.7483 27.8612 45.7251 27.2358C45.9031 27.995 45.9225 28.3433 45.4228 29.0911C45.44 29.2672 45.5006 29.376 45.5981 29.4332C45.6987 29.4923 45.8431 29.5045 46.023 29.4834C46.4354 29.3461 46.4656 29.0304 46.4782 28.6003C46.4776 28.2912 46.4771 28.0377 46.4765 27.7287C46.4622 27.4484 46.0574 27.0427 45.757 27.0467C45.7473 26.928 45.7278 26.8385 45.7181 26.7197C45.6311 26.476 45.2237 26.3197 44.9763 26.2514C44.8908 26.2341 44.7936 26.2613 44.6919 26.3365C44.6677 26.2348 44.6475 26.1427 44.5526 26.0612C44.3382 25.9159 43.9193 25.7752 43.6061 25.7245C43.4594 25.7244 43.3682 25.7505 43.2725 25.8134C43.0364 25.6595 42.4783 25.5902 42.0987 25.5387C41.9202 25.5177 41.7907 25.6356 41.6886 25.8313C41.4841 26.3326 41.3306 26.8341 41.2155 27.3357C41.523 26.9159 41.8527 26.5131 42.2094 26.1347C42.2143 26.1295 42.2187 26.1252 42.2242 26.1206C42.3962 25.9736 42.6152 25.8837 42.836 25.9746C43.0962 26.0816 43.2243 26.388 43.2463 26.6538C43.2587 26.8036 43.2405 26.9616 43.1807 27.1002C43.1097 27.279 43.0082 27.4529 42.9075 27.6163C42.848 27.7125 42.5941 28.0925 42.5168 28.2665ZM49.4309 28.2505C49.2634 28.1148 48.9584 27.9992 48.6092 28.2172C48.8829 28.1201 49.2142 28.1411 49.4309 28.2505ZM47.6324 26.8461C47.6984 26.8798 47.7655 26.8975 47.8334 26.9048C47.8974 26.9116 47.9623 26.9095 48.0276 26.9028C48.2168 26.6381 48.1442 25.9704 48.0443 25.724C48.2012 26.062 48.3368 26.4987 48.1158 26.9274C48.177 26.9738 48.2461 26.9951 48.3201 27.0013C48.3986 27.0078 48.4837 26.9975 48.571 26.9818C48.7681 26.7159 48.7891 26.1842 48.7493 25.9564C48.8697 26.3226 48.8434 26.6868 48.657 27.0127C48.7092 27.0832 48.7689 27.1334 48.8354 27.1649C48.9032 27.1969 48.9786 27.2101 49.061 27.2062C49.2615 26.948 49.2949 26.6375 49.283 26.3157C49.3746 26.7063 49.3846 26.8855 49.1274 27.2703C49.1363 27.3608 49.1675 27.4169 49.2176 27.4462C49.2694 27.4766 49.3436 27.4829 49.4362 27.4721C49.6484 27.4015 49.664 27.239 49.6705 27.0178C49.6701 26.8587 49.6698 26.7283 49.6695 26.5693C49.6622 26.4251 49.4539 26.2164 49.2994 26.2184C49.2943 26.1573 49.2843 26.1113 49.2794 26.0502C49.2346 25.9248 49.0249 25.8444 48.8977 25.8092C48.8537 25.8004 48.8038 25.8143 48.7514 25.853C48.7389 25.8007 48.7286 25.7533 48.6797 25.7114C48.5694 25.6366 48.3539 25.5643 48.1928 25.5382C48.1173 25.5382 48.0703 25.5516 48.0211 25.5839C47.8996 25.5047 47.6125 25.4691 47.4172 25.4426C47.3254 25.4318 47.2587 25.4925 47.2062 25.5931C47.1009 25.8511 47.022 26.109 46.9628 26.3672C47.121 26.1512 47.2906 25.9439 47.4742 25.7493C47.4767 25.7465 47.479 25.7444 47.4818 25.742C47.5703 25.6663 47.683 25.6201 47.7966 25.6668C47.9304 25.7219 47.9963 25.8796 48.0076 26.0163C48.014 26.0934 48.0047 26.1747 47.9739 26.246C47.9374 26.3381 47.8851 26.4275 47.8333 26.5116C47.8028 26.5609 47.6722 26.7565 47.6324 26.8461ZM39.8695 34.4345C39.7471 33.8536 39.6414 33.3662 39.5651 33.0439C39.6611 32.8658 39.7875 32.734 39.8533 32.5099C39.9531 32.1502 39.9358 31.7944 39.8034 31.4712C39.6978 31.4816 39.6096 31.471 39.5421 31.4315C39.4695 31.3889 39.4232 31.3163 39.4078 31.2049C39.3214 31.2052 39.2411 31.1888 39.1675 31.154C39.0891 31.1169 39.019 31.0591 38.9582 30.9787C38.8649 30.9955 38.7729 31.0063 38.6847 30.9989C38.5897 30.9911 38.5007 30.9624 38.4215 30.8989C38.3459 30.9073 38.2707 30.9104 38.1957 30.9023C38.127 30.8949 38.0589 30.8783 37.9915 30.8482C38.0088 30.9795 38.1405 31.1286 38.3299 31.2281C38.8425 31.4689 39.11 31.9649 38.7735 32.6145C38.8878 32.3372 38.8938 31.9506 38.7325 31.6948C38.617 31.5278 38.4621 31.4082 38.2849 31.3153C38.0318 31.2196 37.8673 30.977 37.896 30.7772C37.9029 30.6557 38.1619 30.3488 38.2563 30.1098C38.353 29.8884 38.19 29.4853 37.9167 29.7188C37.6857 29.9639 37.4776 30.2284 37.2859 30.5066C37.028 30.729 37.0068 30.9981 37.1053 31.2908C37.1081 31.3003 37.111 31.3098 37.1139 31.3193C37.2972 31.9168 37.5891 32.4593 37.9284 32.9774C38.0144 33.0674 38.256 33.1784 38.4967 33.2267C38.2723 33.2343 38.0537 33.1642 37.9343 33.0984L37.9819 33.9659C38.1501 34.0009 38.3129 34.0454 38.444 34.1042C38.5478 34.0604 38.6546 34.0447 38.778 34.0449C38.7906 34.0449 38.8013 34.0457 38.8137 34.0478C39.1313 34.0992 39.5833 34.2392 39.8508 34.4204C39.8577 34.4251 39.8634 34.4294 39.8695 34.4345ZM39.8032 32.1526C39.6358 32.0168 39.3308 31.9012 38.9815 32.1192C39.2552 32.0222 39.5865 32.0431 39.8032 32.1526ZM38.0047 30.7481C38.0707 30.7818 38.1378 30.7995 38.2058 30.8068C38.2698 30.8137 38.3347 30.8115 38.4 30.8048C38.5892 30.5402 38.5166 29.8725 38.4167 29.6261C38.5736 29.9641 38.7092 30.4007 38.4882 30.8295C38.5493 30.8759 38.6184 30.8972 38.6925 30.9033C38.7709 30.9098 38.8561 30.8996 38.9434 30.8838C39.1405 30.6179 39.1615 30.0862 39.1217 29.8584C39.2421 30.2246 39.2157 30.5888 39.0295 30.9147C39.0817 30.9853 39.1414 31.0354 39.2079 31.0669C39.2755 31.099 39.351 31.1121 39.4335 31.1083C39.634 30.8501 39.6674 30.5396 39.6555 30.2178C39.747 30.6084 39.757 30.7876 39.4999 31.1724C39.5087 31.2629 39.5399 31.3189 39.59 31.3483C39.6418 31.3787 39.7161 31.385 39.8087 31.3741C40.0209 31.3035 40.0363 31.141 40.0429 30.9198C40.0426 30.7608 40.0423 30.6304 40.042 30.4713C40.0347 30.3271 39.8264 30.1184 39.6719 30.1205C39.6669 30.0593 39.6568 30.0134 39.6518 29.9522C39.6071 29.8269 39.3975 29.7464 39.2702 29.7113C39.2262 29.7024 39.1762 29.7163 39.1239 29.7551C39.1114 29.7027 39.101 29.6554 39.0522 29.6134C38.9419 29.5387 38.7264 29.4663 38.5652 29.4403C38.4897 29.4402 38.4428 29.4536 38.3935 29.486C38.2721 29.4068 37.9849 29.3711 37.7896 29.3446C37.6978 29.3339 37.6312 29.3945 37.5786 29.4952C37.4734 29.7531 37.3944 30.0111 37.3352 30.2692C37.4934 30.0532 37.663 29.846 37.8465 29.6513C37.8491 29.6486 37.8513 29.6464 37.8542 29.644C37.9427 29.5684 38.0554 29.5222 38.1689 29.5689C38.3028 29.6239 38.3687 29.7816 38.38 29.9184C38.3864 29.9954 38.377 30.0768 38.3463 30.148C38.3098 30.2401 38.2575 30.3296 38.2057 30.4136C38.1752 30.463 38.0445 30.6586 38.0047 30.7481ZM44.2773 25.671C44.1889 25.2597 44.1118 24.9112 44.0508 24.6536C44.163 24.4458 44.3104 24.2919 44.3873 24.0302C44.5039 23.6103 44.4836 23.1949 44.3291 22.8176C44.2057 22.8297 44.1028 22.8174 44.024 22.7712C43.9392 22.7214 43.8852 22.6368 43.8671 22.5068C43.7662 22.5071 43.6725 22.4879 43.5867 22.4474C43.4951 22.4039 43.4133 22.3365 43.3423 22.2427C43.2334 22.2623 43.1259 22.2748 43.023 22.2663C42.9121 22.2571 42.808 22.2237 42.7157 22.1497C42.6276 22.1594 42.5396 22.163 42.4522 22.1536C42.372 22.145 42.2924 22.1256 42.2138 22.0904C42.234 22.2436 42.3876 22.4178 42.6089 22.534C43.2074 22.815 43.5195 23.3941 43.1268 24.1525C43.2602 23.8288 43.2672 23.3774 43.0788 23.0789C42.944 22.8839 42.7632 22.7443 42.5564 22.6358C42.2609 22.5241 42.0688 22.2409 42.1023 22.0077C42.1104 21.8659 42.4128 21.5077 42.523 21.2285C42.6359 20.9701 42.4456 20.4994 42.1266 20.772C41.8568 21.0582 41.6139 21.3669 41.39 21.6918C41.0889 21.9515 41.0642 22.2657 41.1791 22.6073C41.1824 22.6185 41.1858 22.6295 41.1892 22.6407C41.4032 23.3382 41.744 23.9714 42.1401 24.5763C42.2404 24.6814 42.5226 24.811 42.8035 24.8674C42.5416 24.8762 42.2865 24.7944 42.1471 24.7176L42.1799 25.3178C42.4962 25.3584 42.9689 25.4185 43.272 25.5544C43.3758 25.5106 43.4825 25.4949 43.606 25.495C43.6185 25.495 43.6292 25.4958 43.6417 25.4979C43.8288 25.5281 44.0623 25.589 44.2773 25.671ZM44.3288 23.6132C44.1333 23.4547 43.7772 23.3197 43.3695 23.5742C43.689 23.4609 44.0758 23.4853 44.3288 23.6132ZM42.2292 21.9735C42.3062 22.0128 42.3846 22.0335 42.4638 22.042C42.5386 22.05 42.6143 22.0475 42.6906 22.0397C42.9114 21.7307 42.8267 20.9512 42.71 20.6636C42.8931 21.0582 43.0514 21.5679 42.7935 22.0685C42.8649 22.1227 42.9456 22.1475 43.0319 22.1546C43.1235 22.1622 43.2229 22.1504 43.3248 22.1319C43.555 21.8214 43.5795 21.2007 43.5329 20.9348C43.6736 21.3623 43.6428 21.7875 43.4253 22.168C43.4862 22.2504 43.5559 22.3089 43.6335 22.3457C43.7126 22.3831 43.8007 22.3985 43.8969 22.394C44.131 22.0925 44.17 21.73 44.156 21.3544C44.2629 21.8104 44.2746 22.0196 43.9744 22.4687C43.9848 22.5744 44.0212 22.6398 44.0797 22.6742C44.1401 22.7097 44.2269 22.7169 44.3349 22.7043C44.5827 22.6218 44.6008 22.4322 44.6084 22.1739C44.6081 21.9883 44.6077 21.8359 44.6074 21.6503C44.5988 21.4819 44.3557 21.2383 44.1752 21.2407C44.1693 21.1694 44.1577 21.1157 44.1518 21.0443C44.0996 20.8979 43.8548 20.804 43.7063 20.763C43.6549 20.7526 43.5966 20.7689 43.5355 20.8141C43.5209 20.753 43.5088 20.6977 43.4519 20.6487C43.3231 20.5614 43.0715 20.477 42.8834 20.4465C42.7953 20.4465 42.7405 20.4622 42.683 20.4999C42.5412 20.4075 42.2059 20.3658 41.978 20.3349C41.8708 20.3222 41.793 20.3931 41.7316 20.5106C41.6088 20.8117 41.5165 21.1129 41.4475 21.4142C41.6321 21.162 41.8302 20.9201 42.0444 20.6928C42.0474 20.6896 42.05 20.6871 42.0533 20.6843C42.1567 20.596 42.2881 20.542 42.4208 20.5966C42.577 20.6609 42.6539 20.845 42.6672 21.0046C42.6746 21.0946 42.6636 21.1895 42.6278 21.2727C42.5851 21.3802 42.5242 21.4846 42.4637 21.5827C42.4282 21.6406 42.2756 21.8689 42.2292 21.9735ZM35.5762 31.0358C35.4125 30.2637 35.2709 29.6162 35.1652 29.169C35.3173 28.8872 35.5173 28.6784 35.6215 28.3236C35.7797 27.7542 35.7521 27.1908 35.5426 26.679C35.3753 26.6955 35.2358 26.6788 35.1289 26.6162C35.0139 26.5488 34.9408 26.4338 34.9162 26.2576C34.7793 26.258 34.6522 26.232 34.5359 26.1769C34.4116 26.1181 34.3007 26.0267 34.2044 25.8994C34.0567 25.926 33.911 25.943 33.7715 25.9314C33.621 25.9189 33.4799 25.8737 33.3548 25.7732C33.2351 25.7864 33.1158 25.7913 32.9974 25.7786C32.8886 25.7669 32.7806 25.7406 32.674 25.6928C32.7014 25.9007 32.9098 26.1369 33.2098 26.2945C34.0214 26.6755 34.4448 27.4609 33.9122 28.4893C34.0931 28.0504 34.1025 27.4383 33.8472 27.0333C33.6644 26.769 33.4191 26.5796 33.1387 26.4325C32.7379 26.281 32.4775 25.8969 32.5229 25.5806C32.5339 25.3882 32.9439 24.9024 33.0934 24.5239C33.2466 24.1734 32.9885 23.5351 32.5558 23.9049C32.19 24.2929 31.8606 24.7116 31.557 25.1522C31.1488 25.5044 31.1152 25.9304 31.271 26.3938C31.2755 26.4088 31.2801 26.424 31.2847 26.439C31.575 27.385 32.0371 28.2438 32.5743 29.0641C32.7103 29.2065 33.093 29.3823 33.4739 29.4588C33.1187 29.4708 32.7727 29.3598 32.5836 29.2557L32.6 29.5536C32.6929 29.522 32.7896 29.5099 32.8985 29.51C32.913 29.51 32.9253 29.511 32.9396 29.5134C33.2623 29.5656 33.7186 29.7073 33.9904 29.8914C33.9991 29.8972 34.0061 29.9027 34.014 29.9095C34.0627 29.9513 34.0998 29.9939 34.1293 30.0391C34.1912 30.0288 34.2551 30.0289 34.3198 30.0421C34.326 30.0433 34.3312 30.0446 34.3373 30.0462C34.669 30.1377 35.1307 30.3284 35.2561 30.6796C35.2643 30.7025 35.2687 30.723 35.2707 30.7473C35.2743 30.7902 35.2796 30.8327 35.2853 30.8753C35.3851 30.9109 35.4843 30.9664 35.5762 31.0358ZM35.5422 27.7579C35.2771 27.543 34.7942 27.36 34.2412 27.7051C34.6745 27.5514 35.199 27.5846 35.5422 27.7579ZM32.6948 25.5343C32.7992 25.5877 32.9055 25.6157 33.0131 25.6273C33.1144 25.6381 33.2172 25.6347 33.3206 25.6241C33.62 25.2052 33.5052 24.1481 33.347 23.7579C33.5953 24.293 33.81 24.9842 33.4601 25.6631C33.557 25.7365 33.6664 25.7703 33.7835 25.78C33.9078 25.7903 34.0426 25.7741 34.1808 25.749C34.493 25.3281 34.5262 24.4863 34.463 24.1256C34.6538 24.7054 34.6121 25.282 34.3171 25.7981C34.3997 25.9098 34.4942 25.9891 34.5995 26.039C34.7066 26.0897 34.8262 26.1106 34.9567 26.1046C35.2741 25.6958 35.327 25.2042 35.3081 24.6948C35.453 25.3131 35.4689 25.5969 35.0618 26.206C35.0758 26.3494 35.1252 26.4381 35.2046 26.4847C35.2865 26.5327 35.4041 26.5426 35.5506 26.5255C35.8866 26.4137 35.9111 26.1565 35.9215 25.8062C35.9209 25.5544 35.9205 25.3479 35.92 25.0962C35.9083 24.8679 35.5786 24.5375 35.334 24.5407C35.3261 24.444 35.3102 24.3711 35.3022 24.2744C35.2314 24.0759 34.8995 23.9485 34.698 23.893C34.6285 23.8789 34.5492 23.901 34.4664 23.9622C34.4466 23.8794 34.4302 23.8044 34.3529 23.738C34.1783 23.6196 33.8371 23.5051 33.5819 23.4639C33.4624 23.4638 33.3881 23.4851 33.3101 23.5362C33.1179 23.4109 32.6632 23.3544 32.354 23.3125C32.2087 23.2953 32.1032 23.3914 32.02 23.5508C31.8534 23.9591 31.7283 24.3676 31.6346 24.7762C31.885 24.4342 32.1536 24.1061 32.4442 23.7978C32.4482 23.7936 32.4518 23.7901 32.4563 23.7863C32.5964 23.6666 32.7748 23.5934 32.9546 23.6674C33.1665 23.7546 33.2708 24.0042 33.2888 24.2206C33.2989 24.3426 33.2841 24.4713 33.2354 24.5842C33.1776 24.73 33.0948 24.8716 33.0129 25.0046C32.9646 25.083 32.7578 25.3926 32.6948 25.5343Z" fill="#D2393E"/>
<path d="M64.98 33.216C64.356 33.176 63.752 33.052 63.168 32.844C62.592 32.628 62.08 32.336 61.632 31.968C61.184 31.6 60.84 31.16 60.6 30.648L63.072 29.592C63.168 29.752 63.324 29.924 63.54 30.108C63.756 30.284 64.012 30.432 64.308 30.552C64.612 30.672 64.944 30.732 65.304 30.732C65.608 30.732 65.896 30.692 66.168 30.612C66.448 30.524 66.672 30.392 66.84 30.216C67.016 30.04 67.104 29.812 67.104 29.532C67.104 29.236 67 29.008 66.792 28.848C66.592 28.68 66.336 28.556 66.024 28.476C65.72 28.388 65.424 28.308 65.136 28.236C64.376 28.084 63.668 27.848 63.012 27.528C62.364 27.208 61.84 26.796 61.44 26.292C61.048 25.78 60.852 25.164 60.852 24.444C60.852 23.652 61.06 22.968 61.476 22.392C61.9 21.816 62.448 21.372 63.12 21.06C63.8 20.748 64.532 20.592 65.316 20.592C66.268 20.592 67.14 20.792 67.932 21.192C68.732 21.584 69.364 22.14 69.828 22.86L67.512 24.228C67.4 24.036 67.244 23.86 67.044 23.7C66.844 23.532 66.616 23.396 66.36 23.292C66.104 23.18 65.836 23.116 65.556 23.1C65.196 23.084 64.868 23.116 64.572 23.196C64.276 23.276 64.036 23.412 63.852 23.604C63.676 23.796 63.588 24.052 63.588 24.372C63.588 24.676 63.708 24.904 63.948 25.056C64.188 25.2 64.476 25.312 64.812 25.392C65.156 25.472 65.484 25.56 65.796 25.656C66.5 25.888 67.16 26.172 67.776 26.508C68.4 26.844 68.9 27.256 69.276 27.744C69.652 28.232 69.832 28.816 69.816 29.496C69.816 30.272 69.584 30.952 69.12 31.536C68.656 32.112 68.056 32.552 67.32 32.856C66.592 33.16 65.812 33.28 64.98 33.216ZM78.3017 23.928H75.9737V33H73.0457V23.928H71.2697V21H73.0457V17.232H75.9737V21H78.3017V23.928ZM89.238 21H92.166V33H89.238L89.106 31.512C88.778 32.048 88.342 32.484 87.798 32.82C87.262 33.148 86.626 33.312 85.89 33.312C85.002 33.312 84.17 33.144 83.394 32.808C82.618 32.472 81.934 32.008 81.342 31.416C80.758 30.824 80.298 30.14 79.962 29.364C79.634 28.588 79.47 27.756 79.47 26.868C79.47 26.012 79.626 25.208 79.938 24.456C80.258 23.704 80.702 23.044 81.27 22.476C81.838 21.908 82.494 21.464 83.238 21.144C83.982 20.824 84.782 20.664 85.638 20.664C86.43 20.664 87.138 20.84 87.762 21.192C88.394 21.544 88.93 21.992 89.37 22.536L89.238 21ZM85.818 30.492C86.442 30.492 86.994 30.336 87.474 30.024C87.954 29.712 88.33 29.292 88.602 28.764C88.874 28.228 89.01 27.64 89.01 27C89.01 26.352 88.874 25.764 88.602 25.236C88.33 24.7 87.95 24.276 87.462 23.964C86.982 23.652 86.434 23.496 85.818 23.496C85.202 23.496 84.638 23.656 84.126 23.976C83.622 24.288 83.218 24.708 82.914 25.236C82.618 25.764 82.47 26.352 82.47 27C82.47 27.648 82.622 28.236 82.926 28.764C83.23 29.292 83.634 29.712 84.138 30.024C84.65 30.336 85.21 30.492 85.818 30.492ZM100.989 23.928H98.6612V33H95.7332V23.928H93.9572V21H95.7332V17.232H98.6612V21H100.989V23.928ZM108.158 33.312C107.054 33.312 106.046 33.028 105.134 32.46C104.23 31.892 103.506 31.128 102.962 30.168C102.426 29.208 102.158 28.148 102.158 26.988C102.158 26.116 102.314 25.3 102.626 24.54C102.938 23.772 103.366 23.1 103.91 22.524C104.462 21.94 105.102 21.484 105.83 21.156C106.558 20.828 107.334 20.664 108.158 20.664C109.094 20.664 109.95 20.864 110.726 21.264C111.51 21.656 112.174 22.196 112.718 22.884C113.262 23.572 113.658 24.356 113.906 25.236C114.154 26.116 114.21 27.036 114.074 27.996H105.302C105.414 28.444 105.598 28.848 105.854 29.208C106.11 29.56 106.434 29.844 106.826 30.06C107.218 30.268 107.662 30.376 108.158 30.384C108.67 30.392 109.134 30.272 109.55 30.024C109.974 29.768 110.326 29.424 110.606 28.992L113.594 29.688C113.106 30.752 112.378 31.624 111.41 32.304C110.442 32.976 109.358 33.312 108.158 33.312ZM105.206 25.8H111.11C111.022 25.32 110.834 24.888 110.546 24.504C110.266 24.112 109.918 23.8 109.502 23.568C109.086 23.336 108.638 23.22 108.158 23.22C107.678 23.22 107.234 23.336 106.826 23.568C106.418 23.792 106.07 24.1 105.782 24.492C105.502 24.876 105.31 25.312 105.206 25.8ZM123.513 29.388L126.153 30.816C125.601 31.568 124.909 32.172 124.077 32.628C123.245 33.084 122.337 33.312 121.353 33.312C120.249 33.312 119.241 33.028 118.329 32.46C117.425 31.892 116.701 31.132 116.157 30.18C115.621 29.22 115.353 28.16 115.353 27C115.353 26.12 115.509 25.3 115.821 24.54C116.133 23.772 116.561 23.1 117.105 22.524C117.657 21.94 118.297 21.484 119.025 21.156C119.753 20.828 120.529 20.664 121.353 20.664C122.337 20.664 123.245 20.892 124.077 21.348C124.909 21.804 125.601 22.416 126.153 23.184L123.513 24.6C123.233 24.28 122.901 24.032 122.517 23.856C122.141 23.68 121.753 23.592 121.353 23.592C120.777 23.592 120.257 23.752 119.793 24.072C119.329 24.384 118.961 24.8 118.689 25.32C118.417 25.832 118.281 26.392 118.281 27C118.281 27.6 118.417 28.16 118.689 28.68C118.961 29.192 119.329 29.604 119.793 29.916C120.257 30.228 120.777 30.384 121.353 30.384C121.769 30.384 122.165 30.296 122.541 30.12C122.917 29.936 123.241 29.692 123.513 29.388ZM128.319 33L128.307 21H131.235L131.247 22.068C131.655 21.636 132.143 21.296 132.711 21.048C133.279 20.792 133.891 20.664 134.547 20.664C134.987 20.664 135.427 20.728 135.867 20.856L134.715 23.808C134.411 23.688 134.107 23.628 133.803 23.628C133.331 23.628 132.899 23.744 132.507 23.976C132.123 24.2 131.815 24.508 131.583 24.9C131.359 25.284 131.247 25.712 131.247 26.184V33H128.319ZM145.699 21H148.627V33H145.699L145.567 31.512C145.239 32.048 144.803 32.484 144.259 32.82C143.723 33.148 143.087 33.312 142.351 33.312C141.463 33.312 140.631 33.144 139.855 32.808C139.079 32.472 138.395 32.008 137.803 31.416C137.219 30.824 136.759 30.14 136.423 29.364C136.095 28.588 135.931 27.756 135.931 26.868C135.931 26.012 136.087 25.208 136.399 24.456C136.719 23.704 137.163 23.044 137.731 22.476C138.299 21.908 138.955 21.464 139.699 21.144C140.443 20.824 141.243 20.664 142.099 20.664C142.891 20.664 143.599 20.84 144.223 21.192C144.855 21.544 145.391 21.992 145.831 22.536L145.699 21ZM142.279 30.492C142.903 30.492 143.455 30.336 143.935 30.024C144.415 29.712 144.791 29.292 145.063 28.764C145.335 28.228 145.471 27.64 145.471 27C145.471 26.352 145.335 25.764 145.063 25.236C144.791 24.7 144.411 24.276 143.923 23.964C143.443 23.652 142.895 23.496 142.279 23.496C141.663 23.496 141.099 23.656 140.587 23.976C140.083 24.288 139.679 24.708 139.375 25.236C139.079 25.764 138.931 26.352 138.931 27C138.931 27.648 139.083 28.236 139.387 28.764C139.691 29.292 140.095 29.712 140.599 30.024C141.111 30.336 141.671 30.492 142.279 30.492ZM154.414 18.48V21H157.69V23.928H154.414V33H151.486V23.928H150.178V21H151.486V18.48C151.486 17.792 151.654 17.164 151.99 16.596C152.334 16.02 152.794 15.564 153.37 15.228C153.946 14.884 154.582 14.712 155.278 14.712C155.782 14.712 156.282 14.816 156.778 15.024C157.274 15.232 157.714 15.552 158.098 15.984L155.986 18.048C155.914 17.912 155.81 17.812 155.674 17.748C155.546 17.676 155.414 17.64 155.278 17.64C155.046 17.64 154.842 17.724 154.666 17.892C154.498 18.052 154.414 18.248 154.414 18.48ZM166.497 23.928H164.169V33H161.241V23.928H159.465V21H161.241V17.232H164.169V21H166.497V23.928Z" fill="#032642"/>
</svg>
